<svg xmlns="http://www.w3.org/2000/svg" viewBox="0 0 357.39 188.96"><defs><style>.cls-1{fill:#808285;}</style></defs><g id="Layer_2" data-name="Layer 2"><g id="Layer_1-2" data-name="Layer 1"><g id="Layer_2-2" data-name="Layer 2"><g id="Layer_1-2-2" data-name="Layer 1-2"><path class="cls-1" d="M39.5,189l62.13-44.26,188.16-20.84L102,126.63,65.9,152.84l13.89-41.28L45.65,86.94H86.94l14.29-40.49q6.15,19.65,12.31,39.3L357.39,71.86l-232.74-.39L100.44,0,76.62,71.44,0,71.06l61.93,46.05Z"/><path class="cls-1" d="M98.6,71.56l7.59,19.94h22.47l-17,13.7,6.7,20.1-18-10.28L81,128.87l6.84-21.44-19-15.16,22.77-.62Z"/><path class="cls-1" d="M127,122l1.88-3.56,11.66-24,1.24-2.69c.36-.79.86-1.92,1.5-3.4,2.84-.07,4.92-.13,6.22-.18,2.28-.08,4.38-.17,6.32-.28l3.9,10,7.9,19.16,1.54,3.48c-2.8.07-4.5.11-5.1.14-1.35,0-3.35.13-6,.26q-1.22-4-3.42-9.28l-12.18.44q-2,4.36-4,9.56c-3,.08-4.85.13-5.52.16Q131.1,121.84,127,122Zm18.15-17.12,7.52-.28-3.42-9.29c-1,2.41-1.81,4.38-2.49,5.93Z"/><path class="cls-1" d="M167.36,120.57l1.89-3.57,11.66-24,1.23-2.69c.36-.79.86-1.92,1.51-3.4q4.26-.11,6.22-.18c2.27-.08,4.38-.17,6.31-.28l3.91,10,7.9,19.16,1.53,3.48-5.09.14c-1.36,0-3.35.14-6,.27q-1.2-4-3.41-9.29l-12.19.45q-1.93,4.33-4,9.55l-5.53.15Q171.46,120.37,167.36,120.57Zm18.15-17.13,7.52-.27q-3.1-8.43-3.41-9.29-1.47,3.62-2.5,5.92Z"/><path class="cls-1" d="M211.51,119l.42-4.91.87-17,.33-11.22c3-.07,5.33-.14,7-.2l6.46-.28c.26,1.38.47,2.43.64,3.14s.58,2.1,1.23,4.18,1.17,3.86,1.58,5.37,1,4.1,1.84,7.77c.62-2.55,1.18-4.76,1.7-6.6s1.17-4,2-6.3,1.28-3.9,1.49-4.63.49-1.84.84-3.34c2.42-.06,4.8-.13,7.12-.21l6.59-.29q-.17,8.18-.1,14,.11,11.49.26,15.8c0,.6.08,1.68.17,3.24l-4.48.12c-1.25,0-2.77.11-4.58.21.08-1.45.12-4.92.12-10.39s0-9-.09-10.48q0-1-.15-2.76l-2.82,10-4.06,13.92c-2.1,0-3.54.08-4.33.11-1,0-2.54.11-4.6.22l-3.47-13.22-2-7c-.08-.27-.16-.61-.26-1S221,96,220.76,95l-.36,6.74-.31,13.78,0,3.11-4.26.11C215,118.79,213.57,118.85,211.51,119Z"/><path class="cls-1" d="M257.42,116.78c-.33-3.44-.68-6.18-1-8.24a25.57,25.57,0,0,0,4.91,1.51,17.36,17.36,0,0,0,3.74.34,7.63,7.63,0,0,0,3.33-.74,2,2,0,0,0,1.19-1.88,2.51,2.51,0,0,0-.15-.77,3,3,0,0,0-.5-.84,6.24,6.24,0,0,0-1-1l-4.71-3.81c-1.1-.86-1.87-1.49-2.3-1.87a14.21,14.21,0,0,1-2.09-2.23,7.81,7.81,0,0,1-1.12-2.14,8,8,0,0,1-.41-2.33,8.26,8.26,0,0,1,.41-2.92,8.81,8.81,0,0,1,1.47-2.71,9,9,0,0,1,2.68-2.23,12.44,12.44,0,0,1,3.63-1.36,23.82,23.82,0,0,1,4-.47,46.21,46.21,0,0,1,8.94.62c.09,1.11.18,2.13.28,3s.31,2.55.64,4.86a22.78,22.78,0,0,0-4.12-1.1,17.85,17.85,0,0,0-3.18-.23,6.24,6.24,0,0,0-3.11.81,2,2,0,0,0-1.18,1.79,2.47,2.47,0,0,0,.23,1,4.18,4.18,0,0,0,.77,1,13.83,13.83,0,0,0,1.45,1.31c.6.47,1.54,1.17,2.82,2.09l1.79,1.32c.53.4,1.11.89,1.73,1.46a15.3,15.3,0,0,1,1.61,1.71,9.36,9.36,0,0,1,1.07,1.56,6.68,6.68,0,0,1,.58,1.44,7.09,7.09,0,0,1,.23,1.58,8.89,8.89,0,0,1-3.73,7.54,12.51,12.51,0,0,1-4.13,1.94,22.41,22.41,0,0,1-4.82.68A54.9,54.9,0,0,1,257.42,116.78Z"/></g></g></g></g></svg>