<svg xmlns="http://www.w3.org/2000/svg" viewBox="0 0 268.94 217.99"><defs><style>.cls-1{fill:#808285;}</style></defs><g id="Layer_2" data-name="Layer 2"><g id="Layer_1-2" data-name="Layer 1"><g id="Layer_2-2" data-name="Layer 2"><g id="Layer_1-2-2" data-name="Layer 1-2"><path class="cls-1" d="M65.17,183.89c2.27,1.69,4.94,2.21,7.67,2.51,1.23.14,2.1.7,1.93,2a2.08,2.08,0,0,1-2.32,1.94c-7.65,0-15.29,0-22.93,0q-22.85,0-45.68,0c-1.59,0-3.72.4-3.84-2-.1-2.21,2.11-2.15,3.41-2.17C12,186,16.87,180.5,21,174c5.39-8.56,8.94-18,13.29-27.06,2.84-5.9,5.51-11.9,8.31-17.82,5.28-11.18,10.68-22.32,15.88-33.55C62,87.86,65.68,80.25,69.32,72.61,73.51,63.83,77.63,55,81.84,46.28,85.75,38.13,89.77,30,93.71,21.9c3.05-6.32,6.05-12.65,9.07-19,1.34-2.79,3.36-3.63,5.65-2.3-.43.77.06,1.42.33,2.07,4,9.23,8,18.48,12.18,27.67,1.08,2.39,1.54,4.57,0,6.91a18.77,18.77,0,0,0-1.48,3c-5.55,12.62-11.52,25-17.23,37.58Q96.4,90.6,90.3,103.21C86.56,111,83,118.82,79.41,126.63c-.27.57-.84,1.15-.37,1.84s1.27.55,2,.35a7,7,0,0,0,3.1.55c21,0,42.09.07,63.13-.12,4.7-.05,9.4.31,14.1.11a3,3,0,0,1,2.46.47c-.45.62-1.05,1.19-.78,2.06-1.45,1.54-3.43.87-5,.85-3.71,0-7.43-.1-11.15-.1-13.22,0-26.45,0-39.68,0-8.38,0-16.72,0-25.09-.1-1.13,0-2.08.63-3.19.45.06-1.24-.7-.94-1.25-.56a6.33,6.33,0,0,0-2.2,2.53c-1.59,3.43-3.19,6.85-4.75,10.29-2.1,4.64-4.34,9.22-6.46,13.86-2.66,5.78-5.11,11.66-4.59,18.3a9.19,9.19,0,0,0,4.82,7.91c.66.36,1.45,1,2.26.2Zm7.91,2.88c-.67.3-1.73.37-1.64,1.36a1.84,1.84,0,0,0,1.82,1.77c1,0,1.2-1,1.22-1.73S74,186.86,73.08,186.77Z"/><path class="cls-1" d="M152.55,217.3a7.31,7.31,0,0,1-3.66.63l-28.31,0H120c-2.32-.09-2.74-.77-1.49-2.75,2.53-4,5.18-8,7.76-12l15.16-23.48c4.67-7.23,9.39-14.43,14-21.67,3.59-5.62,7.11-11.32,10.71-16.95,4.37-6.85,8.8-13.65,13.16-20.49,5.46-8.51,10.74-17.14,16.36-25.54,4.31-6.41,8.41-13,12.6-19.43,4.67-7.23,9.39-14.42,13.91-21.74,1.37-2.21,3.22-2.73,5.48-2.7,8,.12,16-.26,23.91.14.44,0,1-.12,1.23.43a5,5,0,0,1-.52,1.68c-2.58,3.24-4.39,6.93-6.54,10.43q-11.3,18.5-22.6,37c-8.45,13.87-16.82,27.79-25.27,41.65-8,13.17-16.15,26.29-24.22,39.44-2.94,4.79-5.85,9.58-8.8,14.37s-6.22,9.81-9.11,14.83C154.61,213.18,152.81,214.86,152.55,217.3Z"/><path class="cls-1" d="M237.15,217.47c-.45.71-1.2.49-1.81.49q-28.49,0-57,0c-.67,0-1.33,0-2,0s-1.66.08-1.84-1.06.7-1.35,1.34-1.74a5.6,5.6,0,0,1,3.3-.51c6.63.3,13.13-1,19.43-2.57A56.43,56.43,0,0,0,222.15,200c6.38-5.57,10.5-12.53,13.79-20.11a69.87,69.87,0,0,0,2.2-6.79c1-3,1.34-3.24,4.62-2.49.08,1.62-.59,3.11-.77,4.69-.6,5.11-1.09,10.24-1.88,15.32-1.1,7-1.62,14.16-2.76,21.2C237.07,213.63,236.38,215.57,237.15,217.47Z"/><path class="cls-1" d="M151.79,86c-1.25,1.18-2.77.7-4.1.4-1.06-.25-1-1.5-.9-2.4.42-4.55.92-9.09,1.36-13.64.52-5.34,1.07-10.68,1.48-16,.14-1.8.65-2.9,2.63-2.92,5.11,0,10.22-.15,15.33-.16q18.53,0,37.06,0a26.7,26.7,0,0,1,3,.28c.56.08,1.53-.32,1.46.71a1.52,1.52,0,0,1-1.64,1.4c-2.11,0-4.22.35-6.32.58-3,.32-6,.26-8.94.56A63.46,63.46,0,0,0,179,57.37a42.27,42.27,0,0,0-12.7,6.26c-.17.12-.34.18-.5,0,.37-.35,1-.5.83-1.24.4,0,.8,0,1-.42.11-.26-.11-.35-.3-.36-.52,0-.65.36-.7.8-2.54.18-4.06,2.11-5.69,3.62-5.28,4.89-8.26,11.17-10.31,18C150.27,85.2,150.88,85.6,151.79,86Zm17.77-25.46-.16-.05.11.19Z"/><path class="cls-1" d="M152.55,217.3c.26-2.44,2.06-4.12,3.19-6.1,2.9-5,6.08-9.89,9.12-14.83,2.95-4.79,5.86-9.58,8.8-14.37,8.07-13.16,16.18-26.27,24.21-39.44,8.46-13.86,16.83-27.78,25.27-41.65q11.27-18.51,22.61-37c2.13-3.5,4-7.18,6.54-10.42a5.14,5.14,0,0,0,.51-1.69c1.6-.15,1.77.73,1.16,1.83a24.23,24.23,0,0,1-3.19,5,15,15,0,0,0-3,4.48c-1.4,3.65-3.75,6.65-5.63,9.94-4.07,7.14-8.43,14.12-12.68,21.15q-8.09,13.35-16.19,26.66-9.26,15.21-18.52,30.39c-5.26,8.66-10.45,17.37-15.71,26q-11.55,19-23.15,38C155.18,216.57,154.5,218.11,152.55,217.3Z"/><path class="cls-1" d="M81,128.82c-.72.2-1.48.4-2-.35s.1-1.27.37-1.84c3.62-7.81,7.16-15.67,10.9-23.42q6.07-12.61,11.9-25.34c5.71-12.54,11.68-25,17.23-37.58a18.87,18.87,0,0,1,1.5-3c1.57-2.34,1.11-4.5,0-6.91-4.15-9.18-8.14-18.44-12.18-27.67-.27-.65-.76-1.3-.33-2.07a1.72,1.72,0,0,1,2.07,1.11q5,11.34,10,22.68c1,2.3,1.95,4.64,3.09,6.87a5.57,5.57,0,0,1,0,5.3c-2.14,4.49-4.2,9-6.29,13.51l-9.93,21.43c-5.1,11-10.33,21.88-15.27,32.93-3.25,7.24-6.72,14.38-10,21.62C81.71,127,81.73,128,81,128.82Z"/><path class="cls-1" d="M236.5,25c-2.51,0-3.44-1.32-2.61-3.74.35-1,1.19-.8,2-.95,5.16-1,10.44-.67,15.61-1.47,4.92-.75,9.93-.42,14.81-1.5,2.08-.46,2.32,1.32,2.62,2.73s-.66,2-1.95,2.11c-6.46.58-12.91,1.32-19.38,1.69C243.84,24,240.22,24.86,236.5,25Z"/><path class="cls-1" d="M236.15,17.27c-1.35-.07-2-.17-1.45-2A4.13,4.13,0,0,1,238.82,12c6.48-.5,13-1,19.43-1.57,1.33-.12,2.64-.26,4-.42a3.61,3.61,0,0,1,4,2c.92,1.78.68,2.4-1.3,2.6-3,.29-6,.2-8.93.67C249.38,16.33,242.68,16,236.15,17.27Z"/><path class="cls-1" d="M65.17,183.89l1.55,1.65c-.8.76-1.6.16-2.26-.2a9.17,9.17,0,0,1-4.82-7.91c-.52-6.64,1.93-12.52,4.58-18.3,2.13-4.64,4.37-9.22,6.47-13.86,1.56-3.44,3.19-6.86,4.75-10.29a6.33,6.33,0,0,1,2.2-2.53c.55-.38,1.3-.68,1.25.56-2.5,5.46-5,10.91-7.48,16.4-2.71,6.09-6,11.94-7.9,18.38-1.38,4.79-2.55,9.68.34,14.42h0Z"/><path class="cls-1" d="M237.15,217.47c-.77-1.91-.08-3.85.21-5.67,1.14-7,1.67-14.15,2.76-21.19.8-5.09,1.28-10.21,1.89-15.33.18-1.57.85-3.06.77-4.68,1.72-.67,2.2.2,2,1.72-.44,3.82-.92,7.63-1.38,11.45l-3,24.5c-.3,2.5-.53,5-.88,7.51C239.35,217.09,238.82,218.15,237.15,217.47Z"/><path class="cls-1" d="M238.47,32.51c-1.23,0-3.29-2.44-3-3.64.17-.82.88-.65,1.44-.74,4.79-.8,9.65-.7,14.44-1.35s9.81-.56,14.66-1.38c.76-.13,1.66-.19,1.85.67a3.62,3.62,0,0,1-1.18,3.41,4.37,4.37,0,0,1-3.19.89c-6.6-.05-13.08,1.37-19.66,1.45C242,31.84,240.28,32.59,238.47,32.51Z"/><path class="cls-1" d="M263.57,34c-3.76,4.28-11.82,6.42-17,4.66a18.44,18.44,0,0,1-4.39-1.77c-.45-.3-.92-.66-.8-1.27S242,35,242.49,35c6.58-.06,13.06-1.36,19.64-1.46A1.84,1.84,0,0,1,263.57,34Z"/><path class="cls-1" d="M239.47,8.8c2.56-4.75,14.28-7.18,21-2.24C259.15,7.38,244.34,9,239.47,8.8Z"/><path class="cls-1" d="M151.79,86c-.91-.4-1.52-.8-1.14-2.06,2-6.81,5-13.08,10.32-18,1.62-1.51,3.14-3.44,5.68-3.62h0c.21.74-.46.89-.83,1.24l-1.37,1a13.86,13.86,0,0,0-2.55,2.75l-1.65,1.76-.15.18-1.2,1.74-.74,1-1.73,3.27h0l-1.27,2.34c-.34.91-.69,1.83-1,2.75s-.64,1.91-1,2.84l-.34,1.11A3.45,3.45,0,0,1,151.79,86Z"/><path class="cls-1" d="M163,131.89c-.27-.88.33-1.44.78-2.06.94-.59,2.22-.8,2.54.26.19.63-.86,1.81-2,2.06A1.29,1.29,0,0,1,163,131.89Z"/><path class="cls-1" d="M161.9,67.39a13.6,13.6,0,0,1,2.55-2.75c-.26,1.37-1.67,1.81-2.29,2.88,0,.06-.07.14-.12.15C161.66,67.75,161.82,67.55,161.9,67.39Z"/><path class="cls-1" d="M154.12,80.4c.35-.92.7-1.84,1-2.75-.29,1-.59,2-.88,3a.91.91,0,0,1-.11.16C154.15,80.69,154.14,80.54,154.12,80.4Z"/><path class="cls-1" d="M152.83,84.34l.35-1.1c.47.48-.29.8-.14,1.26,0,.08-.08.21-.13.32C152.88,84.66,152.85,84.5,152.83,84.34Z"/><path class="cls-1" d="M158.15,72l.74-1c.09.52-.26.82-.57,1.14,0,0-.11,0-.17,0Z"/><path class="cls-1" d="M160.1,69.33l.15-.18.29,0C160.42,69.32,160.38,69.69,160.1,69.33Z"/><path class="cls-1" d="M156.43,75.3h0l.14.09Z"/><path class="cls-1" d="M63.85,182.2h0l.12-.12Z"/><path class="cls-1" d="M73.08,186.77c.88.09,1.42.59,1.4,1.4s-.24,1.72-1.22,1.73a1.84,1.84,0,0,1-1.82-1.77C71.35,187.14,72.41,187.07,73.08,186.77Z"/><path class="cls-1" d="M166.65,62.35c0-.43.18-.8.7-.8.19,0,.42.09.3.36-.19.44-.59.46-1,.42Z"/><path class="cls-1" d="M169.56,60.53l-.05.14-.11-.19Z"/></g></g></g></g></svg>