<svg xmlns="http://www.w3.org/2000/svg" viewBox="0 0 283.21 185.74"><defs><style>.cls-1{fill:#808285;}</style></defs><g id="Layer_2" data-name="Layer 2"><g id="Layer_1-2" data-name="Layer 1"><g id="Layer_2-2" data-name="Layer 2"><g id="Layer_1-2-2" data-name="Layer 1-2"><path class="cls-1" d="M276.46,72c-1.06-.45-.73-1-.52-1.72a108.26,108.26,0,0,0,2.85-11.76c1.06-6.34,1.16-12.69-.76-18.88-3-9.52-10.19-14.52-19.26-17.31C253,20.54,246.91,19.7,241,18.51l-34.84-6.94c-16-3.16-32-6.23-47.92-9.47C149.41.32,140.68-.9,131.75.86,115.39,4.09,99,7.25,82.67,10.47q-25.9,5.1-51.78,10.28c-4.18.84-8.34,1.72-12.1,3.94h0a3,3,0,0,0,1.11,0c9.2-3.64,19.05-4.49,28.6-6.6,8.33-1.84,16.75-3.32,25.13-5L95.72,8.79l22.11-4.34c5.65-1.11,11.26-2.39,17-3.19a57.6,57.6,0,0,1,19.55.91c7.75,1.59,15.56,3,23.27,4.68C183,8.05,188.5,9,193.92,10.21c2.2.48,4.41.89,6.62,1.3s4.42.81,6.62,1.3c9.38,1.84,18.75,3.64,28.13,5.54,5.67,1.15,11.33,2.35,17,3.48,1.7.34,3.38.7,5,1.15l1.46.41.58.18c.67.21,1.33.44,2,.68s1.05.4,1.57.63l.78.36.59.28.94.49c.68.37,1.34.76,2,1.17A21.54,21.54,0,0,1,269,28.46l.87.69c.29.23.57.47.84.73s.43.39.64.6.28.27.41.41a4.27,4.27,0,0,1,.36.38c.12.12.23.24.34.37a19.39,19.39,0,0,1,1.72,2.2q.32.45.6.93a16.63,16.63,0,0,1,1,1.81c.11.21.21.42.3.64s.26.59.38.9.25.63.36,1v0a25.21,25.21,0,0,1,1.88,11.78,85,85,0,0,1-3.61,19.28,2.19,2.19,0,0,1-.84,1.38,1.33,1.33,0,0,1-.55.19,2.2,2.2,0,0,1-.64,0c-1.59-.13-3.82.5-4.57-.31s.48-2.89.91-4.37a79.59,79.59,0,0,0,2.94-14.15,30.25,30.25,0,0,0-1.49-12.1h0c-.28-.51-.54-1-.82-1.56s-.48-.9-.76-1.32c-.08-.13-.16-.25-.25-.37a4.57,4.57,0,0,0-.38-.49c-.09-.11-.19-.22-.29-.32l-.19-.19-.2-.18a3.08,3.08,0,0,0-.41-.3,2.2,2.2,0,0,0-.32-.21,4,4,0,0,0-.72-.36h0a.84.84,0,0,0-.21.26.33.33,0,0,0,0,.17c.06.19.3.32.44.46a8.88,8.88,0,0,1,.66.73c.26.31.52.61.75.93.12.16.24.32.34.48.33.48.63,1,.91,1.46.18.33.35.66.51,1s.25.56.36.86.21.55.31.84a15.59,15.59,0,0,1,.48,1.65,21.45,21.45,0,0,1,.52,3.53c0,.3,0,.61,0,.91a31.35,31.35,0,0,1-.1,3.86c-.51,6.11-2.36,11.93-3.91,17.82-.4,1.52-1.39,1.29-2.42,1.29h-85q-81,0-161.95.07a3.28,3.28,0,0,1-1.81-.38,1.23,1.23,0,0,1-.33-.26,2,2,0,0,1-.39-.53l-.12-.22a5.94,5.94,0,0,1-.3-.85c-.25-.91-.51-1.83-.77-2.74-.12-.46-.25-.92-.38-1.38s-.25-.92-.37-1.38c-.36-1.38-.7-2.75-1-4.13-.1-.47-.2-.93-.29-1.39-.13-.68-.26-1.35-.36-2l0-.15a.88.88,0,0,1,0-.17c-.18-1.14-.33-2.29-.41-3.46A36.64,36.64,0,0,1,11.59,49c0-.79.07-1.56.15-2.3a18.72,18.72,0,0,1,.93-4.16,17.47,17.47,0,0,1,.73-1.78h0a18.75,18.75,0,0,1,.93-1.64h0c.13-.2.26-.39.4-.58h0c.14-.19.28-.37.43-.55,0,0,0,0,0,0l.45-.54h0l.48-.52c.25-.26.51-.51.77-.76A21.77,21.77,0,0,1,24,31.9c5.5-2,11.3-2.79,17-3.92,9.54-1.92,19.06-3.86,28.6-5.75Q75.33,21.09,81.06,20l5.73-1.09c16.6-3.11,33-6.89,49.72-9.47a29.21,29.21,0,0,1,3.59-.33,44.83,44.83,0,0,1,7.6.42c.59.08,1.18.16,1.77.26,1.18.18,2.36.39,3.54.61l1.77.33.88.17q20.28,3.87,40.53,7.92c17.14,3.38,34.26,6.87,51.42,10.2,2.11.41,4.23.82,6.3,1.32l1.63.41c.62.17,1.23.34,1.84.54.35.11.7.22,1.05.35a28.85,28.85,0,0,1,6.06,2.86l.07,0a.2.2,0,0,0,.24-.07l.07-.08.06-.08-.05-.06-.61-.77-.81-.63a21,21,0,0,0-3.13-1.41c-5.55-2.39-11.58-3-17.42-4.25-8.58-1.79-17.19-3.37-25.78-5.08l-3.2-.65c-3.7-.76-7.38-1.54-11.06-2.29-4.12-.14-8.06-1.32-12.07-2.08l-9.31-1.77q-6.19-1.19-12.38-2.41-7.76-1.5-15.5-3.07A57,57,0,0,0,140,8.26c-5.52.23-10.87,1.56-16.26,2.6C110.61,13.4,97.44,16,84.28,18.63,73.64,20.74,63,22.92,52.35,25c-8.24,1.57-16.53,3-24.7,5-5.28,1.3-10.14,3.51-13.6,8.07a17.44,17.44,0,0,0-3.24,9.86c-.39,6.59,1.17,12.91,3,19.16,1.3,4.36,1.31,4.27-3.28,4.39a2.39,2.39,0,0,1-2.8-2C6,63.11,4.47,56.79,4.51,50.23c0-8,2.05-15.24,8.12-20.9a2.31,2.31,0,0,0,.32-.65A2.82,2.82,0,0,0,12,29l-.21.13a3.79,3.79,0,0,0-.4.3,15.75,15.75,0,0,0-1.47,1.69c-6.45,7.65-6.92,16.65-5.7,26A78.08,78.08,0,0,0,7.31,70.46c.26.83.36,1.33-.68,1.54C.91,73.2-.75,78.82.3,83.13c3,12.14,6.49,24.13,10.18,36.07,1.5,4.9,4.41,6.9,9.72,6.76,2.39,0,3.19.8,3.79,3,2.17,7.77,6,14.42,13.44,18.39a70.08,70.08,0,0,0,7.14,3.46c9,3.55,17.92,7.19,26.94,10.62,18.7,7.14,37.07,15.13,56.09,21.43,5.3,1.76,10.61,3.33,16.31,2.8,5.94-.57,11.47-2.6,17-4.62,25.94-9.53,51.52-20,77.23-30a45.59,45.59,0,0,0,11.94-6.61c5.1-4.05,7.51-9.7,9.2-15.68.61-2.15,1.56-2.7,3.67-2.68,5.59.06,8.44-2.09,10-7.41s3-10.78,4.54-16.13c1.7-6,3.52-11.89,5.11-17.88C284.31,78.1,282.54,74.56,276.46,72Zm-17.75,55.45c-.08.36-.17.71-.27,1.06s-.18.68-.28,1c-.21.74-.45,1.46-.71,2.17q-.24.67-.51,1.32c-.18.44-.36.86-.56,1.28a.37.37,0,0,1-.05.11c-.17.36-.34.72-.52,1.07l-.48.88c-.12.23-.25.46-.39.68l-.51.84c-.32.5-.66,1-1,1.46l-.68.88c-.4.49-.8,1-1.23,1.42s-1,1-1.53,1.54c-.18.18-.36.34-.55.5l-.74.63a24.15,24.15,0,0,1-2.37,1.75l-.84.54c-.57.36-1.15.7-1.76,1a37,37,0,0,1-5.89,2.53c-4.07,1.36-8,3.31-12.08,4.89-17.58,6.85-35.08,13.89-52.71,20.61-6.25,2.39-12.58,4.5-18.85,6.81l-.79.28-.79.26c-.53.17-1.06.33-1.59.47l-.79.21c-.79.21-1.57.37-2.36.51a37,37,0,0,1-21-2.45c-21.9-7.66-43.3-16.63-64.93-25q-6.67-2.29-13.21-5c-1.28-.53-2.55-1.07-3.82-1.62-.94-.4-1.87-.82-2.8-1.24l0,0-.92-.42-.91-.41a30,30,0,0,1-7.88-5.31,20.09,20.09,0,0,1-1.56-1.65h0a19.83,19.83,0,0,1-1.35-1.74h0c-.22-.3-.42-.61-.61-.92s-.36-.56-.52-.85a33,33,0,0,1-2-4c-.21-.51-.41-1-.6-1.54-.59-1.55-1.09-3.13-1.58-4.73,0-.1-.05-.19-.07-.28a.89.89,0,0,1,0-.36h0l0-.1a.35.35,0,0,1,.07-.12.4.4,0,0,1,.12-.1,1.29,1.29,0,0,1,.66-.12c1.52,0,3,0,4.58,0,.92,0,1.19.62,1.5,1.32s.54,1.39.81,2.09c.14.38.29.75.45,1.12s.27.63.42.93.22.44.35.66.25.42.39.63a2,2,0,0,1,.16.33c0,.13.1.26.16.38a.76.76,0,0,0,.22.3.53.53,0,0,0,.36.13l.17,0a.64.64,0,0,0,.17-.05h0l.05,0a36,36,0,0,1-3.31-7.77H251.64a27,27,0,0,1-5.49,10.64h0a3.81,3.81,0,0,0,1.84-1.12l.36-.41c.11-.14.22-.28.32-.43s.39-.6.57-.9a40.3,40.3,0,0,0,2-4.3c.29-.65.4-1.52.65-2.21a1.92,1.92,0,0,1,.29-.61.66.66,0,0,1,.12-.17.47.47,0,0,1,.14-.14.87.87,0,0,1,.25-.15l.07,0h0a3.53,3.53,0,0,1,.56-.14l.53-.08a11.63,11.63,0,0,1,2,0l.76,0,.76,0,.73,0a1.21,1.21,0,0,1,.51.11h0a.14.14,0,0,1,.07.06l.08.12a.58.58,0,0,1,0,.19A4.25,4.25,0,0,1,258.71,127.47Zm10.36-7.92a4.91,4.91,0,0,1-.58.76,5.08,5.08,0,0,1-1,.82,6.76,6.76,0,0,1-3.55,1c-12.16.33-24.32.27-36.48.27H25.67c-2.53,0-5.05,0-7.59-.22a4.83,4.83,0,0,1-4.2-2.86c-1.51-3-2.19-6.25-3.07-9.44q-2.06-7.48-4.11-15l-1.35-5q-.9-3.33-1.75-6.67a9.89,9.89,0,0,1-.36-3.31,4.73,4.73,0,0,1,.34-1.46,3,3,0,0,1,.4-.75,3.67,3.67,0,0,1,.5-.62s0,0,0,0a4.74,4.74,0,0,1,.78-.6h0a3.9,3.9,0,0,1,.35-.19,7.55,7.55,0,0,1,1.19-.44l.25-.06a9.69,9.69,0,0,1,1.16-.19,12.14,12.14,0,0,1,1.52-.08q36.72,0,73.38.08H271.62a20.11,20.11,0,0,1,4.17.25,5.67,5.67,0,0,1,1.47.51,5.3,5.3,0,0,1,.62.36,4.64,4.64,0,0,1,1,.85,4.27,4.27,0,0,1,.47.67h0a5,5,0,0,1,.38.85,4.21,4.21,0,0,1,.16.61c0,.11,0,.21.05.32a5.94,5.94,0,0,1-.07,1.82h0c-1.2,6.13-3.31,12-4.86,18-1.39,5.39-2.9,10.74-4.39,16.1a23.52,23.52,0,0,1-.91,2.42,7.44,7.44,0,0,1-.51,1.06A.7.7,0,0,1,269.07,119.55Z"/><polygon class="cls-1" points="18.76 24.69 18.76 24.7 18.72 24.7 18.76 24.69"/><path class="cls-1" d="M207.16,12.82c-.73,2.24-3.16,3.53-3.39,6.07,0,.11-.59.17-.91.26-4.12-.14-8.06-1.32-12.07-2.08q-18.61-3.51-37.19-7.24A57,57,0,0,0,140,8.26c-5.51.23-10.87,1.56-16.25,2.6C110.61,13.4,97.44,16,84.27,18.63,73.63,20.73,63,22.92,52.35,25c-8.24,1.57-16.54,3-24.7,5-5.28,1.29-10.14,3.5-13.6,8.07a17.32,17.32,0,0,0-3.24,9.86c-.4,6.58,1.16,12.91,3,19.15,1.31,4.36,1.32,4.28-3.28,4.39a2.36,2.36,0,0,1-2.79-2C6,63.11,4.47,56.78,4.5,50.23c0-8,2.05-15.24,8.12-20.91a1.9,1.9,0,0,0,.33-.65h0a3.16,3.16,0,0,1,.37-.45,6.76,6.76,0,0,1,1.36-1.07,11.71,11.71,0,0,0,1.89-1.33c.69.19,1.32.24,1.37-.74.4.17.8.26.8-.4a3,3,0,0,0,1.11,0c9.2-3.64,19-4.49,28.6-6.6,8.34-1.84,16.76-3.32,25.14-5l44.24-8.67c5.64-1.11,11.25-2.4,17-3.19a57.93,57.93,0,0,1,19.56.9c7.75,1.6,15.56,3,23.27,4.69C183,8.05,188.5,9,193.91,10.21,198.32,11.17,202.77,11.83,207.16,12.82Z"/><path class="cls-1" d="M18,25.09h0c-.05,1-.68.93-1.37.75A2,2,0,0,1,18,25.09Z"/><path class="cls-1" d="M18.76,24.69h0c0,.66-.4.56-.8.4h0C18.08,24.69,18.41,24.69,18.76,24.69Z"/><path class="cls-1" d="M11.74,46.68c-.09.73-.14,1.49-.16,2.28a34.4,34.4,0,0,0,.13,3.81A36.64,36.64,0,0,1,11.59,49C11.61,48.19,11.66,47.42,11.74,46.68ZM12.82,60c.3,1.38.64,2.76,1,4.13C13.47,62.72,13.13,61.35,12.82,60ZM35.33,71v0l.16,0h0Zm.24,0v0a.08.08,0,0,0,0,0l0,0h0ZM41,28c-5.7,1.14-11.48,1.87-17,3.92a21.16,21.16,0,0,0-7.15,4.22A21.77,21.77,0,0,1,24,31.9c5.5-2,11.3-2.79,17-3.92,9.54-1.92,19.06-3.86,28.6-5.75C60.07,24.11,50.54,26.05,41,28Zm73.5,17.09a5.92,5.92,0,0,1,.74-.89,5.21,5.21,0,0,0-.76.89c-.61.9-1.06,1.82-.25,2.91a1.46,1.46,0,0,1,.34,1.21,1.32,1.32,0,0,0-.32-1.21C113.46,46.87,113.9,46,114.51,45.05ZM118,42.21a14.58,14.58,0,0,1,1.5-.68A11.89,11.89,0,0,0,118,42.21Zm56.92,12.55a162.79,162.79,0,0,1-26.63,6h0a161.53,161.53,0,0,0,26.61-6l3.24-1Zm40.61-19.42a68.34,68.34,0,0,1-17.4-1.67c-10.44-2.3-20.93-4.46-31.24-7.33,10.31,2.88,20.8,5,31.24,7.34a68.34,68.34,0,0,0,17.4,1.67c2.61-.08,5.22-.26,7.81-.56C220.75,35.07,218.14,35.26,215.53,35.34Zm8,14.21.18.18h0Zm3,3.39c.64.84,1.24,1.71,1.81,2.6C227.82,54.65,227.22,53.78,226.57,52.94Zm-3.23-18.15c2.6-.28,5.18-.68,7.75-1.18h0C228.52,34.1,225.94,34.49,223.34,34.79Zm41.6-.47h0a1.41,1.41,0,0,0,.21.77A1.5,1.5,0,0,1,264.94,34.32Zm1.17,1.21a1.36,1.36,0,0,0,.4,0s0,0,0,0Zm.21.42c.06.19.3.32.44.46h0C266.63,36.25,266.39,36.12,266.32,36Zm2.19,2.6c.33.48.63,1,.91,1.46A14.11,14.11,0,0,0,268.51,38.55Z"/><path class="cls-1" d="M279.91,80c0-.11,0-.21-.05-.32a4.21,4.21,0,0,0-.16-.61,5,5,0,0,0-.38-.85h0a4.27,4.27,0,0,0-.47-.67,4.64,4.64,0,0,0-1-.85,5.3,5.3,0,0,0-.62-.36,5.67,5.67,0,0,0-1.47-.51,20.11,20.11,0,0,0-4.17-.25H83.16q-36.7,0-73.38-.08a12.14,12.14,0,0,0-1.52.08,9.69,9.69,0,0,0-1.16.19l-.25.06a6,6,0,0,0-1.19.44,3.9,3.9,0,0,0-.35.19h0a4.74,4.74,0,0,0-.78.6s0,0,0,0a2.9,2.9,0,0,0-.5.62,3,3,0,0,0-.4.75,4.73,4.73,0,0,0-.34,1.46,9.89,9.89,0,0,0,.36,3.31c.57,2.23,1.16,4.45,1.75,6.67l1.35,5c1.36,5,2.76,10,4.14,15,.88,3.19,1.56,6.44,3.07,9.43a4.84,4.84,0,0,0,4.2,2.87c2.52.22,5,.22,7.58.22H227.51c12.15,0,24.31.06,36.47-.27a6.87,6.87,0,0,0,3.53-.93,5.08,5.08,0,0,0,1-.82,4.91,4.91,0,0,0,.58-.76.7.7,0,0,0,.1-.16,6.8,6.8,0,0,0,.54-1.08,23.45,23.45,0,0,0,.9-2.42c1.49-5.36,3-10.71,4.39-16.1,1.55-6,3.66-11.9,4.86-18A5.55,5.55,0,0,0,279.91,80ZM35.33,109.24a3,3,0,0,1-.46,0h-1.6a3,3,0,0,1-.8.12h0a1.58,1.58,0,0,1-.38,0,1,1,0,0,1-.29-.08.5.5,0,0,1-.2-.08.88.88,0,0,1-.21-.12,1.86,1.86,0,0,1-.35-.29,3.3,3.3,0,0,1-.5-.71h0a6.35,6.35,0,0,1-.37-1c-.52-1.77-1.3-3.33-1.9-5a2,2,0,0,0-.13-.29h0a1.48,1.48,0,0,0-.27-.4,1.71,1.71,0,0,0-.25-.22,2,2,0,0,0-1.1-.28,18.47,18.47,0,0,0-4.27.15l-.39.12-.18.07a1.92,1.92,0,0,0-.63.4,2.39,2.39,0,0,0-.52.6h0a8.38,8.38,0,0,0-.6,1.1h0c-.08.17-.16.36-.24.56h0c-.07.15-.13.32-.2.49s-.07.2-.12.31-.1.26-.15.41-.24.64-.37,1c-.3.81-.58,1.63-.89,2.43a1.32,1.32,0,0,1-.36.55,2,2,0,0,1-1.86.11,1,1,0,0,1-.49-.25.6.6,0,0,1-.06-.11c-.14-.38.36-.87.48-1.2h0q4.05-10.38,8.18-20.74a2.65,2.65,0,0,0,.11-.3l.11-.3a.88.88,0,0,0,.05-.15,3.67,3.67,0,0,1,.28-.6,1.56,1.56,0,0,1,.16-.2,1,1,0,0,1,.82-.31c1,0,1.22,1.13,1.54,1.9,2.91,7,5.78,14.09,8.7,21.12a2,2,0,0,1,.13.4C35.87,108.91,35.76,109.16,35.33,109.24ZM58,108.82a.46.46,0,0,1-.21.27.58.58,0,0,1-.27.14h0a1.33,1.33,0,0,1-1.38-.62c-.66-.86-1.33-1.73-2-2.6,0,0,0,0,0,0-.67-.87-1.32-1.74-2-2.62L47.41,96.9c-1.57-2.17-3.15-4.33-4.71-6.5l-.4.22v16.14c0,.53.14,1.14-.17,1.5a.58.58,0,0,1-.14.13h0a.44.44,0,0,1-.19.1h0a1.65,1.65,0,0,1-.6.09,1.45,1.45,0,0,1-.86-.2l-.08-.07a.23.23,0,0,1-.07-.07.64.64,0,0,1-.08-.14l0-.06a.75.75,0,0,1-.05-.16,5.59,5.59,0,0,1,0-1.09c0-6.31,0-12.62,0-18.93,0-.93-.74-2.45.8-2.68l1-.16a6,6,0,0,1,.84-.08h.59l.24,0,.26.06.16.06a1.53,1.53,0,0,1,.27.11,1.28,1.28,0,0,1,.27.16,1.5,1.5,0,0,1,.3.23,2.54,2.54,0,0,1,.29.28q.14.17.27.36l.24.33q1.39,2,2.85,4c.63.89,1.27,1.78,1.92,2.66l2.28,3.13,2.91,4V86.55c0-.87,0-1.51,1.2-1.52,1.42,0,1.23.88,1.23,1.72q0,9.27,0,18.54c0,.86,0,1.73,0,2.59V108a5.48,5.48,0,0,1,0,.7A.85.85,0,0,1,58,108.82Zm24.72.36a.35.35,0,0,1-.17.09h0a2.09,2.09,0,0,1-.87-.08l-.22,0-.24,0c-.2,0-.35,0-.42,0a2.79,2.79,0,0,1-2.42-.16,2.35,2.35,0,0,1-.75-.89,4.45,4.45,0,0,1-.29-.7.42.42,0,0,0,0-.1.24.24,0,0,0,0-.08q-.12-.37-.27-.75l-.32-.75c-.15-.33-.29-.67-.43-1l-.18-.45c-.27-.71-.35-1.69-.66-2.39l-.11-.2a1.4,1.4,0,0,0-.12-.18s-.09-.11-.14-.15l-.16-.13a.56.56,0,0,0-.17-.09l-.2,0a26.94,26.94,0,0,0-6.35-.06c-.69,0-.73.87-.93,1.4-.7,1.86-1.35,3.74-2,5.61-.23.64-.4,1.27-1.28,1.28h-.49a1.91,1.91,0,0,1-.42,0l-.14,0a.44.44,0,0,1-.15,0h0a.57.57,0,0,1-.13-.08l-.08-.08-.06-.1a0,0,0,0,1,0,0,.2.2,0,0,1,0-.11.53.53,0,0,1,0-.13,2.85,2.85,0,0,1,.25-1c2.86-7,5.61-14,8.41-21,.26-.65.4-1.63,1.24-1.59a1.26,1.26,0,0,1,.28,0,.86.86,0,0,1,.24.11.91.91,0,0,1,.23.17,1.91,1.91,0,0,1,.37.46,4.52,4.52,0,0,1,.43.85Q74.91,89.38,76,92c.72,1.74,1.45,3.47,2.18,5.21q2.16,5.2,4.34,10.39.09.21.15.39a4.07,4.07,0,0,1,.14.51C82.85,108.86,82.8,109.07,82.67,109.18Zm21.87-8.39c0,.23-.07.48-.12.76s-.11.56-.18.83a.94.94,0,0,1,0,.16,5.79,5.79,0,0,1-.19.63l-.12.33a4.08,4.08,0,0,1-.22.54,2.64,2.64,0,0,1-.18.38,1,1,0,0,1-.14.28,4,4,0,0,1-.2.35,7.24,7.24,0,0,1-.8,1.16,7.7,7.7,0,0,1-.54.6,5.61,5.61,0,0,1-.51.48l-.15.12a7.33,7.33,0,0,1-1.08.77l-.34.19c-.19.11-.38.2-.57.29l-.51.21a4.82,4.82,0,0,1-.61.2l-.44.12a.12.12,0,0,1-.08,0,2.05,2.05,0,0,1-.34.07s0,0,0,0l-.44.07a.27.27,0,0,1-.13,0l-.42.05-.45,0h-.46a8.84,8.84,0,0,1-1.25-.08,12,12,0,0,1-1.28-.25c-.29-.07-.59-.16-.88-.26s-.48-.17-.72-.27-.38-.16-.57-.26l-.48-.23A11,11,0,0,1,88,106.73c-.18-.14-.34-.29-.5-.44a9.91,9.91,0,0,1-1.07-1.18,5.64,5.64,0,0,1-.46-.63c-.15-.23-.29-.47-.42-.71a6.16,6.16,0,0,1-.34-.68,6.81,6.81,0,0,1-.31-.74c-.1-.25-.19-.5-.27-.76a12,12,0,0,1-.38-1.62A15.85,15.85,0,0,1,84,98.25a14.47,14.47,0,0,1,0-2.72c0-.21.06-.42.09-.63s.08-.44.13-.65.07-.31.11-.46.06-.25.1-.37A11.92,11.92,0,0,1,85,92a.61.61,0,0,1,0-.12,2,2,0,0,1,.15-.33c.12-.25.25-.5.39-.74s.21-.36.33-.53.29-.43.45-.64l.13-.17.35-.45a6.64,6.64,0,0,1,.51-.55c.13-.14.26-.27.4-.4l.34-.32c.32-.28.65-.56,1-.82a10.33,10.33,0,0,1,12.86.84c.06,0,.11.11.16.16a2.94,2.94,0,0,1,.34.41l.08.13a.76.76,0,0,1,.11.22s0,0,0,0l0,.14a.78.78,0,0,1,0,.37c0,.06,0,.12-.07.19a.81.81,0,0,1-.11.2,3.12,3.12,0,0,1-.36.42,1.2,1.2,0,0,1-.17.16l-.16.12a.72.72,0,0,1-.35.15.31.31,0,0,1-.19,0h0l-.12,0a.41.41,0,0,1-.11-.07,1.28,1.28,0,0,1-.22-.24c-.16-.21-.29-.46-.45-.63a.58.58,0,0,0-.13-.14,4.75,4.75,0,0,0-.4-.38c-.17-.15-.35-.29-.53-.42l-.1-.07a2.59,2.59,0,0,0-.39-.25,3.07,3.07,0,0,0-.31-.17h0a.09.09,0,0,0-.06,0l-.24-.12a.06.06,0,0,0,0,0,1,1,0,0,0-.21-.09,4.75,4.75,0,0,0-1-.32l-.24,0a0,0,0,0,0,0,0l-.39-.07a5.69,5.69,0,0,0-1.09,0l-.24,0a.06.06,0,0,0-.06,0,.76.76,0,0,0-.21,0h0l-.23,0h0l-.25,0-.46.13a5.42,5.42,0,0,0-1.2.55,1.67,1.67,0,0,0-.28.18h0a1.37,1.37,0,0,0-.21.15l-.15.11,0,0h0a2.69,2.69,0,0,0-.32.27,6.09,6.09,0,0,0-1.12,1.37c-.09.14-.17.29-.25.44a3.14,3.14,0,0,0-.18.37,6.33,6.33,0,0,0-.31.8A15.81,15.81,0,0,0,89,97a14.61,14.61,0,0,0,.8,5.68,6,6,0,0,0,1.52,2.42,6,6,0,0,0,2.46,1.46,5.61,5.61,0,0,0,3.38.18,3.54,3.54,0,0,0,.39-.14l.38-.18h0a3.5,3.5,0,0,0,1-.76,3.41,3.41,0,0,0,.5-.68s0-.09.07-.14a2.39,2.39,0,0,0,.2-.43s0,0,0-.07a4.38,4.38,0,0,0,.22-.64,6.74,6.74,0,0,0,.22-1.56,22.38,22.38,0,0,0,0-2.59,2.65,2.65,0,0,1,0-.27,1,1,0,0,1,0-.25,1.12,1.12,0,0,1,0-.21,1.07,1.07,0,0,1,.16-.32s0,0,0,0a.24.24,0,0,1,.1-.1h0l.08-.06a.37.37,0,0,1,.14-.07l.11,0h0l.13,0H101a.93.93,0,0,1,.24,0l.35,0h1l.28,0a3.8,3.8,0,0,1,.5.06l.31.08a1.18,1.18,0,0,1,.52.28.12.12,0,0,1,.06.06.8.8,0,0,1,.15.21.34.34,0,0,1,.06.12.5.5,0,0,1,.05.13,1.55,1.55,0,0,1,.06.31A5.62,5.62,0,0,1,104.54,100.79ZM126.29,109a1.51,1.51,0,0,1-.89.27,8.35,8.35,0,0,1-3,0,1.47,1.47,0,0,1-.55-.33,6.92,6.92,0,0,1-1.37-2.68c-.23-.61-.48-1.23-.71-1.85s-.44-1.23-.63-1.67l-.19-.41a2,2,0,0,0-.11-.21h0a3,3,0,0,0-.36-.51,1.89,1.89,0,0,0-.2-.2,1.71,1.71,0,0,0-.64-.34,4.64,4.64,0,0,0-.51-.11,21.39,21.39,0,0,0-2.4-.08h-1.21a7.13,7.13,0,0,1-.8,0,1.54,1.54,0,0,0-1.87,1.28c-.6,1.95-1.33,3.86-2,5.78a2.18,2.18,0,0,1-.71,1.15,2,2,0,0,1-1.81.12l0,0-.24-.13a.55.55,0,0,1-.17-.17.36.36,0,0,1,0-.11.2.2,0,0,1,0-.07v0a.57.57,0,0,1,0-.13,5.16,5.16,0,0,1,.41-.89q4.13-10.53,8.34-21c.09-.23.18-.5.3-.75,0-.08.08-.16.13-.24s.1-.15.16-.22a1,1,0,0,1,.73-.36.74.74,0,0,1,.37.06.79.79,0,0,1,.4.24,3.6,3.6,0,0,1,.64,1.17q3.38,8,6.72,16.08c.74,1.78,1.49,3.57,2.24,5.35a1.48,1.48,0,0,1,.17.86A.38.38,0,0,1,126.29,109Zm20.22-.39a.27.27,0,0,1,0,.13.78.78,0,0,1-.14.2.31.31,0,0,1-.11.09.41.41,0,0,1-.11.07l-.12,0a1.07,1.07,0,0,1-.27.06,1.55,1.55,0,0,1-.31,0h-.33c-4.44,0-8.89,0-13.33,0a3.74,3.74,0,0,1-.61,0l-.21,0a1.12,1.12,0,0,1-.4-.17.24.24,0,0,1-.12-.09,1.24,1.24,0,0,1-.18-.22,1.39,1.39,0,0,1-.12-.28,2.79,2.79,0,0,1-.12-1.06c0-2.3,0-4.6,0-6.9,0-1.15,0-2.3,0-3.45h0c0-3.45.07-6.9,0-10.35a2.15,2.15,0,0,1,.21-1.15,1.91,1.91,0,0,1,.15-.21.7.7,0,0,1,.19-.16.7.7,0,0,1,.23-.11,2.4,2.4,0,0,1,1.15,0,5.31,5.31,0,0,0,1,0l.44,0h.27l.09,0,.19.05a.89.89,0,0,1,.33.21.44.44,0,0,1,.12.15,2.19,2.19,0,0,1,.26,1.26c-.1,6,0,12.08,0,18.11a2.12,2.12,0,0,0,.48,1.69.83.83,0,0,0,.27.19l.22.08.19,0,.19,0a5,5,0,0,0,.69,0c2.85-.13,5.71,0,8.56,0a4.44,4.44,0,0,1,.53,0l.25,0c.39.1.64.37.67,1a2.36,2.36,0,0,1,0,.48A.57.57,0,0,1,146.51,108.65Zm29.89-4c-.06.12-.12.24-.19.36s-.2.34-.31.51-.1.15-.16.22a3.79,3.79,0,0,1-.3.4l-.2.24,0,0c-.14.16-.28.32-.43.46a8.8,8.8,0,0,1-1.06.89c-.13.09-.26.18-.4.26a1,1,0,0,1-.22.14,4.92,4.92,0,0,1-.45.24.76.76,0,0,1-.18.09l-.35.16-.2.08a5.89,5.89,0,0,1-.59.21.07.07,0,0,1-.06,0L171,109l-.35.09c-.26.06-.52.11-.79.15a2.73,2.73,0,0,1-.4.05l-.41,0H169a11.72,11.72,0,0,1-3.53-.31,10.29,10.29,0,0,1-3.91-1.8,5.89,5.89,0,0,1-.78-.64,2.9,2.9,0,0,1-.36-.34q-.35-.34-.66-.72c-.13-.16-.26-.32-.38-.49s-.33-.45-.48-.69l-.24-.41c-.12-.21-.23-.42-.34-.63s-.21-.43-.31-.66-.24-.58-.34-.88-.19-.61-.27-.91-.1-.38-.14-.57-.08-.38-.11-.57-.08-.46-.11-.69-.07-.6-.09-.91,0-.59,0-.89a12.14,12.14,0,0,1,.32-2.83c1.69-6.76,7.08-10.37,13.48-9a10.19,10.19,0,0,1,4.55,2.7c.89.8.31,1.38-.18,2-.71.91-1.12.21-1.54-.28l-.36-.4c-.12-.13-.24-.25-.37-.37a4,4,0,0,0-.39-.34l-.37-.28q-.22-.16-.45-.3c-.13-.08-.27-.15-.41-.22a3.52,3.52,0,0,0-.4-.18,5.1,5.1,0,0,0-.55-.19l-.55-.13h0l-.38,0c-.1,0-.2,0-.3,0a5.36,5.36,0,0,0-1.26,0l-.47.08-.48.11a5.86,5.86,0,0,0-1,.35,4.86,4.86,0,0,0-.84.46l-.37.27a2.75,2.75,0,0,0-.26.22l-.08.07-.09.08a2.73,2.73,0,0,0-.23.25,5.31,5.31,0,0,0-.54.71,6.83,6.83,0,0,0-.44.8,2,2,0,0,0-.1.21,1.8,1.8,0,0,0-.08.21c-.12.3-.21.6-.3.91a9.8,9.8,0,0,0-.22,1c-.2,1.24-.31,2.5-.46,3.75a17.89,17.89,0,0,0,.94,5.89,5.23,5.23,0,0,0,.4.9,0,0,0,0,1,0,0,6,6,0,0,0,.51.8l.26.3c.06.08.14.15.21.23a4.83,4.83,0,0,0,.46.44l.13.11.13.1.58.4q.4.23.84.42l.54.19.36.09.27.06.17,0a.91.91,0,0,0,.23,0h.09a7,7,0,0,0,1.21,0h0l.54-.08a3.4,3.4,0,0,0,3.11-3.51c.06-1.26.1-2.53.06-3.79,0-1,.4-1.32,1.42-1.35a7.13,7.13,0,0,1,2.27.18l.15,0a1.71,1.71,0,0,1,.27.14l.13.1.08.08a1.15,1.15,0,0,1,.32.57,1.65,1.65,0,0,1,.06.32,7.64,7.64,0,0,1-.2,2.16h0a13.31,13.31,0,0,1-.54,1.91A6.54,6.54,0,0,1,176.4,104.61Zm22.28,4.28a1.1,1.1,0,0,1-.46.28h0c-1,.34-2.55.74-3.47-.53a7.58,7.58,0,0,1-.93-1.92c-1.14-3.12-2.52-6.16-5.74-7.75-1-.49-1.53-.64-1.84-.36a.28.28,0,0,0-.09.1,3.21,3.21,0,0,0-.23,1.56c0,1.8,0,3.6,0,5.4,0,.6,0,1.2,0,1.8a4.19,4.19,0,0,1,0,.9l-.06.22a1.59,1.59,0,0,1-.14.26l-.1.12-.11.09a1.89,1.89,0,0,1-1.27.3c-2.12,0-2.77,0-3-1l0-.18c0-.06,0-.11,0-.17s0-.25,0-.4c0-.35,0-.79,0-1.31,0-4.3,0-8.59,0-12.89v0c0-2.15,0-4.29,0-6.44a4.33,4.33,0,0,1,0-.53c0-.14,0-.27.05-.39s0-.12.05-.17a1.05,1.05,0,0,1,.56-.7,2.48,2.48,0,0,1,1.21-.16c2.39.12,4.78.08,7.18.33a10,10,0,0,1,2.35.53h0a8,8,0,0,1,1.92,1,4.86,4.86,0,0,1,.76.67,4.26,4.26,0,0,1,.48.57,5,5,0,0,1,.89,2,6.17,6.17,0,0,1,.08,2.13,5,5,0,0,1-.19.87,6.15,6.15,0,0,1-1.66,2.59,9.66,9.66,0,0,1-.75.64,9.51,9.51,0,0,1-.87.6h0a5.55,5.55,0,0,1-.48.29l-.11.06-.15.1-.16.11-.2.15h0a15.72,15.72,0,0,1,2.79,3.17s0,0,0,0c.33.48.63,1,.91,1.47.85,1.5,1.54,3.1,2.25,4.68.1.2.27.45.43.71a2.15,2.15,0,0,1,.14.26,1.81,1.81,0,0,1,.13.34A.65.65,0,0,1,198.68,108.89Zm24.52-8.2c-.11.41-.24.81-.38,1.2a12.38,12.38,0,0,1-.75,1.65c-2,3.68-5.78,5.84-10.6,5.8a7.23,7.23,0,0,1-3.22-.51,6.85,6.85,0,0,1-.88-.4c-.29-.15-.59-.32-.88-.5s-.56-.39-.83-.61-.56-.45-.82-.7a11.3,11.3,0,0,1-1.26-1.4,10,10,0,0,1-.75-1,12.75,12.75,0,0,1-.94-1.8,13,13,0,0,1-.7-2,14.47,14.47,0,0,1-.48-4.07,11,11,0,0,1,.71-3.62c.06-.16.12-.32.19-.48s.23-.51.35-.76a11.3,11.3,0,0,1,.86-1.41h0c.22-.3.44-.58.67-.86s.49-.54.75-.8l.4-.37a9,9,0,0,1,.84-.69,11.27,11.27,0,0,1,7-2.25,11.44,11.44,0,0,1,4.35,1,9,9,0,0,1,1,.51h0c.32.18.62.38.92.59h0a9.42,9.42,0,0,1,.86.67q.42.36.81.75a12.66,12.66,0,0,1,1.39,1.71c.2.3.4.62.57.94a11.33,11.33,0,0,1,.69,1.5,4.72,4.72,0,0,1,.18.53c.07.22.13.44.19.67a12.26,12.26,0,0,1,.25,1.37c0,.23,0,.47.06.7s0,.23,0,.34v.34a17.24,17.24,0,0,1-.24,2.74A10.62,10.62,0,0,1,223.2,100.69ZM247,98.26c0,.67,0,1.33,0,2a10.45,10.45,0,0,1-1,4.68s0,0,0,0a5.51,5.51,0,0,1-.38.67,2.14,2.14,0,0,1-.13.19,2.51,2.51,0,0,1-.27.37l-.18.22c-.15.18-.31.34-.47.5a7.34,7.34,0,0,1-.6.51,7.66,7.66,0,0,1-.66.45,4.67,4.67,0,0,1-.49.27.1.1,0,0,1-.08,0h0l-.26.13a.09.09,0,0,1-.06,0,2.83,2.83,0,0,1-.4.17l-.06,0-.3.12a5.58,5.58,0,0,1-.58.18l-.22.06a5.45,5.45,0,0,1-.58.14l-.34.07a14.8,14.8,0,0,1-1.82.24,11.82,11.82,0,0,1-1.45,0h-.2a9.63,9.63,0,0,1-1.35-.14l-.45-.09-.22-.05a5.79,5.79,0,0,1-.63-.18,7.29,7.29,0,0,1-1.56-.68,4.73,4.73,0,0,1-.71-.45,2.34,2.34,0,0,1-.31-.24,4.4,4.4,0,0,1-.59-.54c-.18-.19-.36-.39-.53-.6a2.43,2.43,0,0,1-.24-.32,8,8,0,0,1-.43-.69,7.36,7.36,0,0,1-.52-1.14c-.09-.27-.18-.54-.25-.82s-.08-.31-.12-.47a3.06,3.06,0,0,1-.05-.32,2.2,2.2,0,0,1-.06-.37,2.89,2.89,0,0,1,0-.29l0-.35a12,12,0,0,1,0-2.39c0-.45.08-.89.11-1.34s.06-.89.08-1.34,0-.9,0-1.35,0-1,0-1.47c0-1.14,0-2.29-.06-3.43s-.07-2.28-.11-3.42a3.69,3.69,0,0,1,.06-.86c0-.06,0-.12.05-.17a0,0,0,0,1,0,0,.43.43,0,0,1,.05-.12.27.27,0,0,1,.06-.12.71.71,0,0,1,.1-.14.32.32,0,0,1,.1-.1,1.14,1.14,0,0,1,.23-.15.94.94,0,0,1,.28-.1.63.63,0,0,1,.19,0,2.45,2.45,0,0,1,.48,0,5.37,5.37,0,0,1,.56,0c.24,0,.49,0,.72,0h.5a1.36,1.36,0,0,1,.29,0,1.68,1.68,0,0,1,.38.12.62.62,0,0,1,.21.15l.08.1a.28.28,0,0,1,.08.12,1.34,1.34,0,0,1,.12.3.58.58,0,0,1,0,.19,2.68,2.68,0,0,1,0,.72c0,.21,0,.41,0,.62s0,.48,0,.72c0,.39,0,.78,0,1.17v.55c0,.69,0,1.39,0,2.08s0,1.49,0,2.23v7a6.31,6.31,0,0,0,.89,3.55,3,3,0,0,0,.48.58,1.22,1.22,0,0,0,.17.15,2,2,0,0,0,.32.25,3.13,3.13,0,0,0,.7.38,3.29,3.29,0,0,0,.44.16l.48.13a4,4,0,0,0,.52.09,4.63,4.63,0,0,0,.55.06,12.61,12.61,0,0,0,1.37,0,9,9,0,0,0,1.19-.17l.55-.14a6.58,6.58,0,0,0,1-.41h0a5.5,5.5,0,0,0,.48-.28,1.87,1.87,0,0,0,.29-.2l.16-.12a5.3,5.3,0,0,0,.43-.38,1.34,1.34,0,0,0,.2-.21l.18-.22a5.66,5.66,0,0,0,.34-.47c.1-.16.19-.33.28-.5a2.87,2.87,0,0,0,.18-.4c.05-.14.11-.29.15-.44l.12-.45c0-.16.06-.32.08-.48.62-4.1.19-8.22.29-12.33,0-1.06,0-2.13,0-3.19a.53.53,0,0,1,0-.13,1.7,1.7,0,0,1,.06-.35.6.6,0,0,1,.19-.33.65.65,0,0,1,.31-.19l.23,0h.48l.18,0,.16,0a.61.61,0,0,1,.28.19,1.15,1.15,0,0,1,.25.82v6.18c0,1.33,0,2.65,0,4C247,96.93,247,97.59,247,98.26Zm19.87-5.62a6.78,6.78,0,0,1-.45,1.85,4.75,4.75,0,0,1-.25.56,6.74,6.74,0,0,1-.75,1.11q-.13.16-.3.33a7.16,7.16,0,0,1-4.59,2c-1.34.11-3.11-.59-4,.32a.86.86,0,0,0-.15.17,1.93,1.93,0,0,0-.28.69,4.91,4.91,0,0,0-.07.88c0,.55.07,1.14.12,1.71a1.93,1.93,0,0,1,0,.24c0,.19,0,.38,0,.57,0,.39,0,.78,0,1.17,0,.93,0,1.85,0,2.77,0,.27,0,.54,0,.82a1.64,1.64,0,0,1-.2,1,.65.65,0,0,1-.16.17,1.79,1.79,0,0,1-1.13.31c-1.63.05-2.41.08-2.77-.34a.91.91,0,0,1-.11-.16,1.15,1.15,0,0,1-.13-.37c0-.07,0-.16,0-.25s0-.22,0-.35c0-.38,0-.86,0-1.45V97.06c0-2.3,0-4.6,0-6.91,0-1.15,0-2.3,0-3.46s.36-1.81,1.69-1.71c2.52.19,5,.18,7.55.43a6.78,6.78,0,0,1,3.9,1.76,2.78,2.78,0,0,1,.42.42q.21.22.39.45a6,6,0,0,1,1.09,2.07,3,3,0,0,1,.15.57,5.45,5.45,0,0,1,.12,1.28C266.89,92.19,266.87,92.42,266.85,92.64Z"/><path class="cls-1" d="M251.64,126.18a27,27,0,0,1-5.49,10.64h0s0,0,0,0a27.08,27.08,0,0,0,5.47-10.61Zm-8,12.49h0l.19-.26A2.56,2.56,0,0,0,243.68,138.67Zm-24-3.32c-1.14-.35-1.94-1.14-2.9-1.2,1,.1,1.75.89,2.92,1.23Zm-.91,3.69c-.23.22-.18.61-.15,1a5.42,5.42,0,0,1,0,.57,2.11,2.11,0,0,1,0,.25.37.37,0,0,1,0,.11,3.41,3.41,0,0,0,.06-.93A1.38,1.38,0,0,1,218.81,139ZM212.19,136c0,.09-.09.19-.13.29.06-.14.13-.28.2-.41A.75.75,0,0,0,212.19,136Zm.26-.46a3.72,3.72,0,0,0-.19.34c.08-.14.15-.27.23-.39Zm2.33,7.74a4.82,4.82,0,0,1-3.19-4.57,5.35,5.35,0,0,1,.14-1.42l0,.15a.08.08,0,0,0,0,0c0,.17-.06.34-.08.51a4.36,4.36,0,0,0,0,.51c0,.08,0,.15,0,.22a4.82,4.82,0,0,0,3.19,4.57,3.76,3.76,0,0,0,.72.17A4.81,4.81,0,0,1,214.78,143.23Zm-.44-9.48-.26.13.3-.14Zm-4.88-.48h0Zm-.56,1.16c0-.18-.05-.4-.05-.62a1.74,1.74,0,0,0,0,.32c0,.11,0,.21,0,.3,0,1.7,0,3.39,0,5.14h0C208.88,137.82,208.85,136.13,208.9,134.43Zm-4.17,3.15c-.47-.6-.91-1.22-1.76-2.35v0c.83,1.11,1.28,1.72,1.74,2.31l.59.76C205.12,138.08,204.93,137.83,204.73,137.58Zm-2.5,3.88c0-2.25,0-4.5,0-6.75a5.21,5.21,0,0,1-.06-1h0a4.39,4.39,0,0,0,.05,1c0,2.25,0,4.5,0,6.75a2.3,2.3,0,0,0,.73,2.15v0A2.29,2.29,0,0,1,202.23,141.46Zm-2.3-7.69a.84.84,0,0,0-.06-.24,2.29,2.29,0,0,1,0,.71v4.17h0v-4.17A2.43,2.43,0,0,0,199.93,133.77Zm-1.89.47a.88.88,0,0,1,.36-.83.83.83,0,0,0-.39.83c0,2.78,0,5.56,0,8.35a1,1,0,0,0,.25.77,1,1,0,0,1-.22-.77C198.06,139.8,198,137,198,134.24Zm-2.21,5.41c0,.12,0,.24-.07.36a2.33,2.33,0,0,0,.08-.36c0-.08,0-.15,0-.22ZM183,142.17c-.47-1.2-.73-2.35-2.63-2.3s-1.69,1.25-2.19,2.2a.31.31,0,0,0-.06.13l.06-.11c.5-1,.42-2.15,2.19-2.2s2.16,1.1,2.63,2.3c.31.8.49,1.72,1.71,1.37v0C183.48,143.89,183.3,143,183,142.17Zm-6.13,1.47h0v0a1.5,1.5,0,0,0,.61-.28A1.59,1.59,0,0,1,176.86,143.64Zm-1.81-.54c0-.1-.08-.21-.13-.32l.12.32a.43.43,0,0,1,0,.36C175.12,143.39,175.12,143.28,175.05,143.1Zm-1.27-8.55a2.22,2.22,0,0,1,.29.52A1.68,1.68,0,0,0,173.78,134.55Zm0,0s0,0,0,0l.06.07A.08.08,0,0,0,173.76,134.51Zm-.8,3.62a1.13,1.13,0,0,0-.45,1.19A1.21,1.21,0,0,1,173,138.13Zm-3.41,2.69a2.73,2.73,0,0,1,0,.7,1.34,1.34,0,0,0,0,.2c0-.07,0-.13,0-.2A2.36,2.36,0,0,0,169.55,140.82Zm0,1.9c0-.07,0-.13,0-.2a1.34,1.34,0,0,0,0,.2,1.53,1.53,0,0,1,0,.31A1,1,0,0,0,169.56,142.72Zm-7.46-7.88a2.39,2.39,0,0,0-.07.75c0,.51,0,1,0,1.52,0-.5,0-1,0-1.52A2.77,2.77,0,0,1,162.1,134.84Zm-1.66,8.47a1.39,1.39,0,0,1-.21-.93c.05-2-.08-4,.09-6a4.77,4.77,0,0,0,0-.53,5.17,5.17,0,0,1,0,.54c-.17,2,0,4-.08,5.95A1.3,1.3,0,0,0,160.44,143.31ZM149.31,134h.16Zm-.07,3.67a2.24,2.24,0,0,1-.68,0l-.22,0a.78.78,0,0,1-.33-.19c.2.23.58.34,1.23.25.38-.06.94-.26,1.19.43h0C150.19,137.43,149.61,137.63,149.24,137.69Zm-.19,5.2a4.15,4.15,0,0,0,.85-.06A6.41,6.41,0,0,1,149.05,142.89Zm-1.31-1.11v0a2,2,0,0,0,.11.29C147.81,142,147.78,141.89,147.74,141.78Zm-1.86-7.44a3.08,3.08,0,0,1,0-.63,2.15,2.15,0,0,0-.06.64q0,4.07,0,8.15a1.9,1.9,0,0,0,.08.69,2.19,2.19,0,0,1-.07-.69ZM144,143.2l0,.38h0Zm-9-7.17v-1.79C135,134.81,135.05,135.42,135.05,136Zm-.55,7.52a.53.53,0,0,0,.32-.18A.71.71,0,0,1,134.5,143.55Zm-.34,0a1.67,1.67,0,0,0,.34,0Zm-.15,0a1.1,1.1,0,0,1-.45-.08,1,1,0,0,0,.46.09h0Zm-9.63-3.07V138c0-.27,0-.53,0-.8a8.16,8.16,0,0,1,.06-1.4c.07-.53-.16-1.16-.09-1.69-.11.54.13,1.17.07,1.71a8.25,8.25,0,0,0-.06,1.4c0,.27,0,.53,0,.8v2.59c.06,3.35.28,3.53,3.64,3h0v0C124.66,144.07,124.43,143.88,124.38,140.53Zm-2-2.76a6.76,6.76,0,0,1,0,1.67c0,.15,0,.3-.08.44a3.12,3.12,0,0,0,.09-.44A6.29,6.29,0,0,0,122.33,137.77Zm-.5-1.7a5,5,0,0,1,.4,1.1A4.13,4.13,0,0,0,121.83,136.07Zm-.5,5.63a4.73,4.73,0,0,0,.55-.89A5.31,5.31,0,0,1,121.33,141.7Zm-5.3.37a2.18,2.18,0,0,0,.28.25h0A3.22,3.22,0,0,1,116,142.07Zm1,.67c-.14-.06-.27-.13-.4-.2a1.7,1.7,0,0,0,.35.19l0,0a4.48,4.48,0,0,0,.64,0Zm-2.49-4.09v0c.13.38.24.78.36,1.17C114.8,139.46,114.7,139.05,114.56,138.65Zm0,0v0c0-.13,0-.27,0-.4C114.57,138.38,114.56,138.52,114.54,138.65Zm-4.12-3.88c0-.54.48-1.39-.65-1.55a1.17,1.17,0,0,0-.75.09,1.31,1.31,0,0,1,.74-.08c1.13.15.65,1,.65,1.55,0,2.37,0,4.76,0,7.15,0,.66.46,1.7-1,1.64-.51,0-.76-.18-.88-.39.1.23.35.4.89.42,1.45.07,1-1,1-1.65C110.47,139.56,110.47,137.16,110.42,134.77Zm-5,7.75h0a.48.48,0,0,0,.19-.09Zm.35-.26h0a.36.36,0,0,0,0-.11Zm-.07.1h0l.06-.09Zm-.09.08a.16.16,0,0,0,.08-.06v0A.36.36,0,0,1,105.66,142.44Zm2.9-6.19c-1.34,1.88-1.54,3.93-2.73,5.45h0l0,.13a.28.28,0,0,0,0-.09c1.2-1.52,1.38-3.58,2.72-5.46Zm-3.51,7.29a.51.51,0,0,1-.32,0,.53.53,0,0,0,.57-.17A.42.42,0,0,1,105.05,143.54Zm-4.12,0s0,0,0,0a8.45,8.45,0,0,0,.19-.84A8.15,8.15,0,0,1,100.93,143.51Zm-3.07-7.26a7,7,0,0,1,.35,1A4.94,4.94,0,0,0,97.86,136.25Zm-4.53,7.14.2,0a3.47,3.47,0,0,0,.72,0,2.74,2.74,0,0,0,.5-.08,3.92,3.92,0,0,0,.49-.13c.13,0,.25-.12.38-.17A5.06,5.06,0,0,1,93.33,143.39Zm-2.79-1,0,0h0Zm-5.19-6.79c.06,2.19,0,4.39,0,6.57,0,.59.32,1.37-.83,1.38l-.32,0a1.75,1.75,0,0,0,.35,0c1.14,0,.83-.79.83-1.38,0-2.18.08-4.38,0-6.57,0-1.17.3-1.69,1.56-1.6h0C85.68,133.94,85.35,134.45,85.35,135.63ZM81.41,134a3.34,3.34,0,0,1-.8.06h0a2.69,2.69,0,0,0,.82-.06,3.64,3.64,0,0,1,1,0A3.43,3.43,0,0,0,81.41,134Zm-4.19-.82h0l.16,0Zm-3.08,9.25h-.28a1.17,1.17,0,0,0,.27,0,3,3,0,0,0,2.1-.71A3,3,0,0,1,74.14,142.47Zm-2.37-2.65c0-1.77,0-3.57-.08-5.35,0,1.79,0,3.59.07,5.37a4.52,4.52,0,0,0,.15,1.27A5.15,5.15,0,0,1,71.77,139.82Zm-.28-6.34a.82.82,0,0,1,.16.34A.6.6,0,0,0,71.49,133.48Zm-.65-.25a1.06,1.06,0,0,0-.55.1,1.18,1.18,0,0,1,.54-.08.88.88,0,0,1,.66.23A.78.78,0,0,0,70.84,133.23Zm-4.6,8.86c-.12-.28-.22-.55-.34-.8.1.25.2.52.33.8a3.12,3.12,0,0,1,.15.43A3.09,3.09,0,0,0,66.24,142.09ZM64,133.52a69.78,69.78,0,0,0-3.82,10.06h0A70.48,70.48,0,0,1,64,133.52s0-.05,0-.06A.16.16,0,0,0,64,133.52Zm-25.43,4.1a1.13,1.13,0,0,1,.2.36h0A1,1,0,0,0,38.55,137.62Zm-.58-.07a.52.52,0,0,1,.41-.05A.48.48,0,0,0,38,137.55ZM34.8,134l0,0a36,36,0,0,1-3.31-7.77A36.42,36.42,0,0,0,34.81,134l0,0,0,0,.05.05,3.15,3.5h0Q36.38,135.78,34.8,134Z"/><path class="cls-1" d="M238.21,141.5v0h0S238.2,141.5,238.21,141.5Z"/><path class="cls-1" d="M258.88,126.67a4.25,4.25,0,0,1-.17.8c-.08.36-.17.71-.27,1.06s-.18.68-.28,1c-.21.74-.45,1.46-.71,2.17q-.24.67-.51,1.32c-.18.44-.36.86-.56,1.28a.37.37,0,0,1-.05.11c-.17.36-.34.72-.52,1.07l-.48.88c-.12.23-.25.46-.39.68l-.51.84c-.33.5-.66,1-1,1.46l-.68.88c-.4.49-.8,1-1.23,1.42s-1,1-1.53,1.54l-.55.5-.74.63c-.76.62-1.54,1.2-2.37,1.75l-.84.54c-.57.35-1.16.68-1.76,1a38.92,38.92,0,0,1-5.89,2.51c-4.07,1.36-8,3.32-12.08,4.89-17.58,6.85-35.08,13.89-52.71,20.61-6.25,2.39-12.58,4.5-18.85,6.82-.53.2-1.06.38-1.58.55s-1.06.32-1.59.47c-1.05.29-2.1.52-3.15.72a37.14,37.14,0,0,1-21-2.47c-.2-1.93-.29-2.75.24-3.31a3.26,3.26,0,0,1,1.23-.71l1-.4c1-.32,2-.59,3-.82l1-.22a6.88,6.88,0,0,1,1.35.2h0a19.77,19.77,0,0,0,2.39.65,21.53,21.53,0,0,0,8.12,0,31.51,31.51,0,0,0,4.18-1c4.73-1.49,9.46-3,14.09-4.77q28.85-11.13,57.63-22.45c.44-.17,1.09-.17,1.09-.9v0a2.3,2.3,0,0,0,.58.07l.39,0c3.42-1.21,6.8-2.54,10.15-4,1.12-.46,2.24-.95,3.35-1.44l.08,0,.1-.07a.43.43,0,0,0,.15-.47s0,0,0,0,0,0,0,0a2.25,2.25,0,0,0,.56.09.69.69,0,0,0,.25,0l.09,0a.27.27,0,0,0,.08-.07.83.83,0,0,0,.2-.35h0a8.56,8.56,0,0,0,1.57-.32,4,4,0,0,0,.93-.44,3.11,3.11,0,0,0,1.09-1.2h0a1.43,1.43,0,0,0,.41.1.38.38,0,0,0,.19,0l0,0a.5.5,0,0,0,.17-.4v0a.92.92,0,0,0,.42.13.65.65,0,0,0,.14,0,.46.46,0,0,0,.26-.15.62.62,0,0,0,.15-.2,1.69,1.69,0,0,0,.11-.27,2.56,2.56,0,0,1,.2-.26,2.86,2.86,0,0,1,.46-.46,1.92,1.92,0,0,1,.22-.18l.12-.07a2.27,2.27,0,0,1,.48-.27,1.34,1.34,0,0,1,.3-.12l.31-.1c.43.17.31-.23.41-.4a3.81,3.81,0,0,0,1.84-1.12,2.86,2.86,0,0,0,.36-.41c.11-.14.22-.28.32-.43s.4-.6.59-.91a40.14,40.14,0,0,0,2.05-4.29c.29-.64.4-1.51.63-2.21a2.65,2.65,0,0,1,.29-.61.66.66,0,0,1,.12-.17.93.93,0,0,1,.14-.14.87.87,0,0,1,.25-.15l.09,0,.56-.14.53-.08a33.26,33.26,0,0,1,4.23,0,.78.78,0,0,1,.59.19l.08.12A.58.58,0,0,1,258.88,126.67Z"/><path class="cls-1" d="M202.86,19.15c.32-.08.9-.14.91-.26.23-2.53,2.66-3.83,3.39-6.07,9.38,1.85,18.76,3.65,28.14,5.55,5.66,1.15,11.32,2.35,17,3.48A44.22,44.22,0,0,1,265.21,26c5.42,3,9.58,7.11,11.64,13.08a4.28,4.28,0,0,0-3.2.8,4.89,4.89,0,0,1-2.79.93c-1.11-2.06-1.91-4.34-4.33-5.31h0a1.26,1.26,0,0,0-1.59-1.19h0c-1.05-1.74-2.95-2.15-4.6-2.87-5.56-2.4-11.57-3-17.42-4.25-8.57-1.79-17.19-3.37-25.78-5.08C212.36,21.15,207.61,20.13,202.86,19.15Z"/><path class="cls-1" d="M133.37,176.25a39,39,0,0,0-4,1.05c-2.86,1.06-2.84,1.12-2.5,4.42-21.9-7.66-43.3-16.63-64.93-25,.32-2.89,2.68-5.42,5.12-5.48a.37.37,0,0,0,.21.06,1.41,1.41,0,0,0,1.78.63h0a3.9,3.9,0,0,0,3.19,1.23l.88.32c.21.54.65.52,1.11.45,13.06,5.13,26.12,10.26,39.1,15.53A166.83,166.83,0,0,0,133.37,176.25Z"/><path class="cls-1" d="M67.09,151.24c-2.44.06-4.78,2.58-5.12,5.47h0c-4.44-1.56-8.84-3.2-13.2-5-1.28-.53-2.55-1.07-3.82-1.62-.94-.4-1.87-.82-2.8-1.24l0,0c-.61-.27-1.22-.56-1.83-.84a29.8,29.8,0,0,1-7.88-5.32c-.55-.52-1.07-1.07-1.56-1.63,0,0,0,0,0,0q-.72-.86-1.35-1.74h0c-.22-.3-.42-.61-.61-.92s-.35-.56-.52-.85a33,33,0,0,1-2-4c-.21-.51-.41-1-.6-1.54-.59-1.55-1.09-3.13-1.58-4.73,0-.1-.05-.19-.07-.28a.89.89,0,0,1,0-.36h0l0-.1a.35.35,0,0,1,.07-.12.4.4,0,0,1,.12-.1,1.29,1.29,0,0,1,.66-.12h4.58c.92,0,1.19.62,1.5,1.32s.54,1.39.81,2.09a20.66,20.66,0,0,0,.87,2.05c.11.22.22.44.35.66s.25.42.39.63a2,2,0,0,1,.16.33c0,.13.1.26.16.38a.87.87,0,0,0,.22.3.53.53,0,0,0,.36.13l.17,0a.64.64,0,0,0,.17-.05h0l.05,0,0,0h0a.09.09,0,0,0,0,0,2.7,2.7,0,0,0,.09.59,3.62,3.62,0,0,0,.23.68,4.07,4.07,0,0,0,1.69,1.7,9.08,9.08,0,0,0,1,.48l.15.06h0a.64.64,0,0,0,.15.39c.13.16.34.18.64,0a0,0,0,0,1,0,0h0a.34.34,0,0,0,0,.14.57.57,0,0,0,0,.13.78.78,0,0,0,0,.16l0,.08a1,1,0,0,0,.38.45s0,0,0,0l.39.19.37.17c1,.56,2,1.14,3,1.7a34.89,34.89,0,0,0,5.23,2.5c2.5.89,5,1.84,7.44,2.82,2.85,1.12,5.68,2.27,8.51,3.41l.4.14a6.2,6.2,0,0,1,2.26,1A3.06,3.06,0,0,1,67.09,151.24Z"/><path class="cls-1" d="M270.87,40.8a5,5,0,0,0,2.8-.93,4.36,4.36,0,0,1,3.19-.8,25.2,25.2,0,0,1,1.88,11.81,85.52,85.52,0,0,1-3.59,19.27c-.33,1.15-.8,1.68-2,1.59-1.59-.13-3.82.5-4.57-.31s.48-2.89.91-4.37a80.51,80.51,0,0,0,3-14.15A30.51,30.51,0,0,0,270.87,40.8Z"/><path class="cls-1" d="M232.59,64.16a55,55,0,0,0-3.66-7.71c-.18-.3-.36-.61-.55-.91-.56-.89-1.16-1.76-1.81-2.6h0c-.43-.56-.89-1.11-1.37-1.64-.23-.27-.47-.53-.73-.79s-.5-.52-.77-.77h0l-.18-.17c-.75-.78-.89-1.28,0-2.36l.6-.76,1.18-1.52s0,0,0,0q.57-.76,1.14-1.56h0c.36-.52.72-1,1.08-1.6.51-.81,1-1.66,1.46-2.53.3-.57.58-1.16.85-1.76l.38-.93c.12-.31.23-.63.34-.95.22-.63.41-1.28.58-2h0c-2.57.5-5.15.89-7.75,1.19s-5.2.47-7.81.55a68.34,68.34,0,0,1-17.4-1.67c-10.44-2.3-20.93-4.46-31.24-7.33-2.89-.8-5.84-1.42-8.8-2a55,55,0,0,0-17.23-.66c-6.72.87-12.36,4-17.91,7.39l-2.18,1.32h0c-.89.54-1.79,1.09-2.69,1.62a111,111,0,0,0-10.35,7.57c-.48.38-1,.75-1.46,1.11l-.84.64c-1,.76-2,1.53-3,2.31l-3.85,3a1.88,1.88,0,0,1-.24.18,3.16,3.16,0,0,1-.74.41h0a2.76,2.76,0,0,1-.85.19h-.28q-5.59-.06-11.16.28c-3.12.2-6.22.49-9.32.88-1.2.16-2.39.32-3.57.5h0c-1.19.18-2.37.38-3.54.59A75.3,75.3,0,0,0,48.3,58.19l-.8.4c-.52.28-1,.56-1.55.85a28.88,28.88,0,0,0-6.31,4.7,21,21,0,0,0-2.27,2.75c0,.07-.1.15-.16.22l-.09.15c-.06.07-.1.15-.15.22a9,9,0,0,0-1.12,2,4.44,4.44,0,0,0-.23,1,3.85,3.85,0,0,0,0,.48l.74-.78c.25-.25.5-.51.75-.75a36.2,36.2,0,0,1,6.48-5,40,40,0,0,1,3.52-1.92h0A42.18,42.18,0,0,1,52.7,60.3c.63-.22,1.28-.41,1.93-.59,1.29-.37,2.6-.69,3.93-1q3-.62,6.13-1c11.07-1.42,21.86-.84,32.81,3.61a33.74,33.74,0,0,0-3.2-3.24h0a35,35,0,0,0-3.64-2.78h.18l2.52.14.3,0,3.69.2c1.33.08,2.64.16,3.94.28l.78.07q3.82.33,7.65.6l1.24.09q11,.72,22,.86c1.57,0,3.13,0,4.7,0,8.5,0,17-.25,25.34-2.18h0l1.35-.34h0a26.13,26.13,0,0,0,5.27-2A20.26,20.26,0,0,0,171.57,52a20.79,20.79,0,0,0,1.81-1.39c-4.86.46-9.32,1-13.8,1.3-13.56,1-27.07-.21-40.55-1.58l-.28.19v0c0-.15,0-.31,0-.46a1.63,1.63,0,0,1,.47-.77,1.1,1.1,0,0,1,.46-.28,2.25,2.25,0,0,1,.89-.15c1.06,0,2.12-.06,3.19-.09a5,5,0,0,0,2.61-.59,2.6,2.6,0,0,0,.56-.54,2.9,2.9,0,0,0,.39-.81,5.79,5.79,0,0,0-.77-5.49,2,2,0,0,0-.52-.45,2.13,2.13,0,0,0-.67-.23,10.54,10.54,0,0,0-5.3.66l-.52.19a11.89,11.89,0,0,0-1.5.68h0c-.42.23-.83.47-1.21.72a8.24,8.24,0,0,0-1.53,1.23,5.21,5.21,0,0,0-.76.89c-.61.9-1.06,1.82-.25,2.91a1.46,1.46,0,0,1,.34,1.21.85.85,0,0,1-.13.25.86.86,0,0,1-.13.14,1.1,1.1,0,0,1-.21.14,1.81,1.81,0,0,1-.86.16c-2.34-.07-4.67-.32-7.6-.53h0c3.77-3,7-5.7,10.39-8.22,1-.76,2.07-1.5,3.12-2.2.26-.18.53-.36.8-.52q2-1.29,4-2.39,1.64-.9,3.33-1.65c.56-.25,1.12-.49,1.69-.72h0c.56-.23,1.13-.44,1.71-.64a38.25,38.25,0,0,1,14.51-2.2c1.84.1,3.67.25,5.49.44q4.29.46,8.52,1.31a271.07,271.07,0,0,1,28.2,7.23c4.07,1.23,8.13,2.48,12.64,3.86h0c-1,.73-2,1.41-3,2-.56.36-1.12.7-1.69,1s-1.15.65-1.72,1l-1.16.6h0c-1,.52-2.08,1-3.13,1.46s-2.1.88-3.16,1.28c-1.59.61-3.2,1.17-4.81,1.7l-1.62.53-1.62.51-3.24,1a162.79,162.79,0,0,1-26.63,6h0a26.37,26.37,0,0,0,3,.73c6.15,1,12.17.09,18.18-1.07,8.22-1.6,16.34-3.79,24.64-4.94q2.88-.4,5.79-.62c11.75-.82,22.57,1.45,31.55,9.67a.6.6,0,0,1,.08.08,2.31,2.31,0,0,0,.33.28.64.64,0,0,0,.48.06l.2-.09A2.06,2.06,0,0,0,232.59,64.16ZM77.25,55.67A.66.66,0,0,1,77,56l-.18.1-.21.05a.86.86,0,0,1-.23,0H75.9c-2.58.09-5.16,0-7.75.31A83.72,83.72,0,0,0,50.92,60c-.43.08-.86.13-1.29.17,2.25-2.49,5.13-2.56,7.32-3.93a20.61,20.61,0,0,1,2.84-1.46l.42-.17c.29-.12.57-.22.85-.32s.57-.2.86-.29.75-.23,1.13-.33l.8-.21,1.39-.3c.33-.07.67-.14,1-.19l.7-.12c.31-.06.61-.11.92-.15,1.27-.19,2.54-.35,3.81-.51l2.17-.29a1.81,1.81,0,0,1,.52,0l.18,0,.26.07.21.07a3.84,3.84,0,0,1,1.66,1.34,4,4,0,0,1,.22.34,1.4,1.4,0,0,1,.09.17,3.33,3.33,0,0,1,.24.64,2.38,2.38,0,0,1,0,.26,2.1,2.1,0,0,1,0,.61A.85.85,0,0,1,77.25,55.67Zm144.57.77a1.32,1.32,0,0,1-.4.11l-.21,0a4.79,4.79,0,0,1-1.63-.23c-.25-.06-.51-.14-.76-.22l-.8-.23c-1.21-.34-2.41-.7-3.63-1l-.61-.12a14.73,14.73,0,0,0-2.3-.27,2.41,2.41,0,0,1-.89-.14,1,1,0,0,1-.63-.63c-.24-.75.5-.94,1-1.29.66-.5,1.32-1,2-1.48l1-.69c.34-.23.69-.44,1-.63s.77-.4,1.17-.58c.15-.07.31-.14.48-.2s.45-.17.68-.24l.59-.17.31-.07c.21,0,.43-.08.64-.11s.54-.07.82-.09a1.08,1.08,0,0,1,.3,0,1.05,1.05,0,0,1,.24.06l.07,0,.18.07a3.78,3.78,0,0,1,.66.3,7.4,7.4,0,0,1,.68.42,11.81,11.81,0,0,1,1.4,1.14l.25.26.24.26a5.83,5.83,0,0,1,.57.77l.14.25a2.53,2.53,0,0,1,.16.46,1.43,1.43,0,0,1-.4,1.45h0c-.24.22-.66.37-.74.63a3.11,3.11,0,0,1-1.43,2A.47.47,0,0,1,221.82,56.44ZM35.56,71a0,0,0,0,0,0,0V71A.08.08,0,0,0,35.56,71Z"/><path class="cls-1" d="M266.53,35.5v0h0a2,2,0,0,1-1-.09l0,0a.91.91,0,0,1-.38-.31s0,0,0,0a1.41,1.41,0,0,1-.21-.77h0a1.3,1.3,0,0,1,1.18.29A1.64,1.64,0,0,1,266.53,35.5Z"/><polygon class="cls-1" points="35.33 70.99 35.52 71.05 35.49 71.06 35.29 71.16 35.33 71.01 35.33 70.99"/><polygon class="cls-1" points="35.59 71.08 35.57 71.07 35.54 71.06 35.52 71.05 35.56 71.03 35.57 71.03 35.58 71.04 35.59 71.08"/><path class="cls-1" d="M185.88,91.23a.66.66,0,0,1,0-.14,3.22,3.22,0,0,0,0,.62c0,.15,0,.3,0,.45v-.45C185.91,91.56,185.89,91.39,185.88,91.23Zm.08,16.22c0-.59,0-1.19-.05-1.78,0,.6,0,1.2,0,1.8a4.19,4.19,0,0,1,0,.9A3.75,3.75,0,0,0,186,107.45Zm-.06-19.39a.49.49,0,0,0-.06.17,1.06,1.06,0,0,1,.18-.33A.61.61,0,0,0,185.9,88.06Zm-.06.17a.42.42,0,0,0,0,.1,1.39,1.39,0,0,0,0,.3c0,.66.33,1.48.13,2.09a1.23,1.23,0,0,0,0,.19,1.06,1.06,0,0,1,0-.19C186.16,90,185.63,89,185.84,88.23Zm1.65,8a5.59,5.59,0,0,1-.58,0,3.65,3.65,0,0,0,.58,0,5.54,5.54,0,0,0,1.26-.19A6.17,6.17,0,0,1,187.49,96.19Zm2.77-10.86c-2.4-.25-4.79-.21-7.19-.33a2.44,2.44,0,0,0-1.21.17,2.48,2.48,0,0,1,1.21-.16c2.39.12,4.78.08,7.18.33a10,10,0,0,1,2.35.53A9.43,9.43,0,0,0,190.26,85.33Zm1.9,12.35h0a15.72,15.72,0,0,1,2.79,3.17A15.93,15.93,0,0,0,192.16,97.68Zm.45-11.81a8,8,0,0,1,1.92,1A7.32,7.32,0,0,0,192.61,85.87Zm4.06,4.25a4.87,4.87,0,0,0-.9-2,5,5,0,0,1,.89,2,6.17,6.17,0,0,1,.08,2.13A6,6,0,0,0,196.67,90.12ZM198.1,107a50.19,50.19,0,0,0-2.26-4.67c.85,1.5,1.54,3.1,2.25,4.68.1.2.27.45.43.71C198.37,107.47,198.2,107.22,198.1,107Z"/><path class="cls-1" d="M223.72,96.34v.34a17.24,17.24,0,0,1-.24,2.74,16.13,16.13,0,0,0,.25-2.74C223.73,96.57,223.73,96.45,223.72,96.34Zm-.32-2.41a12.26,12.26,0,0,1,.25,1.37A10.34,10.34,0,0,0,223.4,93.93Zm-1.06-2.7a11.33,11.33,0,0,1,.69,1.5A10.18,10.18,0,0,0,222.34,91.23Zm-.27,12.31a11.23,11.23,0,0,0,.75-1.65A12.38,12.38,0,0,1,222.07,103.54Zm-10.42-16.2a6.37,6.37,0,0,1,1.07,0A4.79,4.79,0,0,0,211.65,87.34Zm-1,.18a5.67,5.67,0,0,1,1-.18A4.29,4.29,0,0,0,210.65,87.52Z"/><path class="cls-1" d="M45.33,86.25l.23.33-.24-.33q-.14-.19-.27-.36A3.44,3.44,0,0,1,45.33,86.25Z"/><path class="cls-1" d="M58,108.65a5.48,5.48,0,0,0,0-.7A3.28,3.28,0,0,1,58,108.65Z"/><path class="cls-1" d="M162.76,102.75a6.22,6.22,0,0,0,.9,1.69,6.12,6.12,0,0,1-.92-1.71,17.89,17.89,0,0,1-.94-5.89c.15-1.25.26-2.51.46-3.75a9.8,9.8,0,0,1,.22-1c-.08.32-.15.65-.21,1-.2,1.25-.3,2.51-.45,3.76A17.63,17.63,0,0,0,162.76,102.75Z"/><path class="cls-1" d="M163,90.79c-.06.13-.13.28-.18.42a1.8,1.8,0,0,1,.08-.21A2,2,0,0,1,163,90.79Z"/><path class="cls-1" d="M164.6,88.66a4.84,4.84,0,0,0-.66.62A3.88,3.88,0,0,1,164.6,88.66Z"/><path class="cls-1" d="M167.26,87.47l-.48.12a8.48,8.48,0,0,0-1,.34,5.86,5.86,0,0,1,1-.35Z"/><path class="cls-1" d="M169,87.34a6,6,0,0,0-1.26,0A5.36,5.36,0,0,1,169,87.34Z"/><path class="cls-1" d="M177.4,101.72a10.44,10.44,0,0,1-.56,1.92,13.31,13.31,0,0,0,.54-1.91h0a7.64,7.64,0,0,0,.2-2.16A7.15,7.15,0,0,1,177.4,101.72Z"/><path class="cls-1" d="M84.48,93.42A10.38,10.38,0,0,1,85,92,11.92,11.92,0,0,0,84.48,93.42Z"/><path class="cls-1" d="M92.72,109.13a12,12,0,0,0,1.28.25A10,10,0,0,1,92.72,109.13Z"/><path class="cls-1" d="M95.71,109.45a9,9,0,0,1-1.71-.07A9.87,9.87,0,0,0,95.71,109.45Z"/><path class="cls-1" d="M97.91,106.45a4.35,4.35,0,0,0,1-.76A3.5,3.5,0,0,1,97.91,106.45Z"/><path class="cls-1" d="M100.1,99.58a22.38,22.38,0,0,1,0,2.59,6.74,6.74,0,0,1-.22,1.56,7.54,7.54,0,0,0,.21-1.56,22.38,22.38,0,0,0,0-2.59,2.62,2.62,0,0,1,0-.27A2.65,2.65,0,0,0,100.1,99.58Z"/><path class="cls-1" d="M102.12,87.94c-.05,0-.1-.11-.16-.16h0Z"/><path class="cls-1" d="M102.14,90.07h0a3.12,3.12,0,0,0,.36-.42A2.42,2.42,0,0,1,102.14,90.07Z"/><path class="cls-1" d="M265.4,96.16a5.55,5.55,0,0,0,.75-1.11A6.74,6.74,0,0,1,265.4,96.16Zm-8.75-8.55.21-.09h0A1.11,1.11,0,0,0,256.65,87.61Zm-.55,12.08a1.94,1.94,0,0,1,.29-.69,1.15,1.15,0,0,1,.14-.17.86.86,0,0,0-.15.17A1.93,1.93,0,0,0,256.1,99.69Zm.11-9.38a4.83,4.83,0,0,0,0,.76,6.56,6.56,0,0,1,0-.76c.15-.64-.24-1.47-.08-2.1C256,88.84,256.36,89.67,256.21,90.31Zm0,1.1c0-.11,0-.22,0-.34h0C256.18,91.19,256.18,91.3,256.19,91.41Zm-.05-3.2a1.07,1.07,0,0,1,.25-.42A.77.77,0,0,0,256.14,88.21Zm0,19.64a1.64,1.64,0,0,1-.2,1,1.54,1.54,0,0,0,.21-1l0-.82C256.16,107.3,256.17,107.57,256.18,107.85Zm0-4.76c0,.39,0,.78,0,1.17,0-.39,0-.78,0-1.17q0-.27,0-.57C256.17,102.71,256.18,102.9,256.18,103.09Z"/><path class="cls-1" d="M228.42,86.87c.08,2.76.21,5.55.15,8.32.06-2.77-.07-5.55-.16-8.31a3.18,3.18,0,0,1,.07-.87A3.69,3.69,0,0,0,228.42,86.87Z"/><path class="cls-1" d="M232.19,108.21a7.83,7.83,0,0,0,1.56.68A7.29,7.29,0,0,1,232.19,108.21Z"/><path class="cls-1" d="M233,94.14c0,1.55,0,3.1,0,4.65V94.14c0-.74,0-1.49,0-2.23s0-1.39,0-2.08C233,91.27,233,92.7,233,94.14Z"/><path class="cls-1" d="M233,101.11V98.79c0,.77,0,1.55,0,2.32a6.59,6.59,0,0,0,.88,3.55A6.31,6.31,0,0,1,233,101.11Z"/><path class="cls-1" d="M243.25,107.86a7.48,7.48,0,0,0,1.26-1A7,7,0,0,1,243.25,107.86Z"/><path class="cls-1" d="M246,85a.58.58,0,0,1,.19,0h-.48A1.37,1.37,0,0,1,246,85Z"/><path class="cls-1" d="M247,86.11v6.17q0,2,0,4c0-1.33,0-2.65,0-4V86.11a1.15,1.15,0,0,0-.25-.82A1.08,1.08,0,0,1,247,86.11Z"/><path class="cls-1" d="M117.31,86.55a3.38,3.38,0,0,0-.66-1.19,3.6,3.6,0,0,1,.64,1.17q3.38,8,6.72,16.08C121.78,97.26,119.56,91.9,117.31,86.55Zm-2.2,6.09c.32.8.61,1.54.9,2.24C115.73,94.18,115.44,93.44,115.11,92.64Zm-1.58,8.26a7.13,7.13,0,0,1-.8,0,1.54,1.54,0,0,0-1.87,1.28c-.6,1.95-1.33,3.86-2,5.78a2.18,2.18,0,0,1-.71,1.15,2,2,0,0,1-1.81.12,2,2,0,0,0,1.83-.11,2.17,2.17,0,0,0,.71-1.14c.71-1.92,1.44-3.83,2-5.79a1.54,1.54,0,0,1,1.87-1.28,7,7,0,0,0,.8,0l1.18,0ZM106,109.05s0,0,0,0a1.51,1.51,0,0,0,.22.11Z"/><path class="cls-1" d="M77.22,107.2q-.12-.37-.27-.75c.09.24.17.48.25.73a.42.42,0,0,0,0,.1A.24.24,0,0,0,77.22,107.2Zm-1.2-3c-.27-.71-.35-1.69-.66-2.39.3.7.37,1.67.64,2.37.06.16.13.31.2.47ZM72.24,85.13c-.82,0-1,1-1.24,1.59-2.79,7-5.54,14-8.41,21a2.17,2.17,0,0,0-.23,1,2.85,2.85,0,0,1,.25-1c2.86-7,5.61-14,8.41-21,.26-.65.4-1.63,1.24-1.59a1.26,1.26,0,0,1,.28,0A.94.94,0,0,0,72.24,85.13Z"/><path class="cls-1" d="M34.87,109.27h-1.6a3,3,0,0,1-.8.12,2.88,2.88,0,0,0,.79-.11h1.6a2.05,2.05,0,0,0,.47,0A3,3,0,0,1,34.87,109.27Zm-4.35-1.2a2.72,2.72,0,0,0,.5.71A3.3,3.3,0,0,1,30.52,108.07Zm-.37-1c-.52-1.77-1.3-3.33-1.9-5a2,2,0,0,0-.13-.29q.06.14.12.3c.6,1.69,1.4,3.32,1.9,5a4.83,4.83,0,0,0,.38,1A6.35,6.35,0,0,1,30.15,107.09Zm-3.65-6.22a18.47,18.47,0,0,0-4.27.15,19.28,19.28,0,0,1,4.26-.13,2.3,2.3,0,0,1,1.11.26A2,2,0,0,0,26.5,100.87Zm-5.47.74a2.93,2.93,0,0,1,.63-.4A1.92,1.92,0,0,0,21,101.61Zm-.52.6a4.49,4.49,0,0,1,.52-.6A2.39,2.39,0,0,0,20.51,102.21Zm-4.85,5.41q4.05-10.38,8.18-20.74Q19.7,97.25,15.66,107.62Zm.06,1.57a1,1,0,0,1-.49-.25.85.85,0,0,0,.48.27c.59.16,1.36.35,1.87-.13A2,2,0,0,1,15.72,109.19Z"/><path class="cls-1" d="M134.55,104.88a2.26,2.26,0,0,0,.45,1.69,2.12,2.12,0,0,1-.48-1.69c0-6-.1-12.07,0-18.11,0-1.73-.81-1.75-1.7-1.68.9-.07,1.76-.08,1.73,1.68C134.45,92.81,134.58,98.85,134.55,104.88Z"/><path class="cls-1" d="M135,106.57a1.31,1.31,0,0,0,.27.19A.83.83,0,0,1,135,106.57Z"/><path class="cls-1" d="M146.55,108.51a2.36,2.36,0,0,0,0-.48c0-.67-.28-.94-.67-1,.4.09.66.36.69,1A1.79,1.79,0,0,1,146.55,108.51Z"/><path class="cls-1" d="M222.22,148h0c0,.74-.65.74-1.09.91q-28.81,11.26-57.64,22.45c-4.62,1.78-9.35,3.28-14.08,4.77a33.14,33.14,0,0,1-4.15,1,21.53,21.53,0,0,1-8.12,0,17,17,0,0,1-2.42-.65,6.88,6.88,0,0,0-1.35-.2h0l-2.54-.71q-3.82-1.1-7.57-2.38-5-1.68-9.88-3.7h0q-9.73-3.94-19.52-7.81l-19.57-7.71h0l-.09-.14a1.24,1.24,0,0,0-1-.3h0l-.86-.31h0a6.11,6.11,0,0,0-3.15-1.21h0l-.12-.15a1.61,1.61,0,0,0-.29-.24,1.71,1.71,0,0,0-.23-.13l-.08,0a1.67,1.67,0,0,0-.62-.12,1.51,1.51,0,0,0-.42.05h0a.21.21,0,0,1-.15,0s0,0-.06,0a3.06,3.06,0,0,0-.3-.32,6.65,6.65,0,0,0-2.26-1l-.4-.14c-2.83-1.14-5.66-2.29-8.51-3.41-2.47-1-4.95-1.92-7.45-2.81A33.88,33.88,0,0,1,43,141c-1-.56-2-1.14-3-1.7l-.37-.17-.39-.19s0,0,0,0a.81.81,0,0,1-.38-.45l0-.08a.78.78,0,0,1,0-.16v0a.31.31,0,0,1,0-.1.66.66,0,0,1,0-.14h0c14.53,7.74,30.2,12.69,45.41,18.78,10.68,4.28,21.33,8.68,32.13,12.66q2.31.85,4.64,1.68h0q4.29,1.53,8.62,2.94c.66.22,1.32.44,2,.64s1.33.41,2,.59,1.23.34,1.85.5l.23.06c.65.16,1.3.32,1.95.46.33.07.65.13,1,.17s.51.08.77.1a17.65,17.65,0,0,0,3,.09,8.65,8.65,0,0,0,.88,0c.29,0,.59-.05.88-.09.59-.07,1.17-.16,1.75-.27s1.15-.23,1.72-.37l.86-.22c.37-.09.74-.2,1.1-.3l1.94-.59.24-.08,1.09-.35.94-.31c4.42-1.45,8.79-3,13.15-4.61q3.26-1.21,6.51-2.46c10.83-4.17,21.56-8.61,32.39-12.74,5.13-1.95,10.22-4,15.33-6l.41-.12.31-.07Z"/><path class="cls-1" d="M131,140.72a2.17,2.17,0,0,0,0-.25,5.38,5.38,0,0,0-.86-1.89c-.22-.32-.47-.57-.33-.91a.7.7,0,0,1,.09-.17l.08-.1a2.58,2.58,0,0,0,.5-.75,1.07,1.07,0,0,0,.07-.19,1.05,1.05,0,0,0,.05-.19,2.33,2.33,0,0,0-.57-1.93c-.65-.83-4.1-1.59-5.08-1.07l-.17.1a1.21,1.21,0,0,0-.2.19,0,0,0,0,0,0,0l-.08.12a.35.35,0,0,0-.06.14.54.54,0,0,0,0,.22c-.11.54.13,1.17.07,1.71a8.25,8.25,0,0,0-.06,1.4c0,.27,0,.53,0,.8v2.59c.06,3.35.28,3.53,3.64,3h0a2.09,2.09,0,0,0,.36-.07,4.12,4.12,0,0,0,1.86-.83,1,1,0,0,0,.18-.17A2.11,2.11,0,0,0,131,140.72Zm-4.6-6.09a.42.42,0,0,1,.06-.14.54.54,0,0,1,.42-.24l.21,0a1.88,1.88,0,0,1,.65.11,1.31,1.31,0,0,1,.46.3l0,0a.66.66,0,0,1,.12.17l0,.05a.6.6,0,0,1,.1.23,2.22,2.22,0,0,1,.1.76,2.91,2.91,0,0,1-.12.78,2.09,2.09,0,0,1-.14.3.71.71,0,0,1-.2.25l-.16.13-.19.1a1.69,1.69,0,0,1-.7.11l-.19,0-.12,0a.5.5,0,0,1-.22-.1.22.22,0,0,1-.1-.09c-.29-.35,0-1-.18-1.49a.64.64,0,0,0,.11-.31A6.54,6.54,0,0,1,126.39,134.63Zm.73,4a2,2,0,0,1,.89.2,2,2,0,0,1,.25.14,1.3,1.3,0,0,1,.23.18l.14.14a0,0,0,0,0,0,0,1.48,1.48,0,0,1,.21.32,2.15,2.15,0,0,1,.15.38,2.23,2.23,0,0,1,.09.39,3.44,3.44,0,0,1,0,.46,1.68,1.68,0,0,1-1.51,1.82,1.79,1.79,0,0,1-.4,0v0a1.14,1.14,0,0,1-.68-.22.54.54,0,0,1-.16-.22.5.5,0,0,1,0-.13.31.31,0,0,1,0-.13,4.52,4.52,0,0,1,0-.91.53.53,0,0,0,0-.13,2,2,0,0,0,0-.24.87.87,0,0,0-.07-.17s0,0,0,0C126.55,139.8,125.79,138.6,127.12,138.6Z"/><path class="cls-1" d="M173.23,140.28l-.18-.16-.25-.27a2.43,2.43,0,0,1-.14-.2,1.09,1.09,0,0,1,.3-1.52,4.77,4.77,0,0,1,.39-.33,2.2,2.2,0,0,0,.31-.3,2.26,2.26,0,0,0,.23-.31.12.12,0,0,0,0-.08,1,1,0,0,0,.13-.25,1.76,1.76,0,0,0,.1-.3,2.24,2.24,0,0,0,0-1.06,1.64,1.64,0,0,0-.13-.43,1.68,1.68,0,0,0-.29-.52.08.08,0,0,0,0,0s0,0,0,0l-.06-.07a1,1,0,0,0-.17-.18,1.68,1.68,0,0,0-.4-.3,4.87,4.87,0,0,0-2.35-.68,2.64,2.64,0,0,0-.4,0c-.66,0-1.33,0-2,0h-.1a.5.5,0,0,0-.42.17.7.7,0,0,0-.11.21s0,0,0,.06a2.09,2.09,0,0,0,0,.43c0,2.85,0,5.7,0,8.56,0,.09,0,.17,0,.24a.85.85,0,0,0,.12.35l.11.12a1.15,1.15,0,0,0,.73.21,1.1,1.1,0,0,0,.73-.16.53.53,0,0,0,.17-.24.47.47,0,0,0,0-.17,1,1,0,0,0,0-.31c0-.07,0-.13,0-.2a5.34,5.34,0,0,1,0-.8c0-.07,0-.13,0-.2a2.36,2.36,0,0,0,0-.7c0-.15,0-.31-.05-.47,0-.53,0-1,.46-1.16,1.19-.4,1.74.89,2.32,1.74a2.65,2.65,0,0,1,.23.39c.07.12.13.24.19.36.14.28.28.56.44.82l.08.16h0a3.35,3.35,0,0,1,.15.35h0a1.57,1.57,0,0,0,.18.31.67.67,0,0,0,.76.2C174.39,142.31,173.06,141.54,173.23,140.28ZM170.49,138h-.13c-1,0-.9-.53-.82-1.08a2.18,2.18,0,0,0,0-.67.72.72,0,0,0-.09-.2,1.13,1.13,0,0,0,.09-.76,1,1,0,0,1,.13-.79l0,0a.46.46,0,0,1,.17-.09l.06,0,.08,0,.14,0h.24a3,3,0,0,1,.78.12,1.51,1.51,0,0,1,.8.58,1.55,1.55,0,0,1,.25.63,2,2,0,0,1,0,.5A1.83,1.83,0,0,1,170.49,138Z"/><path class="cls-1" d="M98.37,138.91a1.13,1.13,0,0,1,0,.26,5.09,5.09,0,0,1-.18,1l0,.06c0,.15-.1.3-.16.44a2.92,2.92,0,0,1-.14.31,2.75,2.75,0,0,1-.17.29h0a4.67,4.67,0,0,1-.36.51A4.78,4.78,0,0,1,92,143.12a5.3,5.3,0,0,1-1-.45,2.5,2.5,0,0,1-.35-.21.9.9,0,0,1,.52-.16.43.43,0,0,1,.19,0,9.2,9.2,0,0,1,1,.45,1,1,0,0,0,.23.06.79.79,0,0,0,.58-.06A2.5,2.5,0,0,0,95.94,141a8.46,8.46,0,0,0,0-5.22,2.12,2.12,0,0,0-.58-1,1.86,1.86,0,0,0-.26-.23l0,0a1.32,1.32,0,0,0-.29-.19,1.43,1.43,0,0,0-.28-.13h0l-.15-.05-.23-.05-.15,0a.08.08,0,0,0-.08,0h-.15a2.08,2.08,0,0,0-1.38.38h0a.91.91,0,0,0-.24.2,4.68,4.68,0,0,0-.64.75,6,6,0,0,0-.79,4h0a1,1,0,0,0-.34.91.78.78,0,0,0,0,.22c.06.23.15.45.23.68a2.17,2.17,0,0,1,.11.42.94.94,0,0,1-.12.72,6.21,6.21,0,0,1-1.48-2.1,1.69,1.69,0,0,1-.13-.31l-.05-.14c0-.15-.09-.3-.13-.45a2.93,2.93,0,0,1,0-.29.32.32,0,0,1,0-.14c0-.11,0-.22,0-.34a4.46,4.46,0,0,1,.11-1.5,1,1,0,0,1,.09-.34,4.53,4.53,0,0,1,.39-1c.07-.12.14-.25.22-.37l.26-.36a4.82,4.82,0,0,1,5-1.65l.29.08.29.1a5.77,5.77,0,0,1,.56.27,4.89,4.89,0,0,1,.58.39,5.08,5.08,0,0,1,1.49,1.94,4.94,4.94,0,0,1,.35,1h0a4,4,0,0,1,.13.69A4.41,4.41,0,0,1,98.37,138.91Z"/><path class="cls-1" d="M122.29,139.44a3.12,3.12,0,0,1-.09.44,3,3,0,0,1-.12.43c-.06.17-.13.34-.2.5a4.73,4.73,0,0,1-.55.89,4.32,4.32,0,0,1-.34.39c-.11.11-.23.21-.35.31a3.87,3.87,0,0,1-.68.46l-.2.11-.32.14a2.58,2.58,0,0,1-.39.14,5.45,5.45,0,0,1-.8.18l-.27,0a6,6,0,0,1-1.19,0,5,5,0,0,1-4.18-5.43c.24-2.88,2.14-4.52,5.13-4.2a5,5,0,0,0-.9.3,1.51,1.51,0,0,0-.28.15l-.13.07a1.88,1.88,0,0,0-.23.16l-.1.07a1.7,1.7,0,0,0-.24.22,1.51,1.51,0,0,0-.21.23,3.74,3.74,0,0,0-.7,1.34c0,.11-.07.24-.1.36a10.9,10.9,0,0,0-.26,1.55c0,.13,0,.27,0,.4v0a6.5,6.5,0,0,0,0,2.52,2.54,2.54,0,0,0,.18.41,1.23,1.23,0,0,0,.26.33,1.5,1.5,0,0,0,.31.24,5,5,0,0,0,1.66.56h0a3.9,3.9,0,0,0,.92,0,3,3,0,0,0,.78-.24,2.42,2.42,0,0,0,.41-.27,1,1,0,0,0,.18-.17,1.54,1.54,0,0,0,.17-.19,2.39,2.39,0,0,0,.34-.56,5,5,0,0,0,.37-1.3,8.33,8.33,0,0,0-.08-3.31,3.74,3.74,0,0,0-.17-.54c0-.13-.11-.27-.18-.41a1.58,1.58,0,0,0-.13-.26c-.06-.11-.13-.23-.21-.35a2.64,2.64,0,0,0-.21-.29,1.71,1.71,0,0,0-.21-.26,2.75,2.75,0,0,0-.33-.37,8.08,8.08,0,0,0-.67-.6,6.11,6.11,0,0,1,.79.17l.55.17.31.14.3.15a1.52,1.52,0,0,1,.3.17,5.92,5.92,0,0,1,.48.35,5.33,5.33,0,0,1,.42.4,3.94,3.94,0,0,1,.36.45c.1.15.2.32.29.49a4.13,4.13,0,0,1,.4,1.1c0,.19.07.4.1.6A6.29,6.29,0,0,1,122.29,139.44Z"/><path class="cls-1" d="M194.64,135a3.34,3.34,0,0,0-.33-.32,4.9,4.9,0,0,0-.78-.54,6,6,0,0,0-.77-.35,7,7,0,0,0-1.75-.4,29.86,29.86,0,0,0-3.54,0c.05.21.09.4-.2.47v1.25a38.67,38.67,0,0,1,0,7.83h0l.07.33a.41.41,0,0,0,.07.11.45.45,0,0,0,.31.18l.27,0h.25c1.38-.11,2.76-.17,4.13-.35a3.79,3.79,0,0,0,2.36-1.15,3.14,3.14,0,0,0,.38-.5,3.07,3.07,0,0,0,.3-.57,2.29,2.29,0,0,0,.17-.46,17.2,17.2,0,0,0,.21-.88c0-.08,0-.15,0-.22a8,8,0,0,0,.07-1A4.92,4.92,0,0,0,194.64,135Zm-.79,4.9a3.32,3.32,0,0,1-.2.66l-.15.33a1.3,1.3,0,0,1-.17.33,2.69,2.69,0,0,1-.19.32,3.07,3.07,0,0,1-.81.8,2.49,2.49,0,0,1-.43.22,1.51,1.51,0,0,1-.33.13l-.07,0a2.29,2.29,0,0,1-.36.07,2.74,2.74,0,0,1-.5,0,4.11,4.11,0,0,1-.69-.06l-.36-.07c-.12,0-.24,0-.36-.09-.1.23-.24.31-.36.29a.31.31,0,0,1-.29-.31c0-.43-.05-.87-.06-1.3s-.05-.84-.06-1.26c0-.2,0-.4,0-.6a27.44,27.44,0,0,1,.05-2.87c0-.65.13-1.29.24-1.93a.36.36,0,0,1,0-.09l.1-.09c.13-.08.33-.15.46-.24h0l.74,0h.25a3.59,3.59,0,0,1,.47,0,4.67,4.67,0,0,1,.67.13.86.86,0,0,1,.21.07,1.69,1.69,0,0,1,.41.19l.19.12a2.15,2.15,0,0,1,.66.68.79.79,0,0,1,.14.23,1.23,1.23,0,0,1,.14.25c.05.12.11.24.15.37a7.24,7.24,0,0,1,.45,1.44,5.37,5.37,0,0,1,.14,1.19A4.9,4.9,0,0,1,193.85,139.87Z"/><path class="cls-1" d="M209.5,143.56c-.24-.21-.48-.44-.7-.67s-.41-.43-.59-.65-.45-.53-.66-.8-.48-.64-.71-1-.65-.91-1-1.37c-.19-.26-.37-.52-.56-.77l-.59-.76c-.46-.59-.91-1.2-1.74-2.31l0,0v8.38a2.3,2.3,0,0,1-.73-2.15c0-2.25,0-4.5,0-6.75,0-.39-.21-.92.08-1.24a.79.79,0,0,1,.17-.14l.12-.05.15-.05a1.47,1.47,0,0,1,1.68.73c1,1.47,2.06,2.91,3.12,4.35a4.91,4.91,0,0,0,.67.94.61.61,0,0,0,.16.12.84.84,0,0,0,.23.12l.27.08c0-1.75,0-3.44,0-5.14a3.28,3.28,0,0,1,0-.77.35.35,0,0,1,0-.11.21.21,0,0,1,.06-.1.46.46,0,0,1,.2-.13,1.17,1.17,0,0,1,.3,0h0C209.5,136.72,209.5,140.14,209.5,143.56Z"/><path class="cls-1" d="M77.5,141.22c-.43,1.63-2.53,2.53-4.61,2.22a5.21,5.21,0,0,1-1.21-.33,3.05,3.05,0,0,1-.51-.27,2.46,2.46,0,0,1-.44-.34,2.79,2.79,0,0,1-.35-.42,1.88,1.88,0,0,1-.14-.24,1.63,1.63,0,0,1-.11-.23,3.4,3.4,0,0,1-.23-1,2.11,2.11,0,0,1,0-.26c0-.33,0-.66,0-1,0-.11,0-.23,0-.34,0-.89,0-1.78,0-2.66,0,0,0,0,0,0,0-.66,0-1.32,0-2a2.17,2.17,0,0,1,0-.45,1.06,1.06,0,0,1,0-.19.36.36,0,0,1,0-.09.45.45,0,0,1,.14-.19.08.08,0,0,1,0,0,.21.21,0,0,1,.1-.06s0,0,0,0a1.06,1.06,0,0,1,.55-.1.78.78,0,0,1,.65.25.6.6,0,0,1,.16.34,3.18,3.18,0,0,1,0,.63v0c0,1.78.06,3.58.08,5.35a5.15,5.15,0,0,0,.14,1.29s0,0,0,0a1.81,1.81,0,0,0,.73,1l.2.11a2.72,2.72,0,0,0,.48.15l.29,0h.53a3,3,0,0,0,2.09-.69,2.25,2.25,0,0,0,.58-1.14,5.15,5.15,0,0,0,.11-.86.61.61,0,0,0,0-.14v-.06c.06-1.83.06-3.67.1-5.53a2.34,2.34,0,0,1,0-.26.06.06,0,0,1,0,0c0-.1,0-.19.07-.29l0-.11a.56.56,0,0,1,0-.12h0l.16,0h0l.35.06C77.62,136,78.19,138.6,77.5,141.22Z"/><path class="cls-1" d="M220.18,140.08a3.49,3.49,0,0,1-.07.81,1.89,1.89,0,0,1-.09.34,3.12,3.12,0,0,1-.26.62l-.18.28a3.08,3.08,0,0,1-.42.47l-.1.07a.9.9,0,0,1-.27.21s0,0-.06,0a2.08,2.08,0,0,1-.38.22l0,0-.41.16-.15,0a3.13,3.13,0,0,1-.44.1l-.29,0h-.12a5.65,5.65,0,0,1-2.14-.27,4.82,4.82,0,0,1-3.19-4.57,5.49,5.49,0,0,1,2.51-4.79l.26-.13h0a1.39,1.39,0,0,1,.26-.1,2,2,0,0,1,.26-.09,3,3,0,0,1,.49-.14l.48-.09a3.86,3.86,0,0,1,3.26,1.13,6.07,6.07,0,0,1,.59.9l0,0c-1.17-.34-2-1.13-2.92-1.23a.4.4,0,0,0-.19,0,1.91,1.91,0,0,0-.52.07,2.6,2.6,0,0,0-.42.15,2,2,0,0,0-.36.18,2.19,2.19,0,0,0-.59.46,3.51,3.51,0,0,0-.92,1.69,1.77,1.77,0,0,0-.4.66,3.39,3.39,0,0,0-.08,1.19s0,0,0,0a6.59,6.59,0,0,1,0,.77,3.86,3.86,0,0,0,.32,2.51.61.61,0,0,0,.15.17,3.62,3.62,0,0,0,2.56.76l.27,0a2.21,2.21,0,0,0,1.36-.49,2.6,2.6,0,0,0,.66-2.23c0-.37-.08-.76.15-1l.11-.09a.52.52,0,0,1,.13-.06,1.12,1.12,0,0,1,.4-.06C220.5,138.83,220.17,139.55,220.18,140.08Z"/><path class="cls-1" d="M151.9,143.17c-1.87.61-3.59.33-5.27.4a.7.7,0,0,1-.61-.18l-.06-.09a.37.37,0,0,1-.05-.11,1.9,1.9,0,0,1-.08-.69q0-4.08,0-8.15a2.15,2.15,0,0,1,.06-.64.58.58,0,0,1,.31-.42l.21-.07a1.72,1.72,0,0,1,.34,0c1.63,0,3.27,0,5.19,0a2,2,0,0,1-1,.82l-.3.06a5.94,5.94,0,0,1-1.35-.05h-.2a1.8,1.8,0,0,0-.42,0l-.18,0s0,0,0,0a.85.85,0,0,0-.24.09s0,0,0,0l-.09.05a.36.36,0,0,0-.11.1l0,0a.57.57,0,0,0-.12.18.79.79,0,0,0-.09.23.29.29,0,0,0,0,.09,1.57,1.57,0,0,0,0,.23,2.42,2.42,0,0,0,0,.39v.22c0,.06,0,.13,0,.19a3.22,3.22,0,0,0,.22,1.33c.2.34.59.52,1.37.41.37-.06.95-.26,1.2.44h0c-.75.78-2.19-.25-2.6.71a4.63,4.63,0,0,0-.23,2.3,1.65,1.65,0,0,0,.06.32,2.81,2.81,0,0,0,.08.31,2.09,2.09,0,0,0,.25.56,1.11,1.11,0,0,0,.55.45l.16.05.22,0a4.77,4.77,0,0,0,1,0A2.41,2.41,0,0,1,151.9,143.17Z"/><path class="cls-1" d="M89.78,133.41a.38.38,0,0,1-.11.08,2.88,2.88,0,0,1-.41.27,2.66,2.66,0,0,1-.63.25l-.2.05a2.87,2.87,0,0,1-.57.05c-.32,0-.62-.05-.9-.07h0c-1.26-.09-1.58.43-1.56,1.6,0,2.19,0,4.39,0,6.57,0,.59.31,1.37-.83,1.38a1.75,1.75,0,0,1-.35,0,1,1,0,0,1-.31-.11l-.08-.06c-.28-.24-.26-.67-.26-1.11,0-2.06-.12-4.13,0-6.17.07-1-.11-1.64-.63-1.91a.72.72,0,0,0-.2-.09l-.31-.08a3.64,3.64,0,0,0-1,0,1.77,1.77,0,0,1-1.41-.16,1.79,1.79,0,0,1-.37-.29l-.16-.19Z"/><path class="cls-1" d="M110.42,142c0,.67.48,1.72-1,1.65-.54,0-.79-.19-.89-.42a.7.7,0,0,1-.06-.19,2.79,2.79,0,0,1,0-.64,0,0,0,0,0,0,0,1,1,0,0,0,0-.23,1.1,1.1,0,0,0,0-.25c-.09-1.71,0-3.43,0-5.56,0,0,0,0,0,0-1.34,1.88-1.52,3.94-2.72,5.46v0h0l-.13-1,1.27-3.12c.43-1,.85-2.08,1.27-3.13a1.94,1.94,0,0,1,.78-1.11,1.17,1.17,0,0,1,.75-.09c1.13.16.64,1,.65,1.55C110.47,137.16,110.47,139.56,110.42,142Z"/><path class="cls-1" d="M166.43,133.49a3.89,3.89,0,0,1-2.94.59,3.1,3.1,0,0,0-.45,0,1.24,1.24,0,0,0-.29.06.75.75,0,0,0-.18.07h0a.65.65,0,0,0-.15.1v0a.18.18,0,0,0-.08.07.28.28,0,0,0-.08.12.86.86,0,0,0-.13.29,2.77,2.77,0,0,0-.06.75c0,.51,0,1,0,1.52,0,1.43,0,2.86,0,4.29,0,.31,0,.63,0,.94a2.36,2.36,0,0,1,0,1c-.1.17-.3.29-.71.3a1,1,0,0,1-.86-.29,1.3,1.3,0,0,1-.22-.93c0-2-.09-4,.08-5.95a2.43,2.43,0,0,0-.41-2,1.4,1.4,0,0,0-.56-.35,3.34,3.34,0,0,0-1.48-.06,1.44,1.44,0,0,1-1.63-.56Z"/><path class="cls-1" d="M184.58,142.87a13.94,13.94,0,0,0-.93-2.58l-.57-1.25-.27-.63c-.22-.54-.63-1-.45-1.65l-.15-.46c-.15-.45-.3-.9-.45-1.38-.1-.32-.21-.65-.32-1s-.23-.72-.36-1.1c-.63,1.31-1.23,2.64-1.78,4s-1.07,2.7-1.55,4.08c-.16.46-.31.92-.46,1.38s-.29.91-.43,1.37h0v0a1.5,1.5,0,0,0,.61-.28.87.87,0,0,0,.14-.12,1.15,1.15,0,0,0,.14-.17,0,0,0,0,0,0,0,1.86,1.86,0,0,0,.2-.43c0-.1.07-.2.1-.3l.06-.14.06-.11c.5-1,.42-2.15,2.19-2.2s2.16,1.1,2.63,2.3c.31.8.49,1.72,1.71,1.37v0C184.67,143.31,184.63,143.09,184.58,142.87Zm-4-7c.4,1.22.73,2.13,1,3.07h0a3.55,3.55,0,0,1-.64.17h0a3.39,3.39,0,0,1-.64.06,4,4,0,0,1-1-.12Z"/><path class="cls-1" d="M66.9,140.23c-.43-1.06-.92-2.11-1.31-3.19-.2-.55-.41-1.11-.59-1.67a8.29,8.29,0,0,1-.21-.86c0-.15-.05-.29-.07-.44s0-.3,0-.45a1.09,1.09,0,0,0-.08-.15.44.44,0,0,0-.32-.2.25.25,0,0,0-.16.06.19.19,0,0,0-.07.08l0,.05a.16.16,0,0,0,0,.06,69.78,69.78,0,0,0-3.82,10.06h0a1.14,1.14,0,0,0,.35-.07.84.84,0,0,0,.36-.21,1.13,1.13,0,0,0,.1-.13c.2-.33.16-.78.33-1.09.51-1,.6-2.07,2.1-2.19h.34a3.07,3.07,0,0,1,.87.13,1.28,1.28,0,0,1,.41.18,1.31,1.31,0,0,1,.32.25,2.47,2.47,0,0,1,.54.85c.1.25.2.52.33.8a3.12,3.12,0,0,1,.15.43l.15.45a1.71,1.71,0,0,0,.17.33l.08.09a.93.93,0,0,0,1,.15A12.91,12.91,0,0,0,66.9,140.23Zm-2.23-1.35c-.18.66-1.22.21-2.06.25.39-1,.72-2,1.1-3A3.48,3.48,0,0,1,64.67,138.88Z"/><path class="cls-1" d="M135.05,134.24v4.17c0,1.39,0,2.79,0,4.16a2.17,2.17,0,0,1,0,.26,1.43,1.43,0,0,1,0,.22s0,0,0,0a.5.5,0,0,1-.05.13h0a.76.76,0,0,1-.11.14.53.53,0,0,1-.32.18l-.34,0-.14,0a1,1,0,0,1-.46-.09h0l-.1-.07a.59.59,0,0,1-.16-.29.47.47,0,0,1,0-.17,2.61,2.61,0,0,1,0-.4c0-2.79,0-5.56,0-8.33a1.09,1.09,0,0,1,.23-.8.79.79,0,0,1,.31-.18,1.91,1.91,0,0,1,.51-.05,1.25,1.25,0,0,1,.42.06l.14.08a.47.47,0,0,1,.1.1A1.25,1.25,0,0,1,135.05,134.24Z"/><path class="cls-1" d="M200,134.24v4.17h0v4.18a2.55,2.55,0,0,1,0,.4.65.65,0,0,1-.18.43.42.42,0,0,1-.14.09l-.16.05a1.51,1.51,0,0,1-.32,0h-.31a1,1,0,0,1-.36-.09.52.52,0,0,1-.17-.12,1,1,0,0,1-.25-.77c0-2.79,0-5.57,0-8.35a.83.83,0,0,1,.39-.83l.11,0a1,1,0,0,1,.26-.08h0l.33,0a.92.92,0,0,1,.54.08.43.43,0,0,1,.12.11A1.32,1.32,0,0,1,200,134.24Z"/><path class="cls-1" d="M105.47,142.52h0a1.46,1.46,0,0,0,0,.22c0,.11,0,.23,0,.34a.3.3,0,0,1,0,.1.3.3,0,0,1,0,.1.41.41,0,0,1,0,.09.53.53,0,0,1-.57.17l-.1-.06a.74.74,0,0,1-.19-.32,2.86,2.86,0,0,0-.12-.35c-.91-2-1.79-4.08-2.84-6.5,0,.33-.07.66-.09,1s0,.47,0,.69,0,.33,0,.49,0,.46,0,.69a22.27,22.27,0,0,1-.13,3.08c0,.15,0,.29-.07.44a8.45,8.45,0,0,1-.19.84s0,0,0,0a5.1,5.1,0,0,1-.2-.63c0-.11,0-.22-.07-.33a3.06,3.06,0,0,1,0-.32,10,10,0,0,1-.07-1.34c0-.49,0-1,0-1.48q0-1.08,0-2.16c0-.59,0-1.17,0-1.76,0-.35,0-.7,0-1.05,0-.92.24-1.39,1.22-1.22l.45.35,0,0C102.56,136.85,104.51,139.5,105.47,142.52Z"/><path class="cls-1" d="M144.08,143.58h0c-1.42,0-2.84,0-4.26,0h-.86a2,2,0,0,1-.78-.07.72.72,0,0,1-.32-.18,1,1,0,0,1-.13-.16.82.82,0,0,1-.1-.25,1.43,1.43,0,0,1,0-.22c0-.1,0-.21,0-.32v-.1c.06-2.59,0-5.19,0-7.76,0-.22,0-.45,0-.67a.94.94,0,0,1,.06-.29.75.75,0,0,1,.07-.12.57.57,0,0,1,.11-.11,1.09,1.09,0,0,1,.68-.15c1.11,0,.8.85.8,1.44,0,2,.14,4,0,6a2.58,2.58,0,0,0,.53,2.16,1.24,1.24,0,0,0,.22.18,1.49,1.49,0,0,0,.36.17,1.38,1.38,0,0,0,.29.08l.23,0a4.53,4.53,0,0,0,1,0,19.46,19.46,0,0,1,2.16,0Z"/><path class="cls-1" d="M237,142a.44.44,0,0,1-.19.6.11.11,0,0,1-.07,0c-4.45,2-8.95,3.79-13.54,5.41a2.64,2.64,0,0,1-1,0C227.05,145.72,232,143.86,237,142Z"/><path class="cls-1" d="M68.68,143.39a.28.28,0,0,1-.08.11c-.11.11-.35.14-.76,0a12.94,12.94,0,0,0-.94-3.31c-.43-1.06-.92-2.11-1.31-3.19-.2-.55-.41-1.11-.59-1.67-.08-.28-.15-.57-.21-.86s-.05-.29-.07-.44l0-.45c1.59,2.86,2.52,6,3.83,9A1.24,1.24,0,0,1,68.68,143.39Z"/><path class="cls-1" d="M105.47,142.53h0c-1-3-2.91-5.67-3.24-8.91a10.09,10.09,0,0,1,1,1.7c.07.15.14.3.2.45.19.43.36.87.53,1.31s.37,1,.57,1.43a12.16,12.16,0,0,0,1.16,2.16h0l.13,1v0a0,0,0,0,0,0,0C105.9,142.1,105.9,142.41,105.47,142.53Z"/><path class="cls-1" d="M184.71,143.55c0-.23-.08-.46-.13-.68a13.94,13.94,0,0,0-.93-2.58l-.57-1.25-.27-.63c-.22-.54-.63-1-.45-1.65,1.78,1.83,2.14,4.34,3.09,6.56C185.58,143.63,185,143.66,184.71,143.55Z"/><path class="cls-1" d="M216.37,142.75c-2.65-.12-3.27-.82-3-3.44.09-.89-.27-1.86.48-2.63,0,.91,0,1.82,0,2.72A3.51,3.51,0,0,0,216.37,142.75Z"/><path class="cls-1" d="M209.84,137.65c-.08,2,.58,4-.34,5.91V133.28a2.09,2.09,0,0,1,.16.29,2.92,2.92,0,0,1,.14.31c0,.1.07.21.1.31a1.67,1.67,0,0,1,.06.29,2.54,2.54,0,0,1,0,.29,4.36,4.36,0,0,1,0,.51c0,.39,0,.79-.08,1.19h0C209.9,136.88,209.85,137.27,209.84,137.65Z"/><path class="cls-1" d="M38,137.57h0l-.15-.06a9.08,9.08,0,0,1-1-.48,3.91,3.91,0,0,1-1.69-1.7,3.62,3.62,0,0,1-.23-.68,3.53,3.53,0,0,1-.08-.58h0v0q1.58,1.78,3.17,3.56Z"/><path class="cls-1" d="M187.32,142.91a40.16,40.16,0,0,1,0-7.83A38.67,38.67,0,0,1,187.32,142.91Z"/><path class="cls-1" d="M117.05,142.74h0a5,5,0,0,1-1.66-.56,1.5,1.5,0,0,1-.31-.24,1.64,1.64,0,0,1-.26-.33,2.54,2.54,0,0,1-.18-.41,6.61,6.61,0,0,1,0-2.49v0a10.81,10.81,0,0,0,1.2,3.11h0A3.07,3.07,0,0,0,117.05,142.74Z"/><path class="cls-1" d="M241.77,139.58a3.28,3.28,0,0,1-1.07,1.19,4,4,0,0,1-.93.44,7.8,7.8,0,0,1-1.57.33h0l0,0h0s0,0,0,0a2.5,2.5,0,0,1,.33-.32A10.17,10.17,0,0,1,241.77,139.58Z"/><path class="cls-1" d="M175.07,143.46a.26.26,0,0,1-.19.1,1.37,1.37,0,0,1-.35,0l-.2,0c.06-1.23-1.27-2-1.1-3.26a2.25,2.25,0,0,1,.31.16l.13.1.14.11a1.88,1.88,0,0,1,.24.25l.11.13a.55.55,0,0,1,.09.14c.06.1.12.2.17.3a2.22,2.22,0,0,1,.14.32c.12.3.22.61.34.92a.14.14,0,0,1,0,.07c.05.11.09.22.13.32S175.12,143.39,175.07,143.46Z"/><path class="cls-1" d="M243.68,138.67a1.69,1.69,0,0,1-.11.27.8.8,0,0,1-.15.2.46.46,0,0,1-.26.15H243a1,1,0,0,1-.42-.09h0a.62.62,0,0,1,.13-.27.2.2,0,0,1,.09-.09A1.53,1.53,0,0,1,243.68,138.67Z"/><path class="cls-1" d="M238.18,141.53v0a.83.83,0,0,1-.17.34l-.08.07-.09,0a1.23,1.23,0,0,1-.8,0H237l.1-.12.09-.1a.86.86,0,0,1,.18-.16.84.84,0,0,1,.21-.11l.18,0a.9.9,0,0,1,.43.09Z"/><path class="cls-1" d="M187.27,133.83c-.08-.13-.11-.24-.07-.32a.18.18,0,0,1,.05-.07l.09-.05.13,0C187.52,133.57,187.56,133.76,187.27,133.83Z"/><path class="cls-1" d="M246.18,136.81c-.1.17,0,.57-.41.4l.39-.39Z"/><path class="cls-1" d="M38.76,138h0c-.3.14-.51.12-.64,0a.78.78,0,0,1-.14-.39h0a.48.48,0,0,1,.41-.05.24.24,0,0,1,.11.06l.06.06A1,1,0,0,1,38.76,138Z"/><path class="cls-1" d="M242.58,139.17v0a.65.65,0,0,1-.15.41l0,0c-.15.11-.37.06-.61-.05h0s0-.09.05-.13l.08-.1a.83.83,0,0,1,.65-.17Z"/><path class="cls-1" d="M102.21,133.57l-.45-.35a.67.67,0,0,1,.24,0h0a.13.13,0,0,1,.07,0s0,0,0,0l0,0,0,.08a.3.3,0,0,1,0,.1A.15.15,0,0,1,102.21,133.57Z"/><path class="cls-1" d="M69.08,151.93a6.17,6.17,0,0,1,3.19,1.22A3.9,3.9,0,0,1,69.08,151.93Z"/><path class="cls-1" d="M67.3,151.29a1.65,1.65,0,0,1,1.77.63A1.39,1.39,0,0,1,67.3,151.29Z"/><path class="cls-1" d="M73.14,153.48c.43,0,.87,0,1.11.45C73.8,154,73.36,154,73.14,153.48Z"/><path class="cls-1" d="M49.63,60.18c2.25-2.48,5.13-2.56,7.32-3.92,5.18-3.22,11.11-3.52,16.89-4.35,1.72-.24,3.63,1.82,3.46,3.52-.09.84-.83.71-1.41.73-2.58.08-5.15,0-7.74.3A83.84,83.84,0,0,0,50.91,60,10.92,10.92,0,0,1,49.63,60.18Z"/><path class="cls-1" d="M219.66,48.21c1.51,0,4.61,2.57,4.92,4a1.45,1.45,0,0,1-.4,1.45c-.25.22-.67.36-.75.63-1,3.31-3.23,2.15-5.38,1.54a28.86,28.86,0,0,0-6.57-1.36c-.6,0-1.28-.13-1.49-.76s.51-.94,1-1.3C213.57,50.47,216.17,48.41,219.66,48.21Z"/><path class="cls-1" d="M119,50.36l-.27.18h0c0-.16,0-.32,0-.48h0Z"/><path class="cls-1" d="M191.91,92.44a1.88,1.88,0,0,1,0,.33,2.38,2.38,0,0,1-.05.26,0,0,0,0,1,0,0,2.86,2.86,0,0,1-.07.28,1.43,1.43,0,0,1-.09.27c0,.13-.11.25-.17.37a2,2,0,0,1-.2.34,2.43,2.43,0,0,1-.24.32,2.56,2.56,0,0,1-.28.3,3.47,3.47,0,0,1-.29.25h0a4.67,4.67,0,0,1-.6.38l-.34.16a2,2,0,0,1-.31.12L189,96l-.23.06a5.54,5.54,0,0,1-1.26.19,3.65,3.65,0,0,1-.58,0l-.28,0a.76.76,0,0,1-.35-.16.28.28,0,0,1-.09-.07.72.72,0,0,1-.22-.34,1.17,1.17,0,0,1-.05-.2.77.77,0,0,1,0-.15,1.84,1.84,0,0,1,0-.53c.07-.84,0-1.69,0-2.53,0-.15,0-.3,0-.45a3.22,3.22,0,0,1,0-.62c0-.06,0-.12,0-.18a1.23,1.23,0,0,1,0-.19c.33-1-.8-2.62.57-3.11a.78.78,0,0,1,.23-.08,5.49,5.49,0,0,1,1.71-.16,4.68,4.68,0,0,1,.67.11,2.7,2.7,0,0,1,.4.14l.25.11a1,1,0,0,1,.23.12,3,3,0,0,1,.51.36,4.26,4.26,0,0,1,1.29,2.35A6.19,6.19,0,0,1,191.91,92.44Z"/><path class="cls-1" d="M218.68,97c-.15,2.75,0,5.55-2,7.87a5.75,5.75,0,0,1-8.09.65,5.9,5.9,0,0,1-.74-.76,8.06,8.06,0,0,1-1.13-2c-.12-.29-.23-.6-.33-.92s-.16-.56-.23-.84-.1-.44-.14-.66a4.71,4.71,0,0,1-.09-.52c0-.17-.05-.34-.08-.51s-.06-.58-.08-.87a4.71,4.71,0,0,1,0-.53,12.34,12.34,0,0,1,0-1.36c0-.38,0-.76.07-1.14s0-.47.08-.7.08-.53.13-.79c0,0,0,0,0,0,0-.23.09-.45.14-.67s.18-.68.29-1c.05-.17.11-.34.17-.5A8.56,8.56,0,0,1,208,89.18a3.26,3.26,0,0,1,.31-.33.3.3,0,0,1,.08-.08l0,0,.29-.26.31-.23a2.2,2.2,0,0,1,.32-.21.91.91,0,0,1,.17-.09.7.7,0,0,1,.17-.09l.47-.2a3.68,3.68,0,0,1,.47-.15,4.29,4.29,0,0,1,1-.18,4.79,4.79,0,0,1,1.07,0l.55.08c.23,0,.47.1.69.17l.34.12.33.14a4.25,4.25,0,0,1,.43.21,4.93,4.93,0,0,1,1,.7,6.17,6.17,0,0,1,.46.43,5.67,5.67,0,0,1,1,1.41A13.35,13.35,0,0,1,218.68,97Z"/><path class="cls-1" d="M261.64,94h0a3.84,3.84,0,0,1-.41.71A1.55,1.55,0,0,1,261,95a4.37,4.37,0,0,1-.42.44,4.57,4.57,0,0,1-.68.47l-.25.12-.25.11-.27.09-.27.07-.28,0a3.83,3.83,0,0,1-1.8-.16.8.8,0,0,1-.57-.59l0-.16c0-.11,0-.22,0-.34V91.68a1.1,1.1,0,0,1,0-.18v-.09c0-.11,0-.22,0-.33h0a4.83,4.83,0,0,1,0-.76c.15-.64-.25-1.47-.07-2.1a.77.77,0,0,1,.25-.42l.11-.09a.38.38,0,0,1,.15-.09,1.11,1.11,0,0,1,.19-.09h0a2.36,2.36,0,0,1,.8-.13l.34,0a3.74,3.74,0,0,1,1.06.26l.27.11a4.87,4.87,0,0,1,.81.44c.15.11.3.22.44.34a3.13,3.13,0,0,1,.8,1A5.4,5.4,0,0,1,261.64,94Z"/><path class="cls-1" d="M117.26,98.14a.48.48,0,0,1-.06.24.27.27,0,0,1-.07.08l0,0-.08.05-.08,0-.16,0a2.55,2.55,0,0,1-.41,0h-4.13l.19-.51c.07-.17.13-.34.19-.51.7-1.88,1.37-3.66,2.17-5.79.12.28.23.56.33.82.33.8.62,1.54.9,2.24.38,1,.74,1.83,1.11,2.71A1.63,1.63,0,0,1,117.26,98.14Z"/><path class="cls-1" d="M73.83,98.5H68.64c.82-2.13,1.59-4.17,2.52-6.72C72.17,94.31,73,96.33,73.83,98.5Z"/><path class="cls-1" d="M26.8,98.53H21.61l2.49-6.67C25.08,94.27,25.88,96.26,26.8,98.53Z"/><path class="cls-1" d="M129.13,140.85a1.67,1.67,0,0,1-1.52,1.81,1.85,1.85,0,0,1-.41,0,1.08,1.08,0,0,1-.68-.25,1.14,1.14,0,0,0,.68.22v0a1.79,1.79,0,0,0,.4,0,1.68,1.68,0,0,0,1.51-1.82,3.44,3.44,0,0,0,0-.46A2.56,2.56,0,0,1,129.13,140.85Z"/><path class="cls-1" d="M128.46,136.67a2.91,2.91,0,0,0,.12-.78,2.22,2.22,0,0,0-.1-.76,2,2,0,0,1,.11.77A2.26,2.26,0,0,1,128.46,136.67Z"/><path class="cls-1" d="M92.06,134.71a4.68,4.68,0,0,0-.64.75,6,6,0,0,0-.79,4h0s0,0,0,0a6.16,6.16,0,0,1,.79-4A3.63,3.63,0,0,1,92.06,134.71Z"/><path class="cls-1" d="M93.67,134.12a.5.5,0,0,1,.17,0h-.15a2.08,2.08,0,0,0-1.38.38A2,2,0,0,1,93.67,134.12Z"/><path class="cls-1" d="M93.13,142.76a.8.8,0,0,1-.56.07,1,1,0,0,1-.23-.06,9.2,9.2,0,0,0-1-.45.43.43,0,0,0-.19,0,.89.89,0,0,0-.54.15h0l0,0h0a.94.94,0,0,0,.12-.72,2.17,2.17,0,0,0-.11-.42c-.08-.23-.17-.45-.23-.68a.78.78,0,0,1,0-.22,1,1,0,0,1,.33-.93s0,0,0,0a13.11,13.11,0,0,0,1.06,2.12,4.12,4.12,0,0,0,.33.4A3.17,3.17,0,0,0,93.13,142.76Z"/><path class="cls-1" d="M194,138.85a5.44,5.44,0,0,0-.14-1.19A5.37,5.37,0,0,1,194,138.85Z"/><path class="cls-1" d="M189.33,134.17l-.1,8.38h0c-.1.21-.24.3-.36.3a.31.31,0,0,1-.29-.31c0-.43-.05-.87-.06-1.3s-.05-.84-.06-1.26c0-.2,0-.4,0-.6a23.61,23.61,0,0,1,.28-4.82s0-.06.05-.07l.1-.09C189,134.33,189.2,134.26,189.33,134.17Z"/><path class="cls-1" d="M181.63,139h0c-.3-.94-.63-1.85-1-3.07v0C181,137.1,181.31,138,181.63,139Z"/><path class="cls-1" d="M62.6,139.13c.4-1,.73-2,1.11-3a3.46,3.46,0,0,1,1,2.75C64.49,139.54,63.45,139.09,62.6,139.13Z"/></g></g></g></g></svg>