<svg xmlns="http://www.w3.org/2000/svg" viewBox="0 0 222.66 246.95"><defs><style>.cls-1{fill:#808285;}</style></defs><g id="Layer_2" data-name="Layer 2"><g id="Layer_1-2" data-name="Layer 1"><path class="cls-1" d="M9.67,231.22V228.4h3.66V205.77H9.67v-2.84H22.15q9.09,0,14.06,3.7a13.48,13.48,0,0,1,0,20.89q-5,3.71-14.06,3.7Zm8.13-25.45V228.4H22q7,0,10.78-2.92a11.23,11.23,0,0,0,0-16.79Q29,205.77,22,205.77Z" transform="translate(-9.48)"/><path class="cls-1" d="M75.67,216v-9.16H71.43V204H85.14v2.78h-4.3V229h4.3v2.77H71.43V229h4.24v-9.92H58V229h4.27v2.77H48.63V229h4.24v-22.2H48.63V204H62.31v2.78H58V216Z" transform="translate(-9.48)"/><path class="cls-1" d="M99.71,229.54h2.39V232H94.45v-2.46h2.37V209.78H94.45V207.3h7.65v2.48H99.71Z" transform="translate(-9.48)"/><path class="cls-1" d="M118.38,228.55h4.16v2.76H109.35v-2.76h4.31v-22.2h-4.31v-2.79h12.33l9.79,19.59,10.06-19.59h11.6v2.79h-4.31v22.2h4.31v2.76H139.94v-2.76h4.16V207.08L132.75,228.7h-3l-11.35-21.62Z" transform="translate(-9.48)"/><path class="cls-1" d="M169.32,228.55v2.76h-13v-2.76h3.59l10.88-22.2h-4.68v-2.79h17.46v2.79H178.8l10.41,22.2h3.66v2.76h-13.6v-2.76h4.57l-3-6.61H167.73l-3,6.61Zm-.42-9.37h11l-4.59-9.69-.11-.25a8.79,8.79,0,0,1-.78-2.23c-.1.38-.22.76-.35,1.13s-.31.83-.56,1.37Z" transform="translate(-9.48)"/><path class="cls-1" d="M206.4,227.91h4.18v2.77H197.36v-2.77h4.29v-22.2h-4.29v-2.78h9.56l16.18,20.2V205.71h-4.21v-2.78h13.25v2.78h-4.31v25.51H224l-17.61-21.9Z" transform="translate(-9.48)"/><circle class="cls-1" cx="89.09" cy="200.26" r="3.3"/><path class="cls-1" d="M17.93,241H22.6v5a14.68,14.68,0,0,1-5.1.95A8.4,8.4,0,0,1,12,245.24,5.22,5.22,0,0,1,9.91,241a5.43,5.43,0,0,1,2.14-4.38,8.2,8.2,0,0,1,5.37-1.75,11.41,11.41,0,0,1,2.23.21,20.4,20.4,0,0,1,2.67.79v1.71a11.21,11.21,0,0,0-4.94-1.22,5.74,5.74,0,0,0-3.84,1.32,4.14,4.14,0,0,0,0,6.49,6.14,6.14,0,0,0,4,1.27,10.85,10.85,0,0,0,2.86-.46l.19-.05v-2.45H17.93Z" transform="translate(-9.48)"/><path class="cls-1" d="M25.51,235.06h2v10.22h6.26v1.53H25.51Z" transform="translate(-9.48)"/><path class="cls-1" d="M42.33,234.89a8.35,8.35,0,0,1,5.37,1.72,5.35,5.35,0,0,1,2.15,4.33,5.26,5.26,0,0,1-2.17,4.3A8.52,8.52,0,0,1,42.22,247,8,8,0,0,1,37,245.24,5.29,5.29,0,0,1,34.89,241,5.4,5.4,0,0,1,37,236.61,8.18,8.18,0,0,1,42.33,234.89Zm.08,1.6a6,6,0,0,0-3.92,1.26A4,4,0,0,0,37,241a3.94,3.94,0,0,0,1.54,3.17,6.53,6.53,0,0,0,7.75,0,4,4,0,0,0,1.55-3.2,3.91,3.91,0,0,0-1.55-3.15A5.86,5.86,0,0,0,42.41,236.49Z" transform="translate(-9.48)"/><path class="cls-1" d="M57,246.81H52.3V235.06h3.64a7.39,7.39,0,0,1,2.69.39,3.27,3.27,0,0,1,1.47,1.08,2.55,2.55,0,0,1,.51,1.58c0,1.16-.71,2-2.12,2.48a4.73,4.73,0,0,1,2.43,1.06,2.59,2.59,0,0,1,.35,3.56,3.84,3.84,0,0,1-1.61,1.15A6.82,6.82,0,0,1,57,246.81Zm-1-10.25H54.29v3.53h1.32a3.86,3.86,0,0,0,2.27-.51,1.61,1.61,0,0,0,.67-1.33C58.55,237.12,57.7,236.56,56,236.56Zm.15,5H54.29v3.72h2a7.69,7.69,0,0,0,2.22-.21,2.05,2.05,0,0,0,.93-.67,1.54,1.54,0,0,0,.36-1,1.51,1.51,0,0,0-.38-1,2.15,2.15,0,0,0-1.06-.66A7.62,7.62,0,0,0,56.15,241.59Z" transform="translate(-9.48)"/><path class="cls-1" d="M68.63,235H70l6.24,11.82h-2l-1.86-3.48H66.44l-1.74,3.48H62.65Zm2.93,6.84-2.25-4.26-2.08,4.26Z" transform="translate(-9.48)"/><path class="cls-1" d="M77.79,235.06h2v10.22h6.27v1.53H77.79Z" transform="translate(-9.48)"/><rect class="cls-1" x="80.76" y="243.61" width="138.26" height="2.13"/><path class="cls-1" d="M231.69,94.52a10,10,0,0,0-5.38-2.41,10.29,10.29,0,0,0-7.5,2.28q-.34,39.66-.7,79.32a82.7,82.7,0,0,1-46.19,11.16c-7.14-.42-30.34-2.72-49.49-20.57a75.21,75.21,0,0,0,6.61-6.22c25.35-27,22.06-63.57,21.43-70.44-.75-8.36-2.76-27.85-16.79-46.06A76.41,76.41,0,0,0,119.2,27.22c.31-.36.61-.72,1-1,7.37-7.25,14.37-10.52,30.4-16.14,35.63-12.5,73.81,10,74.22,8.89S194.82-2.8,160.39.32C155.9.73,130.25,1,108.7,20.43,96.91,14,85.18,10.9,77,8.77A130.67,130.67,0,0,0,41,4.62L10.4,4.9Q10,96.1,9.48,187.29l28.48.3a145.36,145.36,0,0,0,26.68-1.71c13.6-2.13,31.08-4.88,47.09-14.13,24.8,18,54.4,18,60.22,18a108.91,108.91,0,0,0,60.19-18.58ZM115.81,45.21c22,28.93,24.28,76.08-3.33,107.54l0,0c-14.9-21.5-14.85-46.69-14.83-59.61,0-10.1.07-32.92,12.88-54.19A74.13,74.13,0,0,1,115.81,45.21ZM27.35,178.81l.3-162.08a81.66,81.66,0,0,1,37-2.42A89.15,89.15,0,0,1,99.92,29.69c-29.15,35.75-32.25,97.19.54,132.15.38.41.76.8,1.14,1.19C81.33,178.92,53.94,184.87,27.35,178.81Z" transform="translate(-9.48)"/></g></g></svg>