<svg xmlns="http://www.w3.org/2000/svg" viewBox="0 0 1030.96 258.9"><defs><style>.cls-1{fill:#808285;}</style></defs><g id="Layer_2" data-name="Layer 2"><g id="Layer_1-2" data-name="Layer 1"><path class="cls-1" d="M420.42,121.06H415.1v18.55a29.25,29.25,0,0,0-8.3-2.93,40,40,0,0,0-8.79-1.17q-8.94,0-15,3.17c-2.28,1.2-3.41,2.78-3.41,4.74,0,2.6,1.36,3.9,4.1,3.9a20.12,20.12,0,0,0,6.49-1.46c1.72-.62,3.94-1.4,6.64-2.35a21.31,21.31,0,0,1,6.05-.58q8.44,0,12.6,5.22a9.09,9.09,0,0,1,2,5.86q0,7.76-9.76,12.2a22.09,22.09,0,0,1-7.72,2.1c2.35,2.35,4.57,3.52,6.69,3.52a9.38,9.38,0,0,0,2.2-.29l4.93,8.05q-1.51,1.32-6.2,1.32a8.85,8.85,0,0,1-6.45-2.59,32.3,32.3,0,0,1-4-5.91q-2.19-3.85-3.66-3.9-9-.24-13.91-3.27a5.88,5.88,0,0,1-3.08-5.23q0-4.09,4.88-4.1,1.81,0,7.54,2.81t9.45,2.81A28.67,28.67,0,0,0,412.31,158q3.18-1.71,3.18-4.2,0-3.7-5.86-3.71-1.8,0-11.67,2.64a42.29,42.29,0,0,1-7.13,1.56q-7.75,0-12.79-7.32a13.07,13.07,0,0,1-2.44-7.57q0-8.25,11.28-11.13a35.75,35.75,0,0,1,8.74-1.17q4.68,0,13.28,2.29v-8.34H370V115.2h50.38Z"/><path class="cls-1" d="M497,115.2l-.1,5.86h-4.49v30.05q0,6.6-6.45,12-6.09,5.14-12.84,5.14-6.54,0-13.91-5.72A21.81,21.81,0,0,1,444,168.22a16.87,16.87,0,0,1-9-2.84,23.72,23.72,0,0,1-7-6.49,15.91,15.91,0,0,1-3.07-9.37,25.51,25.51,0,0,1,3.61-12.94,28.88,28.88,0,0,1,9.23-9.86q3.22,3.57,7.37,7.81-4,3.42-8,7.23-5.52,5.27-5.51,12,0,10.29,7.37,10.3a15.88,15.88,0,0,0,10.4-3.66,18.77,18.77,0,0,0,6-9.33,40.39,40.39,0,0,0,1.56-6.49l9.38,4.78a18.7,18.7,0,0,1-2.54,7.67,12.82,12.82,0,0,1-1.47,2.24c.95,1.47,3.09,2.2,6.45,2.2q8.69,0,13.08-6a9.66,9.66,0,0,0,2-5.77V121.06H419.2V115.2Z"/><path class="cls-1" d="M544,121.06H511.52v7.85a.57.57,0,0,1,.39.2.54.54,0,0,0,.34.2,1,1,0,0,1-.44-.05c0-.16,2.42-.69,7.27-1.56a29.34,29.34,0,0,1,5.32-.49q11,0,14.11,6.15,2.1,4.09,2.1,16.55V168.7c-.68-.26-3.27-1.31-7.76-3.17,0-1-.21-1.71-.63-2q-2.6,1.51-4.25,2.29a28.43,28.43,0,0,1-12.26,2.49q-9.62,0-14.84-6.05a9.74,9.74,0,0,1-2.54-6.54q0-4,4-8.06a26.18,26.18,0,0,1,19.28-7.76q7,0,11.23,3.22v-4.49a12.09,12.09,0,0,0-4.17-3.66,12.63,12.63,0,0,0-5.54-.83A39,39,0,0,0,508.73,137c-2,.81-3.85,1.55-5.71,2.2v-3.63c.42-.35,1-.89,1.86-1.61l.24-.29V121.06h-10V115.2H544ZM532.85,152q0-2.14-5.13-3.86a23.42,23.42,0,0,0-7.07-1.42q-10.31,0-16.51,7.43-2.49,3-2.49,4.88c.69,2.37,3.37,3.56,8.06,3.56a31.48,31.48,0,0,0,16.6-4.54Q532.85,154.1,532.85,152Z"/><path class="cls-1" d="M593.44,121.06h-5.33v18.55a29.17,29.17,0,0,0-8.29-2.93,40,40,0,0,0-8.79-1.17q-8.94,0-15,3.17-3.42,1.8-3.42,4.74,0,3.9,4.1,3.9a20.17,20.17,0,0,0,6.5-1.46q2.58-.93,6.64-2.35a21.21,21.21,0,0,1,6-.58q8.45,0,12.59,5.22a9,9,0,0,1,2,5.86q0,7.76-9.77,12.2a22,22,0,0,1-7.71,2.1q3.51,3.52,6.69,3.52a9.3,9.3,0,0,0,2.19-.29l4.94,8.05q-1.51,1.32-6.21,1.32a8.84,8.84,0,0,1-6.44-2.59,31.78,31.78,0,0,1-4-5.91q-2.21-3.85-3.66-3.9c-6-.16-10.66-1.25-13.92-3.27a5.87,5.87,0,0,1-3.07-5.23c0-2.73,1.62-4.1,4.88-4.1,1.2,0,3.72.94,7.54,2.81s7,2.81,9.45,2.81A28.69,28.69,0,0,0,585.33,158c2.12-1.14,3.17-2.54,3.17-4.2q0-3.7-5.85-3.71-1.81,0-11.67,2.64a42.5,42.5,0,0,1-7.13,1.56q-7.76,0-12.79-7.32a13,13,0,0,1-2.44-7.57q0-8.25,11.28-11.13a35.75,35.75,0,0,1,8.74-1.17q4.68,0,13.27,2.29v-8.34H543.05V115.2h50.39Z"/><path class="cls-1" d="M636.1,121.06H611.4V160.4a5.58,5.58,0,0,0,1.08,3.22,3.22,3.22,0,0,0,2.73,1.72q7.27,0,7.27-15l9.82,5.61q-5.62,12.45-17.38,12.4-6.84,0-10.65-6.25a10.23,10.23,0,0,1-1.66-5.38V121.06h-10.2V115.2h10.2V98.84l8.79,6.09V115.2h24.7Z"/><path class="cls-1" d="M689.12,121.06H649.73V135.8q5.31-5.81,9.86-7.47a16.48,16.48,0,0,1,5.71-.93q11.91,0,17.82,11.72a22.36,22.36,0,0,1,2.59,10.1q0,9.09-7.47,16.41a45.77,45.77,0,0,1-3.71,3.37l-8-4.79q3-3.17,6.88-7.81,4.35-5.22,4.4-13.18a13.37,13.37,0,0,0-2.15-7.91,7.76,7.76,0,0,0-7-3.61,17.49,17.49,0,0,0-9,3.17,26.22,26.22,0,0,0-7.13,6.54,13.33,13.33,0,0,0-3.08,7.91V168.7l-9.13-4.88V121.06h-5.37V115.2h5.37q0-14.34-7.47-24.47-4.49-6.11-8.3-8.58l9.87-.1q8.19,4.49,13,19.35a44.54,44.54,0,0,1,2.3,13.8h39.39Z"/><path class="cls-1" d="M744.68,115.2l-.1,5.86h-41.1v28.83q0,6.36,2.19,9.24,2.49,3.18,8.69,3.47a12.51,12.51,0,0,0,7.91-2.59,20.28,20.28,0,0,0,5.81-6.2,15.38,15.38,0,0,0,2.49-8V127.4l10.11,3.52v50q0,9.12-8.4,14.89a31.42,31.42,0,0,1-18.21,5.32q-17.67,0-25.14-9.62-3-3.9-3-6.69,0-6.09,6.84-10.25a23.58,23.58,0,0,1,12.44-3.66l6.2,8.3a44.05,44.05,0,0,0-15,3.56c-2.9,1.31-4.35,3-4.35,5q.54,4.44,6.69,7.86a19.24,19.24,0,0,0,9.47,2q13.33,0,20.12-8.64a15.07,15.07,0,0,0,3.22-9.57V159.62q-3.18,5.17-16.94,5.18-11.58,0-17.53-7.92a14.19,14.19,0,0,1-2.93-8.8v-27h-6.93V115.2Z"/><path class="cls-1" d="M791.69,121.06H759.18v7.85a.57.57,0,0,1,.39.2.54.54,0,0,0,.34.2,1,1,0,0,1-.44-.05c0-.16,2.43-.69,7.28-1.56a29.18,29.18,0,0,1,5.32-.49q11,0,14.11,6.15,2.09,4.09,2.09,16.55V168.7c-.68-.26-3.27-1.31-7.76-3.17,0-1-.21-1.71-.63-2-1.73,1-3.14,1.77-4.25,2.29a28.38,28.38,0,0,1-12.25,2.49q-9.61,0-14.84-6.05a9.69,9.69,0,0,1-2.54-6.54q0-4,4-8.06a26.18,26.18,0,0,1,19.28-7.76q7,0,11.23,3.22v-4.49a12.09,12.09,0,0,0-4.17-3.66,12.6,12.6,0,0,0-5.54-.83A39,39,0,0,0,756.4,137c-2,.81-3.86,1.55-5.72,2.2v-3.63c.43-.35,1-.89,1.86-1.61l.24-.29V121.06h-10V115.2h48.92ZM780.51,152q0-2.14-5.12-3.86a23.53,23.53,0,0,0-7.08-1.42q-10.3,0-16.5,7.43-2.49,3-2.49,4.88c.68,2.37,3.37,3.56,8,3.56a31.45,31.45,0,0,0,16.6-4.54Q780.51,154.1,780.51,152Z"/><path class="cls-1" d="M870,121.06H859.8v13.68a46.66,46.66,0,0,1,3.9,3.87,19.75,19.75,0,0,1,2.49,4.85H859.8q0-5.31-3-8.3c-2-2-4.79-3-8.34-3A19.15,19.15,0,0,0,838,135.26a22.17,22.17,0,0,0-7.49,7.89,18.58,18.58,0,0,0-2.69,9.17,9.2,9.2,0,0,0,3.76,7.94,14.37,14.37,0,0,0,8.74,2.44q9,0,12.59-5h10.4Q862,163,853.6,166.6a17.79,17.79,0,0,1-7,1.62,25.92,25.92,0,0,1-12.7-3.57,31,31,0,0,1-10-8.66q-4-5.3-4-10.48,0-3.9,3.47-8.83,7.27-10.35,17.72-10.35,6.89,0,10.88,2.88v-8.15H817.52V115.2H870Z"/><path class="cls-1" d="M884.11,109.36v60.12a7.43,7.43,0,0,1-1.27-.53l-2.54-1.32a48.92,48.92,0,0,0-4.59-2.25V109.45a33.33,33.33,0,0,0-2-10.89,43,43,0,0,0-8.64-14.65L862,80.44h10.4A39.1,39.1,0,0,1,883,100.32,43,43,0,0,1,884.11,109.36Zm-9.91,11.7h-5.57V115.2h5.57Zm16.69,0h-5.17V115.2h5.17Z"/><path class="cls-1" d="M906.61,110.12a1.88,1.88,0,0,1-1.12.2,4.39,4.39,0,0,1-1.37-.2L901,103.63a9.77,9.77,0,0,0-5.3-4.18q-3.35-1.1-4.12-2.41c-.49-1.5-1.43-3.79-2.83-6.89V89h1.9a58.35,58.35,0,0,1,6.1,2.2c2.58,1.14,4.3,2.45,5.18,4a36.15,36.15,0,0,1,2.24,6.25,42,42,0,0,0,2.4,6.59Q906.61,108.91,906.61,110.12Zm2.89,10.94H889.62V115.2H909.5Zm-5.57,48.28-8.2-4.54V127.11h8.2Z"/><path class="cls-1" d="M961.05,121.06H908.57V115.2h52.48Zm-10.5,21.48q0-11.72-11.08-11.72-8.21,0-13.72,8.59a29.57,29.57,0,0,0-4.88,16.21v14.21l-8-4.2V128.92h8.4v5.81l4.35-3.28a19.9,19.9,0,0,1,12.15-4.34,18.08,18.08,0,0,1,14.4,6.74A22.73,22.73,0,0,1,957.53,149q0,11.08-9.37,21.28l-9.42-5.9q4.39-4.35,7.47-8Q950.55,151.22,950.55,142.54Z"/><path class="cls-1" d="M976.82,110.12a1.92,1.92,0,0,1-1.13.2,4.28,4.28,0,0,1-1.36-.2l-3.18-6.49a9.74,9.74,0,0,0-5.29-4.18q-3.35-1.1-4.13-2.41c-.49-1.5-1.43-3.79-2.83-6.89V89h1.9a59.51,59.51,0,0,1,6.11,2.2c2.57,1.14,4.29,2.45,5.17,4a36.75,36.75,0,0,1,2.25,6.25,41.18,41.18,0,0,0,2.39,6.59A20.82,20.82,0,0,1,976.82,110.12Zm2.88,10.94H959.83V115.2H979.7Zm-5.57,48.28-8.2-4.54V127.11h8.2Z"/><path class="cls-1" d="M1031,121.06h-10.2v13.68a48.42,48.42,0,0,1,3.9,3.87,20.11,20.11,0,0,1,2.49,4.85h-6.39q0-5.31-3-8.3c-2-2-4.79-3-8.35-3A19.14,19.14,0,0,0,999,135.26a22.09,22.09,0,0,0-7.49,7.89,18.58,18.58,0,0,0-2.69,9.17,9.2,9.2,0,0,0,3.76,7.94,14.37,14.37,0,0,0,8.74,2.44q9,0,12.59-5h10.4q-1.32,5.26-9.72,8.88a17.71,17.71,0,0,1-7,1.62,25.88,25.88,0,0,1-12.69-3.57A31.09,31.09,0,0,1,984.82,156q-3.95-5.3-4-10.48,0-3.9,3.47-8.83,7.26-10.35,17.72-10.35,6.88,0,10.88,2.88v-8.15H978.48V115.2H1031Z"/><path class="cls-1" d="M377.3,64.39a48.67,48.67,0,0,1,7.31-.55c4.93,0,8.45,1.14,10.78,3.31s3.75,5.26,3.75,9.56-1.34,7.9-3.83,10.35-6.6,3.84-11.77,3.84a54.77,54.77,0,0,1-6.24-.32Zm3.43,23.54a21.52,21.52,0,0,0,3.48.2c7.35,0,11.34-4.11,11.34-11.3,0-6.28-3.52-10.27-10.79-10.27a19.37,19.37,0,0,0-4,.36Z"/><path class="cls-1" d="M403.49,77.5c0-2.25,0-4.18-.16-6h3.05l.12,3.75h.15A5.75,5.75,0,0,1,412,71.1a3.65,3.65,0,0,1,1,.12V74.5a5.1,5.1,0,0,0-1.18-.12c-2.45,0-4.19,1.86-4.66,4.47a9.55,9.55,0,0,0-.16,1.62V90.66h-3.44Z"/><path class="cls-1" d="M413.49,88.6a2.33,2.33,0,0,1,2.37-2.48,2.49,2.49,0,0,1,0,5A2.32,2.32,0,0,1,413.49,88.6Z"/><path class="cls-1" d="M449.6,89.79a17.16,17.16,0,0,1-7,1.26c-7.51,0-13.16-4.74-13.16-13.47,0-8.33,5.65-14,13.91-14a14.39,14.39,0,0,1,6.32,1.18l-.83,2.81a12.58,12.58,0,0,0-5.38-1.11c-6.24,0-10.39,4-10.39,11,0,6.52,3.76,10.71,10.24,10.71a13.66,13.66,0,0,0,5.61-1.11Z"/><path class="cls-1" d="M453.79,62.61h3.47V74.54h.08a6.52,6.52,0,0,1,2.49-2.45,7.19,7.19,0,0,1,3.56-1c2.57,0,6.67,1.58,6.67,8.18V90.66h-3.47v-11c0-3.08-1.15-5.69-4.43-5.69a5,5,0,0,0-4.66,3.47,4.19,4.19,0,0,0-.24,1.66V90.66h-3.47Z"/><path class="cls-1" d="M486.3,90.66,486,88.25h-.12a7.13,7.13,0,0,1-5.85,2.84,5.45,5.45,0,0,1-5.85-5.49c0-4.62,4.11-7.15,11.5-7.11V78.1c0-1.58-.43-4.43-4.34-4.43a9.6,9.6,0,0,0-5,1.42l-.79-2.29a11.93,11.93,0,0,1,6.28-1.7c5.85,0,7.27,4,7.27,7.83v7.15a27.64,27.64,0,0,0,.31,4.58Zm-.51-9.76c-3.79-.08-8.1.59-8.1,4.31A3.08,3.08,0,0,0,481,88.53a4.75,4.75,0,0,0,4.62-3.2,3.61,3.61,0,0,0,.2-1.11Z"/><path class="cls-1" d="M494.76,76.71c0-2,0-3.59-.16-5.17h3.08l.2,3.16H498a7,7,0,0,1,6.32-3.6c2.65,0,6.76,1.58,6.76,8.14V90.66h-3.48v-11c0-3.08-1.15-5.65-4.43-5.65a5,5,0,0,0-4.66,3.55,5.28,5.28,0,0,0-.23,1.62v11.5h-3.48Z"/><path class="cls-1" d="M533.2,62.61V85.72c0,1.7,0,3.64.16,4.94h-3.12l-.16-3.32H530a7.07,7.07,0,0,1-6.52,3.75c-4.62,0-8.17-3.91-8.17-9.71,0-6.36,3.91-10.28,8.57-10.28A6.41,6.41,0,0,1,529.65,74h.08V62.61Zm-3.47,16.71a6.05,6.05,0,0,0-.16-1.46,5.12,5.12,0,0,0-5-4c-3.59,0-5.73,3.16-5.73,7.39,0,3.87,1.9,7.07,5.65,7.07a5.23,5.23,0,0,0,5.1-4.15,6,6,0,0,0,.16-1.5Z"/><path class="cls-1" d="M549.56,90.66l-.28-2.41h-.11a7.14,7.14,0,0,1-5.85,2.84,5.45,5.45,0,0,1-5.85-5.49c0-4.62,4.11-7.15,11.5-7.11V78.1c0-1.58-.44-4.43-4.35-4.43a9.63,9.63,0,0,0-5,1.42l-.79-2.29a12,12,0,0,1,6.29-1.7c5.84,0,7.26,4,7.26,7.83v7.15a26.53,26.53,0,0,0,.32,4.58Zm-.51-9.76c-3.8-.08-8.1.59-8.1,4.31a3.08,3.08,0,0,0,3.28,3.32,4.75,4.75,0,0,0,4.62-3.2,3.61,3.61,0,0,0,.2-1.11Z"/><path class="cls-1" d="M558,76.71c0-2,0-3.59-.16-5.17h3.08l.2,3.16h.08a7,7,0,0,1,6.32-3.6c2.64,0,6.75,1.58,6.75,8.14V90.66h-3.47v-11c0-3.08-1.15-5.65-4.43-5.65a5.1,5.1,0,0,0-4.9,5.17v11.5H558Z"/><path class="cls-1" d="M583.82,66.17a2.16,2.16,0,0,1-4.31,0A2.12,2.12,0,0,1,581.68,64,2.07,2.07,0,0,1,583.82,66.17Zm-3.88,24.49V71.54h3.48V90.66Z"/><path class="cls-1" d="M593.85,63.6A46,46,0,0,1,590.14,73l-2.22.28A56.29,56.29,0,0,0,590.26,64Z"/><path class="cls-1" d="M594.33,87.1a9,9,0,0,0,4.58,1.39c2.53,0,3.71-1.27,3.71-2.85s-1-2.57-3.55-3.51C595.63,80.9,594,79,594,76.71c0-3.08,2.49-5.61,6.6-5.61a9.59,9.59,0,0,1,4.7,1.19l-.87,2.53a7.37,7.37,0,0,0-3.91-1.11c-2.06,0-3.2,1.19-3.2,2.61,0,1.58,1.14,2.29,3.63,3.24,3.32,1.26,5,2.92,5,5.77,0,3.35-2.61,5.72-7.15,5.72a10.9,10.9,0,0,1-5.37-1.3Z"/><path class="cls-1" d="M107.62,81.42c2.59,14.11,1.36,20.93,5.78,37.5,3.45,13,5.65,21.2,12.1,29.21,11.55,14.36,29.54,19,40.27,20.68a164.08,164.08,0,0,0-11.27-50c-8.17-20.46-18.38-33.86-17.69-34.26s15.52,17,26.43,40.84l.6,1.34a100.5,100.5,0,0,0,12.07,39.35c.17,1,.33,1.89.47,2.78l.57-.9c1.17,2.06,2.24,3.81,3.13,5.19.6-4.77,1.44-10.23,2.64-16.25a228.52,228.52,0,0,1,5.84-23c1.73-5.61,3.79-11.47,6.23-17.51C207.4,85.11,224.89,62,225.9,62.6c.86.5-11.24,18.21-20.6,45a222.65,222.65,0,0,0-12.19,65.15c13.11-2.5,35-9.17,48.75-28.16,7.65-10.58,10.08-21.32,13.91-38.24,4.88-21.62,3.13-30.41,5.85-48.76A184.92,184.92,0,0,1,278.86,3.15c.83-1,1.63-2.2,1.26-2.76-2.05-3.12-40.66,12.77-71,39.93-13.77,12.31-29.19,26.1-38.1,45.4C164.47,78.57,157,72.57,150,67,124.75,46.68,93,35.25,91.39,37.7c-.28.45.39,1.35,1.07,2.11A136.75,136.75,0,0,1,107.62,81.42Z"/><path class="cls-1" d="M73.72,155.12a269.39,269.39,0,0,0,61.46,39.19c34.65,16,58.1,21.82,105,33.48a102.54,102.54,0,0,0,42.38,1.91c10.75-1.84,26.76-4.59,29.49-14.31,3.81-13.54-20.83-31-23.33-29-2.13,1.7,13.48,16.17,9.46,25.22-6.89,15.52-67.38,6-114.12-9.45C123.47,182.11,61.45,144,66.8,124.6c2.14-7.74,14.62-11.15,13.87-12.61-1-2-24.12,2.73-27.11,14.5C52.09,132.29,55.54,139.64,73.72,155.12Z"/><path class="cls-1" d="M324.27,197.34c-2.94,2.34,18.56,22.26,13,34.73-9.49,21.37-92.79,8.25-157.15-13C96.68,191.45,11.29,139,18.65,112.25c2.94-10.65,20.13-15.35,19.1-17.36-1.37-2.69-33.21,3.76-37.33,20-2,8,2.73,18.11,27.75,39.42a370.44,370.44,0,0,0,84.64,54c47.72,22,80,30.05,144.6,46.1A141,141,0,0,0,315.78,257c14.8-2.54,36.84-6.33,40.61-19.71C361.64,218.63,327.71,194.59,324.27,197.34Z"/></g></g></svg>