<svg xmlns="http://www.w3.org/2000/svg" viewBox="0 0 290.68 203.33"><defs><style>.cls-1{fill:#808285;}</style></defs><g id="Layer_2" data-name="Layer 2"><g id="Layer_1-2" data-name="Layer 1"><g id="Layer_2-2" data-name="Layer 2"><g id="Layer_1-2-2" data-name="Layer 1-2"><path class="cls-1" d="M123,36.24a44,44,0,0,1-2.47-7.75c-1.47-7.3.62-13.69,5.13-19.36,10.64-13.32,31.89-11.79,40.82,2.8,4.92,8.06,5.35,16.32.17,24.53-.13.22-.21.47-.56,1.25a22.21,22.21,0,0,1,8.34-3.39,24.6,24.6,0,0,1,12.28.65,27,27,0,0,1,10.08,5.31,23.24,23.24,0,0,1,6,8.22,22.71,22.71,0,0,1,2.26,7.32c.62,8.3-2.53,15-8.71,20.39a24.57,24.57,0,0,1-15.3,6,27.68,27.68,0,0,1-12.72-2.71c-.39-.18-.76-.56-1.27-.3,5.82,10.57,4.14,21-3.55,28.8a25.14,25.14,0,0,1-30.93,4.36c-5.92-3.31-9.44-8.61-11.52-14.91-2.16-6.57-.08-12.63,2.69-18.63-1.19-.14-1.83.52-2.57.87-14.33,6.64-33.26-1.17-35.66-19.8-1.33-10.3,6.64-22.19,16.61-24.94a30.68,30.68,0,0,1,20.65,1.57c.1.05.24.18.29.15C123.31,36.52,123.17,36.37,123,36.24ZM145.26,3.15c-5.84,0-9.25,1.12-13.67,4.52-9.18,7.07-11.3,19.09-5,28.16.67,1,2,2,1.89,2.85s-1.49,1.69-2.31,2.54l-.14.14c-.46.57-.85.61-1.47.08-4.57-3.87-10-4.9-15.8-4.75C96.77,37,86.48,49.23,88.63,61a22.11,22.11,0,0,0,33.92,14.49c2.91-1.84,2.83-1.84,5.38.51,1,.91.85,1.41.09,2.39-5,6.43-6.35,13.46-3.13,21.11s9.41,11.82,17.2,13.33c5.19,1,10.25-.61,14.87-3.27,7.58-4.36,13.12-15.61,9.67-24.16a26.73,26.73,0,0,0-4-7.08c-1.22-1.49-.07-2.15.8-2.88s1.11-2,2.82-.77c5.65,3.95,11.89,5.77,18.82,4,8.18-2.08,13.74-7,16.23-15.16,2.42-7.9.08-14.67-5.4-20.48-6.48-6.87-20.1-9.07-29.44-1.88-2.36,1.81-2.87-.68-4.07-1.49-1.48-1-.27-1.77.33-2.55,3.2-4.14,5.24-8.9,4.67-14C166,10.61,156.6,2.85,145.26,3.15Z"/><path class="cls-1" d="M55.81,159c-.07-1.33-.21-2.63-.2-3.92.06-7.71.17-15.41.2-23.11,0-1.25.27-1.83,1.65-1.76,1.85.08,3.72,0,5.58,0,1.09,0,1.55.27,1.54,1.45q0,22.23,0,44.46c0,.65.11,1.33-.8,1.59s-1.63.51-2.4-.28c-1.59-1.69-3.24-3.33-4.85-5L33.32,148c-.21-.22-.4-.55-.85-.46-.4.58-.17,1.25-.17,1.88,0,8.64-.06,17.28,0,25.91,0,1.52-.4,2-1.92,1.89a47.11,47.11,0,0,0-5.18,0c-1.16.05-1.66-.26-1.66-1.54q.06-22.23,0-44.46c0-.8.12-1.29,1-1.64a1.88,1.88,0,0,1,2.29.56c4.55,4.57,9.14,9.1,13.66,13.69s9.17,9.43,13.76,14.15C54.68,158.34,55,158.92,55.81,159Z"/><path class="cls-1" d="M152.84,147.84c-.5,9.14-.44,18.11-.36,27.07,0,1.79-.4,2.53-2.29,2.33a23.36,23.36,0,0,0-4.58,0c-1.5.12-1.93-.38-1.93-1.88.06-7.85-.05-15.69,0-23.55,0-6.78.19-13.56.33-20.32,0-.71-.48-1.73.59-2.07a2.51,2.51,0,0,1,2.73.71c3,3.08,6.09,6.13,9.12,9.21,4.74,4.83,9,10.11,14.19,14.51,1.78,1.51,2.51,4.1,5.33,4.94v-2.14c0-8.12,0-16.23,0-24.35,0-1.52.47-2,1.93-1.89a33,33,0,0,0,5-.22c1.51-.16,1.91.37,1.91,1.87,0,10.17,0,20.35,0,30.51,0,4.31,0,8.62-.06,12.94,0,.7.47,1.66-.58,2.09a2.45,2.45,0,0,1-2.92-.61q-3.81-4.05-7.66-8.09-9.4-9.9-18.82-19.78A3.89,3.89,0,0,0,152.84,147.84Z"/><path class="cls-1" d="M259.69,153.63c0-7.11.05-14.22,0-21.33,0-1.62.57-2.08,2.05-2.07q13.65,0,27.31,0c1.14,0,1.52.37,1.45,1.5a42.51,42.51,0,0,0,0,4.79c.09,1.38-.5,1.65-1.75,1.64-6.05-.05-12.09,0-18.14,0-1.49,0-2.15.29-2.06,2a64.71,64.71,0,0,1,0,7.37c-.07,1.46.34,2,1.87,1.93,4.92-.1,9.83,0,14.77,0,1.48,0,2.06.4,1.87,1.91-.25,1.95.82,4.49-.49,5.73s-3.67.28-5.59.32c-3.51.06-7,.11-10.56.05-1.33,0-1.9.29-1.84,1.75q.16,4.2,0,8.38c-.08,1.58.52,1.87,1.94,1.85,6-.07,12,0,18-.07,1.66,0,2.32.49,2.13,2.16-.21,1.84.73,4.19-.4,5.4s-3.52.4-5.35.4c-7.51,0-15-.05-22.52.06-1.93,0-2.62-.35-2.58-2.47.16-7,.06-14.08.06-21.12Z"/><path class="cls-1" d="M79.08,153.8c0-7.11,0-14.21,0-21.32,0-1.68.4-2.32,2.2-2.31,8.9.08,17.8,0,26.7,0,1.54,0,2.2.4,2.07,2a22.45,22.45,0,0,0,0,4.18c.13,1.45-.45,1.78-1.81,1.78-6-.05-12.09,0-18.13,0-1.53,0-2.12.35-2,2,.12,3,.09,6.11,0,9.18,0,1.3.39,1.72,1.68,1.71,5-.07,10,0,15-.07,1.44,0,2.16.32,1.9,1.87a6,6,0,0,0,0,1.2c0,4.9,0,4.89-5,4.9-3.79,0-7.59.1-11.36,0-1.63,0-2.21.45-2.18,2.14.1,4.85,0,9.7.06,14.54,0,1.31-.4,1.76-1.71,1.68a43.45,43.45,0,0,0-5.59,0c-1.52.09-1.71-.61-1.7-1.89.05-7.18,0-14.36,0-21.52Z"/><path class="cls-1" d="M229.43,157.56V140.61c0-2.52,0-2.52-2.62-2.53s-5.19-.07-7.78,0c-1.23,0-1.64-.4-1.57-1.59.09-1.53.08-3.06,0-4.59,0-1.14.32-1.7,1.6-1.69q15,0,30.11,0c1.09,0,1.39.46,1.32,1.44-.15,2,.76,4.62-.4,6s-3.75.32-5.71.47-4.19-.74-5.4.4-.4,3.53-.4,5.35q-.08,15.66,0,31.31c0,1.59-.35,2.28-2.07,2.13a37.16,37.16,0,0,0-5.38,0c-1.34.07-1.69-.44-1.68-1.72.05-6,0-12,0-18Z"/><path class="cls-1" d="M129.22,153.89c0,7.18,0,14.34,0,21.5,0,1.37-.34,1.91-1.77,1.83a55.53,55.53,0,0,0-5.77,0c-1.26.05-1.57-.44-1.57-1.62q.08-21.81.05-43.61c0-1.46.58-1.83,1.9-1.77a53.44,53.44,0,0,0,5.37,0c1.4-.09,1.81.4,1.8,1.79C129.18,139.28,129.22,146.59,129.22,153.89Z"/><path class="cls-1" d="M199.48,153.66c0-7.18,0-14.36,0-21.54,0-1.47.36-2,1.88-2a38.93,38.93,0,0,0,5.18,0c1.47-.11,1.76.51,1.75,1.84q-.06,21.74,0,43.46c0,1.43-.44,1.86-1.82,1.77a44.76,44.76,0,0,0-5.18,0c-1.41.08-1.82-.42-1.81-1.81.06-7.24,0-14.49,0-21.73Z"/><path class="cls-1" d="M8.82,153.67c0,7.11-.07,14.21,0,21.31,0,1.92-.62,2.42-2.37,2.25a24.76,24.76,0,0,0-4.39,0C.39,177.32,0,176.59,0,175c.06-12.68,0-25.35,0-38,0-1.66.1-3.32,0-5-.1-1.45.48-1.84,1.83-1.77a47.29,47.29,0,0,0,5.19,0c1.38-.08,1.81.36,1.8,1.78-.1,7.24-.07,14.49-.07,21.71Z"/><path class="cls-1" d="M93.16,199.31c1.4-2.68,2-5.71,3.9-8.44,1.33,3.75,1.64,7.39,2.26,10.95.08.42.4,1.12-.51,1.2-.71.07-1.12-.17-1.24-.92-.31-1.94-.66-3.87-1.07-6.25a40.36,40.36,0,0,0-2.59,5.94c-.23.54-.25,1.3-1,1.3s-.67-.85-.87-1.36A36.12,36.12,0,0,0,89.31,196c-.36,1.74-.74,3.47-1.07,5.21-.15.85-.08,1.95-1.39,1.6s-.28-1.35-.2-1.93c.4-2.69,1-5.35,1.48-8,.11-.54-.15-1.41.62-1.48s1,.72,1.26,1.35c.64,1.59,1.26,3.19,1.92,4.79C92.19,198.19,92.33,199,93.16,199.31Z"/><path class="cls-1" d="M127,197.18v4.58c0,.72,0,1.3-1,1.34s-.73-.7-.76-1.22c-.18-3.91-.17-3.82-4-3.95-1.79-.05-2.57.4-2.28,2.28a13.36,13.36,0,0,1,0,2c0,.65-.44.74-.94.75s-.92-.14-.93-.76q0-5,0-9.95c0-.82.62-.68,1.13-.72s.86.23.8.8v.2c.13,1.17-.58,2.79.35,3.4,1.38.89,3.22.15,4.86.26.74.05.83-.46.82-1.05,0-.86,0-1.73,0-2.59s.49-1,1.25-1.05,1,.36,1,1.09c-.06,1.53,0,3.06,0,4.59Z"/><path class="cls-1" d="M220.55,202.86a2.23,2.23,0,0,1-2.84-1.48,17,17,0,0,0-1.42-2.4c-.48-.75-1.27-.68-2-.56-.89.15-.49,1-.54,1.47a16.68,16.68,0,0,0,0,2c0,.78-.12,1.24-1.07,1.22s-.93-.46-.93-1.12c0-3.19,0-6.39,0-9.58,0-.82.35-1,1.05-1,1.46,0,2.92,0,4.39,0a3.56,3.56,0,0,1,3.31,2.45,2.53,2.53,0,0,1-1,3.24,2,2,0,0,0-.34,3.23A15,15,0,0,1,220.55,202.86ZM215.27,197c1.81,0,3.29-.15,3.33-2.06s-1.53-2-2.92-2.13c-1.79-.2-2,.89-2.05,2.31S214.26,197.17,215.27,197Z"/><path class="cls-1" d="M179.94,197.14c0,1.6,0,3.2,0,4.79,0,.74-.29,1.11-1,1.18-1,.09-.8-.64-.82-1.2-.24-3.92-.24-3.83-4.17-4-1.73-.06-2.24.54-2,2.14a16.51,16.51,0,0,1,0,2c0,.67-.21,1-.91,1s-1.05-.13-1.05-.86c0-3.32,0-6.63,0-9.94,0-.87.58-.7,1.08-.74s.95.15.95.89c0,1.17-.57,2.73.25,3.43,1,.88,2.69.15,4.05.35s1.71-.39,1.8-1.73c.07-1-1.07-3,1-2.91,1.88,0,.51,1.87.8,2.86a10.64,10.64,0,0,1,.05,2.77Z"/><path class="cls-1" d="M72.09,197.18a5.82,5.82,0,0,1,6-6,6.13,6.13,0,0,1,6.24,6v.07a6.15,6.15,0,0,1-6.2,5.91,5.92,5.92,0,0,1-6-5.8Zm10.45,0a4.32,4.32,0,0,0-4.29-4.36H78.1a4.41,4.41,0,0,0-4.3,4.32,4.35,4.35,0,0,0,4.36,4.34h.06A4.48,4.48,0,0,0,82.54,197.2Z"/><path class="cls-1" d="M223.62,197v-1c.11-1.49-.73-3.86.26-4.32,2-.93,4.54-.32,6.85-.31.37,0,.57.24.48.67s-.28.82-.9.8c-1.2,0-2.4.05-3.59,0s-1.31.6-1.28,1.53-.14,1.81,1.2,1.8c.93,0,1.86,0,2.79,0,.73,0,.91.3.89.95s-.3.8-.87.76a15.27,15.27,0,0,1-1.79,0c-1.91-.31-2.39.56-2.24,2.32.09.92.35,1.31,1.29,1.27,1.13-.06,2.26,0,3.39,0,.51,0,1.12-.11,1.14.71s-.4.89-1,.89c-1.86,0-3.72,0-5.58,0-.89,0-.95-.46-.95-1.11v-5Z"/><path class="cls-1" d="M59.29,197.12c0-1.59,0-3.19,0-4.78,0-.67.21-1,.92-1s.88.28.9,1c0,1.17-.56,2.69.29,3.44s2.55.22,3.84.44c1.79.29,2.31-.38,2.25-2.15,0-.83-1-2.61.85-2.57,1.63.05.69,1.68.73,2.55.13,2.44,0,4.9,0,7.35,0,.6.29,1.39-.8,1.47s-.81-.8-.83-1.34c-.14-3.59-.13-3.63-3.68-3.62-3,0-2.63-.46-2.68,2.6,0,.47,0,.93,0,1.4.06.69-.26.91-.93.92s-1-.29-.88-1v-4.76Z"/><path class="cls-1" d="M130.74,197.12c-.08-1.52-.12-3.05-.23-4.58-.06-.85.23-1.19,1.1-1.19,1.86,0,3.73,0,5.59,0,.4,0,1-.16.94.63s-.32.91-1,.88c-.93-.05-1.86,0-2.79,0-1.11,0-2-.07-2,1.59s.9,1.76,2.1,1.72c.67,0,1.34,0,2,0s.9.26.9.93-.36.87-1,.84-1.34.07-2,0c-1.81-.28-2.09.66-2,2.19,0,1,.4,1.4,1.4,1.35s2.13,0,3.2,0c.64,0,1.15,0,1.14.9s-.5.8-1.05.77h-.2c-2-.15-4.61.85-5.72-.42-1-1.09-.19-3.67-.19-5.59Z"/><path class="cls-1" d="M102.42,197.09c0-1.52,0-3.05,0-4.57,0-.69.08-1.13.94-1.11,1.86,0,3.71,0,5.59,0,.46,0,1,0,.9.7s-.31.78-.88.77c-.93,0-1.86.07-2.79,0-1.26,0-2.08,0-2,1.75s.95,1.59,2,1.57H108c.69,0,1.14.09,1.12,1s-.45.84-1,.82a19.07,19.07,0,0,1-2,0c-1.65-.25-2,.5-2,2,0,1.22.4,1.65,1.6,1.55s2.25,0,3.38,0c.6,0,.79.31.82.86s-.29.8-.85.8c-1.86,0-3.71,0-5.58,0-.8,0-1-.34-1-1.07,0-1.66,0-3.32,0-5Z"/><path class="cls-1" d="M209.78,202.71c-1.24.4-2,.18-2.23-1.12-.14-.87-.73-1-1.46-1-1.06,0-2.13,0-3.19,0s-2,.05-2.23,1.35-1.33.71-2.26.91c1.69-3.7,3.32-7.26,4.93-10.83.17-.37.31-.8.78-.73s.71.6.9,1c1.24,2.71,2.45,5.42,3.68,8.13Zm-7.7-3.7c5.18.17,4.07.3,2.64-3.44a.79.79,0,0,0-.73-.63c-.59,1.25-1.2,2.54-1.91,4.06Z"/><path class="cls-1" d="M142.56,200.62c-1,.61-.69,2.79-2.91,2.2q2.23-5.5,5-10.8c.45-.86,1-1,1.46.06,1.57,3.55,3.17,7.08,4.77,10.63-2.31,1-1.82-1.64-3-2.08a.67.67,0,0,0-.92,0l-4.22,0C142.62,200.37,142.59,200.48,142.56,200.62Zm.5-1.64h3.32c.57,0,1-.18.61-.8-.63-1.06-.77-2.42-1.88-3.41Z"/><path class="cls-1" d="M197.45,200.72a4.65,4.65,0,0,1-4.86,2.45,6.11,6.11,0,0,1-5.22-3.75,5.77,5.77,0,0,1,1.78-6.83,5.93,5.93,0,0,1,7.19-.4c.43.31,1.22.55.71,1.35-.4.63-.9.25-1.38,0a11.12,11.12,0,0,0-1.49-.56,3.91,3.91,0,0,0-4.65,1.74,3.85,3.85,0,0,0,.08,4.81c1.16,1.56,2.63,2.37,4.66,1.71A5.56,5.56,0,0,1,197.45,200.72Z"/><path class="cls-1" d="M162.87,197.75c0-.79-.06-1.59,0-2.39.12-1.56,0-2.83-2.12-2.34-.52.12-.93,0-.91-.69s.2-1,.93-1c2,0,4,0,6,0,.4,0,.8,0,.82.6s-.14,1-.75.89c-2.15-.29-2.11,1.07-2.06,2.57.07,2,0,4,0,6,0,.78.06,1.45-1,1.45s-.89-.72-.89-1.36v-3.78Z"/><path class="cls-1" d="M154.74,196.48v.8c0,1.25-.35,2.79.23,3.7.68,1.09,2.31.21,3.52.35.67.07,1.1.12,1.16,1s-.57.81-1.15.84c-5.53.29-5.54.29-5.63-5.15,0-1.8,0-3.6-.05-5.38,0-.63,0-1.2.88-1.16s1.1.43,1.06,1.24C154.7,194,154.75,195.22,154.74,196.48Z"/><path class="cls-1" d="M147,200.6a.67.67,0,0,1,.91,0A.88.88,0,0,1,147,200.6Z"/><path class="cls-1" d="M142.56,200.62c0-.14.06-.25.18-.05l-.07.1Z"/><path class="cls-1" d="M123,36.24c.14.13.26.28,0,.4,0,0-.19-.1-.29-.16Z"/><path class="cls-1" d="M110.25,44.29c3.36-.22,6.24,1,9,2.83.91.61,1.3,1.15.16,1.9a2.59,2.59,0,0,0-.71.69c-1.68,2.45-3.4,3.55-6.55,1.79-2.5-1.4-6.23.53-7.8,3.23a6.32,6.32,0,0,0,1.14,7.84,6.67,6.67,0,0,0,8.38,1,51.5,51.5,0,0,0,6.68-5.93c6.1-5.84,12.1-11.77,18.2-17.6,1.18-1.13,1.1-1.77-.06-2.83a31.46,31.46,0,0,1-5.43-5.8,12.22,12.22,0,0,1-.67-13,13.12,13.12,0,0,1,11.22-7.52c6.68-.44,12.05,2.7,14.47,8.41,2.36,5.56.67,9.47-2.32,13.78-.47.69-.91.6-1.44.07a19.79,19.79,0,0,0-1.89-1.77c-1.6-1.23-3-2.15-1.15-4.57,1.55-2.06.57-5.43-1.31-7-2.8-2.39-6.2-2.94-8.78-1.09-3.8,2.74-5.3,5.74-1.64,9.65s7.61,7.62,11.48,11.34c4.21,4.06,8.51,8,12.68,12.11,1.12,1.1,1.64,1.09,2.8-.07,3.14-3.11,6.25-6.33,11-7.18,6.64-1.2,14.2,3.67,15.56,9.25,1.51,6.07,0,11.42-4.29,14.57-6.14,4.53-12.37,4-17.45.4-1.06-.75-1.67-1.42-.08-2.25a3.31,3.31,0,0,0,1-.94c1.4-1.9,2.72-2.37,5.18-1.2a6.33,6.33,0,0,0,7.54-1.94c1.76-2,2.53-4.36,1.31-7s-3.38-3.73-6.21-3.94a6.82,6.82,0,0,0-5.39,2.09q-10.56,10.14-21.1,20.32c-.4.37-.75.75-1.14,1.11-2.42,2.25-2.45,2.29.18,4.49A20.37,20.37,0,0,1,158.22,86c2.44,5,1.33,9.68-2,13.91-3.46,4.42-10.2,6.47-15,4.67-6.38-2.37-10.16-7.5-10-13.64.1-3.13,1.62-5.7,3.28-8.21.4-.6.8-.56,1.3-.1s1.17,1.08,1.76,1.62c1.36,1.26,3.33,1.93,1.35,4.65-1.78,2.45,0,6.81,2.65,8.32a6.81,6.81,0,0,0,9-1.56c2-2.65,2.83-5.19.12-8.22C146.69,83,142.22,79.17,138,75c-3.71-3.71-7.58-7.28-11.28-11-1-1.05-1.63-1.06-2.73-.07-2.55,2.29-4.85,4.87-8.13,6.29A14.11,14.11,0,0,1,99,65.53c-6.55-9.07.33-19,7.73-21A16.91,16.91,0,0,1,110.25,44.29ZM160,58c-.43-.87-1.23-1.28-1.84-1.86q-5.88-5.67-11.78-11.31c-.59-.57-1.11-1.43-2.11-.45-4.43,4.31-8.88,8.59-13.31,12.89-.5.48-.63.87.05,1.43A135.46,135.46,0,0,1,144.3,71.51c.55.59.95,1,1.76.2,4.34-4.29,8.74-8.52,13.12-12.77C159.45,58.66,159.68,58.34,160,58Z"/></g></g></g></g></svg>