<svg xmlns="http://www.w3.org/2000/svg" xmlns:xlink="http://www.w3.org/1999/xlink" viewBox="0 0 474.77 159.38"><defs><style>.cls-1{fill:none;}.cls-2{clip-path:url(#clip-path);}.cls-3{fill:#808285;}</style><clipPath id="clip-path" transform="translate(0 0)"><rect class="cls-1" width="474.76" height="159.39"/></clipPath></defs><g id="Layer_2" data-name="Layer 2"><g id="Layer_1-2" data-name="Layer 1"><g id="Layer_2-2" data-name="Layer 2"><g id="Layer_1-2-2" data-name="Layer 1-2"><g id="Artwork_28" data-name="Artwork 28"><g class="cls-2"><g class="cls-2"><path class="cls-3" d="M39.21,109.93a4.63,4.63,0,0,1-2.54.34c-11.63,0-23.25-.08-34.88-.07-1.42,0-1.79-.5-1.79-1.86Q.06,79.64,0,51c0-1.43.45-1.88,1.82-1.76s2.79.06,4.18.08a2.27,2.27,0,0,1,.29,1.53c-.14,18.15,0,36.29-.06,54.44v.4c0,3.4.22,3.59,3.63,3.66,1.63-.06,3.26,0,4.89,0,2,0,4-.06,6,0,1.86-.12,3.72.08,5.58,0s3.47,0,5.19,0c2,0,4,0,6,0a2,2,0,0,1,1.74.6" transform="translate(0 0)"/><path class="cls-3" d="M111.33.16h3.19c.75.3,1.93.4.53,1.49-1,.78-.68,2-.68,3q0,24.08,0,48.16V83.44c0,2.26-.37,4.6,2.29,5.77a2.79,2.79,0,0,1-2,.38c-4,.48-5.15-.52-5.15-4.44q0-40.5,0-81c0-1.68.21-3.12,1.84-4" transform="translate(0 0)"/><path class="cls-3" d="M163.21,49.26l4.38,0c1.27.8,1,2.08,1,3.24,0,7.24,0,14.48,0,21.72,0,8.89,0,17.79,0,26.69,0,3-.72,6.18,1.46,8.84-1.84.63-3.74.19-5.61.26-1.85-.51-2.35-1.79-2.35-3.59q0-27,0-54.08c0-1.13,0-2.28,1-3.08" transform="translate(0 0)"/><path class="cls-3" d="M53.47,71.15a5.59,5.59,0,0,1,3.19-1.24c1,1.07.65,2.4.65,3.62q0,40.11,0,80.23c0,.66,0,1.33,0,2-.12,1.68.46,2.7,2.31,2.6,1.13,0,2.24-.05,3.36,0s2,0,2.93,0c1.84,0,3.67,0,5.5,0,1.47,0,2.94,0,4.41,0q2.58-.06,5.16,0c1.6,0,3.2,0,4.79,0s3.19,0,4.77,0,2.91,0,4.37,0q1.28,0,2.55,0c2.21-.05,4.41-.05,6.62,0,1.45,0,2.91,0,4.37,0,1,0,1.92,0,2.88,0s2.16,0,3.25,0c1.56.11,3.19-.44,4.67.55-.47.73-1.2.4-1.81.4q-31.05,0-62.09,0c-.62,0-1.33.27-1.86-.33a4.29,4.29,0,0,1-.19-2.16c0-22.17.11-44.34-.09-66.51-.05-5.34-.37-10.71-.37-16.07a4.49,4.49,0,0,1,.63-3" transform="translate(0 0)"/><path class="cls-3" d="M14.79,109.86H10c-1.25-.72-.94-2-.94-3Q9,87.41,9.06,68c0-5.71,0-11.41,0-17.12,0-.25,0-.5,0-.75a1.11,1.11,0,0,1,.59-.86h5.18c.18.2.45.4.5.62a22,22,0,0,1-.1,10.9c-2-.28-2.57.59-2.44,2.56.3,4.42-.25,8.87.38,13.3.4,2.73,1.59,5.15,2.45,7.71-.64,1.13.2,2.16.21,3.26,0,6.67,0,13.34,0,20a2.2,2.2,0,0,1-1,2.23" transform="translate(0 0)"/><path class="cls-3" d="M170,109.8c-.08-.34-.23-.69-.62-.67-1.38.08-1.4-.8-1.39-1.81,0-5.7,0-11.41,0-17.11V51.8a4.31,4.31,0,0,0-.4-2.52c5.12-.33,5.12-.33,5.12,4.65v53.9c0,.7.27,1.45-.26,2.1a3.1,3.1,0,0,1-2.46-.13" transform="translate(0 0)"/><path class="cls-3" d="M59.86,158.92a5.3,5.3,0,0,0-.8,0c-1.9.32-2.45-.43-2.44-2.37q.08-41.94,0-83.88c0-.93,0-1.86,0-2.79a11.18,11.18,0,0,1,6.43.07c-2.56.67-2.62,2.58-2.61,4.77q.07,40.26,0,80.52c0,1.24.28,2.55-.62,3.65" transform="translate(0 0)"/><path class="cls-3" d="M59.86,158.92V73.28c0-3.26,0-3.26,3.22-3.29a1.24,1.24,0,0,1,1.18.4,12.08,12.08,0,0,0-.57,4.51v80.36c0,1.24.28,2.55-.63,3.65H59.87" transform="translate(0 0)"/><path class="cls-3" d="M63.05,158.92v-86c0-1-.45-2.26,1.19-2.49a2.73,2.73,0,0,1,1.66.77c.91,5.59.55,11.17.2,16.76,0,19.11,0,38.22,0,57.33,0,1.72.4,2.29,2.18,2.23,4.39-.13,8.76,0,13.15,0a.45.45,0,0,1-.22.59h0c-1.52.56-3.09.25-4.64.32s-2.88,0-4.32,0-2.63,0-3.94,0a1.58,1.58,0,0,0-1.82,1.78c0,2,0,4.08,0,6.12a3.6,3.6,0,0,1-.58,2.62H63.05" transform="translate(0 0)"/><path class="cls-3" d="M116.92.16c1.83-.44,2.49.11,2.49,2.16-.09,22.32,0,44.63-.1,67a3.34,3.34,0,0,0,1.33,3.07c-1.78.75-2.15,2.13-2,3.94a48.06,48.06,0,0,1,0,6.35c-.11,1.87.21,3.38,2.16,4.11a5.39,5.39,0,0,1-3,2c-1.52.15-2.2-.61-2.26-2.07,0-.53,0-1.07,0-1.6V4.24c0-1.52-.15-3.11,1.45-4.08" transform="translate(0 0)"/><path class="cls-3" d="M111.33.16c.06.26.16.73.15.73-2,.53-1.35,2.18-1.35,3.43q0,40.37,0,80.72c0,3.66.75,4.39,4.52,4.55a8.89,8.89,0,0,1-6.51-.84,6.75,6.75,0,0,1-2.24-6.07c.14-2.25,0-4.52,0-6.79,0-1.52-.12-3,1-4.36.4-.47.24-1.15.24-1.74V13.59a2.66,2.66,0,0,0-.36-1.91,1.79,1.79,0,0,1-.49-.46c-.59-3-.21-6.08-.22-9.13,0-.94.92-1.24,1.27-1.93h4" transform="translate(0 0)"/><path class="cls-3" d="M163.21,49.26a10.36,10.36,0,0,0-.4,3.32q0,27,0,53.9c0,1.25-.4,2.76,1.66,2.76l-.07.56c-1.55.57-3.14.19-4.71.23a2.16,2.16,0,0,1-1.35-1.82,54.75,54.75,0,0,1,0-8.1,1.57,1.57,0,0,1,.76-1.32c.31-.16.69-.22.89-.56-.1-5.5.3-11-.42-16.52-2.53-9.7-.89-19.58-1.34-29.37a3.32,3.32,0,0,1,1.39-3.09h3.59" transform="translate(0 0)"/><path class="cls-3" d="M159.61,109.8H170l2.46.13c-.73.51-1.55.27-2.33.27q-36.19,0-72.4,0a4.66,4.66,0,0,0-3.7,1.38,9.61,9.61,0,0,1-8.22,2.74c-1.13-.65-1-1.79-1-2.83q0-6.94,0-13.91c0-3.1.63-3.59,3.88-3.23a8.33,8.33,0,0,1,5.59,2.76,4,4,0,0,0,3.32,1.29q22.25-.06,44.48,0c.8,0,1.6,0,2.4.08-1.07,1.6-2.69.68-4.06.91-2.36,0-4.72.07-7.08,0-2,.06-4,.06-6,0s-4.25,0-6.38,0-4.51.08-6.76,0c-1.87,0-3.74.06-5.61,0-2.22,0-4.43.07-6.65,0-1.66,0-3.32,0-5,0-1.35,0-2.13.59-2.14,2,0,1.93,0,3.85,0,5.78a2,2,0,0,0,2.25,2.16l6.39,0c1.71-.08,3.42,0,5.13,0,2.11-.08,4.24,0,6.36,0,2.39-.13,4.76,0,7.14,0,2-.09,4,0,6,0s4.26,0,6.39,0,4.51,0,6.78,0,4.51.06,6.76,0c1.62-.07,3.25,0,4.87,0,2.26.09,4.56-.48,6.75.49" transform="translate(0 0)"/><path class="cls-3" d="M377,73.66c-.26.07-.37-1-.68-.13a4,4,0,0,0,0,1.38v32.61c0,.65-.1,1.31-.16,2a1,1,0,0,1-.36.17c-4.06.34-4.18.24-4.18-3.81V59.58c0-1.22-.29-2.56.85-3.53a9.49,9.49,0,0,1,3.79-.09,3.49,3.49,0,0,1,.58,2.62c0,3.7.16,7.4-.07,11.08-.09,1.38,1.07,2.63.24,4" transform="translate(0 0)"/><path class="cls-3" d="M116.92.16a5.42,5.42,0,0,0-.8,3.56q0,41.22,0,82.45c0,1.36.21,2.32,1.68,2.61a1.25,1.25,0,0,1-1.15.43c-.23-.11-.5-.38-.7-.33-2.34.54-2.23-.86-2.22-2.51q0-41.64,0-83.29c0-1.37.28-2.12,1.83-2.12l-1-.8h2.4" transform="translate(0 0)"/><path class="cls-3" d="M61.09,43a5.13,5.13,0,0,1-4.43-.43,5.68,5.68,0,0,1-1.78-4.28Q54.8,21,54.88,3.75A4.55,4.55,0,0,1,56.29.16h4.39A2.24,2.24,0,0,1,61,1.68c-.18,12.25,0,24.49-.1,36.74A40.42,40.42,0,0,1,61.12,43" transform="translate(0 0)"/><path class="cls-3" d="M119.24,158.92l-4.72,0a3.51,3.51,0,0,1-.64-2.64c0-12.22,0-24.43,0-36.66,0-1.19-.48-3,1.8-2.93a4.58,4.58,0,0,1,3.57,4.49c.06,12.58,0,25.17,0,37.76" transform="translate(0 0)"/><path class="cls-3" d="M372.65,56a4.72,4.72,0,0,0-.39,2.72v47.85c0,3.2-.34,2.85,2.89,2.87h1c-2.37.61-4.76.29-7.15.15-.92-.37-.72-1.2-.73-1.88q0-24.89,0-49.76c0-1.66.65-2.33,2.26-2.15.71.08,1.46-.17,2.14.2" transform="translate(0 0)"/><path class="cls-3" d="M9,50.1c.89.61.58,1.46.58,2.22q0,27.41,0,54.82a4.6,4.6,0,0,0,.4,2.71c-4.39.11-4.39.11-4.39-4.24q0-26.6,0-53.2A10.42,10.42,0,0,1,6,49.27H9.58a2.49,2.49,0,0,1-.6.83c-.2,18.5-.2,36.89-.2,55.25,0-18.44,0-36.87.2-55.26" transform="translate(0 0)"/><path class="cls-3" d="M405.33,56.05c0,3.44.09,6.88.09,10.33v40.93c0,.72-.1,1.44-.16,2.16a4.86,4.86,0,0,1-3.3-.06,3.84,3.84,0,0,1-.8-3q0-23.67,0-47.35a3.77,3.77,0,0,1,.82-3,5.29,5.29,0,0,1,3.36-.05" transform="translate(0 0)"/><path class="cls-3" d="M61.09,43a4.25,4.25,0,0,1-.86-2.75q.06-18.66,0-37.32a13.94,13.94,0,0,1,.4-2.73h4c.76.47.67,1.23.66,2-.09,10.92,0,21.83-.07,32.75,0,1.11-.14,2.26.63,3.23-.22,2.73-1.88,4.42-4.76,4.86" transform="translate(0 0)"/><path class="cls-3" d="M290.9,109.49c-2.55.65-5.13.22-7.7.24-1.11,0-.8-1-.8-1.7,0-5.51,0-11,0-16.55,0-11.23.05-22.46,0-33.69,0-1.79.5-2.35,2.24-2.2a31.84,31.84,0,0,0,5,0c1.34-.08,1.7.43,1.68,1.71-.05,6.18,0,12.37,0,18.54,0,.68-.35,1.48.4,2,.19.55-.15.62-.57.61-1-.77-.8-1.91-.8-2.93,0-5.51,0-11,0-16.51,0-1.29-.12-2.45-1.83-2.42s-2.13.83-2.13,2.37q0,23.72,0,47.43c0,1.79.68,2.6,2.45,2.48a2.59,2.59,0,0,1,2.15.58" transform="translate(0 0)"/><path class="cls-3" d="M450.06,109.61c-2.71.4-2.8.33-2.8-2.21,0-16.52,0-33.05,0-49.58,0-1.71.37-2.31,2.18-2.24,4,.15,8,0,12,.06a4,4,0,0,1,2.32.35,2,2,0,0,1-1.66.6c-1.29.06-2.59,0-3.89,0-.93-.07-1.86,0-2.8,0-.58,0-1.15,0-1.74,0s-.94,0-1.41.07c-1.38.48-1.09,1.69-1.1,2.69,0,6.5,0,13,0,19.51v27.06c0,1.29.23,2.7-1,3.68" transform="translate(0 0)"/><path class="cls-3" d="M159.61,49.25c.15.21.29.4.43.63-1.85.39-1.2,1.88-1.2,3-.07,7.63-.18,15.25-.05,22.88,0,2,1.14,3.89.8,6a29.21,29.21,0,0,0-6.76-12.44c-1.49-1.85-1.41-4-1.38-6.23,0-3.52,0-7,0-10.55A3.53,3.53,0,0,1,153,49.1a30.66,30.66,0,0,1,5.07.14Z" transform="translate(0 0)"/><path class="cls-3" d="M108.54,158.9h-4.39a3.47,3.47,0,0,1-.62-2.63q0-9.79,0-19.61a6.08,6.08,0,0,1,.85-3.59,4.41,4.41,0,0,0,.55-2.07,30.75,30.75,0,0,0,1.71-9.26,4.89,4.89,0,0,1,2.26-4.36,1.68,1.68,0,0,1,.48,1.46c-.44,12.47-.07,25-.2,37.44a3.51,3.51,0,0,1-.63,2.64" transform="translate(0 0)"/><path class="cls-3" d="M104.91,131c.26.54.71,1.2.28,1.68-1.41,1.6-1,3.49-1,5.31,0,7,0,14,0,20.93H97.36a3.29,3.29,0,0,1-.6-2.44c0-3.84.12-7.68-.05-11.52-.11-2.44,1.6-3.82,2.61-5.61a36.4,36.4,0,0,0,5.59-8.35" transform="translate(0 0)"/><path class="cls-3" d="M439.67,109.49c-.46.56-1.11.32-1.67.32-7.05,0-14.1-.06-21.15,0-1.62,0-2-.5-2-2q.07-25.14,0-50.25c0-1.66.56-2.08,2-1.93,2.55.25,5.14-.45,7.65.37-.75.8-1.74.57-2.67.61-.46,0-.93,0-1.39,0s-1.16,0-1.73.1c-1.16.7-.8,1.88-.8,2.86,0,6.89,0,13.78,0,20.67,0,8.61,0,17.22,0,25.83,0,1-.52,2.35,1,2.83.46,0,.92,0,1.38,0s.91,0,1.37,0c.8,0,1.59,0,2.39,0s1.83,0,2.75,0,1.84,0,2.76,0,1.84,0,2.76,0a20.61,20.61,0,0,1,2.08,0c.93,0,1.86,0,2.8,0a3.23,3.23,0,0,1,2.37.56" transform="translate(0 0)"/><path class="cls-3" d="M290.9,109.49l-2,0c-1.28-.77-1-2.07-1-3.22,0-9.88,0-19.76,0-29.64V59.08c0-1-.14-2.14.63-3,1.92-.34,2.47.44,2.43,2.37-.12,6-.05,11.94,0,17.91,0,.7-.26,1.48.4,2.06a1.57,1.57,0,0,1,.54,1.23c0,3.92.46,7.85-.3,11.75a1.09,1.09,0,0,0,.12.56,9.25,9.25,0,0,0-.42,3.87v11.83c0,.63.26,1.32-.31,1.87" transform="translate(0 0)"/><path class="cls-3" d="M469.61,107.1a6.78,6.78,0,0,1-3.5,1.65c-1.59-.26-1.33-1.62-1.42-2.63a29.74,29.74,0,0,1,.42-7.71c.54-7.09.18-14.2.28-21.3a53.23,53.23,0,0,0-.61-10.92c.1-2.49-.4-5-.12-7.47.13-1.27.4-2.47,2.16-1.89a6.18,6.18,0,0,1,3.14,1.6,3.48,3.48,0,0,0-1,2.67q0,21.76,0,43.54a4.19,4.19,0,0,0,.62,2.44" transform="translate(0 0)"/><path class="cls-3" d="M115.72,116.67c-1.51.18-1.2,1.36-1.2,2.29V158.9h-3.19a3.51,3.51,0,0,1-.63-2.64q0-18.42,0-36.83c0-1.28,0-2.56,1.4-3.24a4.73,4.73,0,0,1,3.62.48" transform="translate(0 0)"/><path class="cls-3" d="M199.52,56q0,15,.08,30c0,4.71.05,9.42,0,14.12,0,1.38.37,1.83,1.78,1.79,3.71-.1,7.43-.07,11.14,0,.61,0,1.34-.33,1.82.38a3.39,3.39,0,0,1-2.39.59c-.95-.07-1.89,0-2.83,0s-1.86,0-2.79,0-1.6,0-2.41,0a.6.6,0,0,1-.19,0c-3.1,0-3.2.15-3.25,3.19,0,1.2.35,2.5-.61,3.55a4.26,4.26,0,0,1-2.52-.18,5.81,5.81,0,0,1-.84-3.63q0-23,0-46a6,6,0,0,1,.82-3.64,2.42,2.42,0,0,1,2.22-.1" transform="translate(0 0)"/><path class="cls-3" d="M424.13,109.43h-2.39a3,3,0,0,1-.6-2.43V58.48a3.27,3.27,0,0,1,.59-2.44l2.85-.06h0a12.21,12.21,0,0,1,.08,3.91c0,1.63.5,2.53,2.25,2.4.52.12,1.15.08,1.19.85-4.28.26-4.28.26-4.28,4.67,0,3,.05,6,0,9,0,1.33.4,1.71,1.72,1.67,3.19-.09,6.38,0,9.55-.07,1.32,0,2,.27,1.82,1.74-.26,1.92.45,3.91-.4,5.8-.79-1-.54-2.13-.55-3.22,0-3.33,0-3.33-3.38-3.34-.8-.06-1.6,0-2.4,0-1,0-2,0-3,0-2.4.05-2.4.05-2.42,2.39,0,.27,0-.06,0,.2a3.8,3.8,0,0,0,1.45,4c-1.92-.21-2.42.66-2.35,2.53.15,3.89.11,7.8,0,11.7,0,1.53.49,1.9,1.93,1.86,4-.09,8.07-.06,12.1,0,.63,0,1.34-.3,1.86.32a3.29,3.29,0,0,1-2.36.55c-.93,0-1.85,0-2.79,0s-1.6,0-2.43,0-1.59,0-2.42,0q-1.53,0-3.06,0c-1.68-.23-2.14.5-2,2.14.11,1.46.46,3-.48,4.42" transform="translate(0 0)"/><path class="cls-3" d="M65.84,38.09c-1.24-.27-1.2-1.27-1.2-2.18.1-11.73-.23-23.46.17-35.19a1.82,1.82,0,0,0-.17-.56H69a2,2,0,0,1,.35,1.5c-.32,6.21-.06,12.43-.16,18.64,0,1.24.25,2.21,1.51,2.66-1.49,2.85-3.59,5.38-4.24,8.67a13.68,13.68,0,0,1-.32,2.49,11.81,11.81,0,0,0-.27,3.19c0,.26,0,.51-.05.77" transform="translate(0 0)"/><path class="cls-3" d="M303.19,72.78c-2.59,3.13-2.15,6.36-.35,9.65a5.51,5.51,0,0,1,.36,1.13A5.91,5.91,0,0,0,303,86.3c.08,6.39-.24,12.75.2,19.12a2,2,0,0,1-.4,1.68,108.38,108.38,0,0,1-4-11.07,15.61,15.61,0,0,1-.18-3.55c-.05-8.46.1-16.93-.08-25.4a11.76,11.76,0,0,1,.26-2.36A42,42,0,0,1,302.44,58a3.34,3.34,0,0,1,.6,2.64c0,3.72.09,7.44,0,11.17a1.8,1.8,0,0,0,.21,1" transform="translate(0 0)"/><path class="cls-3" d="M106.54,11.37c.56-.3.92-.08,1,.49a15.48,15.48,0,0,1,.19,2.16V69.23c0,1.2.12,2.39-.92,3.32-.49.44-.27,1.14-.28,1.72,0,2.59,0,5.19,0,7.78,0,2-.51,4.18,1.45,5.74.18.15.1.63.14,1a9.73,9.73,0,0,1-3-16.32A4,4,0,0,0,106.6,69q0-27.53,0-55c0-.73,0-1.46,0-2.19a.29.29,0,0,1-.1-.3c0-.09.08-.14.11-.14" transform="translate(0 0)"/><path class="cls-3" d="M223.06,67.21a49.28,49.28,0,0,1,2.87,7.12,14.06,14.06,0,0,1,.14,3.37v28.69a4.89,4.89,0,0,1-.51,3.09c-3.51.59-3.51.59-3.51-2.73,0-6.42.3-12.86-.07-19.26-.37-6.21-.29-12.41-.34-18.61,0-.8-.4-2.29,1.42-1.67" transform="translate(0 0)"/><path class="cls-3" d="M14.79,109.86a3.74,3.74,0,0,0,.4-1.92V88a7.53,7.53,0,0,0-.28-2c-.17-.66-.47-1.51.66-1.73,1.13,2.17,2.91,3.82,4.51,5.61.47.53,1.2.85,1.4,1.6-.16,5.55,0,11.1-.13,16.65a2.37,2.37,0,0,1-.6,1.65h-6" transform="translate(0 0)"/><path class="cls-3" d="M472.74,61.63a12.78,12.78,0,0,1,2,7.5q.07,13.56,0,27.12c0,2.85-.4,5.7-2.28,8.07-1,.05-1.2-.68-1.35-1.4a9.56,9.56,0,0,1-.12-2V65a8,8,0,0,1,.16-2.18c.23-.8.5-1.59,1.62-1.19" transform="translate(0 0)"/><path class="cls-3" d="M250.15,107.54a5.23,5.23,0,0,1-2-2.07,12.53,12.53,0,0,1-1.06-5.4q0-20.08,0-40.16v-1c.07-2.91.5-3.27,3.47-2.92a2.18,2.18,0,0,1,.28,1.34c-.16,16.1-.13,32.21,0,48.31,0,.73.08,1.48-.74,1.9" transform="translate(0 0)"/><path class="cls-3" d="M340.33,109.55c-1.29.1-3,.9-2.81-1.59a100.12,100.12,0,0,1-1-12.95c.06-8.75,0-17.49,0-26.24,0-1.41-.2-3,1.72-3.54l.08.7c.44.8-.16,1.72.39,2.48.73,3.47,1.46,6.93,2.16,10.4a18.25,18.25,0,0,1,.2,2,8.67,8.67,0,0,0-.55,4.27c0,7.67-.19,15.34.13,23a2,2,0,0,1-.36,1.49" transform="translate(0 0)"/><path class="cls-3" d="M112.08,116.19a4,4,0,0,0-.77,3q0,19.86,0,39.73h-2.79c.21-13.84-.45-27.69.36-41.54a3.78,3.78,0,0,1,3.19-1.17" transform="translate(0 0)"/><path class="cls-3" d="M250.57,56c-2.8,0-2.8,0-2.8,2.71v42.6a41,41,0,0,0,.4,4.12c-1.9-2.28-2.29-5.09-2.31-7.86-.09-13.42,0-26.85-.06-40.28,0-1.26.3-1.8,1.65-1.73a53.83,53.83,0,0,0,5.39,0c1.26-.07,1.74.28,1.74,1.65-.06,13.82-.05,27.64-.06,41.47-1.34-.54-1-1.75-1-2.72,0-5.44,0-10.88,0-16.32q0-10.07,0-20.12c0-1,.31-2.19-.92-2.82-.69-.19-1.46-.14-2-.69" transform="translate(0 0)"/><path class="cls-3" d="M70.73,23c-1.59.86-2.11.2-2.1-1.42,0-6.28,0-12.57,0-18.86A17.82,17.82,0,0,1,69,.16h4.79a3,3,0,0,1,.62,2.05c.08,5.23-.08,10.47.09,15.7a2.76,2.76,0,0,1-.26,1.16L70.73,23" transform="translate(0 0)"/><path class="cls-3" d="M88.67,94.3c-3.28.28-3.28.28-3.28,3.36V112a4.08,4.08,0,0,0,.4,2.31,8.66,8.66,0,0,1-5.59-1.63,5.18,5.18,0,0,1-1.39-3.82c0-3.06,0-6.12,0-9.18a6.36,6.36,0,0,1,1.36-3.86,10.24,10.24,0,0,1,8.51-1.48" transform="translate(0 0)"/><path class="cls-3" d="M325.15,101.91a33.82,33.82,0,0,1-1.26,7.59,2.38,2.38,0,0,1-2.05,0,4.42,4.42,0,0,1-1.26-3.45c0-7.3-.06-14.61,0-21.91,0-2.65,1-5.19.94-7.84.61-4.3,1.37-8.56,2.4-12.77a2.56,2.56,0,0,1,.79,2.33c-.25,11.44,0,22.87-.12,34.3,0,.64-.14,1.35.58,1.78" transform="translate(0 0)"/><path class="cls-3" d="M450.06,109.61a12.94,12.94,0,0,0,.39-3.92q0-23.76,0-47.49c0-1.54.25-2.45,2-2.14.79.9.58,2,.58,3v47.06c0,.88-.33,1.89.59,2.58a8.71,8.71,0,0,0,2.39.17c.82,0,1.65.07,2.47,0a2.49,2.49,0,0,1,2,.64,53.09,53.09,0,0,1-10.47.06" transform="translate(0 0)"/><path class="cls-3" d="M250.57,56h2a3.54,3.54,0,0,1,.25,1.76c-.07,16,.07,32-.1,48,0,1.13.65,2.19.24,3.33a5.27,5.27,0,0,1-2.8-1.63c.64-1.1,0-2.2,0-3.29q.09-22.64,0-45.27a11.26,11.26,0,0,1,.4-2.94" transform="translate(0 0)"/><path class="cls-3" d="M270.41,106.29a5.56,5.56,0,0,1-2.65,2.13c-1.22-.88-1.06-2.22-1.06-3.45,0-6.9,0-13.81,0-20.71,0-8.23,0-16.46,0-24.69,0-1.29-.2-2.72,1.23-3.54a2.08,2.08,0,0,1,1.88,0,10.59,10.59,0,0,1,.13,3.55c0,14.46.06,28.91,0,43.35a7.68,7.68,0,0,0,.49,3.32" transform="translate(0 0)"/><path class="cls-3" d="M152.83,49.32c-1.2,1.81-.8,3.86-.8,5.83,0,3-.06,6.07,0,9.11,0,1.26-.65,2.79.95,3.72.13.08-.13.84-.21,1.28a51.5,51.5,0,0,0-6.39-4.8,2.56,2.56,0,0,1-1-2.27c0-3.6-.05-7.19,0-10.75a2.29,2.29,0,0,1,.94-2.27,24,24,0,0,1,6.45.15" transform="translate(0 0)"/><path class="cls-3" d="M253,109.17c-1.16-1.4-.8-3-.8-4.65q0-22.89,0-45.77a4.7,4.7,0,0,1,.4-2.71c1.65-.26,1.6.8,1.6,2q0,19.22,0,38.43c0,.76-.29,1.6.35,2.28l.4,1.6c-1,2.34-.43,4.81-.56,7.22,0,.71.26,1.45-.21,2.12l-1.2-.49" transform="translate(0 0)"/><path class="cls-3" d="M230.61,84.76q0,11.33-.06,22.66c0,.69.3,1.46-.3,2.08a4.2,4.2,0,0,1-3-.1,4.64,4.64,0,0,1-.47-2.71V76.39a27,27,0,0,1,.61-4.11A15.65,15.65,0,0,1,229,68a1.64,1.64,0,0,1,.66,1.73c-.27,4.41,0,8.82-.1,13.23,0,.8,0,1.62,1,1.82" transform="translate(0 0)"/><path class="cls-3" d="M74.27,19.07a11.77,11.77,0,0,1-.45-4.49V.16h5.59c1,.61,1,1.64,1,2.62q0,4.16,0,8.31A8.07,8.07,0,0,0,81,14.56c-2.29,1.44-4.74,2.64-6.75,4.51" transform="translate(0 0)"/><path class="cls-3" d="M56.26.15c-1.29,3.19-.75,6.5-.79,9.77-.06,8.5,0,17-.06,25.49a16.83,16.83,0,0,0,1.22,7.11c-2.68-1-3.43-3.22-3.45-5.71q-.09-17.64,0-35.27c0-2.53,2-1.11,3.08-1.39" transform="translate(0 0)"/><path class="cls-3" d="M39.21,109.93l-1.7-.08a2.37,2.37,0,0,1-.95-1.87c-.13-2.77-.11-5.53,0-8.29a1.8,1.8,0,0,1,.58-1.42c1.77.12,3.59-.14,5.33.37a6,6,0,0,1,4.45,5.85c-.09,2.93-1.33,4.29-4.57,5.06a11.46,11.46,0,0,1-3.14.4" transform="translate(0 0)"/><path class="cls-3" d="M92.31,63.69a5.09,5.09,0,0,1-3.21,1.17,3.88,3.88,0,0,1-2.24,0,2.3,2.3,0,0,1-1.25-2.31c-.08-5-.11-9.93,0-14.89.06-2.26.89-2.76,3.45-2.44a8.06,8.06,0,0,1,5.45,2.84c-.06,0-.11.1-.17.1-2.79.09-2.81.09-2.83,3.1,0,2.25.08,4.51,0,6.75a19.27,19.27,0,0,0,.81,5.66" transform="translate(0 0)"/><path class="cls-3" d="M272.94,100.79a7.43,7.43,0,0,1-1.67,4.29c-1.24-.4-1.22-1.44-1.2-2.42.47-14.42.07-28.84.21-43.26,0-1.12-.19-2.28.49-3.3a2.36,2.36,0,0,1,2.25,0c.19,5,.06,9.94.07,14.9q0,13.83,0,27.64a5.09,5.09,0,0,1-.15,2.16" transform="translate(0 0)"/><path class="cls-3" d="M472.74,61.63c-1.1.11-1.15.9-1.15,1.75v39.08c0,.76,0,1.49.83,1.86a4.27,4.27,0,0,1-1.7,1.94c-1,.26-1.52-.14-1.65-1.13a8,8,0,0,1-.06-1.2v-42a4.6,4.6,0,0,1,.19-1.77c.3-.73.7-1.32,1.65-.92a4.38,4.38,0,0,1,1.89,2.42" transform="translate(0 0)"/><path class="cls-3" d="M384.2,75.58l2,7.58c.4.55,1,1,1.2,1.66a91.08,91.08,0,0,1,.17,10.45c0,2.21.22,4.42.22,6.63-.67,0-1.34,0-2,.09-1.85.27-2.54-.62-2.44-2.36-1.6-7-1.48-14.12-1.37-21.24a5,5,0,0,1,.39-2.51c.44-.77,1-1.32,1.79-.28" transform="translate(0 0)"/><path class="cls-3" d="M405.33,56.05h-3.15c-1,.78-2.15.56-3.27.56-1.83-.13-2.48.87-2.49,2.55,0,3.52,0,7,0,10.55a1.93,1.93,0,0,0,.11,1c1.64,2.62,1,5.53,1,8.34.06,9.22,0,18.44,0,27.66,0,1,.22,2-.59,2.83-.7-.57-.35-1.36-.35-2q0-16.18,0-32.38V72.83l-.24,0-2.2,8.36c-.32.56-.77,1-1.44.76s-.63-.82-.67-1.34c-.14-2.33-.05-4.66-.06-7,0-5.09-.22-10.2,1-15.21-.06-2.12.85-3,3.07-2.81,2.49.19,5,0,7.52,0,.59,0,1.33-.4,1.76.4" transform="translate(0 0)"/><path class="cls-3" d="M31.52,109.89H26.34c-1.82,0-2.26-1.11-2.23-2.72,0-3.37,0-6.73,0-10.1,0-1.2.11-2.49,1.88-2.4l5.58,2.42a111,111,0,0,1-.07,12.77" transform="translate(0 0)"/><path class="cls-3" d="M87,64.81l2.11,0c-4.89,1.22-8.83-.38-12.09-4-.33-.32-.74-.64-.77-1.12-.2-3.48-.7-7,.4-10.41,2-1.05,3.19-3.24,5.59-3.62.73.76.57,1.73.57,2.63,0,3.9,0,7.8,0,11.7,0,3.27,0,3.31,3.12,4.33a4.85,4.85,0,0,1,1.09.49" transform="translate(0 0)"/><path class="cls-3" d="M53.47,71.15v87.79c-.57-.71-.29-1.54-.29-2.31q0-33.16,0-66.35a4.34,4.34,0,0,0-1.5-3.59,9.58,9.58,0,0,1,1.76-15.53" transform="translate(0 0)"/><path class="cls-3" d="M397,109.53V74.05c0-.86.36-1.94-1.08-2.15-.4-.06-.31-.45-.28-.8.37-4,.09-8,.16-11.94,0-3,.17-3.12,3.19-3.1.34,1.45-.21,2.86-.2,4.31.05,14.88,0,29.76,0,44.64v1.59c0,1.29.4,2.21,1.88,2.28a2.73,2.73,0,0,1,1.48.54l3.06.06a29,29,0,0,1-8.27,0" transform="translate(0 0)"/><path class="cls-3" d="M152.83,49.32l-6.38,0a5.7,5.7,0,0,1-3.27.55c-2.48,0-2.87.36-2.9,2.88a36.1,36.1,0,0,0,.3,7.91,2,2,0,0,1-.12,1.36l-7.18-1.17c-1-2.12-.46-4.39-.58-6.58a25.32,25.32,0,0,1,0-3.14,1.86,1.86,0,0,1,.95-1.8,180.92,180.92,0,0,1,24.42-.07l-5.25.09" transform="translate(0 0)"/><path class="cls-3" d="M76.61,49.28c0,2.8,0,5.62,0,8.43a9.86,9.86,0,0,0,.4,3.1l-6.78,0a3.25,3.25,0,0,1-1.8-3.26c0-2.06,0-4.12,0-6.18A2.8,2.8,0,0,1,69,49.28h7.58" transform="translate(0 0)"/><path class="cls-3" d="M140.46,62c-1.29-3.75-.88-7.56-.51-11.38.11-1.12.68-1.41,1.72-1.37,1.59.08,3.19,0,4.78,0a3.85,3.85,0,0,0-.4,2.11V62.33a4.6,4.6,0,0,0,.4,2.13l-6-2.47" transform="translate(0 0)"/><path class="cls-3" d="M377,73.66c-1.73-5.81-.32-11.75-.77-17.62,1.26,0,2.72-1,3.56.8A21,21,0,0,1,381,62a2.49,2.49,0,0,0-.43,1.69,117,117,0,0,0,0,14.26c.13,1.85-.18,3.69.06,5.53a1.66,1.66,0,0,1-.85,1.68A96.8,96.8,0,0,1,377,73.66" transform="translate(0 0)"/><path class="cls-3" d="M268.12,56.05a3.75,3.75,0,0,0-.82,2.56q0,23.53,0,47.08a13.94,13.94,0,0,0,.46,2.72,2,2,0,0,1-1.52.74c-1.39-.3-1.11-1.47-1.13-2.36-.08-3.32,0-6.64,0-10q0-18.33,0-36.66V58.38c0-2.57.32-2.79,3-2.34" transform="translate(0 0)"/><path class="cls-3" d="M379.81,85.19a25,25,0,0,0,.15-7c-.24-4.85-.12-9.69,0-14.53,0-.58.07-1.55,1.08-1.67.95,3.73,1.91,7.47,2.84,11.21a5.5,5.5,0,0,1,.36,2.34c-1.79-.7-1.53.8-1.55,1.6-.07,3.39.16,6.78-.07,10.16-.28,4.14,1.2,8.13.8,12.26-1.43-4.75-2.57-9.58-3.57-14.42" transform="translate(0 0)"/><path class="cls-3" d="M92.31,63.69A4.75,4.75,0,0,1,91,59.9V50.75c0-3.82.1-3.89,3.54-2.68a9.87,9.87,0,0,1-2.2,15.62" transform="translate(0 0)"/><path class="cls-3" d="M236.53,70.39a76.82,76.82,0,0,1-3.46,8.4c-.53.65-1,.48-1.44-.1a2.14,2.14,0,0,1-.37-1.32c.09-5.67-.55-11.37.53-17a.67.67,0,0,1,0-.2c1.37-4.53,1.37-4.53,6.05-4.54h4c.66,0,.86.26.39.82a22.36,22.36,0,0,1-4,.16c-1.09.06-2.06.4-2.1,1.64a77.88,77.88,0,0,0,.13,11.43,2.39,2.39,0,0,0,.32.71" transform="translate(0 0)"/><path class="cls-3" d="M270.92,56.05c0,14.7,0,29.4,0,44.1,0,1.64-1.06,3.38.33,4.93a2.1,2.1,0,0,1-.86,1.2c-1.09.07-1.1-.65-1.1-1.44V57.76a3.43,3.43,0,0,1,.4-1.72.94.94,0,0,1,1.2,0" transform="translate(0 0)"/><path class="cls-3" d="M87,64.81a13.35,13.35,0,0,1-2,0c-2-.33-2.79-1.37-2.79-3.46V45.66a10,10,0,0,1,6.88-.43c-2.72.13-2.88.3-2.89,3.07,0,4.65,0,9.3,0,14A3.77,3.77,0,0,0,87,64.83" transform="translate(0 0)"/><path class="cls-3" d="M387.81,101.88a5.63,5.63,0,0,1-.82-3.33c.05-4.75,0-9.51,0-14.27a.83.83,0,0,1,0-1.14q1.38-5.43,2.75-10.85c.92.37.95,1.19.95,2,.06,6.07.26,12.15-.06,18.22a1,1,0,0,0,.4,1c-.23,2.61-1.17,5.06-1.7,7.61-.18.87-.79.89-1.51.75" transform="translate(0 0)"/><path class="cls-3" d="M106.54,11.37v.44H90.7c-2.74,0-3-.22-3.1-2.8,0-2,0-4,0-6A3,3,0,0,1,89,.16H94.6a1.13,1.13,0,0,1,.84,1.48c-.49,2.27-.22,4.59-.24,6.89,0,2.08.16,2.22,2.27,2.25h2.39c1.2,0,2.37,0,3.55,0s2.23-.21,3.2.57h0" transform="translate(0 0)"/><path class="cls-3" d="M197.52,109.43h2.4c1.08-.8,2.31-.45,3.5-.5s2.12,0,3.19,0q1,0,2.1,0c.94,0,1.88,0,2.79,0a4.06,4.06,0,0,1,2.75.57c-.4.52-1,.33-1.48.33-6.7,0-13.41,0-20.11,0-1.43,0-2-.36-2-1.9q.08-25.29,0-50.58c0-1.23.26-1.89,1.64-1.73,2.39.27,4.84-.53,7.18.42h-2a2.45,2.45,0,0,1-1.64.55c-.71,0-1.42,0-2.12.06s-1,.75-1.13,1.46a13.25,13.25,0,0,0-.07,1.78q0,22.88,0,45.73c0,1.17-.46,2.62,1.19,3.24.71,0,1.41.06,2.11.08a2.44,2.44,0,0,1,1.67.49" transform="translate(0 0)"/><path class="cls-3" d="M321.54,76.28c.69,1.27.17,2.59,0,3.85-.74,5.93-.18,11.87-.35,17.81-.05,1.59,0,3.17,0,4.76,0,2.27-.37,4.6.8,6.74-.59.46-1.28.22-1.92.23-2.08,0-2.54-.4-2.64-2.51a39.5,39.5,0,0,1,.72-11.22c.22-.87-.23-1.72.19-2.53.84-5.75,1.89-11.47,3.19-17.13" transform="translate(0 0)"/><path class="cls-3" d="M227.45,109.42l2.79.08c-2.53.59-5.11.19-7.67.22-1.13,0-.79-1-.79-1.67,0-6-.1-11.91,0-17.86a17,17,0,0,0-1.74-8.8,21,21,0,0,1-1.11-3c-.23-5.42-.08-10.84-.11-16.27a5.84,5.84,0,0,1,.26-2.35c.25-.59.61-.91,1.12-.19.32,2.09,1.86,3.69,2.34,5.72.15.63.63,1.17.5,1.87-.53,0-.91-.07-.9.8q.1,19.84.07,39.71c0,2.88,2,1.38,3.22,1.69a1.57,1.57,0,0,1,2,0" transform="translate(0 0)"/><path class="cls-3" d="M325.15,101.91c-.37.21-.8,1.06-1.09,0a5.65,5.65,0,0,1-.08-1.59V67.57c0-1.37.42-2.73-.06-4.09.4-2.28.8-4.56,1.16-6.85.11-.73.42-1,1.16-1h9.36c.58,0,1.09.07,1.06.83a1.18,1.18,0,0,1-.55.14,15,15,0,0,0-1.77,0c-1,0-2,.06-2.94,0-1.17,0-2.34,0-3.52,0a1.25,1.25,0,0,0-1.41,1.09,12.23,12.23,0,0,0-.27,2.56V93.63a17.58,17.58,0,0,1,.1,3.16c-.62.68-.4,1.6-.7,2.38a7.72,7.72,0,0,0-.44,2.74" transform="translate(0 0)"/><path class="cls-3" d="M31.52,109.89c-.76-1.58-.32-3.26-.4-4.88-.09-2.38,0-4.76-.1-7.13,0-.53.08-.72.56-.79l5.53,1.16c.16,3.86-.45,7.75.4,11.57l-6,0" transform="translate(0 0)"/><path class="cls-3" d="M57.46,49.28h6.39a2.48,2.48,0,0,1,.29,1.9,66.11,66.11,0,0,0,0,7.71c0,.66.19,1.32-.29,1.89H58.26a3,3,0,0,1-1.79-3c0-1.92,0-3.84,0-5.76a3.55,3.55,0,0,1,1-2.72" transform="translate(0 0)"/><path class="cls-3" d="M270.92,56.05h-2.8c-1.91-.35-2.45.4-2.44,2.35.08,16.18,0,32.37.06,48.55,0,.75-.31,1.62.5,2.21a1.4,1.4,0,0,1-1.15.4c-.88.28-1.68-.1-1.6-.93.33-2.79-.83-5.69.59-8.38a31.39,31.39,0,0,0,.4-6.13q0-18.18-.05-36.38c0-1.59.34-2.33,2.06-2.09,2.23.29,4.55-.54,6.75.41-.11.19-.23.2-.36,0Z" transform="translate(0 0)"/><path class="cls-3" d="M391,93.53l-1,.53c.28-6.14.23-12.24,0-18.33,0-1.15.44-2.36-.34-3.44.85-4.69,2-9.3,3.25-13.88.7,1.53-.4,2.9-.4,4.39,0,5.81.05,11.62,0,17.43,0,1.52.4,1.75,1.59,1a80.09,80.09,0,0,1-2.93,11.22,7.25,7.25,0,0,0-.21,1.13" transform="translate(0 0)"/><path class="cls-3" d="M25.14,49.28h6a1.65,1.65,0,0,1,.5,1.06c.14,3.48.12,7,.3,10.45H26.34a2.89,2.89,0,0,1-2.2-3.28c.05-1.92,0-3.83,0-5.75a2.86,2.86,0,0,1,1-2.48" transform="translate(0 0)"/><path class="cls-3" d="M133.68,49.3c-.8,3.44-.28,6.92-.3,10.37a2.93,2.93,0,0,1-.09,1.14c-4.12.14-6.42-1.29-7.32-4.55a4.83,4.83,0,0,1,3.62-6.38,11.8,11.8,0,0,1,4.09-.6" transform="translate(0 0)"/><path class="cls-3" d="M227.45,109.42h-2V76.15c0-.64-.19-1.35.49-1.83,1.26-.13.74-1.53,1.46-2q0,18.58,0,37.15" transform="translate(0 0)"/><path class="cls-3" d="M152.85,109.8H148c-2.55-.76-2.63-.76-2.55-3.54.06-2.47-.43-5,.36-7.43,1.2-.73,2.57,0,3.8-.45L160,98.23l-.37.49c-1.43.71-3,.48-4.48.58-2.13.12-2.6.53-2.52,2.65.09,2.42-.54,4.91.63,7.25.14.28-.15.45-.38.59" transform="translate(0 0)"/><path class="cls-3" d="M120.78,86.75c-2,0-2.89-.71-2.73-2.91a57.55,57.55,0,0,0,0-8.51c-.13-2,.33-3.19,2.58-3C124.34,76,125,79.67,123,84c-.52,1.13-1.57,1.72-2.19,2.71" transform="translate(0 0)"/><path class="cls-3" d="M26,94.68c-1,.33-1.32,1-1.31,2.12.06,3.5.1,7,0,10.49,0,1.37.35,2.2,1.64,2.59H20.77V95.2a8.2,8.2,0,0,1,.72-3.62l4.57,3.11" transform="translate(0 0)"/><path class="cls-3" d="M340.33,109.55c-.88-8.45-.16-16.93-.4-25.39a6.77,6.77,0,0,1,.53-2.7c.11-.27.44-.46.67-.68.21.75-.23,1.63.44,2.3.4.63-.15,1.46.4,2.06a56.92,56.92,0,0,1,1.54,8.38c-.75.75-.57,1.72-.58,2.62,0,3.3,0,6.61,0,9.91,0,2.44,0,2.45,2.39,2.93a1.6,1.6,0,0,1,1,.52,20,20,0,0,1-6,0" transform="translate(0 0)"/><path class="cls-3" d="M15.16,60.79c-.16-3.84.37-7.7-.4-11.52h6.39a2.86,2.86,0,0,1,.59,2c0,2.64,0,5.28,0,7.92,0,.6,0,1.2-.62,1.55Z" transform="translate(0 0)"/><path class="cls-3" d="M31.92,60.79c-1.33-2.33-.66-4.89-.8-7.34-.07-1.39,0-2.8,0-4.17h6a2.61,2.61,0,0,1,.58,1.84c.07,3.22-.08,6.45.21,9.66h-6" transform="translate(0 0)"/><path class="cls-3" d="M298.79,64.72c.65,1.37.43,2.84.43,4.27,0,7.9,0,15.81,0,23.71A10.71,10.71,0,0,1,298.8,96a32.87,32.87,0,0,1-2.37-6.43c-.45-5.33.05-10.66-.23-16a10.79,10.79,0,0,1,1-6.07,8.24,8.24,0,0,1,1.57-2.82" transform="translate(0 0)"/><path class="cls-3" d="M81,14.56c-1.17.09-1.22-.66-1.22-1.54,0-3.51,0-7,0-10.55a4.59,4.59,0,0,0-.4-2.31H84.6a3.75,3.75,0,0,1,.56,2.64c0,2,.06,4.09,0,6.13a5.19,5.19,0,0,0,1.1,3.67Z" transform="translate(0 0)"/><path class="cls-3" d="M146.05,98.71v6.73c0,1.78-.37,3.68,2,4.37h-6.78a2.25,2.25,0,0,1-1.78-2.31c0-2.31-.06-4.63,0-6.94a1.93,1.93,0,0,1,1-1.84c1.32-.16,2.69.32,4-.33h1.19a.71.71,0,0,1,.4.32" transform="translate(0 0)"/><path class="cls-3" d="M95,158.9H90.58a2.27,2.27,0,0,1-.59-1.64c-.1-3.7,0-7.41-.1-11.11a1.15,1.15,0,0,1,.29-.72l4.75-2.58a2.47,2.47,0,0,1,.65,2c0,4,0,8,0,12a2.66,2.66,0,0,1-.62,2" transform="translate(0 0)"/><path class="cls-3" d="M37.91,60.79a3.56,3.56,0,0,1-.8-2.56c.06-3,0-6,0-8.95h6c.63,1.6.12,3.28.14,4.91a27.55,27.55,0,0,0,.66,6.6h-6" transform="translate(0 0)"/><path class="cls-3" d="M63.85,60.78a35.22,35.22,0,0,1,0-11.5H69c0,2.31.11,4.62,0,6.91a6.5,6.5,0,0,0,1.24,4.59H63.85" transform="translate(0 0)"/><path class="cls-3" d="M302.83,107.1c-.8-7.43-.24-14.88-.37-22.32,0-.4-.67-1.53.74-1.22a60.56,60.56,0,0,1,3.19,8.78c-.88.4-1,1.19-1,2,0,4.11-.06,8.23,0,12.37,0,2,.3,2.13,3.1,2.21,1.43.07,2.93-.4,4.24.56-2.74.63-5.52.23-8.27.19-1.45,0-1.34-1.56-1.67-2.57" transform="translate(0 0)"/><path class="cls-3" d="M220.2,59.62c-1.42-.29-.71.85-.72,1.25,0,5.19,0,10.37,0,15.56,0,.7.26,1.49-.5,2a41.9,41.9,0,0,1-2.72-6.71c-1.1-4.57-.46-9.18-.49-13.8A2,2,0,0,1,216.89,56a2.62,2.62,0,0,1,1.87,0,12.24,12.24,0,0,1,1.44,3.63" transform="translate(0 0)"/><path class="cls-3" d="M66.12,87.92a1.4,1.4,0,0,1-.63-1.54,54.94,54.94,0,0,0,0-13.8c-.07-.52-.12-1.07.43-1.42a8.9,8.9,0,0,1,4.79,7.68,9.6,9.6,0,0,1-4.59,9.08" transform="translate(0 0)"/><path class="cls-3" d="M90.18,145.43c.8,3.07.24,6.2.4,9.29.07,1.39,0,2.8,0,4.18H85.79a2.94,2.94,0,0,1-.6-2.23c0-2.24,0-4.48,0-6.72,0-1.49.34-2.74,1.78-3.46a9.92,9.92,0,0,1,3.22-1.06" transform="translate(0 0)"/><path class="cls-3" d="M231.79,60.37c0,5.58,0,11.17.05,16.76,0,.74-.52,2.11,1.23,1.67a32.25,32.25,0,0,1-2.46,6c-.47.19-.48,1.14-1.14.9s-.47-.89-.44-1.41c.19-5-.4-10,.25-14.93A4.38,4.38,0,0,0,229,68a50.24,50.24,0,0,1,2.79-7.61" transform="translate(0 0)"/><path class="cls-3" d="M336.34,56.44h.32a8.17,8.17,0,0,0,.52,3.09c.4.65-.12,1.45.36,2.09l.75,3.59a4.09,4.09,0,0,0-1.17,3.22c0,10.57,0,21.13,0,31.69,0,2.61.23,5.22.36,7.82-.88-2.83-.93-5.82-1.54-8.7-.12-.57-.3-1.13-.46-1.7a1.82,1.82,0,0,1-.28-.71c.18-11.43,0-22.86.07-34.29,0-1.59.1-3.19.24-4.78.05-.55-.09-1.26.8-1.35" transform="translate(0 0)"/><path class="cls-3" d="M57.46,49.28c-.71,3-.22,6.13-.43,9.18-.08,1.16,1.09,1.41,1.23,2.32H53.07a3.24,3.24,0,0,1-1.79-3.25c0-1.84,0-3.69,0-5.54a3.58,3.58,0,0,1,1-2.72h5.19" transform="translate(0 0)"/><path class="cls-3" d="M470.86,59.21c-1.5.16-1.24,1.3-1.24,2.27V96.3c0,2.86.06,5.71,0,8.56,0,1,.36,1.28,1.16,1.4a1.69,1.69,0,0,1-1.11.84c-1.07-.09-1.2-.8-1.2-1.69V60.18c0-1.11.3-1.83,1.57-1.74a1.39,1.39,0,0,1,.89.77" transform="translate(0 0)"/><path class="cls-3" d="M99.76,11.36c-5.19,0-5.24,0-5.16-5.15,0-1.75-.54-3.59.47-5.26.07-.12-.33-.52-.51-.78h6c-.34,3.37-.07,6.78-.3,10.15a1.84,1.84,0,0,1-.49,1" transform="translate(0 0)"/><path class="cls-3" d="M308.45,109.41c-3.61.19-3.61.19-3.61-3.49,0-4.16,0-8.32,0-12.49,0-1.23.27-1.85,1.59-1.1.9,2.42,2.23,4.66,2.83,7.19-.45,2.34-.08,4.7-.21,7-.05,1,.18,2-.57,2.84" transform="translate(0 0)"/><path class="cls-3" d="M87,146.49a5.38,5.38,0,0,0-1.2,4.16c.1,2.75,0,5.5,0,8.25H81a2.05,2.05,0,0,1-.57-1.43q-.14-3.93,0-7.88a2,2,0,0,1,1-1.82v-.33l5.55-.95" transform="translate(0 0)"/><path class="cls-3" d="M43.89,60.79c-1.3-1.2-1.28-2.72-1.19-4.28.13-2.4-.35-4.85.4-7.23h4.39A1.69,1.69,0,0,1,48,50.34c.14,3.48.12,7,.3,10.45H43.89" transform="translate(0 0)"/><path class="cls-3" d="M48.28,60.79c-1.33-2.33-.66-4.89-.79-7.34-.08-1.39,0-2.8,0-4.17h4.78c-.7,3-.2,6-.44,9-.1,1.23,1.26,1.48,1.24,2.52H48.28" transform="translate(0 0)"/><path class="cls-3" d="M80.15,95.77c-1.2,3.62-.59,7.37-.75,11.06a13.8,13.8,0,0,0,.8,5.8,9,9,0,0,1-5-8.38,9.26,9.26,0,0,1,5-8.47" transform="translate(0 0)"/><path class="cls-3" d="M379.8,56.83c-.95-1.31-2.35-.63-3.56-.79h-3.59c-4.46,0-4-.4-4,3.89v47.38a3.44,3.44,0,0,0,.33,2.31c-.55.21-.94,0-1-.53a7.16,7.16,0,0,1-.05-1.39q0-25,0-50c0-1.6.33-2.24,2.06-2.16,2.79.14,5.59,0,8.38,0,.87,0,1.65,0,1.51,1.24" transform="translate(0 0)"/><path class="cls-3" d="M297.22,67.54c-.86,5.79-.13,11.6-.38,17.4a19.71,19.71,0,0,1-.4,4.66,9.3,9.3,0,0,1-1.19-3.17,1.75,1.75,0,0,1-1.75-2A80.83,80.83,0,0,1,293.68,74a55,55,0,0,1,3.55-6.48" transform="translate(0 0)"/><path class="cls-3" d="M86.25,12.6c-1.42-.13-1.73-.92-1.69-2.27.1-3.39,0-6.79,0-10.17H89c-1.1,1.5-.79,3.23-.79,4.9a23.32,23.32,0,0,1,0,3.55c-.31,2.06.49,3.07,2.53,3.19a19.09,19.09,0,0,1-4.43.8" transform="translate(0 0)"/><path class="cls-3" d="M346.36,109.5c-4-.06-4-.06-4-4.15V94.86c0-.69-.3-1.84,1.16-1.33a125.58,125.58,0,0,1,2.86,16" transform="translate(0 0)"/><path class="cls-3" d="M303.19,72.78c-.91-.45-.76-1.29-.76-2.07V58c.4-1.85,1.45-2.62,3.41-2.43,2.23.22,4.49-.17,6.74.17,0,0,.05.09,0,.13a.64.64,0,0,1-.08.19c-1.17.76-2.48.5-3.75.53-3.11,0-3.42.27-3.42,3.33v4.93a1.83,1.83,0,0,0,1,1.93c-.66,2.2-2.09,4-3.19,6" transform="translate(0 0)"/><path class="cls-3" d="M95,158.9q0-8,0-16l4.39-3.54c-.16.5-.18,1.14-.5,1.47-1.83,1.83-1.46,4.13-1.46,6.34V158.9H95" transform="translate(0 0)"/><path class="cls-3" d="M217.07,56a3.79,3.79,0,0,0-.82,2.57c0,4.39,0,8.74,0,13.12a56.81,56.81,0,0,1-3.55-8.49,13.45,13.45,0,0,1-.56-5.67c.1-1.16.5-1.89,1.83-1.73,1,.13,2.11-.21,3.13.2" transform="translate(0 0)"/><path class="cls-3" d="M21.15,60.79V49.28h4c-.8,3.14-.19,6.34-.4,9.5-.09,1.27,1.54,1,1.6,2H21.15" transform="translate(0 0)"/><path class="cls-3" d="M293.69,74c.83,3.31.24,6.68.35,10a2.4,2.4,0,0,0,1.22,2.39c-1.67,1.53-2.24,3.78-3.62,5.5-.68-.8-.33-1.78-.34-2.67,0-3.62,0-7.25,0-10.87l.35-.51A16.29,16.29,0,0,1,293.71,74" transform="translate(0 0)"/><path class="cls-3" d="M99.76,11.36c0-2.56,0-5.12,0-7.68a5.29,5.29,0,0,1,.8-3.52h3.19c.25,3.75.72,7.5-.4,11.2H99.76" transform="translate(0 0)"/><path class="cls-3" d="M236.53,70.39c-1.26.08-1.13-.79-1.13-1.59V58.85c0-2.33.4-2.73,2.8-2.8,1.11,2.62.56,5.32.37,8,0,.4-.26.76,0,1.15a22.45,22.45,0,0,1-2,5.19" transform="translate(0 0)"/><path class="cls-3" d="M103.35,11.36c.19-3.73-.42-7.49.4-11.19h3.59c0,.33.9.66.27.8-1.39.3-1,1.24-1.06,2.09v8.3h-3.19" transform="translate(0 0)"/><path class="cls-3" d="M432.49,78.81c4-.08,4-.08,4,3.92v3.19l-2,0c-1.15-.4-2.94.13-3.16-1.7s-.89-4,1.16-5.44" transform="translate(0 0)"/><path class="cls-3" d="M460.53,109.54l-2.11-.1a1.67,1.67,0,0,1-1.36-1.71c-.05-.66-.05-1.32-.05-2,0-4,.9-4.7,4.93-3.66.95,1,.71,2.25.64,3.41-.1,1.67.25,3,1.94,3.64a9.3,9.3,0,0,1-4,.4" transform="translate(0 0)"/><path class="cls-3" d="M306.4,66.81c-1.2.52-1.66.17-1.6-1.17.09-2,0-4,0-6,0-3.36.28-3.64,3.59-3.63a31.75,31.75,0,0,0,0,7.16,9.14,9.14,0,0,1-2,3.59" transform="translate(0 0)"/><path class="cls-3" d="M466.82,56.83c-1.2-.06-1.69.55-1.6,1.7.15,2-.32,4.12.3,6.14a1.76,1.76,0,0,1-.29,1.32c-1.44-.27-2-1.65-3.11-2.4a10,10,0,0,1-.09-7.53l1.66-.06a6.28,6.28,0,0,1,3.14.84" transform="translate(0 0)"/><path class="cls-3" d="M464.52,109.14c-2.14.33-2.74-.69-2.53-2.68a38.47,38.47,0,0,0,0-4.16.44.44,0,0,1-.13-.31c0-.12,0-.18,0-.18,1.3-.92,2.36-2.13,3.59-3.12.73.42.12.88.06,1.34-.4,2.94-1,5.9.54,8.72a2.1,2.1,0,0,1-1.59.4" transform="translate(0 0)"/><path class="cls-3" d="M308.45,109.41c0-2.62,0-5.24,0-7.86,0-.8-.13-1.6.8-2,1.1,2.84,2.21,5.69,3.3,8.54.17.45.64.86.26,1.42l-4.34-.07" transform="translate(0 0)"/><path class="cls-3" d="M318.35,93.41c.51,1.7.07,3.35-.18,5-.49,3.2-.12,6.44-.12,9.66a1.32,1.32,0,0,0,1.56,1.39c.8,0,1.6,0,2.4,0l1.9,0c-2.6.7-5.24.18-7.87.25-.7,0-.82-.53-.7-1.14q1.52-7.57,3-15.16" transform="translate(0 0)"/><path class="cls-3" d="M254.14,109.66c-.75-2.67-.31-5.4-.3-8.09a1.18,1.18,0,0,1,1.07-1.25c.58,1.29,1.81,1.76,3,2.33a5.33,5.33,0,0,0-.19,6.64c.25.3.62.52.48,1a8,8,0,0,1-4-.63" transform="translate(0 0)"/><path class="cls-3" d="M428.1,63.16c-.31-.4-.77-.32-1.2-.34-1.76-2.13-1-4.45-.54-6.75a2,2,0,0,1,1.8-.07h1.06a.43.43,0,0,1,.58,0c.77,1.4.37,2.93.43,4.39,0,1.14.36,1.91,1.66,1.88a2.57,2.57,0,0,1,1.24.32.4.4,0,0,1,.17.54l0,0H428.1" transform="translate(0 0)"/><path class="cls-3" d="M258.15,110.29c-.5-.77-1.89-.66-1.95-1.79a42,42,0,0,1,0-5.14c.07-.94,1-.53,1.62-.71l2.27.09c-.59,2.53-.17,5.05,0,7.59h-2" transform="translate(0 0)"/><path class="cls-3" d="M214.25,109.49l-2.77-.08c-1.6-2-1.39-5.66.4-7.1h2.45a44.26,44.26,0,0,1-.07,7.19" transform="translate(0 0)"/><path class="cls-3" d="M238.55,65.2c-.77-3-.16-6.1-.35-9.15,1.33.17,2.73-.44,4,.4a61.38,61.38,0,0,1-3.64,8.75" transform="translate(0 0)"/><path class="cls-3" d="M439.74,56c0,2,0,4.06.11,6.09,0,1-.52,1.19-1.37,1-.46-.3-1.1,0-1.5-.48-1.6-2.48-1.45-5,.37-6.79a5.15,5.15,0,0,1,2.4.14" transform="translate(0 0)"/><path class="cls-3" d="M308.41,63.22a8.07,8.07,0,0,1,0-7.17l4.11,0a45.21,45.21,0,0,1-4.12,7.13" transform="translate(0 0)"/><path class="cls-3" d="M264.09,100.23c-.66,2.76.59,5.55-.18,8.33-.22.76.6.87,1.19,1a1.37,1.37,0,0,1-1.26.37c-2.11.23-2.66-.07-2.6-2s-.93-4,.91-5.59l2-2.08" transform="translate(0 0)"/><path class="cls-3" d="M262.13,102.31c-.89,2.15-.32,4.39-.32,6.57,0,1.19,1.2.94,2,1a7.67,7.67,0,0,1-3.68.4c-1.66-2-.25-4.59-1-6.78-.05-.13.65-.51,1-.77l2-.43" transform="translate(0 0)"/><path class="cls-3" d="M426.11,86c-1.94-.2-2.39-1.35-2-3.08a6.37,6.37,0,0,0,0-1.38c0-2.74,0-2.74,2.79-2.68.6,1.14.09,2.34.13,3.51.07,2.6,0,2.6,2.68,2.69.63.13,1.45-.06,1.57.93h-5.18" transform="translate(0 0)"/><path class="cls-3" d="M272.89,56.05h.36c0,4,.1,8,.1,12q0,14.55,0,29.09c0,1.24.22,2.53-.4,3.71l-.05-44.74" transform="translate(0 0)"/><path class="cls-3" d="M437.3,102.38l2.37-.06a33.14,33.14,0,0,1,0,7.18l-2.4-.08a8.75,8.75,0,0,1,0-7" transform="translate(0 0)"/><path class="cls-3" d="M426.51,56.05c.18,2.25-.4,4.55.4,6.78-2.79,0-2.83,0-2.79-2.72,0-1.37-.35-2.79.4-4.1h1.09a.69.69,0,0,1,.87.05" transform="translate(0 0)"/><path class="cls-3" d="M431.3,85.94c-.42-.56-1-.33-1.6-.39-.75-2.31-1.33-4.6.4-6.76h2.4c-1.14,1.6-.8,3.42-.76,5.19s1.85,1.29,2.76,2h-3.19" transform="translate(0 0)"/><path class="cls-3" d="M217.07,56c-4.82,0-4.82,0-4.44,4.84.06.79,0,1.57,0,2.36q-1.44-3.33-2.91-6.66c-.21-.5-.26-1,.46-.92,2.85.15,5.74-.51,8.56.33l-1.71,0" transform="translate(0 0)"/><path class="cls-3" d="M335.54,97.13l0,.43c-2.5,0-5,0-7.49-.09-1.36-.07-2.27.21-2.44,1.71.06-.7-.29-1.48.38-2.06a2.73,2.73,0,0,1,2-.55c1,0,2.09,0,3.13,0s1.86,0,2.8,0a2,2,0,0,1,1.64.55" transform="translate(0 0)"/><path class="cls-3" d="M437.28,62.82c.43,0,.88-.07,1.2.35h-5.19v-.35a1.76,1.76,0,0,1,1.28-.52,3.55,3.55,0,0,1,2.71.52" transform="translate(0 0)"/><path class="cls-3" d="M65.9,37.32a2.86,2.86,0,0,1,.27-3.19,8.57,8.57,0,0,1-.27,3.19" transform="translate(0 0)"/><path class="cls-3" d="M146.05,98.71l-.4-.32h4c-1.15.65-2.4.16-3.59.32" transform="translate(0 0)"/><path class="cls-3" d="M432.5,55.69h3.59a.39.39,0,0,1-.1.53,2.89,2.89,0,0,1-1.5.32,3.36,3.36,0,0,1-1.79-.31.5.5,0,0,1-.2-.53" transform="translate(0 0)"/><path class="cls-3" d="M436.09,56v-.35c1.21.07,2.49-.51,3.63.35h-2.44a.84.84,0,0,1-1.19,0" transform="translate(0 0)"/><path class="cls-3" d="M432.5,55.69V56l-.25.24a2.35,2.35,0,0,1-2.54-.22l-.48,0c1-.77,2.17-.28,3.27-.31" transform="translate(0 0)"/><path class="cls-3" d="M387,83.14v1.14c-.91,0-.76-.58-.74-1.14H387" transform="translate(0 0)"/><path class="cls-3" d="M426.51,56.05l-.87,0a2,2,0,0,1,2.54,0l-1.67,0" transform="translate(0 0)"/><path class="cls-3" d="M338.78,68.41c-.76-.72-.31-1.64-.4-2.47a4.22,4.22,0,0,1,.4,2.47" transform="translate(0 0)"/><path class="cls-3" d="M337.54,61.63c-.67-.6-.32-1.38-.36-2.09a3.09,3.09,0,0,1,.36,2.09" transform="translate(0 0)"/><path class="cls-3" d="M342,85.14c-.74-.56-.34-1.35-.4-2.06a3.16,3.16,0,0,1,.4,2.06" transform="translate(0 0)"/><path class="cls-3" d="M65.84,158.91c0-3.09,0-6.19,0-9.28,0-1.36.49-1.92,1.86-1.86s3,0,4.54,0c-.27,3.08-.17,6.17-.22,9.26a2.52,2.52,0,0,1-.57,1.84H65.84" transform="translate(0 0)"/><path class="cls-3" d="M81.4,147.77c-.79,2-.27,4.15-.4,6.22-.08,1.63,0,3.28,0,4.91H75.82a2.74,2.74,0,0,1-.6-2c0-2.05,0-4.11,0-6.17,0-1.15.18-2.27,1.38-2.88l4.79,0" transform="translate(0 0)"/><path class="cls-3" d="M76.61,147.81c-.92,1.27-.79,2.73-.79,4.18v6.91H71.43c0-2.85,0-5.69,0-8.54a3.56,3.56,0,0,1,.82-2.56h4.39" transform="translate(0 0)"/><path class="cls-3" d="M152.85,109.8c-1.66-3.17-.62-6.57-.74-9.85,0-1,1.39-1.16,2.31-1.2,1.73-.08,3.45,0,5.19,0-.18.19-.51.37-.52.57-.2,3.52-1,7.07.52,10.51h-6.76" transform="translate(0 0)"/><path class="cls-3" d="M103.35,109.83c-2.31,0-4.63,0-6.94.07-1.6.06-2.17-.82-2.21-2.16-.08-2.39,0-4.76,0-7.14,0-1.32.74-1.89,2-1.88h5.55a3.94,3.94,0,0,1,.59,2.79c0,2.79-.34,5.65,1,8.3" transform="translate(0 0)"/><path class="cls-3" d="M128.09,109.81h-6c-2.56-.79-2.57-.79-2.58-3.53,0-1.71,0-3.43,0-5.14a2.42,2.42,0,0,1,1.38-2.42h6.38a2.22,2.22,0,0,1,.55,1.45c.13,3.19-.07,6.44.25,9.64" transform="translate(0 0)"/><path class="cls-3" d="M140.46,98.71c-.84,3.2-.22,6.45-.37,9.67,0,.8,1.2.61,1.17,1.43h-6.79a2.3,2.3,0,0,1-1.78-2.31c0-2.39-.05-4.76,0-7.14a2.49,2.49,0,0,1,.58-1.65h7.18" transform="translate(0 0)"/><path class="cls-3" d="M120.91,98.72a3.51,3.51,0,0,0-.82,2.54c.08,1.11,0,2.23,0,3.35,0,2-.62,4.22,2,5.19h-7.19a3.53,3.53,0,0,1-1.78-3.29v-5.33a2.92,2.92,0,0,1,1-2.48h6.78" transform="translate(0 0)"/><path class="cls-3" d="M103.35,109.83c-1.81-1-1.68-2.69-1.62-4.41.08-2.23,0-4.46,0-6.69h6.78a62.35,62.35,0,0,1,0,11.1h-5.18" transform="translate(0 0)"/><path class="cls-3" d="M133.28,98.72c0,2.5,0,5,0,7.5,0,1.37-.07,2.69,1.19,3.59h-6.38a4.88,4.88,0,0,1-.82-3.14c.06-2.65,0-5.3,0-8h6" transform="translate(0 0)"/><path class="cls-3" d="M108.54,109.83a31.42,31.42,0,0,1,0-11.11h5.58c-.4,3.75-1.3,7.53.8,11.1h-6.38" transform="translate(0 0)"/><path class="cls-3" d="M9.05,50.21v58.41c-1.1-1.79-.85-57.37,0-58.41" transform="translate(0 0)"/><path class="cls-3" d="M402.19,109.42c-4,.2-4,.2-4-3.72q0-23.15,0-46.31a5.94,5.94,0,0,1,.83-3.34h3.2a9.76,9.76,0,0,0-.4,3.13q0,23.66,0,47.31a8.29,8.29,0,0,0,.42,2.93" transform="translate(0 0)"/><path class="cls-3" d="M288.47,56v50.89a4.18,4.18,0,0,0,.4,2.51,8.21,8.21,0,0,0-1,0c-1.74.28-2.24-.4-2.23-2.17.06-16.18,0-32.35,0-48.53,0-2.75,0-2.75,2.8-2.75" transform="translate(0 0)"/><path class="cls-3" d="M456,109.44h-2.39c-.67-.53-.61-1.26-.61-2q0-24.37,0-48.75a3.53,3.53,0,0,1,.59-2.64h1.6a3.59,3.59,0,0,1,.63,2.44c.52,8.3.35,16.6.31,24.89,0,7,.34,14.08-.3,21.1-.16,1.67.29,3.3.15,5" transform="translate(0 0)"/><path class="cls-3" d="M453.64,56.05q0,24.92,0,49.85c0,1.19-.37,2.36,0,3.54-1.44.18-1.19-.87-1.19-1.7V56h1.19" transform="translate(0 0)"/><path class="cls-3" d="M456,109.44c-1.49-2.19-.71-4.61-.6-6.92,0-.84.21-1.7.21-2.55,0-11.61.1-23.22-.06-34.82,0-3-.36-6.06-.33-9.1H458c.45,1.2.13,2.46.15,3.69s0,2.36,1.48,2.84c.37.12.63.49.16.88-3.16.93-3.16.93-3.16,4.45V98.42c0,2.76.06,2.79,2.74,2.88.91,0,1.89-.13,2.63.64v.37c-4.39,0-4.39,0-4.39,4.47,0,1-.26,2,.8,2.66H456" transform="translate(0 0)"/><path class="cls-3" d="M460,63.17c-.59-.8-2.19.22-2.28-1-.16-2.05-.51-4.15.28-6.17h4c0,1.84,0,3.68,0,5.52a2.47,2.47,0,0,0,.8,2.09,2.28,2.28,0,0,1-2.8-.49" transform="translate(0 0)"/><path class="cls-3" d="M419.34,109.44c-1.56.3-2-.3-2-1.91q.07-24.69,0-49.39c0-1.15,0-2.21,1.59-2.1.86,1,.63,2.27.63,3.45q0,23,0,46c0,1.3.42,2.65-.22,3.92" transform="translate(0 0)"/><path class="cls-3" d="M419.34,109.44a9,9,0,0,1-.42-2.92q0-25.23,0-50.48h1.59a3.27,3.27,0,0,1,.6,2.45V107a3.11,3.11,0,0,1-.59,2.44h-1.19" transform="translate(0 0)"/><path class="cls-3" d="M420.53,109.44V56h1.2v53.39h-1.2" transform="translate(0 0)"/><path class="cls-3" d="M426.53,102.36h3.19a9.17,9.17,0,0,1,0,7h-2.79c-1.65-2.27-1.24-4.66-.4-7.06" transform="translate(0 0)"/><path class="cls-3" d="M437.3,102.38v7h-2.8a8.75,8.75,0,0,1,0-7h2.8" transform="translate(0 0)"/><path class="cls-3" d="M426.53,102.36c.11,2.36-.38,4.74.4,7.06h-2.8c-.15-2,.28-4-.26-6-.22-.83.18-1.07.9-1.07s1.18,0,1.76,0" transform="translate(0 0)"/><path class="cls-3" d="M429.72,109.42v-7h2.39c1,2.3.64,4.67.4,7h-2.79" transform="translate(0 0)"/><path class="cls-3" d="M432.5,109.42c-.76-2.32-.27-4.69-.4-7h2.4v7h-2" transform="translate(0 0)"/><path class="cls-3" d="M197.52,109.43h-1.59c-1.49-.72-1.4-2.09-1.4-3.43V58.68a2.52,2.52,0,0,1,1.39-2.63h1.6c-.9,14.23-.19,28.47-.38,42.7,0,3.56-.3,7.15.4,10.69" transform="translate(0 0)"/><path class="cls-3" d="M203.51,109.42h-3.59v-4.55c0-2.36.18-2.54,2.61-2.56h1.38c-.31,2.35-.06,4.74-.4,7.1" transform="translate(0 0)"/><path class="cls-3" d="M208.7,109.41h-2a1.76,1.76,0,0,1-1.28-1.78c.1-1.8-.83-3.79.89-5.32h2.8c.4,2.1,0,4.22.17,6.33a.8.8,0,0,1-.54.77" transform="translate(0 0)"/><path class="cls-3" d="M206.3,102.32c-.48,2.39-1,4.79.4,7.1h-3.19c-.54-2.39-.89-4.79.4-7.1h2.39" transform="translate(0 0)"/><path class="cls-3" d="M208.7,109.41c.24-2.36-.54-4.77.36-7.09h2.8c-1.41,2.29-.87,4.7-.4,7.1h-2.8" transform="translate(0 0)"/><path class="cls-3" d="M430.1,78.81c-.83,2.2-.2,4.5-.4,6.75-3.67,0-3.12.43-3.19-3.28a9.5,9.5,0,0,1,.4-3.48h3.19" transform="translate(0 0)"/><path class="cls-3" d="M193.93,109.44c-1.46.23-2-.35-2-1.86q0-24.81,0-49.63c0-1.51.59-2.07,2-1.91a3.27,3.27,0,0,1,.59,2.45V107a3.09,3.09,0,0,1-.58,2.44" transform="translate(0 0)"/><path class="cls-3" d="M193.93,109.44V56h2a3.79,3.79,0,0,0-.82,2.57q0,24,0,48.09a5.24,5.24,0,0,0,.83,2.74h-2" transform="translate(0 0)"/><path class="cls-3" d="M335.54,97.13l-1.59,0c-1.09-2.17-.58-4.41-.3-6.64a4.1,4.1,0,0,0,.1-.69c.07-1.62-.5-3.19-.37-4.83q-.08-12.73,0-25.46c0-1.32-.13-2.72,1.4-3.44.55.06,1.2-.2,1.59.4-.13,1.6-.37,3.17-.37,4.75,0,11.14,0,22.28,0,33.43a4.43,4.43,0,0,1-.4,2.51" transform="translate(0 0)"/><path class="cls-3" d="M328,56.05h3.59a67.1,67.1,0,0,1,0,11.34c-1,2.37-1,4.92-1.45,7.39s-.69,4.85-1.88,7c-.75.4-1.27.2-1.52-.63a7,7,0,0,1-.19-2V59.48c0-1.34,0-2.7,1.42-3.45" transform="translate(0 0)"/><path class="cls-3" d="M328,56.05a5.76,5.76,0,0,0-.83,3.34c.06,7,0,13.94,0,20.92,0,.79-.17,1.72,1.17,1.25.85.86.37,1.86.29,2.8s-.28,2-.45,2.92c-.32,1.87-.18,2,1.76,2.08,1.48.1,3-.4,4.42.56v.4a4.81,4.81,0,0,1-3.11.57c-2.67.09-2.65.09-2.71,2.79,0,1.15.27,2.38-.56,3.4h-2a21.79,21.79,0,0,1-.4-5.7v-32c0-2.76.36-3.24,2.39-3.4" transform="translate(0 0)"/><path class="cls-3" d="M331.13,67.69c0-3.11,0-6.23,0-9.34a4.06,4.06,0,0,1,.4-2.3h3.2a3.76,3.76,0,0,0-.8,2c0,7.43-.05,14.86.06,22.29,0,1.64,0,3.26-.06,4.89-.9-.13-.9-.9-1-1.5-.7-4.7-1.64-9.36-2.11-14.08a3.75,3.75,0,0,1,.28-1.93" transform="translate(0 0)"/><path class="cls-3" d="M432.49,56l2,0a8.32,8.32,0,0,1,0,6.77h-2.4c-1.46-1.53-.24-3.34-.51-5a1.65,1.65,0,0,1,.91-1.79Z" transform="translate(0 0)"/><path class="cls-3" d="M432.49,56c-.69,2.23-.4,4.51-.4,6.79-1.8.3-2.64-.31-2.42-2.29a39.36,39.36,0,0,0,0-4.48h2.8" transform="translate(0 0)"/><path class="cls-3" d="M434.49,62.82V56.05l1.6,0h1.2c-1.29,2.26-1,4.52,0,6.79h-2.8" transform="translate(0 0)"/><path class="cls-3" d="M328,97.11c0-1.51.1-3,0-4.5-.16-1.77.4-2.58,2.26-2.28a5.24,5.24,0,0,0,1,0,8.29,8.29,0,0,1,0,6.76H328" transform="translate(0 0)"/><path class="cls-3" d="M331.16,97.1V90.35h3.2c-.8,2.21-.22,4.5-.4,6.76h-2.8" transform="translate(0 0)"/></g></g></g></g></g></g></g></svg>