<svg xmlns="http://www.w3.org/2000/svg" viewBox="0 0 162.29 186.59"><defs><style>.cls-1{fill:#808285;}</style></defs><g id="Layer_2" data-name="Layer 2"><g id="Layer_1-2" data-name="Layer 1"><g id="Layer_2-2" data-name="Layer 2"><g id="Layer_1-2-2" data-name="Layer 1-2"><path class="cls-1" d="M114.53,72.49,103.38,66,78.43,51.36,72.59,48a1.28,1.28,0,0,1-.66-1.69,1.25,1.25,0,0,1,.66-.66c2.32-1.39,4.65-2.73,7-4.09a2.51,2.51,0,0,1,2.8,0c2.78,1.69,5.59,3.35,8.39,5,1.13.66,1.44.54,1.46-.72V40c0-1.19-.78-1.63-1.6-2.1-4.75-2.78-9.5-5.53-14.23-8.31L57.27,18.42c-1-.58-1.94-1.14-2.88-1.81s-.89-1.38.12-1.94L77.22,1.57c.68-.41,1.5-.76,2.22-1.23a2.45,2.45,0,0,1,2.71.14c5,3.4,10.39,6.09,15.57,9.24s10,5.84,15,8.74,10.28,6.11,15.57,9.07c4.09,2.34,8.06,4.87,12.11,7.26,2.63,1.56,5.33,3,8,4.52a85.57,85.57,0,0,0,11.13,6.34,4,4,0,0,1,2.67,4.83c-.12,1.6,0,3.23,0,4.85a3.17,3.17,0,0,1-1.89,3.05c-4.49,2.49-8.89,5.2-13.35,7.79-5.45,3.11-11,6.17-16.41,9.28-4.3,2.46-8.56,5-12.86,7.48-1.15.68-.9,1.94-.88,2.8a26.24,26.24,0,0,1,0,4.69.86.86,0,0,0,.35,1,1.28,1.28,0,0,0,1.46-.23,48.78,48.78,0,0,1,5.47-3.27c1.48-.88,2-.56,2,1.15v8.25a2.39,2.39,0,0,1-1.31,2.34c-6.24,3.54-12.49,7.06-18.72,10.62-4.48,2.57-8.88,5.22-13.33,7.79-3,1.73-6,3.39-9,5a2.75,2.75,0,0,0-1.79,3.31c0,1.56-.1,3.13,0,4.69s.23,1.56,1.42.88q9.72-5.49,19.3-11c7.13-4.15,14.29-8.25,21.47-12.36,1.35-.78,1.95-.47,1.95,1.07V118a2.15,2.15,0,0,1-1.09,1.95c-2.69,1.57-5.39,3.09-8.1,4.65l-1.11.62c-.74.43-.6.93,0,1.3,2,1.15,3.9,2.28,5.84,3.35.72.39,1.4-.13,2-.48,5.49-3.16,10.94-6.37,16.43-9.52s11.34-6.44,17-9.73c.89-.51,1.75-1.13,2.64-1.64,1.35-.72,2.51,0,2.44,1.42-.14,2.65,0,5.3-.12,7.92-.12,4.38,0,8.74,0,13.12v6.41a3.28,3.28,0,0,1-1.95,3.21c-4.86,2.84-9.73,5.52-14.61,8.41-4.25,2.78-8.66,5-12.89,7.43s-8.85,5.22-13.31,7.79c-5.84,3.38-11.84,6.69-17.75,10.06-4.42,2.53-8.78,5.2-13.24,7.65-1.94,1-3.66,2.35-5.62,3.27-.12,0-.31,0-.37.19-1.29,2-2.4,1.11-3.9,0a56.64,56.64,0,0,0-6-3.52,2.35,2.35,0,0,1-1.3-2.32V142.82c0-3.9.11-7.79.25-11.68a2.72,2.72,0,0,0-1.58-2.88c-1.52-.76-3-1.6-4.48-2.45-.93-.53-1.3-.2-1.3.79v6.56c0,1.64-.58,2-2,1.13-2.42-1.36-4.83-2.78-7.24-4.16a2.65,2.65,0,0,1-1.37-1.95,38,38,0,0,1,0-6.4c.28-7.36.14-14.72.2-22.08,0-5.83,0-11.67.21-17.51a24.14,24.14,0,0,1,0-2.69c.12-.72-.43-1.21-1-1.56L48.05,75.3c-1.56-.92-1.74-.84-1.74,1V88.49c0,6.21,0,12.44-.17,18.65-.18,5.25,0,10.53-.1,15.8,0,1.74-.52,2.09-1.95,1.23-2.47-1.4-4.88-2.9-7.35-4.28a2.06,2.06,0,0,1-1.13-2.08v-9.56c0-1.83,0-2-1.64-1s-3,1.53-4.43,2.47a2,2,0,0,0-1,2V121c-.21,5.29-.15,10.61-.17,15.92v14.23c0,.85-.12,1.71-.1,2.55s.12,1.16-.48,1.51-1.17,0-1.72-.27c-1.69-1-3.38-2.06-5.1-3.05-5.95-3.47-11.87-7-17.9-10.3a5.12,5.12,0,0,1-3-5.37c.25-8.55.17-17.07.17-25.62V50.93a14.63,14.63,0,0,0,0-4.23,1,1,0,0,1,.66-1.24h0a61.06,61.06,0,0,0,7-3.89,3.06,3.06,0,0,1,3.45,0c6.5,3.89,13,7.65,19.56,11.5q10.62,6.27,21.21,12.59a3.13,3.13,0,0,0,3.9,0,34.59,34.59,0,0,1,4.38-2.53c1-.54.91-.91,0-1.44-2-1.11-3.9-2.29-5.84-3.42-1.15-.68-1.27-1.17-.22-1.83,2.69-1.7,5.43-3.29,8.18-4.85.93-.53,1.83,0,2.66.51L82.69,62.45q11.69,6.87,23.36,13.63a1.94,1.94,0,0,0,2.45,0C110.39,74.89,112.37,73.8,114.53,72.49ZM81.45,169.93h0v3.13c0,.28-.22.61,0,.8s.58-.12.85-.27l9.58-5.51c3.23-2,6.5-3.62,9.73-5.49s6-3.6,9-5.33c4.26-2.43,8.57-4.79,12.83-7.2.66-.37,1-.78.1-1.44s-1.46-.86-2.18-1.29c-3.9-2.45-8-4.53-11.86-7.18a.84.84,0,0,0-.91-.16c-.41.24-.35.65-.31,1,.27,1.94,0,3.89.15,6a4.17,4.17,0,0,1-2.51,4.61c-7.55,4.09-14.93,8.51-22.4,12.75-1.42.8-2.34,1.7-2,3.47A13.63,13.63,0,0,1,81.45,169.93Zm25.82-133.4h0v7.78c0,1.29.35,1.46,1.44.82,2-1.17,4.11-2.34,6.14-3.58a2.58,2.58,0,0,1,2.91,0l10.52,6.17,13.62,7.94a1.78,1.78,0,0,0,1.95.25c1.73-1,3.48-2.08,5.23-3.09.94-.55.84-1,0-1.48L109,28c-1.09-.64-1.42-.49-1.44.78A77,77,0,0,0,107.27,36.53ZM10.73,78h0v23.2c0,.76,0,1.73,1.21,1l14-7.92c.86-.48.92-.87,0-1.36-1.94-1.07-3.89-2.24-5.83-3.23A3.57,3.57,0,0,1,17.8,86V71.11c0-3.89,0-7.92.15-11.89a2.69,2.69,0,0,0-1.67-2.55l-3.54-2.18c-.57-.31-1.13-1.07-1.73-.7s-.26,1.23-.26,2Q10.74,66.85,10.73,78Zm95.69,11h0V81.25c0-1.3-.39-1.52-1.52-.8-4.38,2.85-9.05,5.2-13.43,8a3.23,3.23,0,0,0-1.89,3.27c.12,4.64.18,9.27.23,13.9,0,1.58,0,1.65,1.31,1,4.69-2.64,9.34-5.35,14-8a2.14,2.14,0,0,0,1.21-2.18C106.38,94,106.42,91.47,106.42,89ZM88,78.22c0-.49-.56-.59-.91-.8C82.91,75,78.66,72.57,74.52,70a3.59,3.59,0,0,0-4.4-.43c-4,2.53-8.18,4.91-12.32,7.28-1.11.65-.84,1,0,1.5l5.84,3.31q4.53,2.46,8.91,4.93a1.64,1.64,0,0,0,2,0c4.32-2.61,8.66-5.18,13-7.79C87.63,78.66,88,78.59,88,78.22Zm-8.56,34h0v-8.12a2.24,2.24,0,0,0-1.17-2.25c-4.34-2.42-8.66-4.83-13-7.28-.8-.47-1.19-.51-1.17.58v17a1.62,1.62,0,0,0,1,1.56c4.41,2.47,8.81,4.94,13.17,7.51,1,.61,1.19.3,1.19-.68Zm45.62-45.64h.35c2-1.17,3.9-2.3,5.84-3.51.8-.48.53-.91-.17-1.32q-6.9-4-13.63-8a1.46,1.46,0,0,0-1.69,0c-1.67,1-3.39,1.95-5.06,2.9-1.23.72-1.21,1,0,1.81,3.74,2.24,7.45,4.46,11.21,6.66C122.92,65.51,124,66,125.06,66.54Zm-27.25,71.9c-.09-2.44-.25-2.81-2.43-1.33-.5.33-1.13.51-1.65.82-3.23,1.85-6.45,3.74-9.73,5.55a3.57,3.57,0,0,0-2.32,3.77,43.39,43.39,0,0,1,0,5.1c0,.32-.23.7.21.88s.51-.16.74-.29c4.64-2.67,9.25-5.34,13.9-8a2.17,2.17,0,0,0,1.28-2.16c-.07-1.46,0-2.92,0-4.38ZM28.39,73.12h0v7.26a2.72,2.72,0,0,0,1.54,2.78c1.57.86,3.15,1.73,4.71,2.63.79.45,1,.17.93-.64V79.77c0-3.54.12-7.08.21-10.62a1.69,1.69,0,0,0-1-1.72c-1.71-.93-3.39-1.94-5-2.9-1-.62-1.36-.31-1.34.76Zm123.05,53.95c0-.43,0-.93-.33-1.19s-.78.18-1.13.37l-5.55,3.14c-3.72,2.12-7.45,4.28-11.19,6.38-.86.49-.7.9,0,1.32,1.5.9,3.07,1.66,4.48,2.69a2.56,2.56,0,0,0,3.23.12c3-1.75,6-3.43,9-5.14a2.43,2.43,0,0,0,1.36-2.3A33.46,33.46,0,0,1,151.44,127.07Zm-59-105.53h0V19.26A1.35,1.35,0,0,0,91.66,18c-3.42-1.95-6.75-4.15-10.27-6a1.45,1.45,0,0,0-1.6,0l-5.22,3c-.81.46-.79.87.1,1.36,3.29,2,6.54,3.78,9.73,5.68,2.3,1.35,4.56,2.71,6.84,4.07.75.45,1.12.33,1.11-.62C92.4,24.2,92.42,22.86,92.42,21.54ZM17.57,127.17h0v-9.54c0-1.26-.41-1.28-1.31-.78-1.34.78-2.66,1.62-4.07,2.3a2.87,2.87,0,0,0-1.75,2.92v10.12A2.79,2.79,0,0,0,12,135c1.44.8,2.9,1.6,4.3,2.48,1,.6,1.23.29,1.21-.73C17.57,133.53,17.57,130.4,17.57,127.17Z"/><path class="cls-1" d="M35.18,144.43v-14c0-2.22.55-2.55,2.41-1.46,5.12,3,10.22,6.07,15.42,9,2.59,1.46,5.1,3.08,7.78,4.38a4.87,4.87,0,0,1,3,5.16c-.29,7.57-.27,15.14-.27,22.71v5c0,.66-.33,1-1,.85a4.73,4.73,0,0,1-1.31-.5c-2.43-1.39-4.83-2.81-7.24-4.19-.91-.52-.87-1.38-.87-2.24V152a2.78,2.78,0,0,0-1.6-2.86c-1.56-.81-3.06-1.73-4.56-2.62-.7-.41-1.05-.69-1.1.58-.28,5.84,0,11.48-.16,17.21,0,.5.19,1.14-.43,1.4s-1-.14-1.44-.41c-2-1.17-4.09-2.34-6.15-3.49a4.06,4.06,0,0,1-2.63-4c.16-4.45,0-8.93,0-13.39Z"/><path class="cls-1" d="M162,72.69A14.46,14.46,0,0,0,162,75a4.34,4.34,0,0,1-2.67,4.82c-4.46,2.46-8.9,5-13.33,7.46a3.4,3.4,0,0,0-2.16,3.48c.13,1.6,0,3.21,0,4.83s.23,1.52,1.36.86c4.75-2.71,9.5-5.45,14.23-8.18.56-.33,1.12-.88,1.81-.39s.66,1.15.64,2v7.06A3.31,3.31,0,0,1,160,100l-13,7.49-11.08,6.33c-1.83,1-2.56.58-2.51-1.6.12-4.63,0-9.28,0-13.92s0-9.09-.13-13.62a3.22,3.22,0,0,1,1.83-3.23c3.79-2.12,7.55-4.28,11.32-6.44l13.49-7.79c1-.6,2-.12,2,1.21v4.28Z"/><path class="cls-1" d="M27.67,30.57a3.48,3.48,0,0,1,1.81.64c4.81,2.84,9.73,5.63,14.42,8.49a2.33,2.33,0,0,0,2.65,0c1.57-1,3.19-1.85,4.79-2.77,1.12-.66,1.14-.89,0-1.57L43.72,31c-2.18-1.25-4.35-2.47-6.48-3.78-.58-.35-1.38-.68-1.32-1.53s.84-.78,1.34-1.08l7-4a1.92,1.92,0,0,1,2.24,0c4.61,2.78,9.22,5.5,13.88,8.19,3.67,2.14,7.35,4.28,11,6.36.55.32.94.61,1,1.27a1.46,1.46,0,0,1-.91,1.32c-7.79,4.56-15.73,9.09-23.55,13.63a4.45,4.45,0,0,1-5.12,0C35,46.67,27.24,42.13,19.32,37.56A1.74,1.74,0,0,1,18.21,36c0-.82.72-.88,1.22-1.17,2.15-1.23,4.27-2.47,6.39-3.72A5,5,0,0,1,27.67,30.57Z"/><path class="cls-1" d="M114.53,72.49,103.38,66,78.43,51.36,72.59,48a1.28,1.28,0,0,1-.66-1.69,1.25,1.25,0,0,1,.66-.66c2.32-1.39,4.65-2.73,7-4.09a2.51,2.51,0,0,1,2.8,0c2.78,1.69,5.59,3.35,8.39,5,1.13.66,1.44.54,1.46-.72V40c0-1.19-.78-1.63-1.6-2.1-4.75-2.78-9.5-5.53-14.23-8.31L57.27,18.42c-1-.58-1.94-1.14-2.88-1.81s-.89-1.38.12-1.94L77.22,1.57c.68-.41,1.5-.76,2.22-1.23a2.45,2.45,0,0,1,2.71.14c5,3.4,10.39,6.09,15.57,9.24s10,5.84,15,8.74,10.28,6.11,15.57,9.07c4.09,2.34,8.06,4.87,12.11,7.26,2.63,1.56,5.33,3,8,4.52a85.57,85.57,0,0,0,11.13,6.34,4,4,0,0,1,2.67,4.83c-.12,1.6,0,3.23,0,4.85a3.17,3.17,0,0,1-1.89,3.05c-4.49,2.49-8.89,5.2-13.35,7.79-5.45,3.11-11,6.17-16.41,9.28-4.3,2.46-8.56,5-12.86,7.48-1.15.68-.9,1.94-.88,2.8a26.24,26.24,0,0,1,0,4.69.86.86,0,0,0,.35,1,1.28,1.28,0,0,0,1.46-.23,48.78,48.78,0,0,1,5.47-3.27c1.48-.88,2-.56,2,1.15v8.25a2.39,2.39,0,0,1-1.31,2.34c-6.24,3.54-12.49,7.06-18.72,10.62-4.48,2.57-8.88,5.22-13.33,7.79-3,1.73-6,3.39-9,5a2.75,2.75,0,0,0-1.79,3.31c0,1.56-.1,3.13,0,4.69s.23,1.56,1.42.88q9.72-5.49,19.3-11c7.13-4.15,14.29-8.25,21.47-12.36,1.35-.78,1.95-.47,1.95,1.07V118a2.15,2.15,0,0,1-1.09,1.95c-2.69,1.57-5.39,3.09-8.1,4.65l-1.11.62c-.74.43-.6.93,0,1.3,2,1.15,3.9,2.28,5.84,3.35.72.39,1.4-.13,2-.48,5.49-3.16,10.94-6.37,16.43-9.52s11.34-6.44,17-9.73c.89-.51,1.75-1.13,2.64-1.64,1.35-.72,2.51,0,2.44,1.42-.14,2.65,0,5.3-.12,7.92-.12,4.38,0,8.74,0,13.12v6.41a3.28,3.28,0,0,1-1.95,3.21c-4.86,2.84-9.73,5.52-14.61,8.41-4.25,2.78-8.66,5-12.89,7.43s-8.85,5.22-13.31,7.79c-5.84,3.38-11.84,6.69-17.75,10.06-4.42,2.53-8.78,5.2-13.24,7.65-1.94,1-3.66,2.35-5.62,3.27-.12,0-.31,0-.37.19-1.29,2-2.4,1.11-3.9,0a56.64,56.64,0,0,0-6-3.52,2.35,2.35,0,0,1-1.3-2.32V142.82c0-3.9.11-7.79.25-11.68a2.72,2.72,0,0,0-1.58-2.88c-1.52-.76-3-1.6-4.48-2.45-.93-.53-1.3-.2-1.3.79v6.56c0,1.64-.58,2-2,1.13-2.42-1.36-4.83-2.78-7.24-4.16a2.65,2.65,0,0,1-1.37-1.95,38,38,0,0,1,0-6.4c.28-7.36.14-14.72.2-22.08,0-5.83,0-11.67.21-17.51a24.14,24.14,0,0,1,0-2.69c.12-.72-.43-1.21-1-1.56L48.05,75.3c-1.56-.92-1.74-.84-1.74,1V88.49c0,6.21,0,12.44-.17,18.65-.18,5.25,0,10.53-.1,15.8,0,1.74-.52,2.09-1.95,1.23-2.47-1.4-4.88-2.9-7.35-4.28a2.06,2.06,0,0,1-1.13-2.08v-9.56c0-1.83,0-2-1.64-1s-3,1.53-4.43,2.47a2,2,0,0,0-1,2V121c-.21,5.29-.15,10.61-.17,15.92v14.23c0,.85-.12,1.71-.1,2.55s.12,1.16-.48,1.51-1.17,0-1.72-.27c-1.69-1-3.38-2.06-5.1-3.05-5.95-3.47-11.87-7-17.9-10.3a5.12,5.12,0,0,1-3-5.37c.25-8.55.17-17.07.17-25.62V50.93a14.63,14.63,0,0,0,0-4.23,1,1,0,0,1,.66-1.24h0a61.06,61.06,0,0,0,7-3.89,3.06,3.06,0,0,1,3.45,0c6.5,3.89,13,7.65,19.56,11.5q10.62,6.27,21.21,12.59a3.13,3.13,0,0,0,3.9,0,34.59,34.59,0,0,1,4.38-2.53c1-.54.91-.91,0-1.44-2-1.11-3.9-2.29-5.84-3.42-1.15-.68-1.27-1.17-.22-1.83,2.69-1.7,5.43-3.29,8.18-4.85.93-.53,1.83,0,2.66.51L82.69,62.45q11.69,6.87,23.36,13.63a1.94,1.94,0,0,0,2.45,0C110.39,74.89,112.37,73.8,114.53,72.49ZM81.45,169.93h0v3.13c0,.28-.22.61,0,.8s.58-.12.85-.27l9.58-5.51c3.23-2,6.5-3.62,9.73-5.49s6-3.6,9-5.33c4.26-2.43,8.57-4.79,12.83-7.2.66-.37,1-.78.1-1.44s-1.46-.86-2.18-1.29c-3.9-2.45-8-4.53-11.86-7.18a.84.84,0,0,0-.91-.16c-.41.24-.35.65-.31,1,.27,1.94,0,3.89.15,6a4.17,4.17,0,0,1-2.51,4.61c-7.55,4.09-14.93,8.51-22.4,12.75-1.42.8-2.34,1.7-2,3.47A13.63,13.63,0,0,1,81.45,169.93Zm25.82-133.4h0v7.78c0,1.29.35,1.46,1.44.82,2-1.17,4.11-2.34,6.14-3.58a2.58,2.58,0,0,1,2.91,0l10.52,6.17,13.62,7.94a1.78,1.78,0,0,0,1.95.25c1.73-1,3.48-2.08,5.23-3.09.94-.55.84-1,0-1.48L109,28c-1.09-.64-1.42-.49-1.44.78A77,77,0,0,0,107.27,36.53ZM10.73,78h0v23.2c0,.76,0,1.73,1.21,1l14-7.92c.86-.48.92-.87,0-1.36-1.94-1.07-3.89-2.24-5.83-3.23A3.57,3.57,0,0,1,17.8,86V71.11c0-3.89,0-7.92.15-11.89a2.69,2.69,0,0,0-1.67-2.55l-3.54-2.18c-.57-.31-1.13-1.07-1.73-.7s-.26,1.23-.26,2Q10.74,66.85,10.73,78Zm95.69,11h0V81.25c0-1.3-.39-1.52-1.52-.8-4.38,2.85-9.05,5.2-13.43,8a3.23,3.23,0,0,0-1.89,3.27c.12,4.64.18,9.27.23,13.9,0,1.58,0,1.65,1.31,1,4.69-2.64,9.34-5.35,14-8a2.14,2.14,0,0,0,1.21-2.18C106.38,94,106.42,91.47,106.42,89ZM88,78.22c0-.49-.56-.59-.91-.8C82.91,75,78.66,72.57,74.52,70a3.59,3.59,0,0,0-4.4-.43c-4,2.53-8.18,4.91-12.32,7.28-1.11.65-.84,1,0,1.5l5.84,3.31q4.53,2.46,8.91,4.93a1.64,1.64,0,0,0,2,0c4.32-2.61,8.66-5.18,13-7.79C87.63,78.66,88,78.59,88,78.22Zm-8.56,34h0v-8.12a2.24,2.24,0,0,0-1.17-2.25c-4.34-2.42-8.66-4.83-13-7.28-.8-.47-1.19-.51-1.17.58v17a1.62,1.62,0,0,0,1,1.56c4.41,2.47,8.81,4.94,13.17,7.51,1,.61,1.19.3,1.19-.68Zm45.62-45.64h.35c2-1.17,3.9-2.3,5.84-3.51.8-.48.53-.91-.17-1.32q-6.9-4-13.63-8a1.46,1.46,0,0,0-1.69,0c-1.67,1-3.39,1.95-5.06,2.9-1.23.72-1.21,1,0,1.81,3.74,2.24,7.45,4.46,11.21,6.66C122.92,65.51,124,66,125.06,66.54Zm-27.25,71.9c-.09-2.44-.25-2.81-2.43-1.33-.5.33-1.13.51-1.65.82-3.23,1.85-6.45,3.74-9.73,5.55a3.57,3.57,0,0,0-2.32,3.77,43.39,43.39,0,0,1,0,5.1c0,.32-.23.7.21.88s.51-.16.74-.29c4.64-2.67,9.25-5.34,13.9-8a2.17,2.17,0,0,0,1.28-2.16c-.07-1.46,0-2.92,0-4.38ZM28.39,73.12h0v7.26a2.72,2.72,0,0,0,1.54,2.78c1.57.86,3.15,1.73,4.71,2.63.79.45,1,.17.93-.64V79.77c0-3.54.12-7.08.21-10.62a1.69,1.69,0,0,0-1-1.72c-1.71-.93-3.39-1.94-5-2.9-1-.62-1.36-.31-1.34.76Zm123.05,53.95c0-.43,0-.93-.33-1.19s-.78.18-1.13.37l-5.55,3.14c-3.72,2.12-7.45,4.28-11.19,6.38-.86.49-.7.9,0,1.32,1.5.9,3.07,1.66,4.48,2.69a2.56,2.56,0,0,0,3.23.12c3-1.75,6-3.43,9-5.14a2.43,2.43,0,0,0,1.36-2.3A33.46,33.46,0,0,1,151.44,127.07Zm-59-105.53h0V19.26A1.35,1.35,0,0,0,91.66,18c-3.42-1.95-6.75-4.15-10.27-6a1.45,1.45,0,0,0-1.6,0l-5.22,3c-.81.46-.79.87.1,1.36,3.29,2,6.54,3.78,9.73,5.68,2.3,1.35,4.56,2.71,6.84,4.07.75.45,1.12.33,1.11-.62C92.4,24.2,92.42,22.86,92.42,21.54ZM17.57,127.17h0v-9.54c0-1.26-.41-1.28-1.31-.78-1.34.78-2.66,1.62-4.07,2.3a2.87,2.87,0,0,0-1.75,2.92v10.12A2.79,2.79,0,0,0,12,135c1.44.8,2.9,1.6,4.3,2.48,1,.6,1.23.29,1.21-.73C17.57,133.53,17.57,130.4,17.57,127.17Z"/></g></g></g></g></svg>