<svg xmlns="http://www.w3.org/2000/svg" viewBox="0 0 457 194.07"><defs><style>.cls-1{fill:#808285;}.cls-2{isolation:isolate;}</style></defs><g id="Layer_2" data-name="Layer 2"><g id="Layer_1-2" data-name="Layer 1"><g id="Layer_2-2" data-name="Layer 2"><g id="Layer_1-2-2" data-name="Layer 1-2"><path class="cls-1" d="M119.13,75.4l-11.6-6.78-26-15.2L75.5,49.87a1.33,1.33,0,0,1-.69-1.76,1.37,1.37,0,0,1,.69-.69c2.41-1.43,4.84-2.83,7.25-4.25a2.65,2.65,0,0,1,2.91,0c2.9,1.76,5.81,3.48,8.73,5.23,1.17.68,1.5.56,1.52-.75V41.57c0-1.23-.81-1.7-1.66-2.18-4.94-2.9-9.88-5.75-14.8-8.65L59.57,19.16c-1-.6-2-1.19-3-1.88s-.93-1.44.12-2L80.32,1.63C81,1.21,81.88.84,82.63.36A2.53,2.53,0,0,1,85.44.5c5.24,3.54,10.81,6.33,16.2,9.61s10.42,6.08,15.6,9.09,10.69,6.36,16.2,9.44c4.25,2.43,8.38,5.06,12.59,7.55,2.73,1.62,5.55,3.08,8.28,4.69a87.73,87.73,0,0,0,11.58,6.6,4.18,4.18,0,0,1,2.77,5c-.12,1.66,0,3.36,0,5a3.28,3.28,0,0,1-2,3.17c-4.68,2.6-9.25,5.41-13.89,8.1-5.67,3.24-11.39,6.42-17.06,9.66-4.48,2.55-8.91,5.18-13.38,7.77-1.2.71-.94,2-.92,2.92a26.52,26.52,0,0,1,0,4.88.91.91,0,0,0,.37,1,1.34,1.34,0,0,0,1.52-.24A50.37,50.37,0,0,1,129,91.43c1.53-.91,2-.58,2,1.2v8.58a2.47,2.47,0,0,1-1.36,2.43c-6.49,3.69-13,7.35-19.47,11.06-4.66,2.67-9.23,5.42-13.87,8.09-3.1,1.8-6.25,3.53-9.39,5.23a2.86,2.86,0,0,0-1.86,3.44c0,1.62-.11,3.26,0,4.88s.24,1.62,1.47.91q10.13-5.72,20.09-11.48,11.11-6.47,22.33-12.86c1.39-.81,2-.48,2,1.12v8.74a2.24,2.24,0,0,1-1.13,2c-2.8,1.64-5.61,3.22-8.43,4.84l-1.15.64c-.77.45-.63,1,0,1.36,2,1.19,4,2.37,6.07,3.48.75.41,1.46-.14,2-.5,5.71-3.28,11.38-6.62,17.08-9.9s11.81-6.7,17.7-10.13c.93-.52,1.82-1.17,2.75-1.7,1.4-.75,2.61,0,2.53,1.48-.14,2.75,0,5.51-.12,8.24-.12,4.56,0,9.09,0,13.65v6.66a3.4,3.4,0,0,1-2,3.34c-5.07,3-10.13,5.75-15.21,8.74-4.41,2.9-9,5.16-13.4,7.73s-9.21,5.43-13.85,8.1c-6.07,3.52-12.3,7-18.46,10.47-4.59,2.63-9.13,5.4-13.77,7.95-2,1.1-3.8,2.45-5.85,3.41-.12,0-.32,0-.38.2-1.34,2-2.49,1.15-4.05,0a59.55,59.55,0,0,0-6.21-3.67,2.43,2.43,0,0,1-1.36-2.41V148.54c0-4,.12-8.09.26-12.14a2.82,2.82,0,0,0-1.64-3c-1.58-.79-3.11-1.66-4.65-2.55-1-.55-1.36-.2-1.36.83v6.82c0,1.7-.61,2-2.13,1.18-2.51-1.42-5-2.9-7.53-4.34a2.69,2.69,0,0,1-1.41-2,37,37,0,0,1,0-6.66c.28-7.65.14-15.31.2-23,0-6.07,0-12.14.22-18.22a26,26,0,0,1,0-2.79c.12-.75-.44-1.26-1.07-1.62L50,78.32c-1.62-.95-1.8-.87-1.8,1V92c0,6.46,0,12.94-.18,19.4-.18,5.46,0,11-.1,16.43,0,1.81-.55,2.17-2,1.28-2.57-1.46-5.08-3-7.65-4.45A2.14,2.14,0,0,1,37,122.53v-9.94c0-1.9,0-2-1.7-1s-3.14,1.6-4.62,2.57a2,2,0,0,0-1.07,2v9.74c-.23,5.51-.16,11-.18,16.56v14.8c0,.89-.13,1.78-.11,2.65s.13,1.21-.5,1.58-1.22,0-1.78-.28c-1.76-1.08-3.53-2.15-5.31-3.18-6.19-3.61-12.35-7.27-18.62-10.71a5.34,5.34,0,0,1-3.1-5.59c.26-8.89.18-17.75.18-26.64V53a15,15,0,0,0,0-4.39,1,1,0,0,1,.68-1.29h0a62.26,62.26,0,0,0,7.33-4.05,3.2,3.2,0,0,1,3.58,0c6.76,4.05,13.57,8,20.35,12Q43.19,61.71,54.2,68.3a3.26,3.26,0,0,0,4,0,36.26,36.26,0,0,1,4.56-2.64c1-.56.95-1,0-1.49-2-1.16-4.05-2.39-6.08-3.57-1.19-.71-1.31-1.21-.22-1.9,2.8-1.76,5.65-3.42,8.5-5,1-.55,1.91,0,2.78.53L86,65q12.13,7.13,24.29,14.17a2,2,0,0,0,2.55,0C114.81,77.89,116.88,76.76,119.13,75.4ZM84.71,176.74h0V180c0,.29-.22.63,0,.83s.61-.12.89-.28l10-5.73c3.36-2,6.76-3.76,10.12-5.71s6.22-3.74,9.36-5.55c4.43-2.53,8.9-5,13.34-7.49.69-.38,1.09-.81.1-1.49s-1.52-.89-2.27-1.34c-4-2.55-8.36-4.72-12.33-7.47a.87.87,0,0,0-.95-.16c-.42.24-.36.67-.32,1,.28,2,0,4.05.16,6.22a4.34,4.34,0,0,1-2.61,4.79c-7.86,4.25-15.53,8.85-23.3,13.26-1.48.83-2.43,1.76-2,3.61A13.53,13.53,0,0,1,84.71,176.74ZM111.58,38h0v8.1c0,1.33.36,1.52,1.49.85,2-1.22,4.28-2.43,6.38-3.73a2.72,2.72,0,0,1,3,0l10.93,6.42,14.17,8.26a1.84,1.84,0,0,0,2,.26q2.71-1.63,5.45-3.22c1-.56.87-1,0-1.53L113.32,29.1c-1.14-.67-1.48-.5-1.5.81C111.56,32.56,111.58,35.28,111.58,38ZM11.16,81.17h0V105.3c0,.79,0,1.8,1.26,1L27,98.12c.89-.51.95-.92,0-1.42-2-1.12-4.05-2.33-6.08-3.36a3.73,3.73,0,0,1-2.41-3.85V74c0-4,0-8.24.16-12.37a2.79,2.79,0,0,0-1.74-2.65l-3.68-2.26c-.59-.33-1.17-1.12-1.8-.73s-.27,1.27-.27,2Q11.17,69.54,11.16,81.17Zm99.52,11.44h0v-8.1c0-1.36-.4-1.58-1.57-.83-4.56,3-9.42,5.41-14,8.36a3.38,3.38,0,0,0-2,3.4c.13,4.82.19,9.64.25,14.46,0,1.64,0,1.72,1.35,1,4.88-2.75,9.72-5.57,14.6-8.32a2.22,2.22,0,0,0,1.25-2.27C110.64,97.73,110.68,95.14,110.68,92.61ZM91.53,81.35c0-.5-.58-.6-1-.83-4.35-2.55-8.76-5-13.08-7.69a3.73,3.73,0,0,0-4.57-.45C68.74,75,64.43,77.49,60.11,80c-1.15.66-.87,1.05,0,1.56L66.19,85q4.71,2.55,9.27,5.12a1.68,1.68,0,0,0,2,0c4.5-2.71,9-5.39,13.53-8.1C91.15,81.82,91.47,81.74,91.53,81.35Zm-8.9,35.33h0v-8.44a2.36,2.36,0,0,0-1.22-2.35c-4.51-2.51-9-5-13.5-7.57-.83-.49-1.24-.53-1.22.61v17.63a1.7,1.7,0,0,0,1,1.62c4.59,2.57,9.17,5.14,13.7,7.81,1.1.63,1.24.31,1.24-.71Zm47.45-47.47h.36c2-1.22,4.05-2.39,6.08-3.65.83-.5.54-1-.19-1.37q-7.16-4.17-14.17-8.36a1.5,1.5,0,0,0-1.76,0c-1.74,1-3.52,2-5.26,3-1.28.75-1.26,1.09,0,1.88,3.89,2.33,7.75,4.64,11.66,6.93C127.85,68.13,129,68.66,130.08,69.21ZM101.74,144c-.1-2.53-.27-2.92-2.53-1.38-.53.35-1.18.53-1.72.85-3.36,1.93-6.71,3.89-10.13,5.77A3.73,3.73,0,0,0,85,153.16a42.6,42.6,0,0,1,0,5.3c0,.33-.24.73.23.91s.52-.16.77-.3c4.81-2.77,9.61-5.55,14.45-8.28a2.27,2.27,0,0,0,1.34-2.25c-.08-1.51,0-3,0-4.55ZM29.53,76.05h0V83.6a2.84,2.84,0,0,0,1.6,2.9c1.63.89,3.27,1.8,4.89,2.73.83.46,1,.18,1-.67V83c0-3.68.12-7.37.22-11a1.76,1.76,0,0,0-1-1.78c-1.78-1-3.53-2-5.25-3-1.05-.65-1.41-.32-1.39.79Zm128,56.12c0-.45,0-1-.34-1.24s-.81.18-1.18.39l-5.77,3.26c-3.86,2.2-7.75,4.45-11.64,6.64-.89.5-.73.93,0,1.37,1.56.93,3.2,1.72,4.66,2.8a2.67,2.67,0,0,0,3.36.12c3.08-1.83,6.21-3.57,9.33-5.35a2.53,2.53,0,0,0,1.42-2.39A33.79,33.79,0,0,1,157.51,132.17ZM96.13,22.4h0V20a1.4,1.4,0,0,0-.79-1.31c-3.56-2-7-4.31-10.69-6.22a1.52,1.52,0,0,0-1.66,0l-5.42,3.14c-.85.49-.83.91.1,1.42,3.42,2,6.8,3.92,10.12,5.91,2.39,1.4,4.74,2.81,7.1,4.23.79.47,1.18.34,1.16-.65C96.11,25.18,96.13,23.78,96.13,22.4ZM18.27,132.27h0v-9.92c0-1.32-.43-1.34-1.36-.81-1.39.81-2.77,1.68-4.23,2.39a3,3,0,0,0-1.82,3v10.53a2.89,2.89,0,0,0,1.64,2.87c1.5.83,3,1.66,4.47,2.58,1,.62,1.28.3,1.26-.75C18.27,138.89,18.27,135.63,18.27,132.27Z"/><path class="cls-1" d="M36.59,150.22V135.63c0-2.31.57-2.65,2.51-1.52,5.33,3.12,10.63,6.32,16,9.33,2.7,1.52,5.31,3.2,8.1,4.56a5.05,5.05,0,0,1,3.16,5.36c-.3,7.88-.28,15.75-.28,23.63v5.16c0,.69-.35,1-1,.89a5.06,5.06,0,0,1-1.35-.53c-2.53-1.43-5-2.91-7.53-4.35-.95-.55-.91-1.44-.91-2.33V158.06a2.89,2.89,0,0,0-1.66-3c-1.62-.85-3.18-1.8-4.74-2.73-.73-.43-1.09-.71-1.15.61-.29,6.07,0,11.94-.17,17.89,0,.53.21,1.2-.44,1.46s-1-.14-1.5-.42c-2-1.22-4.25-2.43-6.4-3.63a4.21,4.21,0,0,1-2.73-4.11c.16-4.63,0-9.29,0-13.93Z"/><path class="cls-1" d="M168.52,75.6a15.62,15.62,0,0,0,0,2.37,4.51,4.51,0,0,1-2.77,5c-4.64,2.55-9.25,5.17-13.87,7.76a3.55,3.55,0,0,0-2.25,3.62c.15,1.66,0,3.34,0,5s.25,1.58,1.42.89c4.94-2.81,9.88-5.67,14.8-8.5.59-.35,1.17-.91,1.88-.41s.69,1.2.67,2v7.35a3.42,3.42,0,0,1-2,3.24l-13.49,7.79-11.52,6.58c-1.9,1.07-2.67.61-2.61-1.66.12-4.82,0-9.66,0-14.48s0-9.45-.14-14.17a3.37,3.37,0,0,1,1.9-3.36c3.95-2.2,7.86-4.45,11.79-6.7l14-8.1c1.07-.62,2-.12,2,1.26V75.6Z"/><path class="cls-1" d="M28.78,31.8a3.53,3.53,0,0,1,1.88.66c5,3,10.12,5.85,15,8.83a2.39,2.39,0,0,0,2.75,0c1.64-1,3.32-1.92,5-2.87,1.18-.69,1.2-.94,0-1.64L45.48,32.2c-2.27-1.3-4.54-2.57-6.74-3.93-.61-.36-1.44-.71-1.38-1.6s.87-.81,1.4-1.11l7.29-4.17a2,2,0,0,1,2.32,0c4.8,2.89,9.6,5.73,14.44,8.52,3.82,2.23,7.65,4.46,11.5,6.62.56.33,1,.63,1,1.32a1.5,1.5,0,0,1-1,1.37C66.25,44,58,48.68,49.85,53.4a4.63,4.63,0,0,1-5.32,0c-8.1-4.86-16.2-9.58-24.44-14.34a1.79,1.79,0,0,1-1.15-1.58c0-.85.75-.91,1.27-1.21q3.34-1.92,6.64-3.87A5.06,5.06,0,0,1,28.78,31.8Z"/><path class="cls-1" d="M119.13,75.4l-11.6-6.78-26-15.2L75.5,49.87a1.33,1.33,0,0,1-.69-1.76,1.37,1.37,0,0,1,.69-.69c2.41-1.43,4.84-2.83,7.25-4.25a2.65,2.65,0,0,1,2.91,0c2.9,1.76,5.81,3.48,8.73,5.23,1.17.68,1.5.56,1.52-.75V41.57c0-1.23-.81-1.7-1.66-2.18-4.94-2.9-9.88-5.75-14.8-8.65L59.57,19.16c-1-.6-2-1.19-3-1.88s-.93-1.44.12-2L80.32,1.63C81,1.21,81.88.84,82.63.36A2.53,2.53,0,0,1,85.44.5c5.24,3.54,10.81,6.33,16.2,9.61s10.42,6.08,15.6,9.09,10.69,6.36,16.2,9.44c4.25,2.43,8.38,5.06,12.59,7.55,2.73,1.62,5.55,3.08,8.28,4.69a87.73,87.73,0,0,0,11.58,6.6,4.18,4.18,0,0,1,2.77,5c-.12,1.66,0,3.36,0,5a3.28,3.28,0,0,1-2,3.17c-4.68,2.6-9.25,5.41-13.89,8.1-5.67,3.24-11.39,6.42-17.06,9.66-4.48,2.55-8.91,5.18-13.38,7.77-1.2.71-.94,2-.92,2.92a26.52,26.52,0,0,1,0,4.88.91.91,0,0,0,.37,1,1.34,1.34,0,0,0,1.52-.24A50.37,50.37,0,0,1,129,91.43c1.53-.91,2-.58,2,1.2v8.58a2.47,2.47,0,0,1-1.36,2.43c-6.49,3.69-13,7.35-19.47,11.06-4.66,2.67-9.23,5.42-13.87,8.09-3.1,1.8-6.25,3.53-9.39,5.23a2.86,2.86,0,0,0-1.86,3.44c0,1.62-.11,3.26,0,4.88s.24,1.62,1.47.91q10.13-5.72,20.09-11.48,11.11-6.47,22.33-12.86c1.39-.81,2-.48,2,1.12v8.74a2.24,2.24,0,0,1-1.13,2c-2.8,1.64-5.61,3.22-8.43,4.84l-1.15.64c-.77.45-.63,1,0,1.36,2,1.19,4,2.37,6.07,3.48.75.41,1.46-.14,2-.5,5.71-3.28,11.38-6.62,17.08-9.9s11.81-6.7,17.7-10.13c.93-.52,1.82-1.17,2.75-1.7,1.4-.75,2.61,0,2.53,1.48-.14,2.75,0,5.51-.12,8.24-.12,4.56,0,9.09,0,13.65v6.66a3.4,3.4,0,0,1-2,3.34c-5.07,3-10.13,5.75-15.21,8.74-4.41,2.9-9,5.16-13.4,7.73s-9.21,5.43-13.85,8.1c-6.07,3.52-12.3,7-18.46,10.47-4.59,2.63-9.13,5.4-13.77,7.95-2,1.1-3.8,2.45-5.85,3.41-.12,0-.32,0-.38.2-1.34,2-2.49,1.15-4.05,0a59.55,59.55,0,0,0-6.21-3.67,2.43,2.43,0,0,1-1.36-2.41V148.54c0-4,.12-8.09.26-12.14a2.82,2.82,0,0,0-1.64-3c-1.58-.79-3.11-1.66-4.65-2.55-1-.55-1.36-.2-1.36.83v6.82c0,1.7-.61,2-2.13,1.18-2.51-1.42-5-2.9-7.53-4.34a2.69,2.69,0,0,1-1.41-2,37,37,0,0,1,0-6.66c.28-7.65.14-15.31.2-23,0-6.07,0-12.14.22-18.22a26,26,0,0,1,0-2.79c.12-.75-.44-1.26-1.07-1.62L50,78.32c-1.62-.95-1.8-.87-1.8,1V92c0,6.46,0,12.94-.18,19.4-.18,5.46,0,11-.1,16.43,0,1.81-.55,2.17-2,1.28-2.57-1.46-5.08-3-7.65-4.45A2.14,2.14,0,0,1,37,122.53v-9.94c0-1.9,0-2-1.7-1s-3.14,1.6-4.62,2.57a2,2,0,0,0-1.07,2v9.74c-.23,5.51-.16,11-.18,16.56v14.8c0,.89-.13,1.78-.11,2.65s.13,1.21-.5,1.58-1.22,0-1.78-.28c-1.76-1.08-3.53-2.15-5.31-3.18-6.19-3.61-12.35-7.27-18.62-10.71a5.34,5.34,0,0,1-3.1-5.59c.26-8.89.18-17.75.18-26.64V53a15,15,0,0,0,0-4.39,1,1,0,0,1,.68-1.29h0a62.26,62.26,0,0,0,7.33-4.05,3.2,3.2,0,0,1,3.58,0c6.76,4.05,13.57,8,20.35,12Q43.19,61.71,54.2,68.3a3.26,3.26,0,0,0,4,0,36.26,36.26,0,0,1,4.56-2.64c1-.56.95-1,0-1.49-2-1.16-4.05-2.39-6.08-3.57-1.19-.71-1.31-1.21-.22-1.9,2.8-1.76,5.65-3.42,8.5-5,1-.55,1.91,0,2.78.53L86,65q12.13,7.13,24.29,14.17a2,2,0,0,0,2.55,0C114.81,77.89,116.88,76.76,119.13,75.4ZM84.71,176.74h0V180c0,.29-.22.63,0,.83s.61-.12.89-.28l10-5.73c3.36-2,6.76-3.76,10.12-5.71s6.22-3.74,9.36-5.55c4.43-2.53,8.9-5,13.34-7.49.69-.38,1.09-.81.1-1.49s-1.52-.89-2.27-1.34c-4-2.55-8.36-4.72-12.33-7.47a.87.87,0,0,0-.95-.16c-.42.24-.36.67-.32,1,.28,2,0,4.05.16,6.22a4.34,4.34,0,0,1-2.61,4.79c-7.86,4.25-15.53,8.85-23.3,13.26-1.48.83-2.43,1.76-2,3.61A13.53,13.53,0,0,1,84.71,176.74ZM111.58,38h0v8.1c0,1.33.36,1.52,1.49.85,2-1.22,4.28-2.43,6.38-3.73a2.72,2.72,0,0,1,3,0l10.93,6.42,14.17,8.26a1.84,1.84,0,0,0,2,.26q2.71-1.63,5.45-3.22c1-.56.87-1,0-1.53L113.32,29.1c-1.14-.67-1.48-.5-1.5.81C111.56,32.56,111.58,35.28,111.58,38ZM11.16,81.17h0V105.3c0,.79,0,1.8,1.26,1L27,98.12c.89-.51.95-.92,0-1.42-2-1.12-4.05-2.33-6.08-3.36a3.73,3.73,0,0,1-2.41-3.85V74c0-4,0-8.24.16-12.37a2.79,2.79,0,0,0-1.74-2.65l-3.68-2.26c-.59-.33-1.17-1.12-1.8-.73s-.27,1.27-.27,2Q11.17,69.54,11.16,81.17Zm99.52,11.44h0v-8.1c0-1.36-.4-1.58-1.57-.83-4.56,3-9.42,5.41-14,8.36a3.38,3.38,0,0,0-2,3.4c.13,4.82.19,9.64.25,14.46,0,1.64,0,1.72,1.35,1,4.88-2.75,9.72-5.57,14.6-8.32a2.22,2.22,0,0,0,1.25-2.27C110.64,97.73,110.68,95.14,110.68,92.61ZM91.53,81.35c0-.5-.58-.6-1-.83-4.35-2.55-8.76-5-13.08-7.69a3.73,3.73,0,0,0-4.57-.45C68.74,75,64.43,77.49,60.11,80c-1.15.66-.87,1.05,0,1.56L66.19,85q4.71,2.55,9.27,5.12a1.68,1.68,0,0,0,2,0c4.5-2.71,9-5.39,13.53-8.1C91.15,81.82,91.47,81.74,91.53,81.35Zm-8.9,35.33h0v-8.44a2.36,2.36,0,0,0-1.22-2.35c-4.51-2.51-9-5-13.5-7.57-.83-.49-1.24-.53-1.22.61v17.63a1.7,1.7,0,0,0,1,1.62c4.59,2.57,9.17,5.14,13.7,7.81,1.1.63,1.24.31,1.24-.71Zm47.45-47.47h.36c2-1.22,4.05-2.39,6.08-3.65.83-.5.54-1-.19-1.37q-7.16-4.17-14.17-8.36a1.5,1.5,0,0,0-1.76,0c-1.74,1-3.52,2-5.26,3-1.28.75-1.26,1.09,0,1.88,3.89,2.33,7.75,4.64,11.66,6.93C127.85,68.13,129,68.66,130.08,69.21ZM101.74,144c-.1-2.53-.27-2.92-2.53-1.38-.53.35-1.18.53-1.72.85-3.36,1.93-6.71,3.89-10.13,5.77A3.73,3.73,0,0,0,85,153.16a42.6,42.6,0,0,1,0,5.3c0,.33-.24.73.23.91s.52-.16.77-.3c4.81-2.77,9.61-5.55,14.45-8.28a2.27,2.27,0,0,0,1.34-2.25c-.08-1.51,0-3,0-4.55ZM29.53,76.05h0V83.6a2.84,2.84,0,0,0,1.6,2.9c1.63.89,3.27,1.8,4.89,2.73.83.46,1,.18,1-.67V83c0-3.68.12-7.37.22-11a1.76,1.76,0,0,0-1-1.78c-1.78-1-3.53-2-5.25-3-1.05-.65-1.41-.32-1.39.79Zm128,56.12c0-.45,0-1-.34-1.24s-.81.18-1.18.39l-5.77,3.26c-3.86,2.2-7.75,4.45-11.64,6.64-.89.5-.73.93,0,1.37,1.56.93,3.2,1.72,4.66,2.8a2.67,2.67,0,0,0,3.36.12c3.08-1.83,6.21-3.57,9.33-5.35a2.53,2.53,0,0,0,1.42-2.39A33.79,33.79,0,0,1,157.51,132.17ZM96.13,22.4h0V20a1.4,1.4,0,0,0-.79-1.31c-3.56-2-7-4.31-10.69-6.22a1.52,1.52,0,0,0-1.66,0l-5.42,3.14c-.85.49-.83.91.1,1.42,3.42,2,6.8,3.92,10.12,5.91,2.39,1.4,4.74,2.81,7.1,4.23.79.47,1.18.34,1.16-.65C96.11,25.18,96.13,23.78,96.13,22.4ZM18.27,132.27h0v-9.92c0-1.32-.43-1.34-1.36-.81-1.39.81-2.77,1.68-4.23,2.39a3,3,0,0,0-1.82,3v10.53a2.89,2.89,0,0,0,1.64,2.87c1.5.83,3,1.66,4.47,2.58,1,.62,1.28.3,1.26-.75C18.27,138.89,18.27,135.63,18.27,132.27Z"/><g class="cls-2"><g class="cls-2"><path class="cls-1" d="M197.35,142.35V55.87h20.16v73.36h21.87v13.12Z"/></g><g class="cls-2"><path class="cls-1" d="M244.48,110.53,227.35,55.87H247l7.41,34.37h.24l7.41-34.37h19.68l-17.13,54.66v31.82H244.48Z"/><path class="cls-1" d="M336.42,117.69c-.48,18.34-6.8,26.36-25.62,26.36-24.9,0-25.39-17.37-25.39-28.3V55.87h20.16v62.31c0,6.92,0,12,5.23,12,5.46,0,5.46-5.1,5.46-12V55.87h20.16Z"/><path class="cls-1" d="M341.77,142.35V55.87h20.16V95.1h.24l12.76-39.23h19.19L380.64,94l13.6,48.34H374.32L362.17,98.5h-.24v43.85Z"/><path class="cls-1" d="M439.18,55.87l11.18,86.48h-20L428,121.09H417.08l-3.28,21.26h-17l14.7-86.48ZM426.55,108,423,69.47h-.25L419.26,108Z"/></g></g><g class="cls-2"><g class="cls-2"><path class="cls-1" d="M211.22,159.05v7.2a8.07,8.07,0,0,1-3,2,10.61,10.61,0,0,1-3.93.71,9.33,9.33,0,0,1-4.49-1,7.32,7.32,0,0,1-3-3,9.09,9.09,0,0,1-1.05-4.45,8.67,8.67,0,0,1,1.11-4.4,7.75,7.75,0,0,1,3.11-3,9.56,9.56,0,0,1,4.58-1.07,8.39,8.39,0,0,1,3.38.65,8.57,8.57,0,0,1,2.78,2l-2.29,2.26a5.22,5.22,0,0,0-1.79-1.18,5.47,5.47,0,0,0-2.11-.41,4.88,4.88,0,0,0-3.68,1.39,5.24,5.24,0,0,0-1.35,3.8,5.89,5.89,0,0,0,.6,2.72,4.38,4.38,0,0,0,1.71,1.83,5,5,0,0,0,2.56.64,5.38,5.38,0,0,0,3.65-1.18v-2.47h-4.39v-3Z"/></g><g class="cls-2"><path class="cls-1" d="M214,152.45h3.79v12.74h8.12v3.42H214Z"/></g><g class="cls-2"><path class="cls-1" d="M231,168a7.4,7.4,0,0,1-3.05-3,9.81,9.81,0,0,1,0-8.91,7.44,7.44,0,0,1,3.05-3,10.51,10.51,0,0,1,9.16,0,7.5,7.5,0,0,1,3.05,3,9.81,9.81,0,0,1,0,8.91,7.46,7.46,0,0,1-3.05,3,10.51,10.51,0,0,1-9.16,0Zm7.15-3a4.3,4.3,0,0,0,1.73-1.78,6.19,6.19,0,0,0,0-5.36,4.39,4.39,0,0,0-1.73-1.79,5.15,5.15,0,0,0-2.57-.63,5.06,5.06,0,0,0-2.56.63,4.36,4.36,0,0,0-1.72,1.79,6.19,6.19,0,0,0,0,5.36,4.28,4.28,0,0,0,1.72,1.78,5,5,0,0,0,2.56.64A5.05,5.05,0,0,0,238.18,165Z"/></g><g class="cls-2"><path class="cls-1" d="M260.31,161.72a4.21,4.21,0,0,1,.69,2.36,3.89,3.89,0,0,1-1.63,3.33,7.41,7.41,0,0,1-4.49,1.2h-8V152.45h8a6.58,6.58,0,0,1,4.11,1.16,3.72,3.72,0,0,1,1.5,3.13,3.89,3.89,0,0,1-.54,2.07,3.48,3.48,0,0,1-1.51,1.35A4.2,4.2,0,0,1,260.31,161.72Zm-9.69-6.15v3.2H255a2.06,2.06,0,0,0,1.39-.41,1.69,1.69,0,0,0,0-2.37,2.07,2.07,0,0,0-1.38-.42Zm6.1,9.37a1.67,1.67,0,0,0,.57-1.34,1.64,1.64,0,0,0-.57-1.35,2.37,2.37,0,0,0-1.58-.47h-4.52v3.64h4.52A2.37,2.37,0,0,0,256.72,164.94Z"/></g><g class="cls-2"><path class="cls-1" d="M275.94,168.61l-1.2-2.91h-8l-1.2,2.91h-4l7.25-16.16h4l7.2,16.16Zm-5.14-12.54-2.66,6.37h5.27Z"/></g><g class="cls-2"><path class="cls-1" d="M281.62,152.45h3.78v12.74h8.13v3.42H281.62Z"/></g><g class="cls-2"><path class="cls-1" d="M312.58,152.45v3.3h-4.94v12.86h-3.78V155.75h-4.92v-3.3Z"/><path class="cls-1" d="M320.66,163.28h-2.19v5.33h-3.79V152.45h7.87a6.65,6.65,0,0,1,3.07.68,4.91,4.91,0,0,1,2,1.93,5.6,5.6,0,0,1,.72,2.86,5.2,5.2,0,0,1-1,3.16A5.14,5.14,0,0,1,324.7,163l4.57,5.66h-4.51Zm3.31-7a2.67,2.67,0,0,0-1.86-.6h-3.67v4.55h3.67a2.69,2.69,0,0,0,1.87-.59,2.48,2.48,0,0,0,0-3.36Z"/><path class="cls-1" d="M343.87,168.61l-1.2-2.91h-8l-1.2,2.91h-4l7.25-16.16h4l7.2,16.16Zm-5.14-12.54-2.66,6.37h5.27Z"/><path class="cls-1" d="M360.55,153.44a7.15,7.15,0,0,1,2.91,2.83,9.41,9.41,0,0,1,0,8.52,7.06,7.06,0,0,1-2.91,2.82,9.16,9.16,0,0,1-4.38,1h-6.62V152.45h6.62A9.28,9.28,0,0,1,360.55,153.44ZM359.45,164a4.8,4.8,0,0,0,1.25-3.48,5.34,5.34,0,0,0-.57-2.53,4,4,0,0,0-1.59-1.66,4.68,4.68,0,0,0-2.37-.59h-2.83v9.56h2.83A4.32,4.32,0,0,0,359.45,164Z"/><path class="cls-1" d="M367.07,152.45h3.78v16.16h-3.78Z"/><path class="cls-1" d="M385.05,152.45h3.76v16.16h-3.4l-7.31-10,0,4.36v5.64h-3.76V152.45h3.4l7.31,10,0-4.32Z"/><path class="cls-1" d="M406.85,159.05v7.2a8,8,0,0,1-3,2,10.61,10.61,0,0,1-3.93.71,9.33,9.33,0,0,1-4.49-1,7.26,7.26,0,0,1-3-3,9.09,9.09,0,0,1-1.05-4.45,8.67,8.67,0,0,1,1.11-4.4,7.78,7.78,0,0,1,3.1-3,9.59,9.59,0,0,1,4.58-1.07,8.4,8.4,0,0,1,3.39.65,8.57,8.57,0,0,1,2.78,2l-2.29,2.26a5.32,5.32,0,0,0-1.79-1.18,5.5,5.5,0,0,0-2.11-.41,4.88,4.88,0,0,0-3.68,1.39,5.24,5.24,0,0,0-1.35,3.8,5.89,5.89,0,0,0,.6,2.72,4.38,4.38,0,0,0,1.71,1.83,5,5,0,0,0,2.56.64,5.38,5.38,0,0,0,3.65-1.18v-2.47h-4.39v-3Z"/><path class="cls-1" d="M415.07,152.45h3.78v12.74H427v3.42H415.07Z"/></g><g class="cls-2"><path class="cls-1" d="M429.12,152.45h3.78v12.74H441v3.42H429.12Z"/></g><g class="cls-2"><path class="cls-1" d="M446.12,167.91a7.44,7.44,0,0,1-3-3,9.49,9.49,0,0,1,0-8.83,7.51,7.51,0,0,1,3.06-3,9.31,9.31,0,0,1,4.47-1,8.44,8.44,0,0,1,6.14,2.52l-2.33,2.33a5.16,5.16,0,0,0-3.71-1.48,5.09,5.09,0,0,0-2.58.64,4.43,4.43,0,0,0-1.73,1.78,6.08,6.08,0,0,0,0,5.31,4.39,4.39,0,0,0,1.73,1.79,5.19,5.19,0,0,0,2.58.64,6,6,0,0,0,2.21-.42,5.47,5.47,0,0,0,1.85-1.2l2.21,2.47a8.74,8.74,0,0,1-6.3,2.52A9.5,9.5,0,0,1,446.12,167.91Z"/></g></g></g></g></g></g></svg>