<svg xmlns="http://www.w3.org/2000/svg" viewBox="0 0 614.06 121.28"><defs><style>.cls-1{fill:#808285;}</style></defs><g id="Layer_2" data-name="Layer 2"><g id="Layer_1-2" data-name="Layer 1"><g id="Layer_2-2" data-name="Layer 2"><g id="Layer_1-2-2" data-name="Layer 1-2"><path class="cls-1" d="M29.88,74.92a3.43,3.43,0,0,0-3.82,3.71c0,2.42,1.13,4.08,3.73,4.2,2.44.1,3.66-1.27,3.84-3.86C33.53,76.71,32.23,75.05,29.88,74.92Zm19-73C44.8-.29,40.48,0,36.12,0,32,0,32,0,33.57,3.88l-.75.84C33.85,6.18,34.61,7.83,36,9l1-1A154.28,154.28,0,0,0,53.93,21.23c2.62,1.78,3.8,1.21,4.19-1.93A17.79,17.79,0,0,0,48.9,1.94Zm59.26,13.34C108.15,8.09,104.42,3,98,1.11S85.52,1.39,81.51,7c-2.34,3.28-4.62,6.59-6.94,9.88-.63-.31-.67-.93-.81-1.52.19-1.09.41-2.19.57-3.29.75-5.27-1.25-7-6.46-5.47C63,8,58.52,15.79,59.8,20.62c.37,1.38,1.34,1.59,2.53,1.7a11.14,11.14,0,0,0,9.37-3.47l.89.93L63.65,33.51a10.16,10.16,0,0,0-2.7,3.9c-1.61.6-1.11,4-3.93,3,1.69,2.44,3.28,5,5.09,7.3,1.27,1.65,1.61,4,3.86,4.9a61.49,61.49,0,0,0,5.42-8.07A34.5,34.5,0,0,0,76,37.79h0c2.25-3.2,4.51-6.39,6.73-9.61,3.11-4.52,6.19-9.06,9.31-13.58.5-.72,1-1.61,2.12-1.24s1.16,1.25,1.15,2.2V17.9c0,27.23,0,54.46-.05,81.69,0,2.52.49,3.7,3.28,3.4a34.4,34.4,0,0,1,6.73,0c2.31.2,3-.54,3-2.95-.11-28.29-.06-56.52-.1-84.76Zm-21.53,66c-3.29-2.69-4.4-2.55-6.64,1-.48.75-.88,1.56-1.35,2.32a24.69,24.69,0,0,1-41.16,2c-1.49-2-3.17-2.84-5.42-1.44-2.06,1.29-2.31,3.78-.47,6.17,7.41,9.63,17.31,14.07,29.32,12.78s21-7.55,25.74-19a2.68,2.68,0,0,0,0-3.78Zm36.94,9.89c2.29-1.8,3.42-4,2.2-6.78s-3.85-3.09-6.51-3.08c-.79,0-1.58.07-2.35,0-2-.13-2.76.57-2.69,2.69.15,5,.29,10.09,0,15.09-.23,3.42,1,4.39,4.12,3.9.44-.07.9,0,1.35,0,3-.31,5.8-.91,6.87-4.28,1-3.21-.12-5.66-3-7.5Zm-3.86-6.81a2.4,2.4,0,0,1,2.51,2.3,2.8,2.8,0,0,1,0,.29,2.68,2.68,0,0,1-2.56,3c-2,.06-1-1.75-1.34-2.72.22-1.11-.58-2.82,1.37-2.84Zm.23,15.32c-2.8.15-.79-2.24-1.79-3,.74-1.27-.86-3.48,1.71-3.44,1.83,0,2.69,1.44,2.69,3.23s-.73,3.17-2.63,3.25Zm20.24-6.25c-.63-.73-.1-1.1.29-1.67,2.27-3.32,2.48-6.46.62-8.58-1.43-1.63-7.84-2.66-9.91-1.67-1,.46-.82,1.23-.82,2V101c0,.77-.12,1.71,1,1.77s2.29.58,2.8-.39.13-2.18.35-3.26c.34-1.59-1.13-4.34.94-4.55,2.33-.25,2.2,2.69,2.35,4.45.26,3.25,1.58,4.71,5.27,3.45-1.59-2.82-.64-6.38-2.9-9Zm-4.48-2.58c-2.39.06-.73-2-1.39-3,.54-1.1-.83-3,1.35-3.23,1.86-.19,2.5,1.3,2.54,2.86S137.62,90.84,135.7,90.84Zm14.74-7.75c0-1.9-1.08-1.78-2.37-1.86-1.5-.08-1.94.53-1.9,2,.07,2.9,0,5.8,0,8.7s.05,6.06,0,9c0,1.48.58,1.92,2,1.89s2.29-.2,2.26-2q-.13-8.85,0-17.71ZM168,100.53c0-5.69,0-11.4,0-17.1,0-1.13.14-2.16-1.61-2.21s-1.94.86-1.91,2.25c.05,3.31,0,6.62,0,9.93a83.8,83.8,0,0,1-4.79-10.53c-.68-1.7-1.85-1.66-3.22-1.59-1.9.1-1.23,1.56-1.24,2.51q-.09,8.22,0,16.43c0,1-.62,2.39,1.21,2.56,1.93-.06,2.7-1,2.49-3a58.12,58.12,0,0,1,0-6.73c0-.53-.22-1.53,1-.95,1.29,3.08,2.69,6.14,3.85,9.25.62,1.6,1.85,1.35,3,1.35,1.67,0,1.19-1.31,1.2-2.19Zm14.92-10c-1.39.12-3.14-.72-4.07.59-.57.8-.5,2,1,3,1.79,1.15,1.09,3.53.42,5.14-.38.9-1.88,0-2.52-.72-2.62-3.08-2.14-6.73-1.35-10.2.63-2.78,2.79-4,5.63-3.51,1.87.29,1.53-1.22,1.83-2.13.43-1.35-.76-1.41-1.58-1.56a9.42,9.42,0,0,0-2.65-.11c-4.22.47-7.08,3.45-8,8.25-1.06,5.38.84,11,4.33,12.82,5.13,2.69,8.48.78,8.48-4.84V92.49c0-1,0-2.1-1.49-2Zm9.42,1.93c0-3.12-.06-6.25,0-9.37,0-1.56-.68-1.85-2-1.83s-2.11.2-2.09,1.81q.08,8.86,0,17.74c0,1.73.76,2,2.24,2s1.9-.67,1.87-2c0-2.74,0-5.53,0-8.33Zm11.43-26.28a18.91,18.91,0,0,1-4.62-10.23Q196.4,39,193.31,22.22c-.63-3.37-.6-6.41,1.75-9.16.71-.83,1.45-1.83.91-3.05-.6-1.4-1.93-1.34-3.17-1.34-6.05,0-12.11.06-18.16-.05-2.46,0-3.64,1-4.29,3.26C169,16.59,167.47,21.3,166,26c-1.55,5-3.12,10-4.85,15.43a10,10,0,0,1-1.91-4.82c-2-8.15-4-16.29-5.95-24.46-.57-2.45-1.74-3.59-4.39-3.53-6.06.13-12.11,0-18.17.06-1.1,0-2.37-.13-3,1.06a2.91,2.91,0,0,0,.78,3.36c2.27,2.48,2.43,5.29,1.83,8.46-1.34,6.93-2.19,13.94-3.68,20.85-1.81,8.39-1,17.54-7.44,24.65-1.53,1.69-.08,3.42,2.27,3.47,3.7.07,7.4.12,11.1,0,3.2-.12,4-1.79,2-4.33a8.94,8.94,0,0,1-1.82-7.83c.93-4.83,1.55-9.72,2.38-14.58.78-4.57,1.65-9.13,2.53-13.92,1.73,1,1.75,2.49,2.15,3.7,3.56,11,7.13,21.92,10.58,32.92.84,2.69,2.12,4.15,5.18,4.15s4.77-.87,5.74-3.89c3.71-11.51,7.61-22.94,11.44-34.39.26-.76.19-1.85,1.35-2.06.88.44.79,1.35.91,2,1.48,8.38,2.86,16.77,4.39,25.13.6,3.26.32,6.06-1.85,8.81-1.94,2.45-1,4.22,2.25,4.26,7.29.09,14.57,0,21.86,0,1.18,0,2.27-.19,2.86-1.34s0-2.2-.8-3Zm6.06,34.12c.05-5.59,0-11.18.05-16.78,0-1.38-.06-2.32-1.91-2.27s-1.71,1-1.69,2.16c.07,2.46.09,4.92.13,7.4-.46.81.29,1.94-.67,2.6-1.42-3.52-2.89-7-4.23-10.55-.64-1.68-1.91-1.6-3.27-1.53-1.89.11-1.23,1.57-1.25,2.52,0,5.59,0,11.18,0,16.82,0,1.17,0,2.16,1.66,2.22s2-.86,2-2.27c0-3.19,0-6.38,0-9.55.73-.05.83.41,1,.81,1.29,3.09,2.66,6.15,3.82,9.28.62,1.65,1.75,1.77,3.17,1.69,1.89-.13,1.26-1.57,1.27-2.52Zm16.61-3.36a1,1,0,0,0,0-.34,31.38,31.38,0,0,0,0-3.36c-.1-1,.67-2.53-1.07-2.69-1.49-.12-3.4-.84-4.43.5-.83,1.06,0,2.11,1.18,3.19s.9,3.43.12,5c-.39.76-1.72,0-2.3-.61-2.79-3.13-2.39-6.84-1.48-10.46.67-2.63,2.69-3.77,5.38-3.43,1.63.22,1.81-.74,2-1.93.29-1.54-.81-1.6-1.77-1.81a8.41,8.41,0,0,0-8.86,4,15.61,15.61,0,0,0-.11,14.22c1.42,3,5.72,4.47,9.36,3.49s1.37-3.8,2-5.77Zm15.77-6.49c-2.54.32-2.19-1.34-2.29-2.9-.13-1.9.26-3,2.51-2.69,1.29.17,2.69.37,2.65-1.83s-1.68-1.54-2.86-1.67c-.55-.06-1.11,0-1.94,0-1.18,1-4.41-2-4.45,2.08,0,5.8,0,11.6,0,17.4,0,1.64.61,2.06,2.16,2.07s2.12-.67,2-2.2c-.09-1.35.07-2.7,0-4-.16-1.86.17-3.06,2.45-2.75,1.28.17,2.4.09,2.36-1.82S243.32,90.27,242.2,90.42Zm13.64,8.75c-2.38.29-2.73-.84-2.69-2.87.12-4.23,0-8.47.06-12.71,0-1.68-.43-2.37-2.25-2.34s-2.06.73-2,2.22c.08,2.9,0,5.8,0,8.7v4c0,6.77,0,6.79,6.93,6.63,1.2,0,2.78.59,2.85-1.69.1-2.48-1.55-2.17-2.9-2Zm15.69-33.51c-3.28-2.48-4.86-6.06-6.42-9.66-6.14-14.27-12.44-28.49-18-43-1.14-2.95-3.13-4.45-6.39-4.37-4,.11-8.07,0-12.11,0-1.29,0-2.82-.33-3.55,1.23s.27,2.62,1.14,3.6c2.29,2.6,2.27,5.28,1,8.37-2.8,7-5.15,14.08-8.07,21-3.49,8.24-4.79,17.59-12.28,23.87-1.78,1.49-.6,3.68,2,3.76q6.89.23,13.77,0c2.69-.09,3.43-2,1.83-4.16-.67-.89-1.5-1.65-2.18-2.53-1.76-2.28-1.15-4.66-.18-7C223,54.56,225,55,226.71,55h13.11c4.36,0,6.78,3.48,5.33,7.53a20.33,20.33,0,0,1-1.78,3.23c-2,3.36-1.29,4.7,2.56,4.79s7.63,0,11.44,0h12.11c1.41,0,2.79-.09,3.32-1.66A2.83,2.83,0,0,0,271.53,65.66ZM238.47,48.3c-3.37,0-6.7.05-10.05,0-1.86,0-2.69-1-2-2.87q3-8,6.06-15.93c.5-1.29,1.6-2.11,2.27-.4,2.17,5.6,4,11.32,5.9,16.55C240.85,47.78,239.89,48.29,238.47,48.3Zm35.83,52.83-3.57-18.38c-.37-2-1.93-1.34-3.17-1.51-1.42-.16-2.28.26-2.59,1.83-1.18,5.9-2.46,11.78-3.69,17.67-.17.78-.94,1.91.63,2,1.07,0,2.56.77,3.09-1a8.16,8.16,0,0,0,.42-2c.1-1.52.79-2.09,2.35-2.11s2.09.9,2.26,2.24a8.74,8.74,0,0,0,.34,2c.54,1.49,1.87.85,2.89.91,1.17.07,1.12-.79,1-1.63Zm-6.53-6.6c-1.54,0-1.57-.84-1.3-2,.45-1.93.37-4,1.52-6.29.37,2.49.68,4.49,1,6.47C269.11,93.67,269.17,94.53,267.77,94.53Zm19.59-13.29c-1.75,0-2.26.67-2.46,2.31-.44,3.56-1.1,7.1-1.75,11.22a6.86,6.86,0,0,1-1.42-4c-.49-2.64-.92-5.28-1.3-7.94s-2.38-1.34-3.69-1.51-1.05.74-.85,1.58c1.34,6,2.75,12,4,18,.37,1.75,1.41,1.89,2.89,1.94,1.69.08,2.38-.58,2.69-2.16,1.2-5.68,2.37-11.37,3.81-17,.59-2.14,0-2.45-1.93-2.46Zm16.89,4.11c-1-2.6-2.69-4.44-5.71-4.39a6.08,6.08,0,0,0-5.83,4.31,19,19,0,0,0,.07,13.79,5.68,5.68,0,0,0,5.38,3.92,5.78,5.78,0,0,0,5.61-3.52,15.27,15.27,0,0,0,1.41-7.64,15.15,15.15,0,0,0-.91-6.47Zm-4.18,12.33c-.23.77-.67,1.51-1.51,1.58a2,2,0,0,1-2-1.52,15.36,15.36,0,0,1-.8-5.9,14.88,14.88,0,0,1,.8-5.58c.33-.81.82-1.62,1.93-1.55.93.06,1.34.76,1.58,1.51a19.07,19.07,0,0,1,0,11.46Zm20.49,2.69c-.42-2.39-.42-5-2.17-6.91-.67-.73-.21-1.17.3-1.66a6.14,6.14,0,0,0,1.23-7.68c-1.33-2.67-4-2.89-7-2.77-1.24.76-4.37-1.64-4.34,2.35.05,5.7.06,11.41,0,17.1,0,1.67.63,2,2.17,2.08s2.16-.61,2-2.16a30.11,30.11,0,0,1,0-4c.05-.82-.49-2.08.67-2.32,1.4-.29,1.85,1,2.14,2.08a35.63,35.63,0,0,1,1,4.56c.24,2.3,1.89,1.82,3.26,1.77,2.24-.1.89-1.65.74-2.44Zm-6.63-9.53c-2.27,0-.67-2.09-1.3-3,.53-1.1-.89-3.07,1.39-3.17,1.82-.08,2.51,1.42,2.51,2.94S315.8,90.88,313.93,90.84Zm16.59-50.39c-3.48-.13-6.95,0-10.42,0H310c-1.35,0-2.83,0-3.4,1.54s.61,2.28,1.57,3c3.48,2.78,4.62,6.44,4.24,10.77-.33,3.71-1.77,4.87-5.55,4.38a11.58,11.58,0,0,1-8.43-5.55c-6.62-10.09-8.18-21.14-5.85-32.79a7.6,7.6,0,0,1,7.19-6.47c4.54-.38,6.81.86,8.82,5.09,1.15,2.42,2,5,3.14,7.4,1.35,2.69,3.31,4.79,6.54,5.18,3.48.42,6.49-.41,8.48-3.52,2.1-3.28,1.68-6.66-.05-9.89-3.49-6.5-9.21-9.78-16.3-11.14-13.19-2.53-26.75,2.37-33.11,12.11-8.11,12.39-6.54,30.37,3.55,40.75C291.42,72.2,310,74.61,322.69,66.7c5-3.12,8.07-7.35,7.54-13.58a12,12,0,0,1,2.41-8.5C334.42,42.22,333.52,40.56,330.52,40.45ZM338,81.29h-8c-1.17,0-1.88.27-1.85,1.67s.13,2.3,1.75,2.12c2.18-.25,2.23,1.06,2.2,2.69-.06,4.23,0,8.47,0,12.71,0,1.29-.09,2.39,1.83,2.38s2.36-.59,2.26-2.33c-.12-2.11,0-4.23,0-6.35s.05-4.24,0-6.35c0-1.58-.07-3,2.16-2.75,1.65.17,1.66-1,1.69-2.19,0-1.47-.89-1.61-2-1.6Zm16.41,4.5c-1-2.77-2.61-4.79-5.73-4.81s-5,1.69-6.05,4.49a17.9,17.9,0,0,0,.21,13.73A5.57,5.57,0,0,0,348.3,103a5.84,5.84,0,0,0,5.53-3.65c1.22-2.4,1.24-5,1.25-8a17.8,17.8,0,0,0-.63-5.5Zm-4.12,11.37c-.25,1-.74,2.1-1.81,2.12-1.26,0-1.89-1.13-2.09-2.26-.29-1.64-.4-3.31-.59-5,.18-1.66.25-3.37.57-5,.2-1.06.55-2.28,1.95-2.37s1.75,1.14,2,2.22A20.92,20.92,0,0,1,350.33,97.16Zm20.46,2c-2.11.21-2.65-.59-2.58-2.63.15-4.34,0-8.7.07-13,0-1.48-.27-2.25-2-2.24s-2.46.39-2.37,2.24c.14,2.78,0,5.57,0,8.36v4.35c0,6.68,0,6.73,6.63,6.6,1.23,0,3.08.86,3.16-1.69s-1.57-2.08-2.92-1.94Zm10.36-7c0-3-.07-6.06,0-9.07.05-1.58-.74-1.83-2.06-1.82S377,81.39,377,83q.09,8.9,0,17.78c0,1.7.67,2.06,2.21,2s2-.52,1.94-2c-.06-2.89,0-5.8,0-8.7Zm11.16-1.74c-1.94.22-2.38-.57-2.45-2.43-.1-2.42.46-3.61,3.1-3.17,1.23.21,2.17-.06,2.13-1.71,0-1.26-.43-1.86-1.75-1.82a37,37,0,0,1-4.71,0c-2.09-.21-3,.35-2.84,2.69.22,2.69,0,5.38,0,8.07,0,2.91.07,5.82,0,8.75,0,1.57.43,2.13,2.08,2.13s2.15-.63,2-2.18.1-2.92,0-4.36c-.19-1.91.52-2.63,2.43-2.44,1.21.12,2.47.22,2.46-1.74s-1.26-1.93-2.47-1.79ZM406.11,99c-1.86.11-2.89-.17-2.75-2.47.12-2,0-3.61,2.76-3.17,1.38.22,2.39-.09,2.35-1.89s-1.27-1.6-2.34-1.5c-1.93.16-2.69-.35-2.79-2.55-.08-2.53,1.13-2.74,3-2.58,1.28.11,2.4.14,2.39-1.8s-1.28-1.71-2.48-1.72c-1.57,0-3.14.09-4.71,0-1.73-.13-2.4.44-2.31,2.25.14,2.69,0,5.38,0,8.07v4.71c0,6.61,0,6.62,6.73,6.51,1.35,0,3,.56,3-1.92s-1.61-2-2.94-1.94Zm3.37-75.35c-.51-4-1.35-7.95-2.08-11.9a3.52,3.52,0,0,0-3.84-3c-13.23,0-26.46-.07-39.7,0-3,0-3.83,1.61-2,4.09a13.15,13.15,0,0,1,2.41,8.53c-.08,6.05,0,12.11,0,18.16s-.06,12.33,0,18.49A12.8,12.8,0,0,1,362,66.17c-1.93,2.62-1.13,4.28,2.06,4.34q9.75.17,19.51,0c3-.06,3.95-1.88,2.08-4.16-2.12-2.56-2.55-5.34-2.46-8.45.1-3.58,0-7.17,0-10.76,0-1.68-.73-3.91,1.78-4.46s4.71-.41,6.35,1.87c.78,1.1,1.49,2.24,2.29,3.32.62.83,1.35,1.59,2.52,1.35a2.3,2.3,0,0,0,1.76-2.54c.06-4.93,0-9.86,0-14.8a2.46,2.46,0,0,0-1.69-2.64c-1.23-.32-2.05.63-2.73,1.55-.93,1.27-1.73,2.64-2.76,3.8-1.66,1.86-3.91,1.34-6,1.12-1.22-.12-1.54-1.17-1.54-2.25,0-5.05,0-10.09.05-15.12a2.83,2.83,0,0,1,2.36-2.85c7.45-2,12.41.15,16.15,7.06a8.25,8.25,0,0,0,3.57,3.88c2.74,1.3,4.53.21,4.15-2.79Zm26.06,57.66c-1.35,0-2.62-.23-2.78,1.84-.23,3.22-.75,6.43-1.15,9.64l-1.14-.67c-.5-3-1.06-5.94-1.45-8.93-.19-1.39-.76-1.88-2.16-1.9s-1.82.67-2,2c-.57,3.79-1.34,7.55-2,11.33a52.57,52.57,0,0,1-1.83-11c-.13-2.36-1.4-2.32-3.09-2.28-2.4.06-1.23,1.62-1.08,2.58.86,5.38,1.83,10.76,2.69,16.19.24,1.49.22,2.74,2.4,2.82,2.34.09,2.37-1.34,2.78-2.86.68-2.57.29-5.45,2.21-7.67,0,1.11-.28,2.28.67,3.19.29,1.64.58,3.29.88,4.94.25,1.42.68,2.42,2.53,2.38s2.46-.67,2.74-2.45c.85-5.63,1.92-11.22,2.91-16.82.21-1.06.87-2.3-1.12-2.3Zm8.92,1.9c0-1.42-.38-2-1.87-1.94s-2.39,0-2.31,1.87c.13,2.9,0,5.8,0,8.7s.08,6.06,0,9c-.06,1.75.78,2,2.24,2s2-.42,1.94-1.91q-.1-8.85,0-17.72Zm13.46-1.92c-2.9,0-5.81,0-8.75,0-1.2,0-1.59.53-1.48,1.62.08.92-.37,2.33,1.25,2.14,2.63-.29,2.57,1.31,2.51,3.11s0,3.79,0,5.69c0,2.12.06,4.24,0,6.36-.06,1.65.1,2.69,2.27,2.69,2,0,2.07-1.08,2-2.55-.05-4,0-8.08,0-12.07,0-1.66-.41-3.49,2.37-3.21,1.59.17,1.21-1.2,1.28-2.14.12-1.1-.29-1.65-1.49-1.63Zm17.32,2.21c0-1.49-.32-2.24-2-2.24s-2.24.48-2.11,2.1c.1,1.22-.07,2.46,0,3.68.18,2-.41,2.75-2.57,2.77-2.36,0-2.1-1.35-2.07-2.8,0-1.22-.08-2.46,0-3.68.15-1.7-.67-2-2.18-2.06-1.73-.06-2,.67-2,2.19.08,2.79,0,5.59,0,8.38v8.71c0,1.35.11,2.32,1.94,2.31s2.38-.67,2.24-2.36c-.1-1.34,0-2.69,0-4,0-1.52-.4-3.06,2.22-3,2.34,0,2.52,1.13,2.41,2.9-.07,1.45.07,2.91,0,4.36s.48,2.13,2.11,2.12,2-.79,2-2.26q-.12-8.53,0-17.07ZM445.51,7.69a31.68,31.68,0,0,0-31.75,31.63v.17A31.52,31.52,0,0,0,445,71.33h.46a31.51,31.51,0,0,0,32-31.56A31.7,31.7,0,0,0,446.07,7.69,5.23,5.23,0,0,0,445.51,7.69Zm10.22,51c-3.29,6.17-9.05,7.13-14,2.25C436.4,55.77,434.35,49,433.17,42c-1.15-6.81-1.05-13.57,1.61-20.12,3.1-7.63,10.09-9,15.48-2.84,6.45,7.41,7.89,16.57,8.36,25.93C458.4,49.75,458,54.42,455.73,58.69ZM491.7,99c-1.85.12-2.92-.14-2.77-2.45.12-2,0-3.63,2.75-3.18,1.35.21,2.44,0,2.38-1.87s-1.28-1.65-2.34-1.52c-2.31.28-2.75-.75-2.81-2.87-.07-2.9,1.81-2.25,3.37-2.22,1.4,0,2-.4,2-1.9,0-1.35-.67-1.71-1.84-1.68-1.9,0-3.8.09-5.7,0-1.55-.08-1.85.67-1.82,2,.07,2.9,0,5.8,0,8.74v4c0,6.85,0,6.86,6.8,6.73,1.35,0,3,.52,3-1.93S493,98.91,491.7,99Zm18.16-17.6c-1.39-.07-3.41-1.05-3.71,1.84-.43,4.1-1.24,8.16-1.88,12.24l-.49.19c-.67-4.17-1.51-8.34-2.06-12.54-.33-2.59-2.16-1.79-3.53-1.75-2.15.05-.95,1.56-.77,2.43,1.14,5.45,2.4,10.89,3.54,16.35.32,1.49.48,2.69,2.57,2.75s2.94-.85,3.37-2.7c1.16-5.45,2.42-10.89,3.58-16.34C510.64,83,512,81.48,509.86,81.37ZM520.73,99c-1.91.1-3.11,0-3-2.58.1-2.16.36-3.44,2.89-3.06,1.13.17,2.24.13,2.33-1.58.09-1.9-1.1-2-2.39-1.8-2.65.37-2.79-1.11-2.79-3.18,0-2.8,2-1.76,3.29-1.92,1-.11,2.15.14,2-1.44-.06-.82.37-2-1-2-2.69,0-5.56-.51-7.9.39-1.34.51-.35,3.49-.46,5.35-.1,1.67,0,3.36,0,5v4c0,6.76,0,6.72,6.91,6.64,1.46,0,2.94.28,2.89-2.07S522,98.91,520.73,99ZM513.48,7.69a31.67,31.67,0,1,0,.23,0A1.76,1.76,0,0,0,513.48,7.69Zm10,51.07c-3.07,6-8.93,7-13.79,2.36s-7.08-10.53-8.3-16.89c-1.35-7-1.73-14,.67-20.86,1.31-3.8,3.1-7.3,7.67-8s7.53,2.23,9.93,5.59c5.14,7.23,6.3,15.63,7,23.91-.33,5-1,9.63-3.14,13.88Zm16.09,42.93c-.8-2.43-.41-5.28-1.93-7.4-1.09-1.51-.62-2.12.33-3.26a6.23,6.23,0,0,0,.74-6.65c-.93-2.28-2.91-3-5.16-3.06-1.34,0-2.69,0-4,0-1.66,0-2.41.56-2.33,2.35.13,2.8,0,5.6,0,8.39s0,5.38,0,8.07c0,1.58,0,2.77,2.2,2.75s2-1.17,2-2.58c0-1.23-.06-2.46,0-3.69.05-.8-.46-2,.76-2.26s1.76.8,2,1.83c.41,1.74.72,3.5,1.07,5.25.42,2,2.06,1.23,3.27,1.35C539.22,102.84,539.94,102.74,539.57,101.69Zm-6.94-10.85c-2.28,0-.76-2.06-1.35-3,.51-1.11-.86-3.06,1.35-3.2,1.81-.11,2.49,1.35,2.51,2.91C535.19,89.23,534.51,90.84,532.63,90.84Zm21.74-9.24c-2.91-.8-4.71-.45-5,2.88-.17,1.61-.29,3.43-1.65,4.87a25.35,25.35,0,0,1-1.35-4.67c-.34-3.36-2.11-4-5.17-3,.51,1.59,1,3.19,1.52,4.75,1.61,4.49,3.68,8.88,3,13.88-.2,1.43-.05,2.57,2,2.57s2.17-1.16,2-2.58c-.55-4.5.91-8.57,2.54-12.62C553,85.71,553.61,83.7,554.37,81.6Zm17.25,9.6c2.26-1.85,3.45-4,2.24-6.78s-3.8-3.14-6.48-3.12c-.89,0-1.79.07-2.69,0-1.83-.1-2.54.6-2.48,2.53.13,4.71,0,9.38,0,14.07,0,5.35,0,5.38,5.52,5,3.05-.19,5.87-1.07,6.92-4.27s0-5.69-3.1-7.45Zm-4.11-6.92c1.77.22,2.69,1.06,2.75,2.62a2.73,2.73,0,0,1-2.4,3h-.07c-1.62.21-1.35-1.19-1.3-2.08.09-1.25-.81-3,1-3.58Zm.31,15.4c-2.47-.18-.76-2.32-1.42-3.36.51-1.11-.8-3.12,1.43-3.11,2,0,2.92,1.57,2.85,3.46-.11,1.68-1,3.15-2.9,3Zm14.74-7.85c0-2.79,0-5.59,0-8.38,0-1.48-.28-2.25-2-2.21-1.56,0-2.17.46-2.15,2.11.08,5.81.08,11.61,0,17.43,0,1.69.67,2,2.21,2.06s2-.55,1.94-2c0-3,0-6,0-9Zm13.23-10.54h-8.07c-1.16,0-2,.19-1.89,1.63.07,1-.1,2.27,1.39,2.11,2.62-.27,2.54,1.35,2.49,3.13s0,3.79,0,5.69c0,2.24,0,4.47,0,6.73,0,1.41.15,2.28,1.94,2.3s2.25-.72,2.22-2.38c-.09-4.24,0-8.49-.06-12.73,0-1.65.09-2.9,2.24-2.7,1.67.18,1.64-1,1.68-2.19,0-1.46-.87-1.6-2-1.59Zm-6.71-71.08c-6.89-2.2-14-1.35-19.82-1.54-5.91,0-10.62-.09-15.32,0-3.09.07-3.85,1.62-2,4.08a10.65,10.65,0,0,1,2.35,6.81q-.07,20,0,40a9.05,9.05,0,0,1-2.06,6.21c-.78.91-1.74,1.9-1.08,3.29s2.12,1.46,3.48,1.46c8.63,0,17.28.31,25.89-.09,11.85-.55,22-5,27.84-15.88C616.52,39.35,612.35,17.62,589.08,10.21Zm1.48,46c-1.85,5.84-8,8.74-14.13,7.6-2.38-.44-3-1.88-3-4,0-6.81,0-13.63,0-20.45,0-6.59.08-13.19,0-19.78-.06-3.25,1.42-4.31,4.47-4.29,4,0,6.84,2.15,8.81,5.27,7.13,11.21,7.85,23.32,3.93,35.69Zm17,42.78c-2.08.2-2.77-.5-2.62-2.59.13-1.78-.09-3.44,2.56-3.06,1.19.17,2.47.28,2.49-1.71s-1.32-1.81-2.49-1.68c-2.24.25-2.47-.93-2.57-2.79-.15-2.83,1.69-2.34,3.3-2.3,1.18,0,2-.17,1.83-1.61-.09-.84.25-1.95-1.16-1.93-2.55,0-5.44-.53-7.56.47-1.41.67-.38,3.72-.5,5.7-.08,1.45,0,2.91,0,4.36v4.38c0,6.66,0,6.7,6.69,6.57,1.22,0,3,.85,3.13-1.73C610.71,98.31,608.9,98.85,607.52,99ZM612,119.06a20.3,20.3,0,0,0-6-.68H7.13a14.24,14.24,0,0,0-2.69,0c-1.55.28-4.23,0-4.18,1.65.07,1.94,2.59,1,4,1q151,.07,302,0H611.9c.59,0,1.15-.27,1.19-.93s-.5-.92-1.08-1.09Zm1.19-10h0c-1.27-1.44-3-.72-4.41-.72q-301.67-.07-603.3,0c-1.12,0-2.24,0-3.36,0a1.53,1.53,0,0,0-1.56,1c-1.7,3.9.32,7,4.6,7H612.15c.84,0,1.74-.25,1.7-1.21-.08-2.07.84-4.24-.66-6.13Z"/><path class="cls-1" d="M69.67,58.55c-1.27-2-2.88-3.72-3.72-5.95-2.24-.87-2.59-3.26-3.85-4.9-1.81-2.35-3.41-4.86-5.09-7.3-.74-1.24-1.44-2.51-2.24-3.7Q45.43,22.82,36,9c-1.42-1.15-2.18-2.8-3.21-4.26C27.7.14,21.86-.89,15.71,2s-7.9,8.2-7.86,14.71c.14,25.86.06,51.72.06,77.58,0,8.59,0,8.44,8.74,8.66,3.14.07,4.13-.61,4.11-4-.17-27-.09-54-.09-80.94V15.38A1.92,1.92,0,0,1,22,13.3c1-.29,1.44.37,1.9,1s.91,1.28,1.35,1.93L48.82,50.51c2.31,3.25-.84,5-2,7.36-1.35,1.81-2.55,3.69-2.56,6.06a6.08,6.08,0,0,0-.55,3.56c.58,6.42,4.52,11,11.06,12.79C60,81.72,66.3,79.4,69.63,74.9,73.16,70,73.19,63.93,69.67,58.55ZM57.93,67.87a1.15,1.15,0,0,1-1.11-1.2,1.23,1.23,0,0,1,0-.2c.07-.68.48-1.51,1.11-1.52.86,0,1.13.88,1.24,1.7C59.13,67.43,58.7,67.93,57.93,67.87Z"/><path class="cls-1" d="M204.63,69.18c-.6,1.16-1.69,1.35-2.87,1.35-7.29,0-14.57.06-21.86,0-3.19,0-4.19-1.81-2.25-4.26,2.17-2.74,2.45-5.56,1.85-8.81-1.53-8.37-2.91-16.76-4.39-25.13-.12-.67,0-1.6-.91-2-1.17.2-1.11,1.29-1.35,2.05C169,43.8,165.09,55.24,161.41,66.75c-1,3-2.75,3.89-5.74,3.89s-4.34-1.46-5.18-4.15c-3.45-11-7-22-10.58-32.92-.4-1.21-.42-2.69-2.15-3.69-.88,4.78-1.75,9.34-2.53,13.92-.83,4.86-1.45,9.75-2.38,14.58a8.91,8.91,0,0,0,1.82,7.82c2,2.55,1.18,4.22-2,4.34-3.69.12-7.4.08-11.1,0-2.35-.06-3.8-1.79-2.27-3.48,6.46-7.11,5.64-16.26,7.45-24.64,1.48-6.88,2.35-13.9,3.68-20.86.59-3.16.43-6-1.84-8.45-.86-.94-1.45-2.1-.78-3.37s1.89-1.05,3-1.05c6.06,0,12.11.07,18.17-.06,2.65-.06,3.82,1.07,4.39,3.52,1.91,8.18,4,16.32,5.95,24.46a10,10,0,0,0,1.91,4.83C162.93,36,164.5,31,166.06,26c1.47-4.71,3-9.38,4.35-14.13.67-2.29,1.83-3.3,4.29-3.25,6.06.11,12.11,0,18.17,0,1.23,0,2.56-.06,3.16,1.35.54,1.22-.2,2.22-.91,3.05-2.35,2.74-2.38,5.77-1.75,9.15Q196.46,39.05,199.2,56a19,19,0,0,0,4.62,10.23C204.52,67,205.28,68,204.63,69.18Z"/><path class="cls-1" d="M35.39,7.2a5.13,5.13,0,0,0-1-1.42,5.47,5.47,0,0,0-1.55-1.06C33.85,6.18,34.61,7.83,36,9A7.65,7.65,0,0,0,35.39,7.2ZM57,40.38c1.68,2.44,3.28,5,5.09,7.31,1.26,1.64,1.61,4,3.85,4.9C63.43,48.19,61.22,43.54,57,40.38Z"/><path class="cls-1" d="M589.08,10.21c-6.89-2.2-14-1.35-19.82-1.54-5.91,0-10.62-.09-15.32,0-3.09.07-3.85,1.62-2,4.08a10.65,10.65,0,0,1,2.35,6.81q-.07,20,0,40a9.05,9.05,0,0,1-2.06,6.21c-.78.91-1.74,1.9-1.08,3.29s2.12,1.46,3.48,1.46c8.63,0,17.28.31,25.89-.09,11.85-.55,22-5,27.84-15.88C616.52,39.35,612.35,17.62,589.08,10.21Zm1.48,46c-1.85,5.84-8,8.74-14.13,7.6-2.38-.44-3-1.88-3-4,0-6.81,0-13.63,0-20.45,0-6.59.08-13.19,0-19.78-.06-3.25,1.42-4.31,4.47-4.29,4,0,6.84,2.15,8.81,5.27,7.13,11.21,7.85,23.32,3.93,35.69Z"/><path class="cls-1" d="M513.48,7.69a31.67,31.67,0,1,0,.23,0A1.76,1.76,0,0,0,513.48,7.69Zm10,51.07c-3.07,6-8.93,7-13.79,2.36s-7.08-10.53-8.3-16.89c-1.35-7-1.73-14,.67-20.86,1.31-3.8,3.1-7.3,7.67-8s7.53,2.23,9.93,5.59c5.14,7.23,6.3,15.63,7,23.91-.33,5-1,9.63-3.14,13.88Z"/><path class="cls-1" d="M445.51,7.69a31.68,31.68,0,0,0-31.75,31.63v.17A31.52,31.52,0,0,0,445,71.33h.46a31.51,31.51,0,0,0,32-31.56A31.7,31.7,0,0,0,446.07,7.69,5.23,5.23,0,0,0,445.51,7.69Zm10.22,51c-3.29,6.17-9.05,7.13-14,2.25C436.4,55.77,434.35,49,433.17,42c-1.15-6.81-1.05-13.57,1.61-20.12,3.1-7.63,10.09-9,15.48-2.84,6.45,7.41,7.89,16.57,8.36,25.93C458.4,49.75,458,54.42,455.73,58.69Z"/><path class="cls-1" d="M332.65,44.59a12,12,0,0,0-2.41,8.5c.5,6.22-2.53,10.46-7.54,13.58-12.68,7.9-31.27,5.49-41.84-5.38-10.09-10.39-11.66-28.36-3.55-40.75,6.35-9.73,19.92-14.62,33.1-12.11,7.1,1.34,12.82,4.64,16.31,11.14,1.73,3.23,2.15,6.61,0,9.89-2,3.1-5,3.94-8.48,3.51-3.23-.39-5.2-2.48-6.54-5.18-1.18-2.4-2-5-3.15-7.4-2-4.22-4.27-5.47-8.82-5.08a7.59,7.59,0,0,0-7.18,6.47c-2.33,11.65-.77,22.72,5.84,32.78a11.68,11.68,0,0,0,8.44,5.56c3.73.48,5.21-.67,5.54-4.39.39-4.29-.76-8-4.23-10.76-1-.77-2.09-1.61-1.57-3s2-1.54,3.4-1.54h10.09c3.47,0,6.94-.09,10.41,0C333.52,40.56,334.42,42.22,332.65,44.59Z"/><path class="cls-1" d="M271.53,65.66c-3.28-2.48-4.86-6.06-6.42-9.66-6.14-14.27-12.44-28.49-18-43-1.14-2.95-3.13-4.45-6.39-4.37-4,.11-8.07,0-12.11,0-1.29,0-2.82-.33-3.55,1.23s.27,2.62,1.14,3.6c2.29,2.6,2.27,5.28,1,8.37-2.8,7-5.15,14.08-8.07,21-3.49,8.24-4.79,17.59-12.28,23.87-1.78,1.49-.6,3.68,2,3.76q6.89.23,13.77,0c2.69-.09,3.43-2,1.83-4.16-.67-.89-1.5-1.65-2.18-2.53-1.76-2.28-1.15-4.66-.18-7C223,54.56,225,55,226.71,55h13.11c4.36,0,6.78,3.48,5.33,7.53a20.33,20.33,0,0,1-1.78,3.23c-2,3.36-1.29,4.7,2.56,4.79s7.63,0,11.44,0h12.11c1.41,0,2.79-.09,3.32-1.66A2.83,2.83,0,0,0,271.53,65.66ZM238.47,48.3c-3.37,0-6.7.05-10.05,0-1.86,0-2.69-1-2-2.87q3-8,6.06-15.93c.5-1.29,1.6-2.11,2.27-.4,2.17,5.6,4,11.32,5.9,16.55C240.85,47.78,239.89,48.29,238.47,48.3Z"/><path class="cls-1" d="M108.23,100c0,2.41-.73,3.14-3,3a34.29,34.29,0,0,0-6.72,0c-2.8.3-3.29-.88-3.28-3.41.08-27.22,0-54.45,0-81.68V15.5c0-.95-.13-1.85-1.15-2.19s-1.63.52-2.12,1.24c-3.12,4.52-6.2,9.06-9.32,13.58-2.22,3.22-4.48,6.41-6.72,9.61h0c-1.6,1.74-3.3,3.85-5.92,2.69-3-1.35-6-3-6.36-7l8.94-13.76a3.58,3.58,0,0,1,2-2.85c2.31-3.3,4.6-6.61,6.94-9.88,4-5.63,10.19-7.83,16.51-5.92s10.1,7,10.11,14.21C108.2,43.52,108.15,71.75,108.23,100Z"/><path class="cls-1" d="M405.33,26.42a8.3,8.3,0,0,1-3.57-3.88c-3.75-6.92-8.71-9-16.15-7.06a2.82,2.82,0,0,0-2.35,2.87c-.07,5-.05,10.09-.05,15.12,0,1.09.32,2.13,1.54,2.26,2.09.22,4.34.73,6-1.13,1-1.16,1.84-2.53,2.76-3.79.68-.92,1.45-1.9,2.73-1.56a2.44,2.44,0,0,1,1.69,2.64c0,4.93,0,9.86,0,14.8a2.29,2.29,0,0,1-1.76,2.54c-1.16.24-1.9-.52-2.52-1.35-.8-1.07-1.51-2.22-2.29-3.31-1.61-2.28-4-2.41-6.35-1.88s-1.75,2.78-1.78,4.46c-.08,3.58,0,7.17-.05,10.76-.09,3.11.34,5.9,2.46,8.45,1.87,2.29.9,4.11-2.08,4.16q-9.75.18-19.51,0c-3.19,0-4-1.72-2.06-4.34A12.79,12.79,0,0,0,364.32,58c-.08-6.16,0-12.32,0-18.48s-.06-12.11,0-18.17a13.11,13.11,0,0,0-2.41-8.52c-1.86-2.48-1.07-4.08,2-4.1,13.23-.07,26.46,0,39.7,0a3.53,3.53,0,0,1,3.84,3c.74,4,1.57,7.91,2.08,11.9C409.85,26.64,408.06,27.73,405.33,26.42Z"/><path class="cls-1" d="M613.08,120.12c0,.67-.59.91-1.19.93H306.2q-151,0-302-.06c-1.39,0-3.91,1-4-.95-.06-1.62,2.62-1.35,4.17-1.66a15.22,15.22,0,0,1,2.7,0H606.05a20.4,20.4,0,0,1,6,.67C612.59,119.23,613.12,119.45,613.08,120.12Z"/><path class="cls-1" d="M613.19,109.07h0c-1.26-1.44-2.94-.72-4.4-.72q-301.63-.07-603.27,0c-1.12,0-2.24,0-3.36,0a1.53,1.53,0,0,0-1.56,1c-1.7,3.9.32,7,4.6,7H612.15c.84,0,1.74-.25,1.7-1.21C613.77,113.13,614.69,111,613.19,109.07Zm-5.92,5.45c-.55,0-1.12,0-1.68,0H8.32c-1.13,0-2.24,0-3.37-.06-1.34-.08-2.45-.45-2.38-2.12s1.15-2,2.5-2.1c1.68-.12,3.37-.08,5-.08h599.3a5.44,5.44,0,0,0,3.69-1,2.18,2.18,0,0,0-.71,1.34c0,3.48-2.15,4.27-5.12,4Z"/><path class="cls-1" d="M86.64,85.06c-4.78,11.47-13.64,17.74-25.75,19S39,100.93,31.58,91.29c-1.84-2.39-1.59-4.88.47-6.17,2.24-1.4,3.93-.55,5.42,1.44a24.7,24.7,0,0,0,41.16-2c.46-.76.86-1.57,1.34-2.32,2.24-3.56,3.37-3.72,6.64-1A5.49,5.49,0,0,1,86.64,85.06Z"/><path class="cls-1" d="M58.12,19.3c-.39,3.14-1.57,3.71-4.19,1.93A154.28,154.28,0,0,1,37,8a3.67,3.67,0,0,1-1.61-.81,4.47,4.47,0,0,1-1-1.42,18.45,18.45,0,0,1-.8-1.89C32,0,32,0,36.12,0,40.48,0,44.8-.3,48.91,1.93A17.82,17.82,0,0,1,58.12,19.3Z"/><path class="cls-1" d="M436.63,83.58c-1,5.6-2.06,11.2-2.91,16.82-.28,1.8-.89,2.42-2.74,2.45s-2.27-1-2.52-2.38c-.3-1.65-.59-3.29-.88-4.94-.76-1,.21-2.27-.68-3.19-1.91,2.21-1.52,5.1-2.2,7.66-.41,1.54-.45,3-2.78,2.87s-2.17-1.35-2.4-2.82c-.87-5.38-1.84-10.76-2.69-16.19-.15-1-1.35-2.53,1.07-2.59,1.69,0,3-.07,3.09,2.29a52.47,52.47,0,0,0,1.83,11c.67-3.77,1.42-7.53,2-11.32.2-1.3.52-2,2-2s2,.51,2.15,1.91c.4,3,.95,6,1.45,8.92a5.33,5.33,0,0,0,.23.6c.27.49.21,1.11.61,1.54a1.37,1.37,0,0,1,.31-1.45c.39-3.21.91-6.42,1.15-9.64.15-2.07,1.4-1.84,2.77-1.84C437.51,81.29,436.85,82.53,436.63,83.58Z"/><path class="cls-1" d="M123.55,91.16c2.29-1.8,3.42-4,2.2-6.78s-3.85-3.09-6.51-3.08c-.79,0-1.58.07-2.35,0-2-.13-2.76.57-2.69,2.69.15,5,.29,10.09,0,15.09-.23,3.42,1,4.39,4.12,3.9.44-.07.9,0,1.35,0,3-.31,5.8-.91,6.87-4.28C127.53,95.45,126.44,93,123.55,91.16Zm-3.86-6.81a2.4,2.4,0,0,1,2.51,2.3,2.8,2.8,0,0,1,0,.29,2.68,2.68,0,0,1-2.56,3c-2,.06-1-1.75-1.34-2.72C118.54,86.08,117.74,84.37,119.69,84.35Zm.23,15.32c-2.8.15-.79-2.24-1.79-3,.74-1.27-.86-3.48,1.71-3.44,1.83,0,2.69,1.44,2.69,3.23s-.71,3.17-2.61,3.25Z"/><path class="cls-1" d="M571.59,91.2c2.25-1.85,3.44-4,2.23-6.78s-3.8-3.14-6.47-3.12c-.89,0-1.79.07-2.7,0-1.82-.1-2.53.6-2.48,2.53.14,4.71.05,9.38.05,14.07,0,5.35,0,5.38,5.52,5,3-.19,5.86-1.07,6.91-4.27S574.66,93,571.59,91.2Zm-4.12-6.92c1.78.22,2.69,1.06,2.76,2.62a2.73,2.73,0,0,1-2.41,3h-.06c-1.62.21-1.35-1.19-1.3-2.08C566.58,86.61,565.68,84.91,567.47,84.28Zm.31,15.4c-2.47-.18-.76-2.32-1.42-3.36.52-1.11-.79-3.12,1.44-3.11,2,0,2.92,1.57,2.84,3.46C570.57,98.35,569.69,99.82,567.78,99.68Z"/><path class="cls-1" d="M166.8,102.78c-1.2,0-2.43.27-3.05-1.35-1.2-3.12-2.57-6.18-3.86-9.26-1.19-.57-1,.43-1,1a63,63,0,0,0,0,6.73c.19,2-.55,2.89-2.48,3-1.84-.17-1.2-1.6-1.21-2.56q-.06-8.22,0-16.43c0-.95-.67-2.41,1.24-2.51,1.34-.08,2.57-.11,3.21,1.58a85.38,85.38,0,0,0,4.79,10.53c0-3.31,0-6.62,0-9.92,0-1.39.08-2.31,1.92-2.25s1.6,1.07,1.6,2.21v17.1C168,101.44,168.46,102.75,166.8,102.78Z"/><path class="cls-1" d="M208.56,102.8c-1.43.08-2.55,0-3.17-1.69-1.16-3.14-2.53-6.2-3.82-9.29-.17-.4-.27-.86-1-.81v9.55c0,1.41-.18,2.34-2,2.28s-1.66-1-1.66-2.23c0-5.6,0-11.19,0-16.82,0-1-.64-2.41,1.25-2.52,1.35-.07,2.63-.15,3.27,1.54,1.34,3.54,2.81,7,4.23,10.55,1.84-.44.71-1.67.67-2.61,0-2.46-.06-4.92-.13-7.4,0-1.2,0-2.11,1.69-2.16,1.85,0,1.91.9,1.91,2.28,0,5.59,0,11.18,0,16.78C209.84,101.25,210.47,102.69,208.56,102.8Z"/><path class="cls-1" d="M539.57,101.69c-.8-2.43-.41-5.28-1.93-7.4-1.09-1.51-.62-2.12.33-3.26a6.23,6.23,0,0,0,.74-6.65c-.93-2.28-2.91-3-5.16-3.06-1.34,0-2.69,0-4,0-1.66,0-2.41.56-2.33,2.35.13,2.8,0,5.6,0,8.39s0,5.38,0,8.07c0,1.58,0,2.77,2.2,2.75s2-1.17,2-2.58c0-1.23-.06-2.46,0-3.69.05-.8-.46-2,.76-2.26s1.76.8,2,1.83c.41,1.74.72,3.5,1.07,5.25.42,2,2.06,1.23,3.27,1.35C539.22,102.84,539.94,102.74,539.57,101.69Zm-6.94-10.85c-2.28,0-.76-2.06-1.35-3,.51-1.11-.86-3.06,1.35-3.2,1.81-.11,2.49,1.35,2.51,2.91C535.19,89.23,534.51,90.84,532.63,90.84Z"/><path class="cls-1" d="M320.58,100.34c-.42-2.39-.42-5-2.17-6.92-.67-.72-.21-1.16.3-1.65a6.14,6.14,0,0,0,1.23-7.68c-1.33-2.68-4-2.89-7-2.77-1.24.76-4.37-1.64-4.34,2.35.05,5.7.06,11.4,0,17.1,0,1.67.63,2,2.17,2.07s2.16-.6,2.05-2.15a30.26,30.26,0,0,1,0-4c.05-.81-.49-2.07.67-2.31,1.4-.29,1.85,1,2.14,2.08a35.26,35.26,0,0,1,1,4.56c.24,2.29,1.89,1.82,3.26,1.76C322.08,102.68,320.73,101.13,320.58,100.34Zm-6.65-9.5c-2.27,0-.67-2.09-1.3-3,.53-1.1-.89-3.07,1.39-3.17,1.82-.08,2.51,1.42,2.51,2.94S315.8,90.88,313.93,90.84Z"/><path class="cls-1" d="M475.21,100.58c0,1.48-.3,2.26-2,2.26s-2.21-.54-2.11-2.12,0-2.91,0-4.36c.11-1.77-.07-2.86-2.41-2.9-2.62-.06-2.21,1.48-2.22,3,0,1.35-.08,2.7,0,4,.14,1.7-.43,2.36-2.24,2.36s-2-.93-1.94-2.31c0-2.9,0-5.8,0-8.71s.05-5.59,0-8.38c0-1.49.28-2.25,2-2.19,1.5,0,2.33.36,2.18,2.06-.1,1.22,0,2.46,0,3.68,0,1.47-.29,2.83,2.07,2.8,2.16,0,2.75-.82,2.57-2.77-.11-1.22.06-2.46,0-3.68-.13-1.62.51-2.1,2.11-2.1s2,.75,2,2.24Q475.13,92,475.21,100.58Z"/><path class="cls-1" d="M140.16,93.42c-.63-.73-.1-1.1.29-1.67,2.27-3.32,2.48-6.46.62-8.58-1.43-1.63-7.84-2.66-9.91-1.67-.95.46-.82,1.23-.82,2V101c0,.77-.12,1.71,1,1.77s2.29.58,2.8-.39.13-2.18.35-3.26c.34-1.59-1.13-4.34.94-4.55,2.33-.25,2.2,2.69,2.35,4.45.26,3.25,1.58,4.71,5.27,3.45C141.47,99.63,142.42,96.07,140.16,93.42Zm-4.46-2.58c-2.39.06-.73-2-1.39-3,.54-1.1-.83-3,1.35-3.23,1.86-.19,2.5,1.3,2.54,2.86S137.62,90.84,135.7,90.84Z"/><path class="cls-1" d="M354.45,85.79c-1-2.77-2.61-4.79-5.73-4.81s-5,1.69-6.05,4.49a17.9,17.9,0,0,0,.21,13.73A5.57,5.57,0,0,0,348.3,103a5.84,5.84,0,0,0,5.53-3.65c1.22-2.4,1.24-5,1.25-8A17.8,17.8,0,0,0,354.45,85.79Zm-4.12,11.37c-.25,1-.74,2.1-1.81,2.12-1.26,0-1.89-1.13-2.09-2.26-.29-1.64-.4-3.31-.59-5,.18-1.66.25-3.37.57-5,.2-1.06.55-2.28,1.95-2.37s1.75,1.14,2,2.22a20.92,20.92,0,0,1-.05,10.22Z"/><path class="cls-1" d="M304.27,85.35c-1-2.6-2.69-4.44-5.7-4.39a6.08,6.08,0,0,0-5.84,4.31,19,19,0,0,0,.07,13.79,5.68,5.68,0,0,0,5.38,3.92,5.78,5.78,0,0,0,5.61-3.52,15.27,15.27,0,0,0,1.41-7.64A15,15,0,0,0,304.27,85.35Zm-4.18,12.33c-.23.77-.67,1.51-1.51,1.58a2,2,0,0,1-2-1.52,15.56,15.56,0,0,1-.8-5.9,14.88,14.88,0,0,1,.8-5.58c.33-.81.82-1.62,1.93-1.55.93.06,1.34.76,1.58,1.51a19.15,19.15,0,0,1,0,11.46Z"/><path class="cls-1" d="M74.33,12.09c-.16,1.1-.38,2.2-.57,3.29-.49,1.27-.2,3-2.06,3.45a11.15,11.15,0,0,1-9.37,3.49c-1.18-.11-2.16-.32-2.53-1.7C58.52,15.79,63,8,67.87,6.62,73.08,5.13,75.08,6.82,74.33,12.09Z"/><path class="cls-1" d="M224.5,102.82c-3.64,1-7.95-.49-9.37-3.5a15.61,15.61,0,0,1,.11-14.22,8.32,8.32,0,0,1,8.87-4c1,.21,2.06.27,1.77,1.81-.22,1.2-.41,2.15-2,1.94-2.69-.35-4.71.8-5.38,3.42-.92,3.62-1.31,7.33,1.48,10.46.58.67,1.9,1.35,2.29.61.78-1.56,1.11-3.9-.11-5s-2-2.12-1.19-3.19c1-1.34,2.94-.62,4.44-.5,1.74.13,1,1.69,1.07,2.69s0,2.24,0,3.36a1.93,1.93,0,0,1,0,.34C225.84,98.91,228.07,101.86,224.5,102.82Z"/><path class="cls-1" d="M184.39,92.53v4.71c0,5.62-3.37,7.53-8.48,4.84-3.49-1.83-5.38-7.44-4.33-12.82.94-4.8,3.8-7.78,8-8.25a9.13,9.13,0,0,1,2.66.12c.81.14,2,.18,1.57,1.55-.3.91,0,2.42-1.82,2.13-2.85-.44-5,.73-5.63,3.51-.78,3.49-1.26,7.12,1.34,10.2.64.76,2.15,1.62,2.52.72.68-1.61,1.35-4-.41-5.14-1.5-1-1.57-2.17-1-3,.93-1.31,2.69-.47,4.07-.59S184.4,91.51,184.39,92.53Z"/><path class="cls-1" d="M289.35,83.7c-1.44,5.61-2.61,11.3-3.81,17-.33,1.58-1,2.24-2.69,2.16-1.48,0-2.52-.19-2.89-1.94-1.28-6-2.69-12-4-18-.2-.84-.35-1.73.85-1.58s3.32-1.15,3.69,1.51.81,5.3,1.3,7.94a6.86,6.86,0,0,0,1.42,4c.67-4.12,1.34-7.66,1.75-11.22.2-1.63.71-2.32,2.46-2.31S289.9,81.56,289.35,83.7Z"/><path class="cls-1" d="M510.46,83.82c-1.16,5.45-2.43,10.89-3.59,16.34-.4,1.87-1.16,2.8-3.36,2.7s-2.26-1.26-2.57-2.75c-1.15-5.46-2.41-10.9-3.54-16.35-.18-.87-1.38-2.38.76-2.43,1.35,0,3.2-.84,3.54,1.75.55,4.2,1.34,8.37,2.05,12.54l.5-.19c.67-4.08,1.44-8.14,1.87-12.24.31-2.89,2.32-1.91,3.72-1.84C512,81.48,510.64,83,510.46,83.82Z"/><path class="cls-1" d="M274.3,101.13l-3.57-18.38c-.37-2-1.93-1.34-3.17-1.51-1.42-.16-2.28.26-2.59,1.83-1.18,5.9-2.46,11.78-3.69,17.67-.17.78-.94,1.91.63,2,1.07,0,2.56.77,3.09-1a8.16,8.16,0,0,0,.42-2c.1-1.52.79-2.09,2.35-2.11s2.09.9,2.26,2.24a8.74,8.74,0,0,0,.34,2c.54,1.49,1.87.85,2.89.91C274.43,102.83,274.38,102,274.3,101.13Zm-6.53-6.6c-1.54,0-1.57-.84-1.3-2,.45-1.93.37-4,1.52-6.29.37,2.49.68,4.49,1,6.47C269.11,93.67,269.17,94.53,267.77,94.53Z"/><path class="cls-1" d="M610.58,101c-.13,2.58-1.91,1.71-3.14,1.73-6.68.13-6.68.09-6.68-6.57V91.84c0-1.45-.07-2.91,0-4.36.11-2-.92-5,.49-5.7,2.12-1,5-.43,7.56-.47,1.42,0,1.07,1.09,1.16,1.93.16,1.44-.67,1.65-1.83,1.61-1.61,0-3.45-.53-3.3,2.3.1,1.86.33,3,2.57,2.79,1.18-.13,2.49-.34,2.49,1.68s-1.29,1.88-2.49,1.71c-2.65-.38-2.43,1.28-2.56,3.06-.15,2.09.55,2.79,2.62,2.59C608.9,98.85,610.71,98.31,610.58,101Z"/><path class="cls-1" d="M494.68,100.86c0,2.45-1.64,1.91-3,1.93-6.8.1-6.8.09-6.8-6.73V92c0-2.9.05-5.81,0-8.74,0-1.35.27-2.11,1.83-2,1.89.09,3.8,0,5.69,0,1.2,0,1.82.3,1.85,1.67s-.55,1.94-2,1.91-3.43-.67-3.36,2.22c.06,2.12.49,3.15,2.8,2.87,1.06-.13,2.28-.25,2.34,1.52s-1,2.08-2.37,1.87c-2.77-.45-2.64,1.21-2.76,3.18-.15,2.31.92,2.57,2.77,2.45C493,98.91,494.69,98.38,494.68,100.86Z"/><path class="cls-1" d="M523.51,100.73c0,2.35-1.43,2-2.89,2.07-6.92.12-6.92.12-6.92-6.65v-4c0-1.68-.07-3.37,0-5,.11-1.86-.85-4.84.47-5.35,2.34-.9,5.23-.43,7.9-.39,1.38,0,.95,1.23,1,2,.12,1.58-1,1.35-2,1.44-1.35.16-3.3-.88-3.29,1.92,0,2.07.14,3.54,2.79,3.17,1.29-.18,2.48-.09,2.38,1.81-.08,1.71-1.19,1.75-2.32,1.58-2.54-.38-2.79.9-2.89,3.06-.12,2.54,1.08,2.69,3,2.58C522,98.91,523.46,98.49,523.51,100.73Z"/><path class="cls-1" d="M409.05,100.87c0,2.48-1.68,1.89-3,1.91-6.72.12-6.72.1-6.72-6.5V91.57c0-2.69.1-5.39,0-8.08-.1-1.81.57-2.38,2.3-2.24,1.56.12,3.14,0,4.71,0,1.21,0,2.46-.29,2.48,1.72s-1.1,1.9-2.38,1.79c-1.91-.15-3.12,0-3,2.59.06,2.19.86,2.69,2.79,2.54,1.07-.09,2.29-.31,2.33,1.5s-1,2.11-2.35,1.89c-2.73-.44-2.63,1.19-2.75,3.18-.14,2.3.88,2.58,2.75,2.47C407.44,98.91,409.1,98.38,409.05,100.87Z"/><path class="cls-1" d="M552.21,87.66c-1.63,4-3.09,8.12-2.54,12.62.17,1.42.08,2.58-2,2.58s-2.21-1.14-2-2.57c.68-5-1.34-9.42-3-13.88-.56-1.56-1-3.16-1.53-4.75,3.06-1,4.84-.34,5.17,3a28.91,28.91,0,0,0,1.35,4.67c1.35-1.44,1.48-3.26,1.65-4.87.33-3.36,2.1-3.68,5-2.88C553.61,83.7,553,85.71,552.21,87.66Z"/><path class="cls-1" d="M459.38,82.9c-.07.94.31,2.3-1.28,2.14-2.77-.28-2.37,1.55-2.37,3.21v12.06c0,1.48,0,2.51-2,2.56s-2.32-1-2.26-2.69c.07-2.12,0-4.24,0-6.37,0-1.89-.05-3.79,0-5.69s.12-3.36-2.52-3.1c-1.61.18-1.16-1.22-1.25-2.14-.1-1.09.29-1.64,1.49-1.62q4.35.08,8.74,0C459.1,81.26,459.51,81.81,459.38,82.9Z"/><path class="cls-1" d="M394.8,92.13c0,2-1.25,1.87-2.46,1.74-1.91-.19-2.62.54-2.43,2.44.14,1.45-.06,2.91,0,4.36s-.39,2.17-2,2.18-2.13-.55-2.08-2.13c.1-2.9,0-5.82,0-8.74,0-2.69.17-5.39-.05-8.08-.19-2.32.75-2.88,2.84-2.69a37,37,0,0,0,4.71,0c1.34,0,1.71.57,1.75,1.82.05,1.65-.9,1.92-2.13,1.71-2.64-.44-3.2.75-3.1,3.17.07,1.87.51,2.65,2.45,2.43C393.52,90.27,394.79,90.17,394.8,92.13Z"/><path class="cls-1" d="M244.72,92.06c0,1.91-1.09,2-2.37,1.81-2.28-.31-2.61.9-2.44,2.76.1,1.34,0,2.69,0,4,.09,1.52-.34,2.23-2,2.21s-2.18-.43-2.16-2.07c.07-5.8,0-11.61,0-17.41,0-4,3.26-1.09,4.45-2.07.82,0,1.39,0,1.94,0,1.18.13,2.79-.67,2.86,1.66s-1.35,2-2.65,1.84c-2.25-.29-2.64.81-2.51,2.69.1,1.57-.25,3.22,2.29,2.9C243.32,90.27,244.67,90,244.72,92.06Z"/><path class="cls-1" d="M373.73,101.09c-.09,2.55-1.94,1.66-3.16,1.69-6.63.12-6.63.08-6.63-6.6V91.83c0-2.79.1-5.58,0-8.36-.08-1.85.71-2.22,2.37-2.24s2,.76,2,2.24c-.06,4.35.08,8.71-.07,13-.07,2,.48,2.84,2.59,2.63C372.14,99,373.81,98.64,373.73,101.09Z"/><path class="cls-1" d="M258.74,101.1c-.08,2.28-1.66,1.66-2.86,1.69-6.95.16-6.95.16-6.95-6.63v-4c0-2.89,0-5.79,0-8.69,0-1.5.32-2.21,2-2.23s2.28.67,2.25,2.35c-.09,4.23.05,8.47-.07,12.71-.06,2,.3,3.16,2.69,2.86C257.17,99,258.82,98.67,258.74,101.1Z"/><path class="cls-1" d="M340,82.88c0,1.21,0,2.36-1.69,2.19-2.23-.22-2.2,1.17-2.15,2.74.06,2.12,0,4.23,0,6.35s-.1,4.25,0,6.36c.1,1.74-.49,2.33-2.27,2.33s-1.83-1.09-1.82-2.38c0-4.24,0-8.48,0-12.71,0-1.62,0-2.93-2.21-2.69-1.62.18-1.72-.88-1.74-2.13s.67-1.68,1.85-1.67h8C339.15,81.28,340,81.42,340,82.88Z"/><path class="cls-1" d="M597.69,82.87c0,1.2,0,2.37-1.68,2.2-2.15-.23-2.27,1-2.24,2.69.08,4.24,0,8.49.06,12.73,0,1.66-.35,2.41-2.22,2.39s-2-.89-1.94-2.3c.06-2.24,0-4.47,0-6.73,0-1.91,0-3.8,0-5.7s.13-3.36-2.49-3.12c-1.5.15-1.35-1.11-1.39-2.12-.09-1.44.73-1.64,1.89-1.63h8.07C596.86,81.28,597.75,81.42,597.69,82.87Z"/><path class="cls-1" d="M381.17,100.87c0,1.45-.49,1.95-1.95,2s-2.23-.34-2.21-2q.12-8.89,0-17.78c0-1.63.83-1.75,2.09-1.76s2.11.24,2.06,1.82c-.09,3,0,6.06,0,9.07S381.09,98,381.17,100.87Z"/><path class="cls-1" d="M444.45,100.93c0,1.49-.53,1.91-1.94,1.91s-2.31-.22-2.25-2c.12-3,0-6,0-9s.09-5.81,0-8.7c-.08-1.88,1-1.81,2.31-1.87,1.5-.07,1.89.52,1.88,1.94Q444.36,92.07,444.45,100.93Z"/><path class="cls-1" d="M150.44,100.86c0,1.78-.85,2-2.27,2s-2-.41-2-1.89c.07-3,0-6.06,0-9s.06-5.81,0-8.71c0-1.42.41-2,1.91-1.94,1.29.07,2.39,0,2.37,1.86Q150.31,92,150.44,100.86Z"/><path class="cls-1" d="M192.36,100.83c0,1.35-.34,2-1.88,2s-2.26-.31-2.24-2q.12-8.88,0-17.75c0-1.6.8-1.79,2.1-1.8s2.07.26,2,1.82c-.08,3.12,0,6.25,0,9.37C192.35,95.25,192.31,98,192.36,100.83Z"/><path class="cls-1" d="M582.55,100.88c0,1.41-.46,2-1.94,2s-2.23-.37-2.21-2.06q.11-8.75,0-17.43c0-1.65.59-2.08,2.15-2.11,1.72,0,2,.73,2,2.21-.08,2.79,0,5.59,0,8.38C582.53,94.88,582.49,97.86,582.55,100.88Z"/><path class="cls-1" d="M75.94,37.75a35,35,0,0,1-4.56,6.73c-2.5,2-4.1,1.85-7.33-.42s-4-4-3.11-6.65a10.47,10.47,0,0,1,2.69-3.9,22.84,22.84,0,0,0,2.69,3.64c3.89,3.61,4.53,3.6,9.6.61h0Z"/><path class="cls-1" d="M71.38,44.5A59,59,0,0,1,66,52.57c-2.24-.87-2.59-3.25-3.85-4.9-1.81-2.34-3.41-4.86-5.09-7.3,2.82,1,2.32-2.38,3.93-3C60.79,42,66.86,46.15,71.38,44.5Z"/><path class="cls-1" d="M33.64,79c-.17,2.59-1.39,4-3.83,3.86-2.61-.12-3.76-1.77-3.74-4.2a3.43,3.43,0,0,1,3.82-3.71C32.23,75.05,33.53,76.71,33.64,79Z"/><path class="cls-1" d="M159.89,92.19c-1.19-.58-1,.42-1,1a63,63,0,0,0,0,6.73c.19,2-.55,2.89-2.48,2.95,1.56-.2,2.21-.95,2.13-2.65-.14-3.31,0-6.63,0-10.57C159.57,90.62,160,91.25,159.89,92.19Z"/><path class="cls-1" d="M37,8,36,9c-1.42-1.15-2.18-2.8-3.21-4.26l.75-.83Z"/><path class="cls-1" d="M74.57,16.9a4.82,4.82,0,0,1-2,2.85l-.85-.9,2.06-3.44C73.88,16,73.94,16.59,74.57,16.9Z"/><path class="cls-1" d="M206.21,94.8c-.56-.23-.62-.84-.47-1.41,1-.67.22-1.8.67-2.6.78.93.52,2.06.56,3.12C207,94.36,207.11,95.19,206.21,94.8Z"/><path class="cls-1" d="M431.6,92.78v2.48a3.21,3.21,0,0,1-1.14-3.17Z"/><path class="cls-1" d="M86.64,85.06c0-1.26,0-2.52,0-3.79A2.69,2.69,0,0,1,86.64,85.06Z"/><path class="cls-1" d="M427.6,95.55c-1-.91-.67-2.08-.67-3.19C428,93.24,427.65,94.41,427.6,95.55Z"/><path class="cls-1" d="M1.09,119.7H612v.47H1Z"/><path class="cls-1" d="M613.18,109.06c.14,6.77.14,6.77-6.51,6.77H7.07a17.38,17.38,0,0,0-2.7,0c-2.69.41-3.36-.74-3.36-3.37s.67-3.59,3.52-3.58q303,.09,606,.06c.9,0,1.79.06,2.69.09Z"/></g></g></g></g></svg>