<svg xmlns="http://www.w3.org/2000/svg" viewBox="0 0 224.78 230.58"><defs><style>.cls-1{fill:#808285;}</style></defs><g id="Layer_2" data-name="Layer 2"><g id="Layer_1-2" data-name="Layer 1"><g id="Layer_2-2" data-name="Layer 2"><g id="Layer_1-2-2" data-name="Layer 1-2"><path class="cls-1" d="M125.17,23.46c-12.29.45-24.6.23-36.89.24-1.46,0-1.81.46-1.73,1.82.12,2,0,4,.11,6,.09,1.44-.3,2.06-1.86,2-2-.1-4,.17-6,0-1.84-.12-2.32.48-2.31,2.31q.13,30.33.12,60.65,0,19.45-.06,38.89c0,1.51.3,2.18,2,2.07a38.51,38.51,0,0,1,6,.05c1.8.15,2.25-.5,2.24-2.22-.06-10.78,0-21.55,0-32.33,0-15.88.07-31.77.07-47.66,0-1.44.21-2.09,1.92-2.07,8.71.1,17.42.07,26.12,0,1.36,0,1.93.31,1.85,1.77q-.18,3.18,0,6.38c.07,1.46-.37,2-1.9,1.93-5.51-.08-11,0-16.55,0-1,0-1.59.13-1.59,1.37q.06,13.85,0,27.72c0,.87.17,1.33,1.19,1.33,9.51-.06,19-.07,28.51-.1V83.67c-6,0-12,0-17.92,0-1.31,0-1.73-.36-1.69-1.67.1-2.79.06-5.58.08-8.38,0-.21.14-.33.36-.17h4.45a.77.77,0,0,1,1.08-.06l.07.06h.85a91.52,91.52,0,0,1,12.61-.16c.68-.3.42-.91.42-1.4,0-4.45,0-8.91,0-13.36q0-16.56.12-33.12C126.76,24.29,126.86,23.4,125.17,23.46Zm-9.89,19.7c-2.85,0-5.7,0-8.56,0v.14c-2.79,0-5.59,0-8.38,0-.94,0-1.5-.16-1.48-1.29,0-2.46,0-4.91,0-7.37,0-1.09.46-1.33,1.44-1.33q8.46,0,16.93,0c1,0,1.48.25,1.47,1.33,0,2.39,0,4.79,0,7.18C116.77,42.93,116.24,43.17,115.28,43.16Z"/><path class="cls-1" d="M48.63,151q-.09,22.63-.07,45.27c0,1.13-.4,1.51-1.5,1.48-2.33-.08-4.66-.13-7-.05-1.43.05-1.78-.54-1.77-1.88,0-7.18,0-14.36-.08-21.54a7.23,7.23,0,0,0-.28-2.12c-4.92,8.11-9.08,16.56-13.54,25.31-4.44-8.58-8.67-16.84-13-25.2-.68.57-.43,1.13-.43,1.6,0,7.25-.07,14.49,0,21.74,0,1.67-.5,2.21-2.16,2.1-2.58-.17-5.19-.15-7.76-.21l-.37-.21h0c-.09-4.9.29-9.81-.21-14.7v-2.89a3.42,3.42,0,0,0,0-2.7v-.89a2.51,2.51,0,0,0,.22-.74V154A3.37,3.37,0,0,0,.47,153V151c.37-.34.21-.8.28-1.2a3,3,0,0,1,2-.14,1.89,1.89,0,0,0,1.91,0l3.64-.06c.13.19.25.18.38,0,2-.68,3.14.37,4,2.06,2.41,4.91,4.74,9.88,7.33,14.69,1.31,2.44,2.59,4.89,3.89,7.33.17.33.46.79.75.83.58.09.62-.57.79-.95,3.69-7.21,7.41-14.4,11-21.66.83-1.69,1.8-2.52,3.78-2.35a61.52,61.52,0,0,0,6.79,0C48.13,149.44,48.64,149.69,48.63,151Z"/><path class="cls-1" d="M145.47,137.19l-.16-.09-.16.1a24.71,24.71,0,0,1-5.3,0,1.75,1.75,0,0,0-1.33-.08,2.69,2.69,0,0,1-1.59,0l-.53-.1c-.57-.63-.31-1.4-.31-2.1V2.09c0-1.69.47-2.16,2.11-2.06a57.91,57.91,0,0,0,6.18,0c1.28,0,1.68.4,1.65,1.71-.06,8.71,0,17.42,0,26.13q.11,53.54.19,107.09C146.2,135.68,146.9,136.84,145.47,137.19Z"/><path class="cls-1" d="M164.26,195.7c0,1.48-.25,2.17-1.94,2.05a63.89,63.89,0,0,0-6.78,0c-1.25.05-1.6-.4-1.58-1.59,0-5.12,0-10.24.06-15.35,0-1.56-.4-2.06-2-2-4.51.1-9,.08-13.56,0-1.6,0-2,.54-2,2.06.06,5.05-.09,10.1,0,15.17,0,1.53-.46,1.93-1.92,1.85-2.25-.13-4.52-.09-6.78-.06-1,0-1.56-.18-1.56-1.4q0-22.62-.13-45.25c0-1.19.4-1.64,1.6-1.59,2.32.06,4.66.08,7-.05,1.48-.08,2,.37,1.94,1.88-.08,5.12,0,10.24-.06,15.35,0,1.53.45,1.91,1.92,1.86,3-.11,6,0,9,0h5.93l.51-.21.18-8.17a.82.82,0,0,0,0-1.11,62.67,62.67,0,0,1,.09-8.88.37.37,0,0,0,.11-.29c3.06-.73,6.17-.28,9.26-.36.89,0,.7.8.7,1.36v6.58C164.24,170.18,164.22,182.94,164.26,195.7Z"/><path class="cls-1" d="M212.33,196.88c-9.18,3.39-17.48,1.29-25.06-4.54-.85-.66-.63-1.14,0-1.75,1.9-1.85,3.85-3.66,5.66-5.59.87-.92,1.42-.76,2.28-.05a13.39,13.39,0,0,0,11.48,3.19,5.08,5.08,0,0,0,4.23-4c.25-1.85-.91-3.4-3.27-4.45-3-1.33-6.22-1.27-9.32-2-6.46-1.47-11-5.83-11.72-11.49a14.92,14.92,0,0,1,10.83-16.46,16.1,16.1,0,0,1,5.81-.77,23.69,23.69,0,0,1,14.95,4.82c1.2.87,1.2,1.41.17,2.39-1.68,1.6-3.27,3.32-4.81,5.05a1.56,1.56,0,0,1-2.5.27,12.33,12.33,0,0,0-7.21-2.54,6.82,6.82,0,0,0-4.45,1.47c-2.75,2.19-2.33,5.4.87,6.82,2.47,1.1,5.19,1.14,7.77,1.63,5.11,1,9.58,2.89,12.1,7.77a14.23,14.23,0,0,1-5.8,19.27A13.82,13.82,0,0,1,212.33,196.88Z"/><path class="cls-1" d="M105.92,192.09a21.86,21.86,0,0,1-20.59,5.76,24,24,0,0,1-19.08-22.41c-.63-10.89,6-21.43,16.16-25,8.25-2.86,15.82-.89,22.55,4.54.73.59.59,1,0,1.57-2,1.83-4,3.68-5.93,5.59-.71.7-1.22.5-1.89.06a13.33,13.33,0,0,0-3.76-1.76c-7.91-2.14-14.94,2.8-16,11.32-1,7.82,3.16,13.84,10.8,15.68,1.76.43,3.42,0,5.11-.22a6.72,6.72,0,0,0,4.86.54c1.78-.29,2.07-1,2-2.44,1.92,1.6,3.8,3.25,5.79,4.75C106.82,190.87,106.72,191.32,105.92,192.09Z"/><path class="cls-1" d="M164,135.23c0,1.79-.48,2.33-2.22,2.19a34.65,34.65,0,0,0-5.58,0c-1.72.14-2.27-.36-2.25-2.17.1-8.78.05-17.55.05-26.31q0-30.6-.1-61.2c0-1.77.44-2.35,2.21-2.21a37.11,37.11,0,0,0,5.58-.08c1.75-.14,2.35.36,2.34,2.26C163.93,62.33,164,77,164,91.57h0C163.94,106.12,163.91,120.68,164,135.23Z"/><path class="cls-1" d="M224.52,213.41c-.23.74-.73.65-1.24.66-1.39,0-2.8,0-4.19,0H112.4v0H2.52A2.4,2.4,0,0,1,0,211.8a2.45,2.45,0,0,1,.34-1.35c.29-.55.8-.4,1.2-.4,1.93,0,3.85,0,5.78,0h214.8C224.51,210,225.23,211.09,224.52,213.41Z"/><path class="cls-1" d="M183.42,135.1c0,2-.59,2.51-2.45,2.35a44.58,44.58,0,0,0-5.78,0c-1.37.07-1.84-.36-1.82-1.78.09-4,0-8.11,0-12.16,0-24.11,0-48.23-.05-72.35,0-1.93.51-2.55,2.42-2.39a40.13,40.13,0,0,0,5.59-.11c1.5-.09,2,.34,2,2-.07,14.15,0,28.3,0,42.45h0C183.37,107.06,183.33,121.08,183.42,135.1Z"/><path class="cls-1" d="M68.25,135.28c0,1.62-.37,2.26-2.07,2.14a39.92,39.92,0,0,0-6,0c-1.72.12-2.06-.54-2.06-2.14q.09-28.2,0-56.39c0-4.85,0-9.7,0-14.55,0-1.2.3-1.65,1.55-1.6,2.26.08,4.52.1,6.79,0,1.48-.09,1.73.52,1.72,1.84,0,11.82,0,23.64,0,35.47h0C68.21,111.76,68.17,123.52,68.25,135.28Z"/><path class="cls-1" d="M126,134.48c0,1-.4,1.79-1.25,1.63-1.2-.22-2.37.24-3.47-.07-1.36-.37-1.27.4-1.31,1.24l-2.79,0-.34-.21a2.51,2.51,0,0,1-.12-1.6,2.84,2.84,0,0,0,.76-3.43c-1-2.23-.39-4.51-.75-6.73v-.86a.77.77,0,0,1,0-.15c-.25-1.74,1.11-3.48,0-5.22v-5c0-.43,0-.9-.71-.63h-2.41c-1.35-1.19-5.09-1-6.78.44h0c-.26,0-.57,0-.61.37s.28.39.53.43v2.79c-.93.23-.67,1-.7,1.6-.17,3.53.35,7.08-.4,10.59-.16.8,0,1.6,1.06,1.79,0,1.47-.07,2.93-.11,4.39,0,0-.09.06-.09.09a2,2,0,0,0,0,.24c.23,1.08-.45,1.2-1.26,1.2l-8-.11-.34-.25c-.37-7.44-.21-14.88-.13-22.32a2.88,2.88,0,0,0,0-4c0-1.87,0-3.72,0-5.57.89.07,1.32-.32,1.24-1.23h26.72c.42.8,1.25,1.29,1.25,2.4Q125.93,120.4,126,134.48Z"/><path class="cls-1" d="M49.06,135.43c0,1.53-.35,2.13-2,2a48.66,48.66,0,0,0-6.39,0c-1.59.09-2-.44-2-2,.11-10.9.13-21.8.16-32.7,0-8.12.06-16.23,0-24.35,0-1.7.48-2.16,2.12-2a48.86,48.86,0,0,0,6.17,0c1.49-.1,1.91.36,1.9,1.87-.07,9.57,0,19.15,0,28.73h0C49,116.42,49,125.93,49.06,135.43Z"/><path class="cls-1" d="M224.55,135.68c.07,1.5-.59,1.72-1.88,1.71-4.79-.06-9.58,0-14.34,0v0c-4.79,0-9.58-.08-14.34.05-1.82.05-2.31-.56-2.16-2.27a37.47,37.47,0,0,0,0-5c-.05-1.17.29-1.64,1.56-1.64q14.94,0,29.87-.19c1.05,0,1.41.28,1.37,1.33A56.78,56.78,0,0,0,224.55,135.68Z"/><path class="cls-1" d="M27.62,137.39c-4.25-.11-8.5,0-12.75,0h0c-4.12,0-8.24-.11-12.35,0C.6,137.48.13,136.78.27,135a29.92,29.92,0,0,0,0-4.54c-.1-1.41.25-2,1.83-2q12.84,0,25.69-.18c1.53,0,2,.46,1.89,1.9a37.62,37.62,0,0,0,0,5C29.8,136.83,29.33,137.44,27.62,137.39Z"/><path class="cls-1" d="M85.67,229c0,.55.18,1.31-.73,1.36-1.09.07-.86-.8-.87-1.39,0-1.71,0-3.41,0-5.12l-.5-.15c-.62,1.19-1.23,2.44-1.86,3.65-.33.64-.6,1.4-1.51,1.37s-1-.74-1.33-1.32c-.63-1.22-1.24-2.45-2.07-4.09-.54,2.17-.16,3.93-.29,5.65,0,.56.15,1.31-.74,1.36-1.1.07-.85-.8-.86-1.4,0-2.59,0-5.19,0-7.76,0-.56-.21-1.28.7-1.39a1.42,1.42,0,0,1,1.57.93c.72,1.5,1.47,3,2.23,4.45.23.45.3,1,1,1.31.93-1.79,1.89-3.59,2.8-5.41.4-.8.85-1.4,1.8-1.2,1.13.22.6,1.2.62,1.8C85.71,224,85.69,226.5,85.67,229Z"/><path class="cls-1" d="M57.83,230.3a1.57,1.57,0,0,1-1.85-.8c-1.39-2.09-2.82-4.15-4.24-6.23l-.48.11v5.47c0,.63.16,1.47-.87,1.44s-.84-.86-.84-1.49q0-3.78,0-7.56c0-.56-.18-1.26.63-1.48s1.25.18,1.66.8c1.45,2.18,2.93,4.35,4.65,6.89.45-2.28,0-4.16.18-6,0-.68-.23-1.67.85-1.68s.8,1,.82,1.68c0,2.45,0,4.9,0,7.35C58.37,229.34,58.64,230.09,57.83,230.3Z"/><path class="cls-1" d="M213,222.45c.15,2,0,4,0,6,0,.69,0,1.34-.83,1.57a1.5,1.5,0,0,1-1.83-.77c-1.33-2-2.67-4-4-6.07l-.47.14v5.76c0,.57.07,1.28-.84,1.28s-.85-.65-.85-1.25c0-2.46,0-4.91,0-7.37,0-.69-.5-1.67.7-2s1.5.59,2,1.3c1,1.55,2,3.11,3.07,4.65.32.48.71.92,1.43,1.85,0-2.05-.09-3.59,0-5.11.08-.91-.71-2.61.85-2.57S212.92,221.55,213,222.45Z"/><path class="cls-1" d="M196.55,221c-1.1-1.15-5.59-2-6.78-1.17-1.35,1-.33,2.58-.6,3.88a5.92,5.92,0,0,0,0,1.19h0v1.2c0,4.73.19,4.88,4.89,4a4.65,4.65,0,0,0,3.86-3.54A5.44,5.44,0,0,0,196.55,221ZM192.64,229c-1.23.2-1.78-.09-1.7-1.38.06-.86,0-1.72,0-2.59h0a4.31,4.31,0,0,1,0-1.19c.28-.89-.84-2.43.8-2.61s3.26,0,4.09,1.76C197.22,225.9,195.79,228.49,192.64,229Z"/><path class="cls-1" d="M7.81,225.23c-.48-.57-.57-.85-.09-1.47,1.16-1.51.7-2.93-1.08-3.66a10.6,10.6,0,0,0-3.72-.4c-1.32-.08-2,.33-1.81,1.78a35.63,35.63,0,0,1,0,3.58h0v4.17c0,.69.2,1.15,1,1.12a25.9,25.9,0,0,0,4-.15C8.84,229.68,9.62,227.37,7.81,225.23Zm-5.45-2.44c0-1.18.49-1.78,1.66-1.66s2.53-.27,2.61,1.4-1.27,1.4-2.31,1.56C3.48,224,2.37,224.29,2.36,222.79Zm2,6.32c-1.34.07-1.82-.5-1.64-1.68,0-1.09-.18-2.24,1.4-2.06,1.2.13,2.8-.13,2.84,1.7C7.05,228.69,5.82,229.05,4.4,229.11Z"/><path class="cls-1" d="M175.66,227.85c-.8-1-1.18-1.66.15-2.7,1.82-1.44,1.09-4.3-1.15-5.13a11.38,11.38,0,0,0-3.95-.31c-.91,0-1.29.35-1.27,1.31.05,2.65,0,5.31,0,8,0,.68,0,1.37,1,1.33.88,0,.79-.67.88-1.27.15-.92-.59-2.32.56-2.66s1.52,1.2,2.2,2a6.92,6.92,0,0,1,.82,1.13,1.6,1.6,0,0,0,2.21.74A6.39,6.39,0,0,0,175.66,227.85Zm-3.3-2.82c-1.6.17-1-1.2-1.16-1.67-.07-1.34-.13-2.37,1.44-2.22,1.19.11,2.32.35,2.35,1.84,0,1.76-1.4,1.92-2.63,2.05Z"/><path class="cls-1" d="M222.92,229.85a6.2,6.2,0,0,1-6.21-.76,6,6,0,0,1-.69-7.18,5.23,5.23,0,0,1,6.34-1.79c.49.21,1.37.25,1,1.11-.25.68-.92.4-1.39.24-1.58-.58-3.06-.54-4.17.8a4.51,4.51,0,0,0-.49,4.89,3.12,3.12,0,0,0,4,1.62c.94-.35,1-1.11,1-1.94s-.56-1.11-1.36-1.07c-.47,0-1.2.32-1.13-.58,0-.69.65-.71,1.2-.78,2.76-.37,3-.21,3,2.53C224,228.06,224.32,229.25,222.92,229.85Z"/><path class="cls-1" d="M37.68,219.73c-3.54-.26-3.54-.26-3.54,3.19v2.2h0v4c0,.44-.07.92.47,1.19,1.86,1,6.75-.72,7.75-2.67C44.31,223.81,42.06,220.06,37.68,219.73Zm3,7.56c-.7,1.57-2.28,1.59-3.76,1.65-.77,0-1-.4-1-1.1V225h0a8,8,0,0,1,0-1.38c.16-.84-.58-2.17.56-2.44a3.74,3.74,0,0,1,4,1.15A4.74,4.74,0,0,1,40.66,227.29Z"/><path class="cls-1" d="M68.13,229.65a6.19,6.19,0,0,1-5.74,0c-2.32-1.24-3.06-4.81-1.64-7.41a5.15,5.15,0,0,1,6.71-2.08c.4.22,1.17.35.85,1.07s-.88.38-1.4.26c-3.65-.85-5.76,1.31-4.87,5A3.12,3.12,0,0,0,65.72,229a3.5,3.5,0,0,0,.46-.14c1-.31,1.13-1,1.09-1.87s-.53-1.16-1.33-1.11c-.51,0-1.16.19-1.12-.65s.64-.69,1.17-.74c2.87-.27,2.93-.22,3,2.66C68.8,227.93,69.35,229.1,68.13,229.65Z"/><path class="cls-1" d="M19.17,226c-.19,2.9-1.77,4.39-4.58,4.33s-4.21-1.62-4.3-4.44c0-1.67,0-3.33,0-5,0-.71.19-1.18,1-1.14s.78.6.78,1.15c0,1.73-.05,3.46,0,5.19.07,1.91,1.1,3,2.79,2.88s2.57-1.2,2.61-2.89,0-3.32,0-5c0-.59-.12-1.28.79-1.33s.85.64.86,1.24v2.59h0A23.82,23.82,0,0,1,19.17,226Z"/><path class="cls-1" d="M121.4,228.12c-1-1.13-1.42-2,.15-3.17s1.09-3.66-.72-4.66c-1.59-.89-3.35-.58-5.06-.54-.63,0-.65.55-.65,1v8.54c0,.59.12,1.05.88,1,.6,0,.8-.36.8-.9a4.68,4.68,0,0,1,0-1c.15-.71-.48-1.74.59-2.06s1.31.66,1.77,1.29.86,1.17,1.27,1.77a1.84,1.84,0,0,0,2.4.8A25.06,25.06,0,0,0,121.4,228.12ZM118,225c-1.57.18-1.1-1.06-1.24-1.82.13-.94-.42-2.2,1.31-2.08,1.25.09,2.53.25,2.56,1.82s-1.34,1.94-2.63,2.1Z"/><path class="cls-1" d="M113.17,229.63c0,.51-.28.7-.73.7h-5c-.85,0-.94-.53-.94-1.2V225h0v-.4c0-5.15.56-5.63,5.68-4.86.48.06,1,.07,1,.73s-.45.73-1,.73c-.8,0-1.59,0-2.39,0-1-.06-1.6.16-1.6,1.39s.52,1.53,1.67,1.59c.83.05,2.39-.76,2.39.68,0,1.19-1.51.62-2.32.6-1.31,0-1.73.4-1.71,1.71s.2,2.08,1.72,1.92a19.22,19.22,0,0,1,2.4,0C112.74,229.05,113.14,229.09,113.17,229.63Z"/><path class="cls-1" d="M96.45,228.89c-.94-2.69-1.94-5.35-2.9-8-.24-.66-.52-1.16-1.36-1.2a1.53,1.53,0,0,0-1.6,1.17c-1,2.67-2,5.33-2.94,8-.14.4-.87,1.14.17,1.43a1,1,0,0,0,1.29-.66,1.55,1.55,0,0,0,0-.21c.36-1.65,1.37-2.14,2.93-1.78,1.58-.37,2.49.24,2.8,1.85a1.05,1.05,0,0,0,1.55.77C97.19,229.93,96.6,229.31,96.45,228.89ZM93.22,226a4.53,4.53,0,0,1-2.11.23c-.5,0-.69-.34-.53-.8.4-1.15.8-2.3,1.38-4a28.1,28.1,0,0,1,1.11,2.8c.15.59.9,1.31.15,1.76Z"/><path class="cls-1" d="M187.45,229.23c-1-2.75-2.16-5.85-3.33-8.94-.22-.58-.8-.59-1.36-.61-.85,0-1.12.57-1.35,1.19-.95,2.61-1.93,5.19-2.82,7.83-.16.47-.8,1.2,0,1.55s1.31-.4,1.51-1.14c.37-1.32,1.16-1.66,2.5-1.6,1.52.09,2.94,0,3.16,2,.08.73.78.83,1.41.77C187.62,230.28,187.58,229.93,187.45,229.23Zm-3.59-3.13a4.47,4.47,0,0,1-2.12.06c-.51-.07-.4-.6-.26-1,.35-1,.74-2.08,1.2-3.36a6.41,6.41,0,0,1,1.28,2.74c.2.48.7,1.23-.09,1.52Z"/><path class="cls-1" d="M137.45,229.61a3,3,0,0,0-.1-.32c-1.08-2.93-2.19-5.85-3.24-8.78-.26-.71-.74-.83-1.39-.85-.84,0-1.14.46-1.39,1.15-1,2.68-2,5.34-2.93,8-.15.43-.89,1.14.13,1.44.8.24,1.23-.26,1.4-1,.3-1.31,1.07-1.76,2.44-1.72,1.62,0,3.07,0,3.3,2.13.07.59.7.74,1.28.68C137.36,230.3,137.52,230.06,137.45,229.61ZM133.92,226a4.31,4.31,0,0,1-2.09.23.53.53,0,0,1-.62-.43.53.53,0,0,1,.06-.37c.4-1.14.84-2.27,1.26-3.41l.46,0c.27.73.59,1.44.8,2.19C133.94,224.85,134.63,225.59,133.92,226Z"/><path class="cls-1" d="M154.6,227.77c-.2,1.53-1.94,2.6-4.23,2.59a5.25,5.25,0,0,1-2.77-.83.65.65,0,0,1-.26-1c.28-.45.53-.42,1-.14a3.82,3.82,0,0,0,3.59.35,1.45,1.45,0,0,0,1-1.34,1.27,1.27,0,0,0-.88-1.2c-.9-.4-1.83-.76-2.72-1.17-1.14-.53-2.12-1.27-2-2.67s1.15-2,2.33-2.45a4,4,0,0,1,3.45.28c.46.24,1.37.3,1.09,1.12s-1,.46-1.54.29a9.41,9.41,0,0,0-1.72-.43,1.53,1.53,0,0,0-1.79.92c-.29.9.43,1.3,1.1,1.6.48.23,1,.4,1.48.59C153.34,224.91,154.87,225.66,154.6,227.77Z"/><path class="cls-1" d="M126.69,135.57c0,1.33-.31,2-1.77,1.84-1.64-.13-3.3-.1-5-.13,0-.83,0-1.6,1.31-1.24,1.1.3,2.27-.16,3.47.07.85.16,1.26-.68,1.25-1.64q0-14.09,0-28.17c0-1.1-.82-1.59-1.24-2.39,1.44-.42,2,0,2,1.59Q126.63,120.55,126.69,135.57Z"/><path class="cls-1" d="M104.75,220.44c-.06.71-.69.8-1.2.71-2.09-.33-2.21.88-2.14,2.47.07,1.84,0,3.7,0,5.55,0,.68-.17,1.2-1,1.12s-.71-.63-.71-1.15v-3.59a13.22,13.22,0,0,1,0-1.78c.26-1.89-.12-3.11-2.43-2.68-.47.08-1.19.13-1.16-.66s.71-.67,1.19-.68q3.18-.06,6.35,0C104.11,219.74,104.82,219.62,104.75,220.44Z"/><path class="cls-1" d="M166.94,221.11c-3-.49-2.56,1.53-2.53,3.31v4.77c0,.68-.19,1.16-1,1.13s-.72-.62-.73-1.14v-3.59h0a14.23,14.23,0,0,1,0-1.6c.25-2,0-3.46-2.59-2.89-.46.1-1,0-.94-.68s.49-.72,1-.72h6.74c.4,0,.86,0,.91.55a.73.73,0,0,1-.55.86A.71.71,0,0,1,166.94,221.11Z"/><path class="cls-1" d="M32.71,229.52c0,.59-.25.83-.84.82h-5c-.84,0-1-.5-1-1.17V221c0-.62,0-1.23.86-1.26,1,0,1,.64,1,1.34,0,2,.09,4,0,6-.08,1.45.45,1.91,1.82,1.75a20,20,0,0,1,2.19,0C32.26,228.81,32.69,228.87,32.71,229.52Z"/><path class="cls-1" d="M146.29,229.51c0,.63-.35.8-.88.8-1.66,0-3.33,0-5,0-.89,0-.86-.63-.86-1.24v-8.18c0-.67.09-1.2.94-1.2s.74.61.74,1.15c0,2,.1,4,0,6-.06,1.45.36,2.13,1.9,1.95a16,16,0,0,1,2.19,0C145.83,228.79,146.26,228.88,146.29,229.51Z"/><path class="cls-1" d="M126.28,225.16v4c0,.66-.08,1.2-.94,1.2s-.85-.49-.85-1.07c0-2.85,0-5.7,0-8.56,0-.65.28-1,1-1s.86.45.85,1.06v4.35Z"/><path class="cls-1" d="M201.69,220.84v8.33c0,.67-.12,1.18-1,1.16s-.9-.57-.9-1.19V225h0v-4.16c0-.76.32-1.11,1.07-1.07S201.69,220.27,201.69,220.84Z"/><path class="cls-1" d="M23.42,229.17c0,.68-.15,1.16-1,1.12s-.85-.49-.85-1.07c0-2.78,0-5.55.05-8.32,0-.67.19-1.2,1-1.16s.76.73.77,1.31v4h0C23.41,226.39,23.41,227.78,23.42,229.17Z"/><path class="cls-1" d="M46.57,225.12h0v4.16c0,.57-.08,1-.83,1.07s-1-.4-1-1.11v-8.32c0-.7.21-1.14,1-1.18s.86.62.86,1.2Z"/><path class="cls-1" d="M98.08,187.82a6.72,6.72,0,0,1-4.86-.54,19.17,19.17,0,0,0,3.88-2.22c1.3-1.19,2.07-.93,2.93.32C100.17,186.81,99.85,187.55,98.08,187.82Z"/><path class="cls-1" d="M106.74,117.48q0,7,0,14c-1-.18-1.22-1-1-1.79.73-3.51.22-7.06.4-10.59C106.06,118.47,105.8,117.72,106.74,117.48Z"/><path class="cls-1" d="M.7,175.34a3.3,3.3,0,0,1-.22.74Q.18,164.54.44,153a3.76,3.76,0,0,1,.25.93Q.71,164.65.7,175.34Z"/><path class="cls-1" d="M116.7,135.46a59.43,59.43,0,0,1,0-10.16c.35,2.22-.26,4.5.75,6.73A2.84,2.84,0,0,1,116.7,135.46Z"/><path class="cls-1" d="M113.58,113.46c-2.24.45-4.54-.19-6.78.44C108.49,112.5,112.23,112.26,113.58,113.46Z"/><path class="cls-1" d="M.69,197.26c-.63-1.92-.27-3.89-.3-5.83-.06-3,0-5.91.09-8.87C1,187.45.59,192.36.69,197.26Z"/><path class="cls-1" d="M126.23,73.29a94.74,94.74,0,0,1-12.61.16A91.52,91.52,0,0,1,126.23,73.29Z"/><path class="cls-1" d="M126.36,93.56V83.63c.86.82.4,1.86.37,2.76C126.59,88.78,127.23,91.21,126.36,93.56Z"/><path class="cls-1" d="M96.76,114.71a10.46,10.46,0,0,1,0-4A2.88,2.88,0,0,1,96.76,114.71Z"/><path class="cls-1" d="M116.7,124.28a16.92,16.92,0,0,1,0-5.22C117.81,120.8,116.45,122.54,116.7,124.28Z"/><path class="cls-1" d="M96.8,105.13c-.38-1.2.11-1.54,1.24-1.23C98.11,104.8,97.68,105.19,96.8,105.13Z"/><path class="cls-1" d="M152,168.51h-4.5A15.42,15.42,0,0,1,152,168.51Z"/><path class="cls-1" d="M.48,179.67a6.47,6.47,0,0,1,0-2.7A3.51,3.51,0,0,1,.48,179.67Z"/><path class="cls-1" d="M4.65,149.57a1.92,1.92,0,0,1-1.91,0A3.54,3.54,0,0,1,4.65,149.57Z"/><path class="cls-1" d="M.45,151c0-.44-.35-.93.28-1.2C.66,150.16.81,150.62.45,151Z"/><path class="cls-1" d="M106.81,113.9l-.07.8c-.26,0-.57-.1-.53-.44S106.56,113.94,106.81,113.9Z"/><path class="cls-1" d="M139.85,137.19a1.4,1.4,0,0,1-1.33-.08A1.75,1.75,0,0,1,139.85,137.19Z"/><path class="cls-1" d="M116.71,114.08l-.71-.63C116.67,113.18,116.68,113.65,116.71,114.08Z"/><path class="cls-1" d="M112.77,73.45h-1.15a.77.77,0,0,1,1.08-.06Z"/><path class="cls-1" d="M154.09,160.12V159A.83.83,0,0,1,154.09,160.12Z"/><path class="cls-1" d="M117.16,137.27c-.2.07-.4.17-.34-.21Z"/><path class="cls-1" d="M8.67,149.5c-.13.19-.25.2-.38,0A.33.33,0,0,1,8.67,149.5Z"/><path class="cls-1" d="M97.23,137.27c-.24.08-.36,0-.34-.25Z"/><path class="cls-1" d="M153.9,168.29l-.51.21Z"/><path class="cls-1" d="M106.56,136.19a2,2,0,0,1,0-.24s.06-.06.09-.09a.21.21,0,0,1,0,.3Z"/><path class="cls-1" d="M107.19,73.45l-.37.17C106.87,73.43,107,73.29,107.19,73.45Z"/><path class="cls-1" d="M154.29,149.84a.38.38,0,0,1-.11.3,1,1,0,0,1,0-.25S154.25,149.86,154.29,149.84Z"/><path class="cls-1" d="M1.07,197.48c-.22.1-.34,0-.37-.21Z"/><path class="cls-1" d="M107.65,103.9h0Z"/><path class="cls-1" d="M136.92,137.12c-.22.15-.4.21-.54-.1Z"/><polygon class="cls-1" points="145.47 137.19 145.31 137.28 145.15 137.2 145.31 137.1 145.47 137.19"/></g></g></g></g></svg>