<svg xmlns="http://www.w3.org/2000/svg" viewBox="0 0 433.46 152.52"><defs><style>.cls-1{fill:#808285;}</style></defs><g id="Layer_2" data-name="Layer 2"><g id="Layer_1-2" data-name="Layer 1"><g id="Layer_2-2" data-name="Layer 2"><g id="Layer_1-2-2" data-name="Layer 1-2"><path class="cls-1" d="M192.36,39.68v7.08c0,16.62-.06,33.23,0,49.85,0,1.76-.42,2.25-2.19,2.21-5.51-.13-11-.11-16.55-.06-1.24,0-1.69-.22-1.69-1.6q.07-46.54,0-93.11c0-1.2.19-1.73,1.59-1.71,6.25.08,12.5.06,18.76,0a1.88,1.88,0,0,1,2,1.2c7.51,14.56,15.08,29.08,22.57,43.65a130.77,130.77,0,0,1,6.38,14.56c.17.45.09,1.1.84,1.4a137.91,137.91,0,0,1,6.57-15c7.65-14.79,15.4-29.53,23.07-44.29a2.34,2.34,0,0,1,2.42-1.51q9.16.1,18.36,0c1.48,0,1.7.5,1.7,1.81q-.06,46.35,0,92.71c0,1.72-.63,1.93-2.08,1.91-5.59-.08-11.17-.14-16.76,0-1.66,0-1.94-.53-1.94-2q.08-27.52,0-55V39.38c-1.16,1-1.19,2.28-1.66,3.29-5.45,12.1-11.71,23.79-17.48,35.73-1,2.15-2.18,4.25-3.12,6.44a2.77,2.77,0,0,1-3,2c-4.25-.12-8.51-.11-12.77,0a2,2,0,0,1-2.13-1.32c-7.37-15.06-15.56-29.72-22.2-45.15a6.58,6.58,0,0,0-.4-.67Z"/><path class="cls-1" d="M132.48,150.42c-4.34.53-7.71-1.93-10.82-5L74.33,98.27l-64.27-64C6.91,31.11,5,27.6,5.22,22.94A13.67,13.67,0,0,1,14.6,10.39c5.94-2,10.58.28,14.63,4.24,7,6.81,13.83,13.8,20.75,20.69l83.8,83.4c2.69,2.67,5.44,5.26,8.11,8a18.76,18.76,0,0,1,4.69,8.38,7.81,7.81,0,0,1-.05,4.24C144.85,146.66,140.31,150.38,132.48,150.42Z"/><path class="cls-1" d="M338.65.07A61.89,61.89,0,0,1,368.58,8c1.38.76,1.73,1.34.89,2.86-2.13,3.89-4.09,7.89-6,11.89-.67,1.39-1.08,1.69-2.63.8-9-5.15-18.66-7.3-28.93-4.89-7.8,1.83-12.67,7.11-15,14.54a52.62,52.62,0,0,0,0,33.12c4.1,12.26,14.3,17.12,26.3,16.54a41.6,41.6,0,0,0,18.45-5.7c1.13-.63,1.6-.56,2.21.68q3.07,6,6.49,11.87c.68,1.18.47,1.6-.62,2.24-13.51,7.88-27.84,10.65-43.29,7.76-17.33-3.23-27.47-13.92-31.75-30.44a71.46,71.46,0,0,1,.73-39.36c5.26-17.16,17.2-26.74,34.95-29.09C333.08.41,335.87.3,338.65.07Z"/><path class="cls-1" d="M74.17,150.55c-3.92.38-7.23-1.61-10.1-4.45-6.9-6.82-13.73-13.7-20.6-20.54C31.32,113.47,19.21,101.35,7,89.33,3.16,85.58.93,81.45,1.56,75.89s6-10.88,11.7-11.27c5-.34,9,1.66,12.44,5.13Q40.87,85,56.13,100.2q13.07,13,26.15,26a21.81,21.81,0,0,1,5.09,7.26C90.1,140.08,84.44,151.34,74.17,150.55Z"/><path class="cls-1" d="M127.07,85.21a11.84,11.84,0,0,1-8.83-3.46C108,71.55,97.67,61.37,87.51,51a12.14,12.14,0,0,1-.08-17q15.28-15.57,30.92-30.8c4.74-4.62,13.28-4.22,18,.4,5.14,5.08,5.47,12.5.55,17.88-5.7,6.23-11.88,12-17.83,18-3.66,3.66-3.43,2.61,0,6.09,6,6.11,12.4,11.84,18.11,18.23A12.87,12.87,0,0,1,133.06,84,13.06,13.06,0,0,1,127.07,85.21Z"/><path class="cls-1" d="M404.58,50.54V96c0,2.8,0,2.77-2.92,2.76-5.45,0-10.9-.1-16.36,0-1.37,0-1.8-.36-1.8-1.76q0-46.45,0-92.91c0-1.48.52-1.73,1.83-1.72,5.78.06,11.57.09,17.35,0,1.59,0,1.95.43,1.95,2-.06,15.42,0,30.84,0,46.26Z"/><path class="cls-1" d="M19.55,150.55a11.91,11.91,0,0,1-9.09-3.32,59.5,59.5,0,0,1-7.4-7.49A12.9,12.9,0,0,1,1.4,125.52a13.18,13.18,0,0,1,11.83-7.84A12.12,12.12,0,0,1,22,121a76.53,76.53,0,0,1,7.34,7.29c6.63,7.66,4,18-5.43,21.79A12.65,12.65,0,0,1,19.55,150.55Z"/><path class="cls-1" d="M314.84,138.8c0-3.73.05-7.45,0-11.18,0-1.25.34-1.84,1.62-1.85.86,0,1.72-.15,2.58-.21.4,0,.92,0,.82.55-.39,2.36,1,1.17,1.79.86,2.48-.94,4.95-1.91,7.7-1.71,1.56.12,3.22.4,4.21,1.55,1.19,1.37,2.15.89,3.39.36,3.52-1.52,7.11-2.62,11-1.37a5.64,5.64,0,0,1,4.08,4.7,17.4,17.4,0,0,1,.32,3c0,5.52,0,11,.05,16.55,0,1.48-.37,2-1.9,1.88-3-.2-3-.12-3-3.29,0-4.59,0-9.18-.09-13.76s-1.59-5.59-6-5.07a2.85,2.85,0,0,0-.4,0c-4.75.75-4.92,1-4.92,5.71s0,9.7,0,14.55c0,1.35-.29,1.88-1.75,1.83-3.16-.12-3.15,0-3.16-3.17,0-4.72,0-9.44-.1-14.16-.12-4.19-1.49-5.28-5.64-4.84-5.14.55-5.58,1.05-5.58,6.15,0,4.72-.07,9.44,0,14.16,0,1.49-.4,2.11-1.91,1.83a5.39,5.39,0,0,0-1.39,0c-1.25.12-1.71-.32-1.68-1.67.1-3.79,0-7.58,0-11.36Z"/><path class="cls-1" d="M253.45,139.71c-2.52,0-5,0-7.58,0-1.17,0-1.46.35-1.35,1.51.53,5.5,5.25,8.38,11.1,6.71a10.67,10.67,0,0,0,2.94-1.16c1.31-.86,1.77-.46,2.51.8.94,1.59.58,2.22-.94,3A17.87,17.87,0,0,1,247.55,152a9.61,9.61,0,0,1-7.27-6.93c-1.6-5.74-1.2-11.21,2.79-15.94,3.15-3.75,8.7-4.78,13.71-2.88,3.71,1.43,5.91,5.17,5.84,10.19-.05,4.13.36,3.28-3.39,3.36-1.93,0-3.86,0-5.78,0Zm-2.14-3.62h5.37c.57,0,1.15.07,1.19-.88a6,6,0,0,0-4.39-5.88,7.05,7.05,0,0,0-8.42,5.34,2,2,0,0,0-.05.24c-.17.87,0,1.2.94,1.2C247.74,136.06,249.52,136.09,251.31,136.09Z"/><path class="cls-1" d="M372.35,139.72c-2.46,0-4.92.06-7.38,0-1.29-.05-1.55.4-1.46,1.62.37,5.36,5.13,8.28,11,6.6a20.7,20.7,0,0,0,3.48-1.43c.77-.4,1.42-.67,1.6.44s2.17,1.91.43,3a16.71,16.71,0,0,1-14.73,1.62c-5.85-2.05-7.32-8.22-6.78-13.88a15.18,15.18,0,0,1,1.12-4.83,12.13,12.13,0,0,1,16.21-6.52c3.82,1.64,5.49,4.85,5.69,8.87.22,4.57.18,4.57-4.35,4.59h-4.79Zm-2.22-3.63h0c1.79,0,3.59,0,5.38,0,1,0,1.23-.35,1.2-1.3a5.49,5.49,0,0,0-5.71-5.62,7.05,7.05,0,0,0-7.18,5.91c-.16.95.28,1,1,1Z"/><path class="cls-1" d="M190.74,127.81c3.45-1.31,6.49-2.65,9.91-2.55,4.37.12,7,2.23,7.35,6.51.54,6.29.09,12.61.16,18.92,0,.83-.3,1.13-1.16,1.19-3.76.29-3.8.27-3.81-3.53,0-4.65,0-9.3-.07-13.95-.06-3.57-1.37-4.79-4.88-4.73a14.11,14.11,0,0,0-1.59.08c-5.51.61-5.91,1-5.91,6.48,0,4.58-.08,9.17,0,13.74,0,1.67-.52,2.13-2,1.9a7.14,7.14,0,0,0-1.6,0c-.92.07-1.28-.26-1.28-1.24q0-11.66,0-23.31c0-.86.16-1.4,1.16-1.39a5.76,5.76,0,0,0,1.37-.22C190,125.31,191.23,125.35,190.74,127.81Z"/><path class="cls-1" d="M387.92,138.88c0-3.66.07-7.31,0-11,0-1.51.43-2.2,2-2.18.73,0,1.45-.12,2.18-.18.48,0,1.05,0,.94.63-.38,2.42,1,1.12,1.8.83a21.27,21.27,0,0,1,8.3-1.76c4.24.2,7,2.79,7.11,7,.11,6,0,12.09.06,18.13,0,1.34-.54,1.49-1.67,1.45-3.19-.14-3.19-.09-3.19-3.32,0-4.52,0-9-.05-13.57-.07-4.31-1.49-5.56-5.78-5.3a7.18,7.18,0,0,0-.8.06c-5.58.61-5.86.94-5.85,6.5,0,4.64-.07,9.29,0,14,0,1.28-.29,1.73-1.66,1.69-3.31-.11-3.31,0-3.3-3.43Q387.93,143.67,387.92,138.88Z"/><path class="cls-1" d="M277.23,152.45a18,18,0,0,1-9.53-2.36c-.69-.44-2.09-.73-1-2,.75-.85.68-3.19,3-1.7a13.41,13.41,0,0,0,9.34,2c1.87-.27,3.39-1,3.71-3s-1-3.12-2.64-3.73c-2.66-1-5.43-1.69-8.07-2.75-3.52-1.41-4.86-3.41-4.74-6.55.1-2.92,1.9-5.18,5.16-6.36,4.79-1.71,9.27-.49,13.67,1.45.32.14.67.4.52.73a25,25,0,0,1-1.27,2.47c-.83,1.47-1.59.1-2.27-.16a16,16,0,0,0-7-1.27c-2.15.18-3.71,1.32-3.77,2.88-.07,2,1.34,2.64,3,3.15,2.34.72,4.75,1.22,7,2.15,4.14,1.7,5.76,4,5.42,8-.29,3.49-2.79,5.89-6.81,6.7A18.1,18.1,0,0,1,277.23,152.45Z"/><path class="cls-1" d="M419.39,138.55c0-2.78-.05-5,0-7.16,0-1.11-.31-1.63-1.48-1.47a8.07,8.07,0,0,1-1.39,0c-2.34,0-3.07-1.1-2.34-3.31.33-1,1.1-.56,1.67-.58,3.49-.1,3.46-.08,3.54-3.59,0-.8-.51-2,.45-2.32a16.45,16.45,0,0,1,4.09-.78c.51-.06.44.56.44.93,0,1.39,0,2.8,0,4.18-.05,1.2.4,1.66,1.62,1.6,1.86-.1,3.72,0,5.59,0,.65,0,1.68-.33,1.41.93-.22,1,.69,2.79-1.41,2.89s-4,.1-6,.08c-.8,0-1.2.22-1.2,1.12,0,4.25-.17,8.51.05,12.75.21,4.08,2,5.23,5.95,4.29,2.09-.5,2.82.07,3.08,2.25.09.67-.24.78-.69,1a11.9,11.9,0,0,1-8.92.56,6.29,6.29,0,0,1-4.14-4.95C419.12,143.94,419.52,141,419.39,138.55Z"/><path class="cls-1" d="M295.32,138.06c0-2.06-.11-4.13,0-6.18.11-1.64-.49-2.17-2-1.94-.4.06-.8-.06-1.19,0-1.8.24-2.26-.55-2.12-2.27.1-1.23.33-1.68,1.68-1.67,3.59,0,3.54,0,3.62-3.67,0-.74-.44-1.84.43-2.16a16.68,16.68,0,0,1,4.07-.8c.5-.06.4.59.4,1,0,1.26,0,2.53-.07,3.79s.3,2.08,1.88,2a53.64,53.64,0,0,1,5.38,0c.61,0,1.68-.42,1.46.89-.19,1.1.43,2.77-1.44,2.92a40.12,40.12,0,0,1-5.59,0c-1.36-.08-1.68.43-1.66,1.7.06,3.86,0,7.72,0,11.57.05,4.46,2.18,6.13,6.42,4.76,1.75-.57,1.94.23,2.47,1.44.63,1.46-.1,1.9-1.23,2.26a15.84,15.84,0,0,1-4.09.79c-5.31.19-8.27-2.53-8.45-7.81C295.26,142.45,295.32,140.25,295.32,138.06Z"/><path class="cls-1" d="M225.39,145.92c1.86-5.26,3.72-10.47,5.55-15.7,1.59-4.52,1.56-4.53,6.72-4-1.41,3.47-2.81,6.89-4.19,10.31-1.84,4.54-3.65,9.09-5.5,13.63-.34.82-.56,2-1.83,1.66-1.44-.4-3.25.85-4.23-1.71-2.84-7.49-6-14.84-9.18-22.22-.62-1.47-.42-1.88,1.26-1.85,3.68.06,3.65,0,4.92,3.44q2.7,7.38,5.49,14.7A3.71,3.71,0,0,0,225.39,145.92Z"/><path class="cls-1" d="M177.35,138.69c0,3.86,0,7.71,0,11.57,0,1.16-.21,1.64-1.51,1.62-3.44,0-3.44,0-3.43-3.5,0-6.79,0-13.57.06-20.33,0-.71-.47-1.79.63-2.05a16.65,16.65,0,0,1,3.92-.44c.58,0,.28.77.29,1.19v12Z"/><path class="cls-1" d="M178.47,117.2a3.66,3.66,0,0,1-3.74,3.36,3.76,3.76,0,0,1-3.44-3.71,4,4,0,0,1,3.56-3.45A3.88,3.88,0,0,1,178.47,117.2Z"/></g></g></g></g></svg>