<svg xmlns="http://www.w3.org/2000/svg" viewBox="0 0 629.45 149.32"><defs><style>.cls-1,.cls-10,.cls-11,.cls-12,.cls-13,.cls-14,.cls-15,.cls-16,.cls-17,.cls-18,.cls-19,.cls-20,.cls-21,.cls-3,.cls-4,.cls-5,.cls-6,.cls-7,.cls-8,.cls-9{fill:#808285;}.cls-10,.cls-11,.cls-12,.cls-13,.cls-14,.cls-15,.cls-16,.cls-17,.cls-18,.cls-19,.cls-2,.cls-20,.cls-21,.cls-3,.cls-4,.cls-5,.cls-6,.cls-7,.cls-8,.cls-9{isolation:isolate;}.cls-10,.cls-11,.cls-3,.cls-4,.cls-5,.cls-6,.cls-7,.cls-8,.cls-9{font-size:42.79px;}.cls-10,.cls-11,.cls-12,.cls-13,.cls-14,.cls-15,.cls-16,.cls-17,.cls-18,.cls-19,.cls-20,.cls-21,.cls-3,.cls-4,.cls-5,.cls-6,.cls-7,.cls-8,.cls-9{font-family:Audrey-Medium, Audrey;font-weight:500;}.cls-4{letter-spacing:-0.05em;}.cls-5{letter-spacing:0.01em;}.cls-6{letter-spacing:0.02em;}.cls-7{letter-spacing:0.05em;}.cls-8{letter-spacing:0.04em;}.cls-9{letter-spacing:-0.05em;}.cls-10{letter-spacing:0.01em;}.cls-11{letter-spacing:-0.03em;}.cls-12,.cls-13,.cls-14,.cls-15,.cls-16,.cls-17,.cls-18,.cls-19,.cls-20,.cls-21{font-size:43.98px;}.cls-13{letter-spacing:-0.05em;}.cls-14{letter-spacing:0.04em;}.cls-15{letter-spacing:0.02em;}.cls-16{letter-spacing:0.03em;}.cls-17{letter-spacing:0.01em;}.cls-18{letter-spacing:-0.07em;}.cls-19{letter-spacing:0.07em;}.cls-20{letter-spacing:0.01em;}.cls-21{letter-spacing:-0.04em;}</style></defs><g id="Layer_2" data-name="Layer 2"><g id="Layer_1-2" data-name="Layer 1"><g id="Layer_2-2" data-name="Layer 2"><g id="Layer_3" data-name="Layer 3"><path class="cls-1" d="M152.37,123.6v25.72H90.92A145.11,145.11,0,0,0,152.37,123.6Z"/><path class="cls-1" d="M152.37,77.34v33.09c-20.77,19.47-47.79,34.21-77.44,38.89H51.3l-1.49-.25C94.08,141.57,132.44,111.66,152.37,77.34Z"/><path class="cls-1" d="M152.28,30c-1.36,22.71-13,46.76-31.16,67.16h0q-2.94,3.33-6.14,6.53v-2.47l.42-97.08V.93L116.77,2h0l2,1.62Z"/><path class="cls-1" d="M110.27,108.18a155.45,155.45,0,0,1-38.52,26.07V129.8Q72,97,72.22,64.26l37.33,30.16.53,10C110.13,105.7,110.2,106.94,110.27,108.18Z"/><path class="cls-1" d="M109.6,0V87.39l-37.41-30V36L16.64,80.42c-.08,3.48-.15,7-.23,10.46H15.05q-.24,18.75-.49,37.47a3.41,3.41,0,0,1,2,2.18,3.26,3.26,0,0,1-.27,2.19c-2.57-.58-4.71,1.09-4.88,2.45a2.29,2.29,0,0,0,.35,1.37,4.34,4.34,0,0,0,3.75,2.09c.21.49.3,1,.08,1.21-.76.88-5.85-.66-6.62-3.91a3.22,3.22,0,0,1-.09-.76h0c0-2.47,2.33-4.71,2.88-5.25a9.79,9.79,0,0,1,1.05-.88q.26-19.11.52-38.23l-1.57-.08V83.9l-11.68,9L0,87.48,101.63,6.38l3.83-3.08L108.7.71Z"/><path class="cls-1" d="M66.67,133.18v3.36c-3.86,1.67-7.82,3.17-11.84,4.48a136.51,136.51,0,0,1-19.33,4.81c-2,.35-4.1.65-6.17.9V94.13L66.62,64.84Q66.63,99,66.67,133.18Z"/><g class="cls-2"><text class="cls-3" transform="translate(181.27 76.89) scale(0.86 1)">M</text><text class="cls-4" transform="translate(215.81 76.89) scale(0.86 1)">A</text><text class="cls-5" transform="translate(243.08 76.89) scale(0.86 1)">G</text><text class="cls-6" transform="translate(272.64 76.89) scale(0.86 1)">N</text><text class="cls-6" transform="translate(301.36 76.89) scale(0.86 1)">I</text><text class="cls-7" transform="translate(314.07 76.89) scale(0.86 1)">F</text><text class="cls-5" transform="translate(333.55 76.89) scale(0.86 1)">I</text><text class="cls-8" transform="translate(345.82 76.89) scale(0.86 1)">C</text><text class="cls-3" transform="translate(371.63 76.89) scale(0.86 1)">E</text><text class="cls-3" transform="translate(392.88 76.89) scale(0.86 1)">N</text><text class="cls-3" transform="translate(420.83 76.89) scale(0.86 1)">T </text><text class="cls-6" transform="translate(456.82 76.89) scale(0.86 1)">G</text><text class="cls-9" transform="translate(486.81 76.89) scale(0.86 1)">L</text><text class="cls-10" transform="translate(507.86 76.89) scale(0.86 1)">O</text><text class="cls-11" transform="translate(541.13 76.89) scale(0.86 1)">B</text><text class="cls-5" transform="translate(564.82 76.89) scale(0.86 1)">A</text><text class="cls-3" transform="translate(594.11 76.89) scale(0.86 1)">L</text></g><g class="cls-2"><text class="cls-12" transform="translate(181.97 127.78) scale(0.72 1)">M</text><text class="cls-13" transform="translate(211.73 127.78) scale(0.72 1)">A</text><text class="cls-14" transform="translate(235.27 127.78) scale(0.72 1)">C</text><text class="cls-15" transform="translate(257.32 127.78) scale(0.72 1)">H</text><text class="cls-15" transform="translate(283.52 127.78) scale(0.72 1)">I</text><text class="cls-16" transform="translate(294.25 127.78) scale(0.72 1)">N</text><text class="cls-17" transform="translate(319.2 127.78) scale(0.72 1)">E</text><text class="cls-18" transform="translate(337.71 127.78) scale(0.72 1)">R</text><text class="cls-12" transform="translate(358.26 127.78) scale(0.72 1)">Y </text><text class="cls-19" transform="translate(392 127.78) scale(0.72 1)">T</text><text class="cls-17" transform="translate(416.89 127.78) scale(0.72 1)">R</text><text class="cls-12" transform="translate(439.71 127.78) scale(0.72 1)">A</text><text class="cls-20" transform="translate(464.71 127.78) scale(0.72 1)">D</text><text class="cls-15" transform="translate(490.77 127.78) scale(0.72 1)">I</text><text class="cls-17" transform="translate(501.48 127.78) scale(0.72 1)">N</text><text class="cls-12" transform="translate(526.06 127.78) scale(0.72 1)">G </text><text class="cls-16" transform="translate(559.49 127.78) scale(0.72 1)">L</text><text class="cls-21" transform="translate(580.14 127.78) scale(0.72 1)">L</text><text class="cls-12" transform="translate(598.68 127.78) scale(0.72 1)">C</text></g><rect class="cls-1" x="161.61" y="144.01" width="467.84" height="3.3"/><rect class="cls-1" x="161.61" y="146.02" width="467.84" height="3.3"/></g></g></g></g></svg>