<svg xmlns="http://www.w3.org/2000/svg" viewBox="0 0 510.66 135.9"><defs><style>.cls-1{fill:#808285;}</style></defs><g id="Layer_2" data-name="Layer 2"><g id="Layer_1-2" data-name="Layer 1"><g id="Layer_2-2" data-name="Layer 2"><g id="Layer_1-2-2" data-name="Layer 1-2"><path class="cls-1" d="M144,97.91a4,4,0,0,1-2.31-.71q-24.16-12-48.33-23.94c-3.8-1.88-7.69-3.61-11.56-5.37-2.08-.94-2.35-.74-2.37,1.49V97.83c0,2.35-.15,2.42-2.26,1.34Q56.42,88.51,35.64,77.89c-3.14-1.61-6.28-3.26-9.42-4.86-1.86-.94-2.09-.78-2.1,1.29-.06,8.56-.07,17.13-.13,25.7,0,2-.23,4-.21,6.07s.68,2.74,2.83,2.9a182.42,182.42,0,0,0,26.24.35c7-.54,14.12-1.18,20.79-3.55,11.78-4.18,19.1-12.39,21.69-24.69.11-.52.23-1,.34-1.54.29-1.31,1-1.75,2.3-1.22.61.26,1.22.49,1.8.79L115.58,87c2.4,1.2,2.71,1.88,1.81,4.31C109.06,114,92.67,126.88,69,130.8c-8.59,1.43-17.3,1.57-26,2-7.32.34-14.63.42-22,.28-5.89-.11-11.75-.44-17.62-.72-2.21-.09-3-.93-3-3.23,0-1.69,0-3.39,0-5.1L.33,47.71c0-3.78.39-4.19,4.11-4.19h15.5a12.91,12.91,0,0,1,8.2,2.67c9,6.75,18,13.4,27.1,20.08.47.35,1,.67,1.44,1,1,.79,1.47.55,1.44-.76,0-2.15,0-4.32,0-6.47,0-4.71,0-9.42,0-14.13,0-2.55.62-3.17,3.12-3.18q6.57,0,13.14,0a10.84,10.84,0,0,1,7,2.55q19,15.48,38,31Q130.09,85,140.72,93.88A12.1,12.1,0,0,1,144,97.91Z"/><path class="cls-1" d="M32.33,29.09c-7.82-.08-16.25.16-24.68.44-1.23,0-2.46.31-3.7.37C1.25,30-.23,28.69,0,26,.59,20.21.27,14.39.32,8.58.32,6.85,1.05,6,2.73,6c1.44,0,2.87-.09,4.32-.09,13.13,0,26.26-.84,39.4-.36,9.52.36,19.09.49,28.38,3A64.23,64.23,0,0,1,100,22.41c11.47,9.93,17.73,22.72,20.4,37.46a34.86,34.86,0,0,1,.17,6.46c0,.54.22,1.28-.47,1.56s-.93-.36-1.32-.67q-9.7-7.77-19.41-15.58-7.84-6.36-15.59-12.81C77,33.12,68.91,30.71,60.18,29.94A275.94,275.94,0,0,0,32.33,29.09Z"/><path class="cls-1" d="M387.89,46.13c1.1-2.85,2.08-5.76,3.32-8.54,1.49-3.35,3.1-6.67,5.89-9.18a15.78,15.78,0,0,1,2-1.57c3.75-2.43,7.56-1.25,9.26,2.9,1.81,4.4,1.37,9,.88,13.53a5.49,5.49,0,0,0,.08,2.8c1-2.71,1.78-5.1,2.75-7.43A37.28,37.28,0,0,1,417.6,29a9.75,9.75,0,0,1,5.54-3.48c3.25-.66,5.88.93,7.06,4.16a21.89,21.89,0,0,1,1,9.27c-.42,5.54-.84,11.08-1,16.62-.13,5.2,1.64,6.33,6.55,4.63.71-.25,1.49-.92,2,.13s-.32,1.57-1.05,2a21.4,21.4,0,0,1-8.88,3.43,3.36,3.36,0,0,1-3.73-2.19,13.57,13.57,0,0,1-1-5.16c-.24-6,.6-12,.78-18,.05-1.57,0-3.14-.08-4.71a3.34,3.34,0,0,0-2-3.11c-1.35-.58-2.41.08-3.41.87a13.23,13.23,0,0,0-3.5,4.43,63.4,63.4,0,0,0-7,23.72,4,4,0,0,1-5.36,3.58c-1-.29-1.08-1-1-1.84.31-6.4.64-12.79.95-19.18.12-2.36.22-4.71.26-7.07,0-1.87-.39-3.6-2.43-4.24s-3.41.51-4.49,2A46.85,46.85,0,0,0,389.56,51a66.63,66.63,0,0,0-1.79,9.81c-.33,3.23-1.63,4.52-4.32,4.52-1.44,0-2.18-.51-2.09-2.09.36-6.33.7-12.65,1-19q.23-5.69.17-11.38c0-2.17-1.34-3.18-3.53-2.81-2.58.43-5.12,1-7.69,1.52a4.85,4.85,0,0,1-1.74.17c-2.19-.47-1.9.53-1.44,2,2.65,8.77-1.43,17.55-9.53,20.66a14.74,14.74,0,0,1-5.18.93,9.51,9.51,0,0,0-2.71.24c-1.4.44-2.72,1.13-2.83,2.87s1,2.46,2.29,3.08c3.22,1.55,6.74,2.06,10.14,3a35.08,35.08,0,0,1,6.86,2.32c5.78,2.93,7.4,7.95,4.56,13.77-3.29,6.72-8.94,10-16,11.22a22.9,22.9,0,0,1-13.26-1.36C335,87.37,333.07,80,338,73.66a18.74,18.74,0,0,1,6.61-5.41c1.14-.57,1.57-1.11.48-2.12a10.36,10.36,0,0,1-1-1.23c-2.86-3.58-2.54-6.18,1.11-9a5.58,5.58,0,0,1,.78-.57c1.52-.78,1.45-1.36.07-2.41-6.28-4.8-7.74-12.39-3.87-19.25,4.07-7.2,11.63-10.09,19-7.27,1.4.54,2.74,1.22,4.19,1.63,2.91.84,5-.31,6.05-3.1.26-.68.09-1.77,1.08-1.88s1.76.72,2.35,1.5a3.57,3.57,0,0,1,.4.68c1.17,2.55,1.17,2.54,4,1.77,1.57-.43,3.14-.93,4.73-1.26,3-.63,4.54.59,4.58,3.66a93.48,93.48,0,0,1-1,15c-.08.5-.11,1-.16,1.52ZM352.65,89c6.42,0,11.24-2.91,13.28-8.13,1.63-4.16.36-7.11-3.75-8.86a48.54,48.54,0,0,0-9.62-2.61c-4.19-.83-7.48,1-9.57,5.25S341.53,83.3,344.61,86A11.38,11.38,0,0,0,352.65,89Zm10-47.58c0-4.37-1.09-7.7-3.18-10.08-3.14-3.56-8-3.45-10.6.23-3.55,5.1-2.88,13.78,1.41,18.22A6.57,6.57,0,0,0,361,48.35,13.33,13.33,0,0,0,362.6,41.44Z"/><path class="cls-1" d="M186.21,29.29c.15,11-2.48,20-9.2,27.45S161.79,67,151.9,65.5a34.32,34.32,0,0,0-8.58-.63c-1.53.14-2.16-.55-2.07-2.06q.51-9,1-18c.11-2,.17-4,.21-6.07q.21-12.92.39-25.85a16.93,16.93,0,0,0-.08-2.36c-.33-2.46-1.47-3.43-3.95-3.34a14,14,0,0,0-1.93.28c-1.09.18-2,0-2.21-1.26s.45-1.8,1.62-2c4.2-.61,8.39-1.37,12.6-1.81a58.58,58.58,0,0,1,18.3.58A22.74,22.74,0,0,1,185.75,23,48,48,0,0,1,186.21,29.29ZM155.73,6h-4.31c-1.25,0-1.72.58-1.74,1.81-.19,10.08.52,20.17-.78,30.23-.45,3.41,0,6.91-.31,10.38-.27,3.18-.17,6.39-.39,9.59-.2,2.55.35,3,2.82,3.58a30.78,30.78,0,0,0,4.87.48,19.93,19.93,0,0,0,19.62-12.23A44.63,44.63,0,0,0,178,23.51c-1-5.24-2.94-10-7.43-13.39S161.09,5.8,155.73,6Z"/><path class="cls-1" d="M289.28,51.05a3.2,3.2,0,0,0,.39-2c.13-9.81.15-19.62.4-29.4A67.8,67.8,0,0,1,291.2,6.4c.73-3.24,3.4-4.79,6.31-3.76,1.21.43,1.7,1.06,1.11,2.35-3.1,6.73-3.66,14-4.21,21.19-.91,11.93-1.18,23.88-1.14,35.84,0,1.11.16,2.35-1.3,2.71a3.08,3.08,0,0,1-3.74-1.35l-5.67-9.62c-7.29-12.39-14.29-24.95-21.82-37.2a5.41,5.41,0,0,0-1.57-1.73V17c.16,11.57-.17,23.15-.88,34.68a67.48,67.48,0,0,1-1.08,10.12,4.75,4.75,0,0,1-6.45,3.53c-.87-.3-.94-.81-.69-1.5,2.64-7.25,3.55-14.84,4.36-22.44.39-3.83.83-7.68.92-11.52.15-6.07.62-12.14.46-18.22-.1-3.74-1-4.63-4.69-4.55-.78,0-1.56.11-2.35.14a1.17,1.17,0,0,1-1.27-1c-.2-.73,0-1.4.7-1.62,3.88-1.13,7.77-2.46,11.9-1.88,1.75.25,2.71,1.72,3.53,3.18,5.42,9.77,10.8,19.56,16.27,29.31,2.75,4.89,5.66,9.7,8.5,14.55C288.62,50.2,288.91,50.54,289.28,51.05Z"/><path class="cls-1" d="M461.32,55.44c-1.57,2.08-2.77,3.76-4.05,5.4a13.32,13.32,0,0,1-5.68,4.38c-5.49,2.14-10.63-1.15-10.95-7.06-.28-5.29,2.28-9,6.76-11.47a27.28,27.28,0,0,1,11.85-3.14c2.08-.09,2.78-.89,2.65-2.87-.11-1.63.05-3.27,0-4.9-.32-5.8-5.85-8-10.6-6-2.31,1-3,3.46-2.11,6.41.33,1.1,1.72,2.27.44,3.38s-2.87.79-4.28.16a3.55,3.55,0,0,1-2.24-3.6,8.07,8.07,0,0,1,1.84-4.88,17.21,17.21,0,0,1,14.7-6c5.56.35,8.51,4.21,8.6,10.27a84.21,84.21,0,0,1-.45,9.39,92.75,92.75,0,0,0-.24,11.55c.12,4.46,2.92,6.28,7.14,4.79.65-.23,1.39-.81,1.92.06s-.3,1.38-.87,1.87a10.73,10.73,0,0,1-5.64,2.56A7.69,7.69,0,0,1,462.15,61,19.78,19.78,0,0,1,461.32,55.44Zm-13.88-.23c-.05,1.81-.05,3.6,1.83,4.62s3.64.12,5.21-1c3.53-2.58,5.37-6.28,6.61-10.34.5-1.67-.12-2.11-1.66-2.11a17.18,17.18,0,0,0-7.55,1.73C448.9,49.51,447.26,51.82,447.44,55.21Z"/><path class="cls-1" d="M323.33,55c-2,2.72-3.71,5.45-6.08,7.67a12.62,12.62,0,0,1-3.86,2.64c-3,1.23-5.89,1-8.36-1.36-2.86-2.77-3.26-6.19-2.18-9.78,1.57-5.25,5.74-7.73,10.59-9.26a29.29,29.29,0,0,1,7.71-1.35c1.84-.07,2.57-.94,2.55-2.7,0-2.28.33-4.57-.43-6.81A7.34,7.34,0,0,0,316,28.89c-4.4.17-6.61,4-4.71,8.12.34.74,1.07,1.46.39,2.33a3,3,0,0,1-2.83,1c-2.95-.31-4.52-2.75-3.82-5.85.61-2.71,2.62-4.36,4.65-5.89a16.61,16.61,0,0,1,12.63-3c4.67.65,7.31,4,7.48,9.11a160.3,160.3,0,0,1-.66,16.25,33.56,33.56,0,0,0,.39,7.22c.44,3,2.91,4.4,5.82,3.59a13.59,13.59,0,0,0,1.64-.64,1,1,0,0,1,1.37.32,1,1,0,0,1-.25,1.4h0c-2.31,1.79-4.74,3.37-7.85,3-4.15-.53-6.54-3.14-6.92-7.51C323.25,57.18,323.33,56.07,323.33,55Zm-3.14-8.55a17.1,17.1,0,0,0-7,1.9A7.65,7.65,0,0,0,309,55.16c-.07,1.9.33,3.73,2.15,4.73s3.49.08,4.9-1a17.55,17.55,0,0,0,6.58-10.14C323.13,46.62,322.94,46.4,320.19,46.42Z"/><path class="cls-1" d="M496.38,66.05c-5.22,0-8.84-.84-11.73-3.7-2.31-2.29-2.2-5.6.2-7.12,2-1.24,3.06-.87,3.88,1.29,1.57,4.09,4.84,6.2,9,5.75,3.84-.42,6.4-3.34,5.65-6.54a7,7,0,0,0-3.66-4.41c-2.94-1.7-6-3.14-8.91-4.93-6.42-4-7.91-11.38-3.29-16.34A14.44,14.44,0,0,1,497,25.42a14,14,0,0,1,8.36,1.51,6.69,6.69,0,0,1,3.45,4.32,4.44,4.44,0,0,1-3.14,5.46,4.21,4.21,0,0,1-1.41.15c-1.25,0-1.65-.74-1.65-1.93,0-4-.75-5.13-3.73-5.71-3.73-.74-7.27.75-8.54,3.6-1,2.24,0,4.83,2.58,6.74a72.72,72.72,0,0,0,8,4.57c2.36,1.3,4.69,2.65,6.2,5a10.19,10.19,0,0,1-3.58,14.73A15.25,15.25,0,0,1,496.38,66.05Z"/><path class="cls-1" d="M202.27,45.72c.88-2.59,1.69-5.19,2.65-7.75,1.45-3.8,3.23-7.45,6.23-10.31a8,8,0,0,1,5.06-2.32,4.39,4.39,0,0,1,4.55,2.38,5,5,0,0,1-.45,5.36c-.59.93-1.42,1-2.4.57-4.29-1.66-5.72-1.18-8.39,2.65-2.56,3.65-3.74,7.87-5,12.07A87.9,87.9,0,0,0,201.84,62a4.09,4.09,0,0,1-5.22,3.19c-.89-.3-.93-1-.9-1.74.21-5.29.36-10.58.65-15.86.29-5,.24-10.05.22-15.08,0-1.88-1.05-2.7-2.94-2.48a23.34,23.34,0,0,0-2.47.59,1.19,1.19,0,0,1-1.57-.78,1.27,1.27,0,0,1,.74-1.78c3-.75,5.89-2.21,9.07-2.36,2.26-.11,3.63,1.33,3.46,4-.26,4.31-.21,8.63-.86,12.89A4.73,4.73,0,0,0,202.27,45.72Z"/><path class="cls-1" d="M205.48,127.82c1.2-2.87,2.42-5.75,3.61-8.63,1.54-3.75,3.06-7.5,4.6-11.25a13,13,0,0,1,.75-1.6,1.91,1.91,0,0,1,2.36-1c1.08.28,1.14,1.1,1.1,2-.14,2.81-.16,5.62-.44,8.42-.45,4.5-.21,9-.26,13.51,0,2.7.25,3,2.86,3.54.55.11,1.33,0,1.43.75s-.71,1-1.29,1.24a7.68,7.68,0,0,1-3,.75,2.94,2.94,0,0,1-3.29-2.89,18.11,18.11,0,0,1-.07-2.55c.18-5.29-.39-10.56-.66-15.94q-2.5,6.12-5,12.23c-1,2.48-2,5-3,7.45-.24.58-.26,1.54-1,1.53s-.83-1.05-1-1.68q-3.12-9.5-6.2-19a1.51,1.51,0,0,0-.63-.89c-.23,3.42-.43,6.83-.69,10.24-.23,2.87-.51,5.73-.79,8.59a2.82,2.82,0,0,1-1.57,2.53,1.68,1.68,0,0,1-1.85,0c-.51-.41-.18-1,0-1.45,2.12-7.23,2.49-14.65,2.56-22.12,0-3.09,0-3.1-3-3.89-.35-.1-.61-.23-.65-.6s.23-.7.57-.94c3.34-2.21,6.68-1.15,7.94,2.6,1.87,5.58,3.66,11.18,5.49,16.76.25.74.51,1.47.79,2.2Z"/><path class="cls-1" d="M137.8,117.45c0-2.35,0-4.7,0-7.06,0-1.8-.49-2.94-2.55-2.75-.49,0-1.22.14-1.33-.51s.65-.74,1.11-.85c5-1.21,10.1-2.12,15.27-.68,5.5,1.52,8.34,5.39,8.66,12.3a18.63,18.63,0,0,1-3.57,12.18,12.37,12.37,0,0,1-10.74,5.42c-1.3,0-2.61-.18-3.91-.31-3.49-.37-3.45-.4-3.43-3.82C137.37,126.74,137.91,122.1,137.8,117.45Zm17.27,2.63c0-.91,0-1.83-.13-2.75-.73-7.13-4.21-10.31-11.08-10.17-2,0-2.47.56-2.31,2.66.08,1.11.13,2.22.17,3.33.18,5.69-.73,11.31-1,17-.12,2.59.15,3.11,2.72,3.48a9.88,9.88,0,0,0,9.46-4.71,16.66,16.66,0,0,0,2.16-8.83Z"/><path class="cls-1" d="M249.43,126.61c-1.48,3-2.73,5.41-4.71,7.37-2.9,2.88-6.16,2-7.19-2-1.29-4.94,0-9.3,3.18-13.16,1.81-2.16,4.26-2.57,6.92-2.44,2.36.11,2.55-.14,2.66-2.49.15-3.25.29-6.51.47-9.77a14.53,14.53,0,0,1,.4-2.71,1.8,1.8,0,0,1,2.23-1.41c1.12.18,1.34,1,1.23,2-.57,5.12-1.27,10.24-1.61,15.38-.29,4.42-.16,8.87-.21,13.31,0,1.6.81,2.23,2.35,2.14.39,0,.89-.11,1,.31s-.26.87-.65,1.06a12.59,12.59,0,0,1-2.5,1.08c-1.88.51-2.81-.1-3.26-2S249.74,129.21,249.43,126.61Zm-9.14.84c.07.52.12,1,.22,1.55.24,1.27.3,2.72,2,3,1.49.29,2.26-.86,3-1.85a23.19,23.19,0,0,0,3.83-8.09c.31-1.3.94-2.8-.43-3.8s-2.74-.27-4.09.26a5.26,5.26,0,0,0-2,1.59c-1.78,2.11-2.19,4.67-2.48,7.3Z"/><path class="cls-1" d="M293.19,135.63c-1.87.06-3.5-1.17-4.26-3.44a60.52,60.52,0,0,1-1.81-6.62c-.39-1.77-1.29-2.45-3-2.22a19.12,19.12,0,0,1-2.73.26c-2.25,0-3.48,1.18-4.15,3.18s-1.35,4.09-2.05,6.13a3.62,3.62,0,0,1-1.71,2.29,1.84,1.84,0,0,1-2,0c-.62-.49-.06-1.12.14-1.61,1.81-4.4,3.64-8.81,5.52-13.19s3.74-8.48,5.62-12.72a10.32,10.32,0,0,1,.51-1.06,2.33,2.33,0,0,1,2.59-1.33c1.1.21,1.35,1.09,1.52,2,.82,4.63,1.61,9.26,2.5,13.88a59.59,59.59,0,0,0,2.22,8.72c.63,1.78,1.57,3.18,3.77,3,.45,0,1,0,1.13.53s-.34.94-.79,1.22A6,6,0,0,1,293.19,135.63Zm-9-25.41a41.42,41.42,0,0,0-4.51,9.88c0,.12-.08.32,0,.4,1.38,1.49,3.14.46,4.74.71.7.11,1.63,0,1.47-1C285.44,117,284.88,113.9,284.23,110.22Z"/><path class="cls-1" d="M356.75,132.89a5,5,0,0,1-4.9,2.56c-1.41-.09-1.78-1.23-1.83-2.39a54,54,0,0,1,.16-8.24c.08-.79.18-1.57.21-2.36.05-1.06.1-2.19-1.2-2.59s-2.24.28-2.94,1.37a26.6,26.6,0,0,0-3.92,10,20.1,20.1,0,0,1-.62,2.87,1.6,1.6,0,0,1-2,1.12h-.06c-1-.24-1-1-1-1.87q.55-9.87,1-19.76c.18-3.59.3-7.18.46-10.77a5.53,5.53,0,0,1,.23-1.34,1.83,1.83,0,0,1,2.15-1.45l.08,0c1.1.17,1.28,1,1.2,1.91-.31,3.52-.67,7-1,10.54-.37,4-.72,8-1.1,12.33a3.24,3.24,0,0,0,1.51-2.13,13.92,13.92,0,0,1,3.64-5.28c1.25-1.08,2.66-1.69,4.31-1s2,2.07,2,3.53a43,43,0,0,1-.22,8,14.1,14.1,0,0,0-.13,2.15c0,2.07.62,2.7,2.66,2.75A7.69,7.69,0,0,0,356.75,132.89Z"/><path class="cls-1" d="M438.53,104.61c.84.09,1.82.14,2.78.32,4.15.78,5.54,3.14,4.28,7.26-.13.44-.19,1-.69,1.08s-.69-.55-.76-1c-.5-3.46-2.67-5.08-6-5.42-3.58-.37-6.08,1.41-7.61,4.42a18.13,18.13,0,0,0,.11,17.48c2.5,4.71,6.9,5.66,11.47,2.94.37-.27.76-.52,1.15-.75.74-.32,1.44-1.71,2.27-.63.65.83-.53,1.46-1.09,2-7,6.7-16.63,3.6-19.23-6.23a19.23,19.23,0,0,1,2.24-15.28C429.92,106.76,433.66,104.79,438.53,104.61Z"/><path class="cls-1" d="M486.46,133.17a4.49,4.49,0,0,1-2.21,1.85c-2.61,1.25-4.2.34-4.38-2.53a58.94,58.94,0,0,1,.22-8.61c.05-.59.12-1.18.13-1.76,0-1-.13-1.89-1.18-2.24a2.14,2.14,0,0,0-2.57.94,23.46,23.46,0,0,0-4.25,10.4,16.46,16.46,0,0,1-.55,2.88,1.76,1.76,0,0,1-2.2,1.17c-1-.2-.88-1.1-.84-1.9.22-4,.4-8.08.62-12.12.08-1.51-.42-2.41-2.08-2.35-.45,0-1,0-1.18-.51s.4-.9.87-1.11a11,11,0,0,1,1.84-.68c2.86-.7,3.71,0,3.58,3-.07,1.5,0,3,0,4.71a4.08,4.08,0,0,0,1.07-1.87,13.18,13.18,0,0,1,3.76-5.18c2.46-2,5-1.24,5.94,1.76.87,2.78,0,5.58,0,8.36a7.8,7.8,0,0,1-.13,1C482.5,132.21,482.72,132.52,486.46,133.17Z"/><path class="cls-1" d="M486,7.17a22.37,22.37,0,0,1-8.24,16.25c-.59.5-1.21,1.18-2,.32s-.31-1.44.26-2.07c2.23-2.46,4-5.1,4.38-8.55a5.48,5.48,0,0,0-1.5-4.82l-.69-.7a4.52,4.52,0,0,1-1-5.36A3.72,3.72,0,0,1,481,0a4.38,4.38,0,0,1,4.28,3.14A12.28,12.28,0,0,1,486,7.17Z"/><path class="cls-1" d="M372.43,118.5c2.35-1.3,3.08-2.72,3.14-4.68a38.46,38.46,0,0,1,.78-5.42,1.7,1.7,0,0,1,2-1.61c1.18.19,1,1.13.89,2-.29,1.94-.59,3.87-.8,5.81-.25,2.15.39,2.75,2.51,2.56.4,0,.79-.15,1.18-.15.57,0,1.05.22,1.12.86a1.09,1.09,0,0,1-.81,1.18,2.79,2.79,0,0,1-.95.12c-3.53-.08-3.53-.08-3.57,3.53,0,2.36-.05,4.71,0,7.07.09,2.69,1.18,3.5,3.76,3,.39-.07.76-.18,1.15-.23s.68,0,.85.31-.08.63-.33.83a7,7,0,0,1-6,1.76,3.19,3.19,0,0,1-2.44-2.75,23.83,23.83,0,0,1-.49-8.16c.12-1.1.22-2.21.29-3.31C374.86,119.91,374.8,118.65,372.43,118.5Z"/><path class="cls-1" d="M456.36,133a5.21,5.21,0,0,1-4.89,2.46c-1.5-.24-1.82-1.35-1.82-2.6,0-4.63,0-9.28.13-13.91s.44-9.52.69-14.28a20.41,20.41,0,0,1,.33-2.91,1.87,1.87,0,0,1,2.38-1.71c1.34.24,1.26,1.23,1.14,2.29-.93,8.63-1.68,17.26-1.75,26C452.54,132.55,452.56,132.55,456.36,133Z"/><path class="cls-1" d="M234.73,131.78a6.37,6.37,0,0,1-5.35,3.9,5.68,5.68,0,0,1-5.46-2.4c-3.69-4.7-1.41-13.93,4-16.48a6.6,6.6,0,0,1,3-.7,4.42,4.42,0,0,1,4.43,2.92c.59,1.78-.06,3.19-2,4.62a13.44,13.44,0,0,1-5.86,2c-2.06.35-2.4,1-1.82,3,1.13,3.86,3.14,4.88,6.91,3.56A3.07,3.07,0,0,1,234.73,131.78Zm-2.82-11.14a2.21,2.21,0,0,0-3.32-2.16,5.47,5.47,0,0,0-2.83,4.41c0,.54,0,1,.63,1.29C228.16,124.87,231.82,122.53,231.91,120.64Z"/><path class="cls-1" d="M325.12,118.36c3.46-.94,3.29-3.77,3.64-6.33.17-1.23.31-2.47.58-3.67a1.71,1.71,0,0,1,2.14-1.5c1.15.25.91,1.2.78,2.06q-.47,2.81-.82,5.62c-.29,2.2.39,2.88,2.62,2.6.71-.09,1.43-.41,2,.31a.92.92,0,0,1,0,1.11c-.53.83-1.33.59-2.11.52-2.8-.25-3,0-3,2.79,0,2.67-.62,5.31-.06,8,.6,2.85,1.32,3.43,4.14,2.86.6-.12,1.5-.68,1.77,0,.36.87-.65,1.3-1.29,1.69a11.86,11.86,0,0,1-2,.88c-3,1.13-4.79.27-5.57-2.87a29.64,29.64,0,0,1-.24-10.5C328,119.13,328,119.11,325.12,118.36Z"/><path class="cls-1" d="M357.86,127.38c0-5.1,3-9.63,7.07-10.92a5.75,5.75,0,0,1,3.84.12,3.66,3.66,0,0,1,1.47,6.06c-1.86,2.14-4.36,2.49-6.86,3-2.31.48-2.45.76-1.9,3,1,4.15,4.92,5.71,7.64,3,.34-.32.85-.87,1.34-.39s-.06,1-.33,1.37a6.6,6.6,0,0,1-6,3.05,5.86,5.86,0,0,1-5.21-3.6A9.83,9.83,0,0,1,357.86,127.38Zm9.87-6.71a2.59,2.59,0,0,0-1.32-2.24,2.23,2.23,0,0,0-2.56.35,5.32,5.32,0,0,0-1.62,1.94c-.42,1-1.18,2.22-.39,3.14s2,.12,2.92-.21c1.37-.5,2.87-1.05,2.95-3Z"/><path class="cls-1" d="M161.27,126.53a12,12,0,0,1,4-8.34,6.8,6.8,0,0,1,6.13-1.82,3.84,3.84,0,0,1,3.21,2.79,3.92,3.92,0,0,1-1.6,4.14c-1.66,1.41-3.71,1.83-5.77,2.26-2.81.59-3.14,1.13-2.14,3.85,1.24,3.43,4.49,4.74,7.26,2.4.39-.34,1-1,1.5-.46s-.17,1.08-.49,1.52a6.35,6.35,0,0,1-11.06-.91A11.11,11.11,0,0,1,161.27,126.53Zm7.73-8.24c-2.08,0-4.76,3.6-4.15,5.31a.87.87,0,0,0,1.05.65h0a9.87,9.87,0,0,0,4.49-1.8,2.26,2.26,0,0,0,.49-2.69,2,2,0,0,0-1.88-1.48Z"/><path class="cls-1" d="M296.65,127.74c0-5.71,2.81-10.14,7.23-11.33a6.08,6.08,0,0,1,3.46.08A3.66,3.66,0,0,1,309,122.7c-1.8,2-4.27,2.38-6.67,2.92s-2.56.71-2,3.12c.86,3.46,4.15,5.88,7.68,3,.33-.28.78-.79,1.17-.43s.09,1-.19,1.39a6.37,6.37,0,0,1-5.83,3,6.13,6.13,0,0,1-5.37-3.39A9.06,9.06,0,0,1,296.65,127.74Zm7.55-9.52c-2,0-4.47,3.55-3.81,5.36a.89.89,0,0,0,1.06.63,7.39,7.39,0,0,0,4.41-1.88,2.43,2.43,0,0,0,.46-2.72,2,2,0,0,0-2.14-1.39Z"/><path class="cls-1" d="M319.13,116.06a5.17,5.17,0,0,1,3.69,1.32,2.53,2.53,0,0,1,.27,3.8c-1.06,1-2.08.61-2.42-.75-.48-2-1.81-2.75-3.74-2.15a2.39,2.39,0,0,0-1.07,4.13,10.69,10.69,0,0,0,2.05,1.48c.79.48,1.62.85,2.42,1.3,2.1,1.18,3.81,2.75,3.45,5.4a5.63,5.63,0,0,1-4.49,4.88,7.07,7.07,0,0,1-7.12-1.57,2.29,2.29,0,0,1-.74-1.57,1.82,1.82,0,0,1,1.18-2c.87-.31,1.33.25,1.71.91.91,1.57,2.14,2.66,4.1,2.44a2.54,2.54,0,0,0,2.41-1.71,2.39,2.39,0,0,0-1.12-2.88c-1.21-.79-2.46-1.48-3.69-2.22-3.2-1.92-4.25-3.83-3.56-6.45S315.83,116.1,319.13,116.06Z"/><path class="cls-1" d="M181.83,124.32c1-2.52,1.8-5,3.63-6.83,1.11-1.15,2.38-1.91,4-1a2,2,0,0,1,1.07,2.48,1.56,1.56,0,0,1-2.16,1.09c-2-.51-2.9.64-3.72,2.1-1.81,3.26-2.43,6.88-3.13,10.47-.09.45-.14.91-.27,1.34a1.78,1.78,0,0,1-2.12,1.33c-1.1-.14-1-1.09-.93-1.85.44-4,.29-8.1.41-12.16,0-1.47,0-2.82-2.07-2.71-.87,0-.81-.55-.27-1a5.53,5.53,0,0,1,4-1.27c1.17.12,1.54,1.06,1.54,2.15C181.82,120.38,181.83,122.26,181.83,124.32Z"/><path class="cls-1" d="M509.91,131a5.75,5.75,0,0,1-5.19,4.6,5.84,5.84,0,0,1-6.41-3.08c-2.69-4.71-.62-12.53,4-15.3a6.32,6.32,0,0,1,6-.49c2,.83,2.86,2.87,2,4.45a1.91,1.91,0,0,1-1.91,1.12c-1-.07-1.09-.82-1.05-1.57.13-2.65-2.82-3-4.41-1.76-3.34,2.58-3.44,10.66-.12,13.3a4,4,0,0,0,4.9-.14C508.38,131.63,508.84,130.9,509.91,131Z"/><path class="cls-1" d="M397.3,125.34a11.09,11.09,0,0,0,.79,4.49c1.22,3.23,4.1,4.06,6.92,2.07.49-.35,1-1.2,1.63-.56s-.13,1.2-.51,1.7a6.4,6.4,0,0,1-11.1-1.13c-2.35-4.89-.15-12.22,4.46-14.81a6.21,6.21,0,0,1,6.35-.18c2.13,1.15,2.54,3.8.79,5-1.21.79-2.14.4-2.2-1-.05-1.14-.34-2.09-1.51-2.46a3.09,3.09,0,0,0-3.26.79C397.78,121,397.53,123.41,397.3,125.34Z"/><path class="cls-1" d="M496.7,133.06a8.3,8.3,0,0,1-4.93,2.47,1.91,1.91,0,0,1-2-1.5,8.31,8.31,0,0,1-.45-2.88c0-3.85,0-7.7.09-11.54a7.8,7.8,0,0,1,.2-1.74,1.74,1.74,0,0,1,2.24-1.36c1.1.18,1.24,1,1.09,1.94a66.15,66.15,0,0,0-.39,10.34C492.49,132.69,492.52,132.69,496.7,133.06Z"/><path class="cls-1" d="M225.41,60.43c0,2.92-2,5.25-4.4,5.23s-4-2-4-4.6c0-2.91,1.84-5,4.32-5.05S225.41,57.68,225.41,60.43Z"/><path class="cls-1" d="M459.1,125.69v-6.07a6.92,6.92,0,0,1,.29-1.92,1.68,1.68,0,0,1,2.16-1.18c1,.2,1,.93,1,1.81a111,111,0,0,0-.52,11.53c.11,2.49.53,2.93,3,3,.36,0,.86-.23,1,.33s-.31.68-.64.88c-.51.29-1,.58-1.55.83-2.95,1.39-4.54.46-4.71-2.77-.06-1.11,0-2.22,0-3.33v-3.14Z"/><path class="cls-1" d="M393.34,133a3.6,3.6,0,0,1-1.67,1.6c-3.46,1.89-5.17.92-5.2-3s0-8,0-11.94a9.13,9.13,0,0,1,.17-1.95,1.62,1.62,0,0,1,1.91-1.28c1,.09,1.28.79,1.26,1.65-.05,3-.61,6-.43,9,0,.52,0,1,0,1.57C389.37,132.65,389.37,132.65,393.34,133Z"/><path class="cls-1" d="M459.52,109.08c.12-1.36.6-2.51,2.11-2.58s1.92.94,1.92,2.18-.51,2.35-2,2.43S459.68,110.29,459.52,109.08Z"/><path class="cls-1" d="M493.81,108.49c-.05,1.49-.51,2.53-2,2.63s-1.89-.93-1.92-2.15.48-2.38,1.91-2.46S493.67,107.48,493.81,108.49Z"/><path class="cls-1" d="M390.93,108.56c-.24,1.38-.67,2.57-2.25,2.55-1.3,0-1.78-1-1.75-2.15s.56-2.43,2-2.5S390.77,107.4,390.93,108.56Z"/></g></g></g></g></svg>