<svg xmlns="http://www.w3.org/2000/svg" viewBox="0 0 587.84 94.29"><defs><style>.cls-1{fill:#808285;}</style></defs><g id="Layer_2" data-name="Layer 2"><g id="Layer_1-2" data-name="Layer 1"><path class="cls-1" d="M61.41,58.81H43.71c1.59-2.19,3.13-4.17,4.5-6.24,3.11-4.72,4.6-10.15,6.58-15.36C58,28.78,61,20.26,64.17,11.82c1.35-3.6,1.71-7-1.11-10.49h23C82,6,84.45,10.48,86.15,15q5.77,15.3,11.59,30.61A40.49,40.49,0,0,0,104.44,57c1.31,1.57,2.11,1.4,3.4-.08,4.65-5.36,6.81-11.92,9.2-18.38,3.14-8.47,6.2-17,9.39-25.4,1.49-4,2.56-7.84-.58-11.85h22.92c-3,3.8-2.29,7.5-.8,11.36q5.9,15.26,11.59,30.61a43.18,43.18,0,0,0,9.27,15.53H149.47c1.93-3.88.58-7.43-.7-11a1.83,1.83,0,0,0-2.07-1.29H127a1.85,1.85,0,0,0-2,1.33c-1.38,3.58-2.53,7.13-.75,11H86.74a9.85,9.85,0,0,0,.93-5.23c-.64-6.22-1.6-7.14-7.73-7.14-5.09,0-10.18,0-15.27,0a2.3,2.3,0,0,0-2.57,1.66C60.75,51.56,59.79,55,61.41,58.81ZM74.24,12.69c-1,1.6-.88,3-1.18,4.23-1.61,6.72-4.37,13-6.7,19.5-.51,1.4-.59,2.09,1.25,2,4.35-.09,8.69-.06,13,0,1.38,0,2-.24,1.4-1.81C79.17,28.92,75.89,21.32,74.24,12.69Zm62.42.65c-.71,2.72-1.27,5.5-2.17,8.16-1.71,5-3.58,10-5.43,15-.47,1.27-.49,2,1.2,1.93,4.42-.07,8.85,0,13.28,0,1.38,0,1.73-.41,1.21-1.74-1.08-2.74-2-5.53-3.07-8.29C139.82,23.46,138.07,18.49,136.66,13.34Z"/><path class="cls-1" d="M543.11,58.79H525.54c10-12.89,12.76-28.85,18.94-43.31.45-1.05.8-2.15,1.2-3.23,1.8-4.79,1.72-6.31-.66-10.94h22.67c-3.31,4.13-2,8.11-.42,12.2C571.44,24.3,575.45,35.15,579.6,46a36.24,36.24,0,0,0,8.24,12.81H568.48c1.86-3.9.59-7.52-.82-11.16-.38-1-1.07-1.11-1.94-1.11-6.57,0-13.14,0-19.71,0A2.07,2.07,0,0,0,543.85,48C542.43,51.51,541.47,55,543.11,58.79Zm12.61-45.66c-1,5.5-2.94,10.62-4.84,15.76q-1.41,3.81-2.85,7.6c-.47,1.24-.42,2,1.26,1.95,4.43-.07,8.86,0,13.28,0,1.15,0,1.72-.26,1.23-1.58C560.91,29,557.65,21.35,555.72,13.13Z"/><path class="cls-1" d="M265.57,1.26h22.81c-3.55,4-2.32,7.83-.79,11.79,4.18,10.87,8.25,21.79,12.39,32.67a38.3,38.3,0,0,0,8.26,13H288.93a8.9,8.9,0,0,0,1-5c-.7-6.3-1.7-7.23-7.93-7.23-5,0-10,0-15,0a2.46,2.46,0,0,0-2.77,1.79c-1.26,3.38-2.05,6.75-.63,10.47H246.09s-.14-.25-.08-.3c5.11-5.49,7.74-12.27,10.19-19.19,3.13-8.82,6.49-17.55,9.71-26.33C268,7.17,268,6.67,265.57,1.26ZM276,13.32c-.25,1.17-.49,2.35-.76,3.52-1.56,6.64-4.19,12.92-6.62,19.26-.73,1.91-.36,2.41,1.65,2.35,4-.11,8-.1,12,0,1.86,0,2.5-.23,1.74-2.28C281.25,28.67,278.05,21.3,276,13.32Z"/><path class="cls-1" d="M440.34,1.25h23.09c-3.94,4.71-1.69,9.09,0,13.52q5.91,15.51,11.78,31.05A37.72,37.72,0,0,0,483.4,58.7H464.19c1.84-3.62.57-7.09-.63-10.58a2.14,2.14,0,0,0-2.35-1.65q-9.73.08-19.46,0a2.11,2.11,0,0,0-2.22,1.46,14.54,14.54,0,0,0-.86,10.85H421c1.12-1.41,2.13-2.65,3.09-3.91,3.92-5.12,5.7-11.23,7.91-17.13,3-8.07,5.92-16.17,9-24.23C442.44,9.43,443.9,5.42,440.34,1.25Zm10.82,12.1c-.24,1.17-.45,2.35-.73,3.51-1.58,6.74-4.36,13.06-6.68,19.54-.53,1.49-.44,2.07,1.32,2,4.35-.07,8.7,0,13.05,0,1.35,0,1.77-.4,1.27-1.75C456.58,29,453.34,21.44,451.16,13.35Z"/><path class="cls-1" d="M.57,1.43c.38-.45.9-.31,1.37-.31,7.55,0,15.1-.05,22.65,0a27.22,27.22,0,0,1,12,2.48c5.22,2.54,8.53,6.6,9.28,12.44.87,6.82.32,13.34-5,18.47-3.61,3.47-8.19,4.75-13,5.13-3.1.24-6.23.13-9.34.16-1,0-1.83,0-1.81,1.37.05,3.6-.23,7.22.63,10.77a14.15,14.15,0,0,0,4,6.94H0c5.37-5.3,4.53-11.8,4.55-18.1q0-12.67,0-25.35C4.56,8.07,4.32,7.24.57,1.43ZM21,9.38c-.9,0-1.8,0-2.7,0-1.13,0-1.63.37-1.62,1.56,0,6.4,0,12.8,0,19.19,0,1,.37,1.5,1.43,1.51,2.71,0,5.41.25,8.09-.4a9,9,0,0,0,7.2-7.49c1.83-9.1-2.42-14.33-11.67-14.37Z"/><path class="cls-1" d="M379.9,43.59c5.23,5.58,11.35,8.18,18.71,7.91a17.18,17.18,0,0,0,5.08-.86,6.92,6.92,0,0,0,3.36-11,12.25,12.25,0,0,0-4.64-3.56c-4.28-2.08-8.89-3.42-13.07-5.73-10.52-5.81-11.57-19.69-1.95-26.3a24.53,24.53,0,0,1,13-4,54.87,54.87,0,0,1,13.69,1.35c1,.21,1.86.44,1.95,1.76.25,3.83.58,7.66.95,12.31-4.6-6-10.33-7.31-16.76-6.72a11.89,11.89,0,0,0-3.81.93,5.77,5.77,0,0,0-1.92,9.54c1.79,1.94,4.2,2.82,6.54,3.81,3.93,1.66,8,3.08,11.64,5.3,9.07,5.48,10.82,18.53,3.42,26a17.33,17.33,0,0,1-8.05,4.57,43.47,43.47,0,0,1-24.52-1,3.09,3.09,0,0,1-2.47-3.15C380.83,51,380.31,47.31,379.9,43.59Z"/><path class="cls-1" d="M521.49,39.11c-2.85-4.71-6.56-6.12-11.09-5.82-2.27.14-5.22-1-6.67.42s-.41,4.49-.52,6.83c-.1,1.88,0,3.77,0,5.66,0,4.62,1,8.92,4.56,12.59h-21.1c4.48-4.49,4.59-9.86,4.54-15.34-.1-9.1,0-18.21,0-27.32,0-5.23.41-10.56-4-14.62a5,5,0,0,1,2.9-.38c12.06-.22,24.13.44,36.17-.46.8-.06,1.29.1,1.37,1,.46,4.52.9,9.05,1.41,14.27-7.06-8.1-16-6.14-24.5-6.39-.92,0-1.31.46-1.3,1.37,0,4.18,0,8.37,0,12.55,0,1.49.87,1.51,1.93,1.5,5.66-.08,11.33.24,17-.39,1.55-.17,2.28-.11,1.84,1.84C523,30.34,522.37,34.37,521.49,39.11Z"/><path class="cls-1" d="M312,1.23H332.9c-5.32,5.42-4.47,12-4.49,18.44,0,9.35.09,18.71-.07,28.06,0,2.47.72,3.12,3,2.9s4.43,0,6.65-.05c6.33-.09,11.94-1.95,16.54-7,.42,1.67-.13,3.06-.29,4.43-.38,3.25-.86,6.5-1.33,9.75-.12.87-.13,1.78-1.54,1.66-11.88-1-23.79-.27-35.68-.49-1.15,0-2.29,0-4,0,5.4-5.44,4.53-12,4.55-18.47,0-8.78,0-17.56,0-26.34C316.29,8.28,315.57,6,312,1.23Z"/><path class="cls-1" d="M229,57.81l-15.06,2.37c-.89.14-1.67.4-2.21-.81-3-6.65-7.93-12-12-18q-4-5.89-8.33-11.58c-1.19-1.56-1.26-2.61,0-4.23,4.55-5.81,8.9-11.77,13.34-17.66a14.66,14.66,0,0,0,2.94-5.62,1.27,1.27,0,0,1,1.49-1.19c5.31,0,10.63,0,16.54,0-1.89,1.49-3.42,2.51-4.73,3.77-6.42,6.16-11.23,13.66-16.88,20.46-.76.92-.45,1.62.12,2.41,5.72,7.8,11.4,15.63,17.14,23.41a18.43,18.43,0,0,0,7.86,6.09Z"/><path class="cls-1" d="M193,1.26c-4.17,4.83-4.14,10.41-4.11,16,0,9.61,0,19.21,0,28.82,0,4.52.76,8.82,4.05,12.63H172.43c4.09-4.09,4.46-9.07,4.41-14.25q-.15-14.66,0-29.31c0-5-.36-9.84-4.5-13.89Z"/><path class="cls-1" d="M402.78,81.56c-.76,3.39-1.66,6.77-2.21,10.2-.36,2.18-1.64,2.13-3.31,2.22-1.84.1-2.37-.73-2.72-2.31-1.12-5.13-2.39-10.23-3.55-15.35-.17-.78-1.16-2.18.59-2.22,1.36,0,3.45-1.17,3.91,1.53.58,3.39,1.21,6.78,1.84,10.17a1.58,1.58,0,0,0,.87,1.45c.54-2.61,1.06-5.12,1.59-7.62.2-1,.41-1.93.62-2.89.59-2.68,1.77-3.36,4.48-2.73,1,.23,1,.92,1.14,1.64.56,3,1.12,6,1.7,8.95.1.5-.14,1.32.66,1.36s.7-.79.8-1.29c.6-2.89,1.13-5.8,1.73-8.69a3.15,3.15,0,0,1,4.33-1.86c.57.37.37.82.24,1.29q-2.22,8.58-4.44,17.16c-.54,2.09-2.22,1.15-3.46,1.35s-1.91-.43-2.14-1.72c-.63-3.55-1.34-7.08-2-10.62Z"/><path class="cls-1" d="M227.59,87.23c.73-3.54,1.41-7,2.12-10.38.61-2.91,1.47-3.4,4.42-2.85,1.13.21,1.14,1,1.29,1.78.54,2.9,1.07,5.8,1.62,8.7a3.71,3.71,0,0,0,1,2.48c.75-3.77,1.43-7.24,2.14-10.71A2.92,2.92,0,0,1,244.35,74c.78.31.63.82.48,1.39-1.48,5.71-3,11.42-4.43,17.14-.53,2.11-2.2,1.14-3.42,1.35s-1.91-.37-2.14-1.69c-.64-3.6-1.4-7.18-2.16-11-1,.66-.81,1.55-1,2.24-.62,2.54-1.27,5.1-1.66,7.68-.33,2.19-1.26,3-3.53,2.86a2.33,2.33,0,0,1-2.58-2.2c-1.15-5.2-2.45-10.36-3.64-15.55-.17-.75-1-2.08.45-2.12s3.5-1.3,4,1.32c.63,3.13,1.12,6.29,1.72,9.43C226.65,85.63,226.47,86.54,227.59,87.23Z"/><path class="cls-1" d="M351.08,80.8c0,3.86-.06,7.35,0,10.84,0,1.6-.28,2.35-2.13,2.35s-2.1-.86-2.08-2.4c.07-4.92,0-9.84.06-14.75,0-1-.76-2.67,1-2.73s3.81-1,5,1.3c1.56,3,3.22,5.89,4.87,8.82.33.58.41,1.44,1.56,1.63,0-3.14,0-6.2,0-9.25,0-1.38-.33-2.7,2-2.68,2.13,0,2.13,1,2.11,2.57-.05,4.92,0,9.84-.05,14.76,0,.91.71,2.46-.94,2.58s-3.44.83-4.54-1.31c-1.72-3.35-3.6-6.62-5.41-9.92A3.24,3.24,0,0,0,351.08,80.8Z"/><path class="cls-1" d="M188.14,87c0-4,0-7.29,0-10.56,0-1.47,0-2.47,2-2.47s2.13.78,2.1,2.36c-.07,4.92,0,9.85-.06,14.77,0,1,.79,2.62-1,2.78-1.65.14-3.52.73-4.63-1.6-1.75-3.7-3.84-7.24-5.8-10.85-.18-.33-.41-.64-1-1.5,0,4.36,0,8.08,0,11.8,0,1.43-.14,2.27-1.94,2.29s-2.19-.69-2.16-2.32c.08-5,0-10,.06-15,0-.91-.71-2.53,1-2.54s3.68-1.06,4.87,1.1l5.58,10.13C187.33,85.68,187.54,86,188.14,87Z"/><path class="cls-1" d="M195.84,84.25c0-2.62.08-5.25,0-7.86-.07-1.61.54-2.14,2.1-2.22,3.12-.15,6.23-.4,9.27.52,4,1.2,6.18,4.09,6.4,8.33.24,4.71-1.88,8.47-5.63,10-3.44,1.41-7,1.39-10.65,1.13-1.2-.08-1.48-.73-1.47-1.79C195.86,89.66,195.84,87,195.84,84.25Zm4.53-.09c0,1.71,0,3.43,0,5.14,0,1,.32,1.43,1.4,1.51,3.82.31,6.73-2.19,7.05-6.19.35-4.2-1.67-6.69-5.57-7.13-2.21-.25-3.23.37-2.91,2.75A30.11,30.11,0,0,1,200.37,84.16Z"/><path class="cls-1" d="M383.84,88.07v.24c0,5.45-.15,5.6-5.7,5.94-5.19.31-9.38-1.75-11-5.39a11.41,11.41,0,0,1,1.91-11.94c2.85-2.93,9.22-4.2,12.9-2.7,1.27.52,1,1.31.71,2.18s-.25,1.84-1.69,1.42a10,10,0,0,0-4.86-.31c-3.56.72-5.52,3.55-5.11,7.48a5.93,5.93,0,0,0,6.23,5.66c1.08,0,2.32.07,2.21-1.54-.08-1.2.78-3-1.69-2.93-1.58.08-1.29-1.08-1.35-2s.49-1.47,1.49-1.41h.25C383.84,82.4,383.84,82.4,383.84,88.07Z"/><path class="cls-1" d="M130.71,83.9c-.06,6.25-4.15,10.46-10.05,10.36-5.48-.1-9.37-4.43-9.26-10.31.12-6.13,4.17-10.3,9.95-10.22C126.94,73.8,130.77,78,130.71,83.9Zm-14.55-.1c-.07,4.11,2,7,5,7S126,87.86,126,83.92s-2.09-6.75-5-6.7S116.24,79.87,116.16,83.8Z"/><path class="cls-1" d="M416.93,84.24c0-6.1,4-10.45,9.67-10.51s9.69,4.11,9.66,10.13c0,6.18-3.94,10.33-9.78,10.4C421,94.33,417,90.1,416.93,84.24ZM431.47,84c0-4-2-6.77-4.87-6.78S421.7,80,421.68,84s2,6.78,4.89,6.8S431.47,88,431.47,84Z"/><path class="cls-1" d="M109.58,83.92c-.06,6.26-4.14,10.45-10.06,10.33-5.4-.1-9.24-4.28-9.27-10.07,0-6.16,4.15-10.53,10-10.45C105.82,73.8,109.64,78,109.58,83.92Zm-4.74-.06c0-3.86-2-6.56-4.79-6.64s-5,2.6-5,6.64,2,7,5,6.91S104.87,87.84,104.84,83.86Z"/><path class="cls-1" d="M36.06,83.73c0,6.39-3.84,10.53-9.82,10.53-5.5,0-9.43-4.23-9.41-10.14,0-6.14,4-10.38,9.77-10.39S36,77.73,36.06,83.73Zm-4.69.2c0-4-2-6.76-5-6.71s-4.77,2.66-4.83,6.58c-.06,4.12,2,7,5,7S31.38,87.92,31.37,83.93Z"/><path class="cls-1" d="M438.66,84.2c0-2.62,0-5.25,0-7.87-.05-1.4.33-2.09,1.88-2.15a33.54,33.54,0,0,1,7.36.11c2.21.4,4.05,1.37,4.76,3.71a5.08,5.08,0,0,1-1.76,5.73c-.69.59-1.15.92-.31,1.88,1.74,2,1.86,4.68,2.66,7.07.21.63.14,1.29-.67,1.19-1.34-.15-3.11.91-3.88-1.06-.5-1.29-.75-2.68-1.13-4a3,3,0,0,0-2.14-2.46c-1.4-.34-2.48-.22-2.33,1.68.08,1.06-.13,2.15,0,3.19.38,2.45-.82,2.92-2.93,2.77-1.21-.09-1.56-.55-1.54-1.65C438.68,89.61,438.66,86.91,438.66,84.2Zm4.39-4c.26,1.1-.83,3.1,1.85,2.88,1.89-.15,3.4-.7,3.53-2.89.1-1.8-1.24-2.77-3.48-2.9S443.11,78.72,443.05,80.15Z"/><path class="cls-1" d="M133.44,84.17c0-2.7,0-5.41,0-8.12,0-1,.23-1.73,1.45-1.82,2.79-.18,5.58-.47,8.34.17,2,.48,3.65,1.52,4.21,3.69a5,5,0,0,1-1.68,5.54c-1.09.84-.91,1.31-.15,2.28,1.58,2,1.63,4.61,2.45,6.91.26.75-.23,1.15-.89,1.07-1.27-.16-2.95.8-3.66-1a39.36,39.36,0,0,1-1.16-4,3.13,3.13,0,0,0-1.88-2.41c-1.78-.67-2.57-.16-2.62,1.77,0,1.07-.05,2.14,0,3.2.09,1.55,0,2.59-2.12,2.63s-2.37-1-2.31-2.69C133.51,88.94,133.44,86.55,133.44,84.17Zm6.21-6.91c-1.58-.27-2.11.75-1.77,2.17S136.51,83,139.57,83c1.92,0,3.42-.64,3.66-2.78C143.42,78.48,142,77.32,139.65,77.26Z"/><path class="cls-1" d="M38.84,83.82c0-2.54,0-5.08,0-7.62,0-1.33.39-1.92,1.78-2a31.7,31.7,0,0,1,7.35.06c2.19.39,4.1,1.23,4.84,3.6A5,5,0,0,1,51,83.78c-.87.68-.85,1.11-.14,1.93,1.75,2,1.77,4.69,2.57,7.08.24.74-.14,1.18-.83,1.1-1.27-.16-3,.8-3.68-1a31.91,31.91,0,0,1-1-3.78,3.53,3.53,0,0,0-2-2.67c-1.73-.71-2.61-.16-2.67,1.7,0,1.06,0,2.13,0,3.19,0,2.47-1.12,3.26-3.51,2.6-1-.29-.9-1-.9-1.74C38.83,89.39,38.84,86.61,38.84,83.82Zm4.4-3.64c.32,1-.86,2.91,1.67,2.86,2.28,0,3.73-1.11,3.73-3s-1.29-2.74-3.54-2.84S43.36,78.82,43.24,80.18Z"/><path class="cls-1" d="M461.12,82a37.59,37.59,0,0,0,3.27-4.76c1.54-3.12,3.91-3.83,7.25-3a29.66,29.66,0,0,1-4.59,6.2c-1.32,1.55-1.3,2.67-.19,4.28,1.71,2.5,3.16,5.17,4.77,7.74.66,1,.47,1.39-.77,1.47-2.25.13-4.18,0-5.1-2.62a26.73,26.73,0,0,0-2.4-4.29c-.28-.47-.47-1.21-1.13-1.14a1.73,1.73,0,0,0-1.42,1.52,18.25,18.25,0,0,0-.17,3.91c.09,1.69-.07,2.73-2.29,2.68-2-.05-2.23-.91-2.2-2.55.07-5.17.09-10.34,0-15.51,0-1.77.76-2,2.22-2s2.45,0,2.29,1.88,0,3.93,0,5.89Z"/><path class="cls-1" d="M164.29,74.11c2.23-.61,3.12.41,3.69,2.43,1.43,5,3.12,10,4.62,15,.21.68,1.31,1.94-.15,2.18s-3.14,1-4.19-.84A4.6,4.6,0,0,1,168,92c-1.07-3.28-2.37-4-5.74-3.27-1.77.39-1.44,2-1.86,3.14S159.82,94,158.2,94c-3,0-3.08.09-2.17-2.91,1.43-4.71,3-9.39,4.27-14.13C160.92,74.7,161.81,73.32,164.29,74.11Zm-.4,4-1.7,6.15c-.38,1.38.67,1.34,1.41,1.19s2.58.84,2.37-.91A18.26,18.26,0,0,0,163.89,78.08Z"/><path class="cls-1" d="M253.34,74.13c2.4-.76,3.18.55,3.76,2.58,1.42,5,3,9.86,4.53,14.81.21.72,1.26,2-.07,2.24s-3.12,1-4.23-.77a4,4,0,0,1-.29-.94c-1.12-3.4-2.17-4-5.7-3.34-1.72.31-1.4,1.81-1.82,2.86s-.37,2.37-2.2,2.4c-3,0-3.12,0-2.23-2.88,1.43-4.7,2.94-9.38,4.26-14.12C250,74.79,250.75,73.26,253.34,74.13Zm-.27,3.54c-.72,2.54-1.25,4.42-1.77,6.3-.12.45-.43,1.07.16,1.29a4.94,4.94,0,0,0,3.33,0c.6-.21.34-.84.21-1.28C254.43,82.05,253.83,80.14,253.07,77.67Z"/><path class="cls-1" d="M478.44,94.27c-.54-.09-1.74-.32-2.95-.5-1.79-.27-1.91-1.31-1.54-2.84.41-1.71,1.35-1.15,2.38-.81a8.33,8.33,0,0,0,3.64.41c1.13-.13,2.12-.52,2.37-1.77s-.62-2-1.59-2.49-2-.82-2.93-1.27c-3-1.39-4.33-3.44-4-6.09s2.49-4.59,5.59-5.07a13.47,13.47,0,0,1,4.65.15c1.23.25,2.16.56,1.76,2.24s-1,2.08-2.51,1.42a2.56,2.56,0,0,0-.48-.1c-1.63-.25-3.62-.71-4.31,1.19-.82,2.25,1.54,2.43,2.86,3.2.14.08.3.12.45.19,4.11,1.75,5.67,3.94,5,7.07S483.29,94.26,478.44,94.27Z"/><path class="cls-1" d="M551.56,73.73a11.46,11.46,0,0,1,1.73.17c1.05.23,2.38.12,2.05,2-.3,1.67-1,2-2.65,1.7-5.85-1.07-9.55,3.26-7.76,8.92,1,3,3.57,4.47,7.52,3.94,1.4-.19,2.46-.46,2.73,1.53s-1.15,1.88-2.26,2.07c-5.1.92-9.8-.91-11.84-4.54a11.44,11.44,0,0,1,1.17-12.25C544.28,74.91,547.38,73.67,551.56,73.73Z"/><path class="cls-1" d="M2.45,83.76c0-2.54.07-5.09,0-7.62-.06-1.53.32-2.25,2-2.17,2.7.13,5.41.08,8.11,0,1.32,0,2.1.12,2.14,1.8,0,1.85-.86,2-2.26,1.91-1-.07-2,0-3,0C7.8,77.54,6.8,77.78,6.84,80c0,2,.72,2.62,2.58,2.41.89-.1,1.81,0,2.7,0,1.39-.11,2.08.24,2.06,1.86s-.72,1.69-2,1.73c-5.26.16-5.3.19-5.28,5.49C7,93,6.88,94,4.79,94s-2.44-.86-2.37-2.63C2.53,88.84,2.45,86.3,2.45,83.76Z"/><path class="cls-1" d="M61.92,83.9c0-2.71.07-5.41,0-8.11,0-1.43.49-1.84,1.85-1.8,2.87.07,5.74.08,8.6,0,1.44,0,1.82.55,1.83,1.88s-.41,2-1.83,1.85c-1.14-.1-2.31.1-3.44,0-2.15-.29-2.6.68-2.54,2.64.06,1.58.46,2.27,2.11,2.09,1-.1,2,0,2.94,0,1.28-.08,2.18,0,2.17,1.73s-.7,1.84-2.08,1.86c-5.07.05-5.07.09-5.08,5.19,0,2.88-.2,3-3.05,2.81-1.25-.09-1.49-.65-1.47-1.71C62,89.46,61.92,86.68,61.92,83.9Z"/><path class="cls-1" d="M303.42,85.75V82.31c0-4.14,0-4.21-4-4.53C298.06,77.67,298,77,298,76s-.2-2,1.38-2c4.19,0,8.38,0,12.56,0,1.55,0,1.34,1.06,1.38,2s-.14,1.63-1.43,1.73c-4,.31-4,.37-4,4.49,0,3.28-.07,6.57,0,9.85.05,1.68-.79,1.88-2.12,1.82s-2.52.19-2.42-1.78C303.51,90,303.42,87.89,303.42,85.75Z"/><path class="cls-1" d="M264.73,83.9c0-2.62.11-5.25,0-7.86-.11-2,.88-2.07,2.39-2.07s2.28.2,2.23,2c-.12,4,0,8-.07,12-.05,1.7.47,2.41,2.22,2.24,1.21-.12,2.45,0,3.68,0s2.15,0,2.16,1.77-.77,2-2.24,2c-2.78-.08-5.57-.08-8.35,0-1.46,0-2.07-.4-2-1.94C264.8,89.31,264.73,86.6,264.73,83.9Z"/><path class="cls-1" d="M77.48,83.91c0-2.38.07-4.76,0-7.13-.07-1.74,0-2.87,2.37-2.86s2.25,1.14,2.23,2.74c0,3.85,0,7.71,0,11.56,0,1.46.41,2.11,2,2s3,0,4.43,0c1.33-.07,1.65.54,1.63,1.77s-.15,2-1.7,2q-4.55-.12-9.09,0c-1.47,0-1.81-.62-1.78-1.93C77.53,89.32,77.48,86.61,77.48,83.91Z"/><path class="cls-1" d="M495.78,84c0-2.62.14-5.25,0-7.86-.14-2.06.87-2.15,2.49-2.23,1.88-.08,2.14.74,2.11,2.32-.09,3.85,0,7.7-.07,11.55,0,1.77.44,2.6,2.34,2.41,1.22-.13,2.46,0,3.68,0,1.4-.09,2.07.29,2.07,1.89s-.74,1.9-2.11,1.87c-2.78-.07-5.57-.12-8.35,0-1.82.09-2.22-.68-2.15-2.31C495.86,89.12,495.78,86.58,495.78,84Z"/><path class="cls-1" d="M279.71,83.91c0-2.7.11-5.4,0-8.1-.1-1.94,1.05-1.79,2.34-1.82s2.3.07,2.23,1.92c-.14,4,.06,8-.08,12-.07,1.91.61,2.48,2.39,2.29,1.13-.11,2.29,0,3.44,0s2.21-.09,2.2,1.71-.62,2.1-2.16,2c-2.78-.09-5.57-.09-8.35,0-1.46,0-2.07-.39-2-1.94C279.79,89.32,279.71,86.61,279.71,83.91Z"/><path class="cls-1" d="M323.58,83.74c0-2.62.1-5.25,0-7.87-.09-1.87.95-1.87,2.31-1.89s2.29.18,2.23,2c-.11,4,0,8-.06,12,0,1.73.52,2.39,2.24,2.23,1.22-.11,2.46,0,3.69,0s2.13.15,2.1,1.82-.57,2-2,1.94c-2.86-.08-5.73-.07-8.6,0-1.37,0-1.91-.46-1.87-1.85C323.64,89.31,323.58,86.53,323.58,83.74Z"/><path class="cls-1" d="M518.26,83.86c0-2.63.13-5.26,0-7.88-.13-2.07,1.07-1.93,2.47-2,1.62-.09,2.14.46,2.1,2.09-.11,4,0,8-.07,12.07,0,1.63.5,2.23,2.11,2.09,1.23-.1,2.47,0,3.7,0,1.41-.07,2.29.1,2.23,2,0,1.68-.83,1.83-2.15,1.8-2.79,0-5.58-.08-8.37,0-1.48,0-2.06-.43-2-2C518.33,89.28,518.26,86.57,518.26,83.86Z"/><path class="cls-1" d="M315.38,84.07c0-2.79.09-5.57,0-8.36-.08-2,1.27-1.64,2.45-1.71s2.17,0,2.14,1.74c-.1,5.49-.09,11,0,16.47,0,1.76-.9,1.78-2.16,1.73s-2.51.25-2.43-1.76C315.47,89.48,315.38,86.77,315.38,84.07Z"/><path class="cls-1" d="M338.53,84c0-2.62.11-5.26,0-7.87-.11-1.89.78-2.14,2.35-2.12s2.23.21,2.19,2c-.12,5.34-.11,10.68,0,16,0,1.76-.72,2-2.19,2s-2.45-.25-2.35-2.13C338.64,89.22,338.53,86.59,338.53,84Z"/><path class="cls-1" d="M510.41,91.48c.17-1.6,1-2.64,2.67-2.62a2.68,2.68,0,0,1-.12,5.35C511.32,94.16,510.53,93.09,510.41,91.48Z"/><path class="cls-1" d="M532.87,91.57c.1-1.61.89-2.67,2.54-2.7a2.67,2.67,0,0,1,.06,5.34C533.81,94.22,533,93.17,532.87,91.57Z"/></g></g></svg>