<svg xmlns="http://www.w3.org/2000/svg" viewBox="0 0 382.99 139.69"><defs><style>.cls-1{fill:#808285;}</style></defs><g id="Layer_2" data-name="Layer 2"><g id="Layer_1-2" data-name="Layer 1"><g id="Layer_2-2" data-name="Layer 2"><g id="Layer_1-2-2" data-name="Layer 1-2"><path class="cls-1" d="M286.24,114.19q-8.08,9.69-16,19.57a3.76,3.76,0,0,1-3.27,1.49c-17.15,0-34.28,0-51.43-.06-5.1,0-9.56-2.67-14.24-4.31-18.54-6.46-37-13.14-55.49-19.77-2.68-1-5.43-.54-8.15-.59-4,0-8,.11-12,.18a167.07,167.07,0,0,0-19.12,0c-4.28-.55-8.58-.25-12.87-.22-7.72,0-15.44-.34-23.15.22a123.52,123.52,0,0,0-17.84,0c-1.07-.1-2.13-.27-3.2-.27-12.93,0-25.82-.11-38.73,0a8.48,8.48,0,0,1-6.87-2.89c-5.19-5.47-5.18-5.29-.1-10.67A8.85,8.85,0,0,1,11,94c7.72.19,15.45.09,23.18.06a31.13,31.13,0,0,0,3.18-.32,188.59,188.59,0,0,0,21.92.11q29.28.58,58.56,0a202.91,202.91,0,0,0,21.36,0c14.33.56,26.65,7.81,39.88,12,11.82,3.74,23.42,8.19,35.1,12.37a12.34,12.34,0,0,0,4.3.77c15.47,0,30.95,0,46.44.08,2.65,0,2.94-1,3-3.27.07-2.49-.77-3.1-3.18-3.08-14.11.11-28.22,0-42.33.11a8.32,8.32,0,0,1-6.28-2.46c-5.05-4.77-10.22-9.4-15.41-14-1.31-1.18-1.5-2-.27-3.37q8.47-9.18,16.82-18.46A4.54,4.54,0,0,1,221,73.08h52.6c1.95,0,2.57.68,2.52,2.57-.11,3.62-.13,7.25,0,10.86.09,2.21-.69,2.84-2.87,2.83q-25.28-.12-50.56,0c-1.06,0-2.69-.7-3.08.77a8.72,8.72,0,0,0,.19,6c.44.91,1.81.44,2.75.44,14.4,0,28.81,0,43.2,0a6.92,6.92,0,0,1,4.81,1.67q7.55,6.3,15.24,12.44C287.27,111.81,287.5,112.65,286.24,114.19Z"/><path class="cls-1" d="M382.55,82c-.39-2.55-1.57-3.86-4.32-3.56a8.57,8.57,0,0,1-4.9-.45c-6.52-3.28-8.44-14.25-3.28-19.2,1.7-1.62,1.81-3.13.53-4.88a30.45,30.45,0,0,0-7.55-7.3c-1.83-1.22-3.58-1.17-4.85.76-2.48,3.72-6,4-9.86,3.11-7-1.53-9.55-4.57-10-11.71A2.83,2.83,0,0,0,336,35.85a28.85,28.85,0,0,0-10.19-.25c-3,.34-4.39,1.77-3.87,4.89.59,3.66-1.17,6.13-4.11,8-6.7,4.29-10.14,4.16-16.07-.86-1.48-1.24-2.86-1-4.27,0a28.13,28.13,0,0,0-6.64,6.56c-2.17,2.94-2.1,4.16.68,6.41a7.44,7.44,0,0,1,2.72,8.12,23.34,23.34,0,0,1-2.94,7.31c-1.76,2.83-4.11,4.25-7.56,4s-4.55.73-4.81,4.24c-.09,1.17,0,2.35,0,3.52s-.07,2.55,0,3.81c.28,4.06,1.22,5,5.21,4.76a7.48,7.48,0,0,1,7.09,3.2,22.59,22.59,0,0,1,2.61,4.9c1.8,4.44,2.13,8.5-2.28,11.76-1.66,1.22-1.83,2.86-.59,4.6a31.12,31.12,0,0,0,7.48,7.36c2,1.43,3.86,1.18,5.29-.91,1.92-2.9,4.64-3.64,7.91-3.17a22.13,22.13,0,0,1,6.58,2.35c3.71,1.82,5.79,4.5,5.09,8.87a3,3,0,0,0,2.64,3.85,26.84,26.84,0,0,0,11.32-.18,2.88,2.88,0,0,0,2.47-3.37c-.07-1.64-.41-3.3.23-4.94,2.66-6.8,14.38-9.3,19.35-4,1.7,1.81,3.29,1.89,5.12.53a32.43,32.43,0,0,0,6.79-6.85c1.59-2.16,1.67-4-.73-5.75a7,7,0,0,1-3.26-7,23.56,23.56,0,0,1,2.24-7c1.86-3.89,4.55-6.29,9.23-5.5,2.1.35,3.35-.73,3.78-2.77A28.08,28.08,0,0,0,382.55,82ZM330.9,118.4a30,30,0,0,1-30.23-29.83v-.3a30.2,30.2,0,1,1,30.27,30.13Z"/><path class="cls-1" d="M139.21,93.89a202.91,202.91,0,0,1-21.36,0,30.17,30.17,0,1,0-58.56,0,193.13,193.13,0,0,1-21.92-.11c-1.31-4-1-8.11-.45-12.17.24-1.67,1.56-2.43,3.46-2.44,7.15,0,13.29-7.95,11.73-15.1A8.39,8.39,0,0,0,49,59.63c-2.52-2.19-2.65-3.18-.64-5.93a28.3,28.3,0,0,1,7.05-7c1.65-1.1,2.94-.91,4.4.53,5.14,5.14,15,3.84,18.94-2.45a7,7,0,0,0,.94-5.35c-.59-2.76.79-4.17,3.27-4.52a39.53,39.53,0,0,1,10-.07c2.17.25,3.44,1.48,3.1,3.78-.75,5.11,2,7.85,6.31,9.64a37.52,37.52,0,0,0,4.38,1.59c3.53,1,6.5.26,8.88-2.76,2.13-2.68,3.17-2.76,5.88-.78a30,30,0,0,1,6.68,6.58c1.43,2,1.55,3.8-.56,5.34-3.62,2.65-3.71,6.19-2.56,10a22.85,22.85,0,0,0,2.73,5.81c1.88,2.9,4.44,4.39,8,3.75,2.15-.39,4,.17,4.33,2.35C140.75,84.74,141.52,89.43,139.21,93.89Z"/><path class="cls-1" d="M218.86,65.18q-13,13.35-25.92,26.81a4.35,4.35,0,0,1-3.4,1.36q-22,0-44.06.15c-1.91,0-2.3-.83-2.27-2.48.08-3.72.13-7.45,0-11.17-.08-2.21.71-2.85,2.87-2.83,11.76.08,23.52,0,35.25.09a7,7,0,0,0,6.09-2.62c1.35-1.66,3-3.1,4.46-4.7.3-.33.67-.86.58-1.23-.13-.75-.9-.58-1.44-.58h-2.94c-13.91,0-27.81-.06-41.71,0-2.39,0-3.32-.59-3.17-3.1q.26-5.3,0-10.58c-.09-2.11.69-2.67,2.71-2.65,10,.08,20,0,30,0h30a4.3,4.3,0,0,1,3.47,1.17q4.71,4.66,9.53,9.15C220.06,63.21,220,64,218.86,65.18Z"/><path class="cls-1" d="M287,48.89q-23.34,4.41-46.65,8.87c-5.29,1-10.58,1.93-15.82,3.12-2.4.55-3.53.36-3.85-2.48a103,103,0,0,0-2.35-12c-1.18-5,.73-8.82,4.11-12.16,5.81-5.73,13.1-8.82,20.78-11A70.73,70.73,0,0,1,261.7,20.5a44.45,44.45,0,0,1,14.7,2.3c5.74,1.92,9.59,5.4,10.34,11.81a107.37,107.37,0,0,0,2.19,11.22C289.34,47.7,288.8,48.54,287,48.89Z"/><path class="cls-1" d="M129.56,118.56a28.24,28.24,0,0,1-7.91,8.13c-1.66,1.13-3,.79-4.37-.59-5.12-5.11-15.29-3.64-19,2.7a7.58,7.58,0,0,0-.77,5.4c.44,2.4-.68,3.72-2.94,4.17a32.09,32.09,0,0,1-10.21.19c-2.3-.28-3.58-1.53-3.23-4,.69-4.78-1.84-7.55-5.88-9.31A48.39,48.39,0,0,0,70,123.44c-3.24-1-5.88-.08-8.12,2.49-2.6,3-3.67,3.07-6.83.66a33.4,33.4,0,0,1-5.81-5.77c-1.66-2-1.89-4,.45-5.79a7.55,7.55,0,0,0,3-4.21,123.52,123.52,0,0,1,17.84,0c9.84,8.23,26.14,8.23,36,0a169.38,169.38,0,0,1,19.12,0c.51,1.6,1.81,2.51,3,3.47C130.28,115.43,130.62,116.94,129.56,118.56Z"/><path class="cls-1" d="M310.3,22.11c-2.27,4.3-5.64,6.91-10.78,6.73q-4.41-.15-8.82,0c-1.71.06-2.22-.65-2.19-2.25.07-4.11,0-8.23,0-12.34,0-3.82.07-7.65,0-11.46C288.46.86,289-.12,291.14,0c2.74.17,5.49,0,8.23.06A12.34,12.34,0,0,1,311.3,9.25,17,17,0,0,1,310.3,22.11Z"/></g></g></g></g></svg>