<svg xmlns="http://www.w3.org/2000/svg" viewBox="0 0 358.36 214.87"><defs><style>.cls-1{fill:#808285;}</style></defs><g id="Layer_2" data-name="Layer 2"><g id="Layer_1-2" data-name="Layer 1"><g id="Layer_2-2" data-name="Layer 2"><g id="Layer_1-2-2" data-name="Layer 1-2"><g id="Layer_2-2-2" data-name="Layer 2-2"><g id="Layer_1-2-2-2" data-name="Layer 1-2-2"><path class="cls-1" d="M284,82.27c-12.84,0-25.68.07-38.51,0-2.31,0-2.87.68-2.83,2.9.13,7.27.1,14.54,0,21.83,0,1.94.52,2.53,2.51,2.52,16.76-.08,33.53,0,50.32-.1,1.92,0,2.47.64,2.3,2.44-1.45,15.3-12,28.14-27.3,31.73A72.87,72.87,0,0,1,251.71,145c-2.3-.06-4.61.12-6.9-.05-1.9-.14-2.13.71-2.13,2.31q.06,28.4,0,56.77c0,3.37,0,3.48-3.27,3.28-9.86-.6-17.71-5.34-24.19-12.41-6.15-6.72-8.83-14.9-8.82-24,0-23.82-.39-47.65-.06-71.45a3.22,3.22,0,0,1,2.14-3.28C231.45,84.63,255.05,74.45,279,65c9.44-3.74,18.89-7.47,28.51-10.71a5,5,0,0,1,5.31,1.1,36.3,36.3,0,0,1,11.68,19.89c.35,1.61.37,3.23.66,4.81.33,1.92-.45,2.23-2.16,2.23C310,82.24,297,82.27,284,82.27Z"/><path class="cls-1" d="M182.88,81.52A2.9,2.9,0,0,1,181.05,83c-10.31,4.51-20.35,9.56-30.4,14.59-.68.35-1.33,1.06-2.22.67-.28-3.92-.49-7.86-3-11.14-3.28-4.23-8-4.75-12.81-4.78-8.38,0-16.77.3-25.15.29-9.06,0-17.82-1.3-25.52-6.68A35.88,35.88,0,0,1,66.16,49.38c-.22-2,.15-2.81,2.49-2.8,21.59.06,43.2-.29,64.78,0,13.73.2,26.44,4,36.4,14.17,5.34,5.47,10.09,11.41,12.58,18.82C182.59,80.22,182.72,80.88,182.88,81.52Z"/><path class="cls-1" d="M182.28,110.6c-.26,3.09-1.61,5.4-2.88,7.62C173,129.36,164,137.58,151.82,142c-3.36,1.21-3.37,1.22-.83,3.79,14.74,14.91,30.2,29.08,45.18,43.75,1.85,1.81,3.61,3.73,5.52,5.46,1.43,1.3,1.44,2.27,0,3.56a34.7,34.7,0,0,1-12.58,6.73c-15.26,5-28.11.31-39.19-10.2-11.51-10.9-22.69-22.14-34-33.26-2-2-2-2.08.14-4,10.12-8.91,20.89-17,31.8-24.89a337.13,337.13,0,0,1,30.65-20.29C179.64,112,180.81,111.41,182.28,110.6Z"/><path class="cls-1" d="M126.57,109.68c.34,1.54-1.09,1.6-1.85,2-11.44,6.57-22.63,13.5-33.43,21.08-7.57,5.33-14.93,10.93-22,17-.72.62-1.26,1.74-2.54,1.49-1-10.5-.65-21-.55-31.53,0-2.74.39-5.47.37-8.21,0-1.7.56-2.08,2.18-2.07,13,.11,26.08.12,39.11.17Z"/><path class="cls-1" d="M276.27,46.66c-2.53,1.79-5.59,2.18-8.44,3.05-20,6.15-39.69,13.39-59.1,21.27-.75.31-1.45.81-2.32.58,0-.65-.08-1.29-.13-1.94l0-.82c0-6.68.16-13.36.08-20,0-1.84.61-2.18,2.29-2.17q31.73.07,63.44,0c.74,0,1.48,0,2.23-.07H275Z"/><path class="cls-1" d="M102.63,189.11c0,5.41,0,10.83,0,16.23,0,1.57-.44,2.1-2,2a37.41,37.41,0,0,1-22.82-9.47c-1-.93-.32-1.53.25-2.23,5.58-6.73,11.8-12.87,18-19,1.36-1.36,2.75-2.7,4.19-4,.62-.55,1.13-1.73,2-1.33s.33,1.48.34,2.25c0,5.19,0,10.38,0,15.57Z"/><path class="cls-1" d="M308.15,14.25c0-4.4-2.52-6.36-6.43-7.36,4.24-.48,6.33-2.73,6.39-6.89.58,1.66.72,3.38,1.72,4.74s2.82,1.72,4.76,2.23C310.08,7.41,308.66,10.34,308.15,14.25Z"/><path class="cls-1" d="M182.88,81.52c2.26,0,4-1.33,6-2.15q7.74-3.27,15.45-6.61a22,22,0,0,0,2.11-1.2c.89.23,1.57-.27,2.32-.58,19.41-7.88,39.06-15.12,59.1-21.27,2.85-.89,5.91-1.26,8.44-3.05,7.66-1.29,15-3.92,22.53-5.64,8-1.83,16-3.61,24-5.1,9.47-1.74,19-2.83,28.58-3.7a30,30,0,0,1,7,.32c-2.25.69-4.49,1.46-6.77,2.05-17.67,4.56-35,10.11-52.31,15.93-20,6.75-39.64,14.75-59.09,23a754.29,754.29,0,0,0-74.7,36.7c-10.52,5.9-21.16,11.62-31.22,18.29-11.8,7.8-24,15.07-35.13,23.8-11.58,9-23,18.26-33.66,28.32a173.69,173.69,0,0,0-21.66,24.94c-1.78,2.45-3.08,5.22-4.64,7.82-.37.62-.68,1.55-1.49,1.47s-.84-1.13-1-1.78a40.77,40.77,0,0,1,4.26-34.74c5.09-8.39,12-15.14,19.87-21,2.27-1.69,4.68-3.38,6-6.06,1.28.25,1.82-.86,2.54-1.48,7-6.06,14.39-11.66,22-17,10.79-7.57,22-14.51,33.42-21.08.77-.44,2.2-.5,1.86-2,2.4-.1,4.22-1.57,6.23-2.64,4.5-2.4,9-4.76,13.51-7.18a18.2,18.2,0,0,0,2.11-1.59c.92.39,1.55-.32,2.22-.67,10-5,20.09-10.08,30.4-14.59C181.79,82.68,182.56,82.39,182.88,81.52Z"/><path class="cls-1" d="M8.93,205.57c4.55-.63,5.91-1.72,6.85-5.67a10.64,10.64,0,0,0,6.1,6.2c-4.15,0-4.61,3.17-5.79,6.23-1-1.78-.61-3.9-2.27-5C12.33,206.25,10.51,206.32,8.93,205.57Z"/><path class="cls-1" d="M39.16,158.44c-4.42,0-5.55,2.71-5.63,6.52-.49-3.74-1.62-6.68-6.2-6.48,2.5-.63,4.76-1.15,5.34-4,.16-.79.89-.69,1-.1C34.38,157.16,36.47,157.92,39.16,158.44Z"/><path class="cls-1" d="M0,177.31c2.42-.8,4.27-2,5-4.87.61,3.21,3.12,3.93,5.75,5-2.45.29-4.42.58-5,3.12a.64.64,0,0,1-1.27.08C3.94,178.27,2.18,177.66,0,177.31Z"/><path class="cls-1" d="M330,21.82c.49,2,1.86,3.16,4.29,4-2.95.08-3.6,1.89-4.33,4.12-.4-2-.89-3.34-2.75-3.81-.87-.22-.53-1,.21-1.12C329,24.59,329.53,23.34,330,21.82Z"/><path class="cls-1" d="M287.84,25.62a5.08,5.08,0,0,0,3.63-3.54c.63,1.79,1.75,2.89,4.12,3.54-2.88.54-3.81,2-3.68,4.64C290.88,28,290.37,26,287.84,25.62Z"/><path class="cls-1" d="M206.25,68.8l0,.82A.46.46,0,0,1,206.25,68.8Z"/><path class="cls-1" d="M274.94,46.56h-.66C274.5,46.27,274.72,46.32,274.94,46.56Z"/></g></g></g></g></g></g></svg>