<svg xmlns="http://www.w3.org/2000/svg" viewBox="0 0 913.8 701"><defs><style>.cls-1{fill:#fff;}</style></defs><g id="Layer_2" data-name="Layer 2"><g id="Layer_2-2" data-name="Layer 2"><path class="cls-1" d="M84.52,269.54a467.16,467.16,0,0,0,84.53,32.87,466.83,466.83,0,0,0,106.12,16.9,68.56,68.56,0,0,1,52.6,18.79c-48.78-6.1-94.55,23.74-108,68.56-14.62,48.67,12.5,103,62.93,121.15,7,2,29.08,7.43,53.53-2.82,29.26-12.27,47.54-35.53,52.91-44.72,1.57-2.69,3.18-5.34,4.92-7.93,29.1-43.21,28.63-98.1,8.85-138.94-11.35-23.44-29-37.93-41.32-46a250.54,250.54,0,0,0-62.93-19.72c-39.25-6.75-58.79-.2-99.55-5.63a290.63,290.63,0,0,1-70.43-18.79A212.84,212.84,0,0,1,46,188.77a212.55,212.55,0,0,1-46-77,510.13,510.13,0,0,0,119.27,56.35c72.58,23.36,123.09,11.14,178.71,21.2a78.13,78.13,0,0,1,21.56,7.21,163.79,163.79,0,0,1,38.28,27c37.42,35.47,47.3,78.9,50.26,96.26a618.05,618.05,0,0,0,18.3-73.72c8.9-48.32,6.7-68.56,17.84-102.37A234.91,234.91,0,0,1,472,87.07,88.74,88.74,0,0,1,497,62a177.27,177.27,0,0,1,92.76-29.14H889.56a22.08,22.08,0,0,0,13.91-2.82c8.28-4.91,10.07-13.63,10.33-15a68.29,68.29,0,0,1-16,40.38C878,78.51,849.59,78.9,845.24,78.89c-97.36-.31-190-1.57-287.38-1.88-14.09,0-20.7,4.76-26.3,7.51-40.44,20-47,73.11-47.89,80.77V357.82c.51,12,2.47,87.08-56.35,143.69C383.13,544,331,550.77,314.62,552.23c-13.2,1.37-54.28,4-95.8-21.6a152.86,152.86,0,0,1-57.28-63.87c-5-11.81-15.4-40.89-8.46-77A131.85,131.85,0,0,1,174.68,339a232.42,232.42,0,0,1-31.93-16.91A234.9,234.9,0,0,1,84.52,269.54Z"/><path class="cls-1" d="M298.65,155.9a250.54,250.54,0,0,1,62.93,19.72C386,189.71,397.17,208.1,408.53,231c2.57-4.69,0-18.78-.85-25.24-3.4-18.63-13.95-60-49.86-94-3-2.88-6.09-5.55-9.13-8a128,128,0,0,0-70.63-28c-46.57-3.75-95.56,1-158.79-19.33A510.13,510.13,0,0,1,0,0,212.55,212.55,0,0,0,46,77a212.84,212.84,0,0,0,82.65,54.47,290.63,290.63,0,0,0,70.43,18.79C239.86,155.7,259.4,149.15,298.65,155.9Z"/><path class="cls-1" d="M849,110.82H676.6a132.19,132.19,0,0,0-114,85.46,412,412,0,0,0-16.89,106.13,127.27,127.27,0,0,0,39.43-1.88c13.9-2.89,24.38-5.07,32.87-14.09,9.37-9.94,10.94-22.5,11.27-28.17a145,145,0,0,1,7.51-61c5.36-15.2,14.77-42.08,42.26-60.1,23.2-15.2,47-16.27,58.23-16,37.18-1.31,69.32,16.49,80.77,44.14.8,1.93,2,5.75,2,5.75h25.51C846.66,151,847.85,130.9,849,110.82Z"/><path class="cls-1" d="M545.67,336.36A129.87,129.87,0,0,0,655,302.41c21.67.33,47,.21,74.72-.94,8.65-.36,21.72-1,36.63-7.51,13.66-6,20.92-13.35,22.53-15a61.81,61.81,0,0,0,11.54-17h26.19A107.35,107.35,0,0,1,802,297.71a108.75,108.75,0,0,1-55.41,28.18,436.41,436.41,0,0,0-62.92,8.45c-9.28,1.94-18.13,4.11-26.54,6.44-6.32,1.74-15.13,6-24.18,14.22a70.61,70.61,0,0,0-14.08,18.05c-7.58,13.75-7.64,24.37-10.33,42.06-.91,6-3.74,18.07-9.4,42.26a445.16,445.16,0,0,1-24.41,71.38c-12.18,27.16-35.39,79-86.41,116.45-15.31,11.25-30.67,19.41-50.71,30.06-18.57,9.86-56.23,28.67-58.23,25.35-2.16-3.57,45-21.07,80.77-63.86C504.32,583.94,516,524.34,532.5,434.83,540.15,393.38,543.79,359,545.67,336.36Z"/></g></g></svg>