<?xml version="1.0" encoding="utf-8"?>
<!-- Svg Vector Icons : http://www.onlinewebfonts.com/icon -->
<!DOCTYPE svg PUBLIC "-//W3C//DTD SVG 1.1//EN" "http://www.w3.org/Graphics/SVG/1.1/DTD/svg11.dtd">
<svg version="1.1" xmlns="http://www.w3.org/2000/svg" xmlns:xlink="http://www.w3.org/1999/xlink" x="0px" y="0px" viewBox="0 0 256 256" enable-background="new 0 0 256 256" xml:space="preserve">
<metadata> Svg Vector Icons : http://www.onlinewebfonts.com/icon </metadata>
<g><g><g><path fill="#000000" d="M97.6,17.8v7.8l-2,0.9l-1.9,0.9l-5.6-5.6l-5.6-5.6l-16,16L50.4,48.3l5.6,5.6l5.6,5.6l-0.9,1.9l-0.9,2H52h-7.8v22.9v22.9l7.9,0.1l7.9,0.1l0.8,1.8l0.7,1.9l-5.6,5.6l-5.5,5.5l16.1,16.1l16.1,16l5.6-5.5l5.5-5.6l1.9,0.7l1.8,0.8l0.1,7.9l0.1,7.9h13.3h13.3v-3.8v-3.8h-9.5h-9.5l-0.1-6.8l-0.1-6.7l-2.6-0.9c-1.4-0.5-4.3-1.7-6.3-2.6l-3.7-1.8l-4.8,4.8l-4.7,4.7L72,134.6l-10.9-10.8l4.8-4.8l4.7-4.8l-1.8-3.7c-1-2-2.2-4.9-2.7-6.3l-0.9-2.6l-6.7-0.1l-6.8-0.1V86.2V71l6.8-0.1l6.7-0.1l0.9-2.6c0.5-1.4,1.7-4.3,2.7-6.3l1.8-3.7l-4.7-4.8l-4.8-4.8L72,37.8l10.8-10.9l4.8,4.8l4.8,4.7l3.7-1.8c2-1,4.9-2.2,6.3-2.7l2.6-0.9l0.1-6.7l0.1-6.8h9.5h9.5v-3.8V10h-13.3H97.6V17.8z"/><path fill="#000000" d="M142.8,10.7c-4.9,1-12.9,4.6-12.9,5.9c0,0.3,3.2,4.9,4,5.7c0.1,0.1,1.2-0.4,2.5-1.2c6.9-4.2,16.7-4.5,24.1-0.8c3.3,1.7,7.9,6.2,9.9,9.7l1.6,2.9h3.3c6.3,0,11.3,2,15.3,6c3.9,3.9,6,9.1,6,15c0,4.3-0.1,4.4-3.6,3.2c-3.9-1.4-11.2-1.5-15-0.2c-6.4,2.2-12.5,6.9-15.5,12c-1.9,3.1-3.4,7.6-3.8,10.9l-0.3,2.7h3.9h3.9v-1.6c0-2.6,1.8-7.5,3.6-9.9c3.9-5.2,9.8-7.9,16.7-7.4c3,0.2,4.7,0.5,6.6,1.5c3.9,1.9,7.6,5.5,9.4,9.2c1.5,3,1.6,3.5,1.6,8.2c0,4.4-0.1,5.3-1.2,7.6c-0.7,1.4-2.2,3.7-3.4,5l-2.1,2.4l0.9,2.1c4.3,9.6,2.4,22.3-4.6,30.3c-1.9,2.1-7.3,6.3-8.2,6.3c-0.2,0-0.3-1.2-0.1-2.7c0.3-3.4-0.7-9.1-2.2-13.2c-2.5-6.7-8.7-14.1-15-17.9c-3.6-2.1-9.8-4.2-13.8-4.6l-3.2-0.3v3.9v3.9h1.8c5.5,0,12.9,3.3,17.2,7.7c10.6,10.6,10,28.7-1.2,39c-8.5,7.8-22,8.9-32,2.5c-1.4-0.9-2.6-1.6-2.6-1.5c0,0.1-1,1.3-2.1,2.7c-1.1,1.4-2,2.8-1.8,3.1c0.5,1.1,5.8,4,10.4,5.6c4,1.4,5.1,1.6,10.2,1.6c4.7,0,6.4-0.1,9.3-1c9.1-2.8,16.7-9,21.3-17.3c1-1.8,1.7-2.3,3.4-3c3.3-1.2,7.9-4.1,11.3-7.2c5.3-4.8,9-11,10.9-18c1.1-4.2,1.1-12.9,0-17.2l-0.9-3.2l1.7-2.7c3.4-5.6,4.7-12.1,3.7-18.1c-0.7-4.3-3.5-10-6.3-13.2c-2.1-2.3-2.2-2.5-1.8-4c1-3.2,1-8.6,0.3-12.3c-1.2-5.8-3.6-10.1-8.1-14.6c-4.7-4.7-9-7-15.1-8.2c-3.7-0.7-4.1-0.9-5.1-2.4c-2.3-3.3-7.7-7.7-12.1-9.9C156.2,10.2,149.7,9.3,142.8,10.7z"/><path fill="#000000" d="M114,48.8c-4.3,0.8-9,2.6-12.4,4.6c-19,11.5-24.8,35.1-13,53c6.6,10,16.9,16.4,28.7,17.7l3.2,0.3v-3.9v-3.9h-1.8c-3.4,0-8.5-1.4-12.5-3.4c-18-8.9-21.9-34.4-7.4-48.8c5.1-5.2,13.3-8.8,19.9-8.8h1.8v-3.8v-3.8l-1.5,0C118.1,48.2,115.9,48.5,114,48.8z"/><path fill="#000000" d="M89,181.9c-2.3,0.7-5,2.4-6.5,4c-5.3,5.6-5,13.5,0.7,18.6l1.9,1.7l-1.2,2.3c-2.5,4.9-1.2,11.1,3.2,15.1l1.9,1.7l-1.2,2.3c-3.1,6.1-0.4,13.7,6.4,17.2l2.4,1.3h27.9h27.9l2.4-1.3c6.8-3.6,9.6-11.2,6.4-17.2l-1.2-2.3l1.9-1.7c4.4-4,5.7-10.2,3.2-15.1l-1.2-2.3l1.9-1.7c7.1-6.4,5.4-17-3.4-21.6l-2.1-1.1l-34.8-0.1C105.9,181.6,89.7,181.7,89,181.9z M160.7,190.7c1.4,1.4,1.6,1.9,1.6,4.1c0,2.2-0.2,2.7-1.6,4.1l-1.6,1.6h-34.9H89.4l-1.6-1.6c-1.4-1.4-1.6-1.9-1.6-4.1c0-2.2,0.2-2.7,1.6-4.1l1.6-1.6h34.9h34.9L160.7,190.7z M156.9,209.8c1.4,1.4,1.6,1.9,1.6,4.1c0,2.2-0.2,2.7-1.6,4.1l-1.6,1.6h-31.1H93.2l-1.6-1.6c-1.4-1.4-1.6-1.9-1.6-4.1c0-2.2,0.2-2.7,1.6-4.1l1.6-1.6h31.1h31.1L156.9,209.8z M153.2,228.9c1.6,1.6,1.7,1.8,1.5,4.3c-0.2,2.1-0.5,2.9-1.5,3.9l-1.2,1.3l-27.4,0.1L97,238.6l-1.6-1.6c-1.4-1.4-1.6-1.9-1.6-4.1s0.2-2.7,1.6-4.1l1.6-1.6h27.2h27.2L153.2,228.9z"/></g></g></g>
</svg>