<?xml version="1.0" encoding="utf-8"?>
<!-- Svg Vector Icons : http://www.onlinewebfonts.com/icon -->
<!DOCTYPE svg PUBLIC "-//W3C//DTD SVG 1.1//EN" "http://www.w3.org/Graphics/SVG/1.1/DTD/svg11.dtd">
<svg version="1.1" xmlns="http://www.w3.org/2000/svg" xmlns:xlink="http://www.w3.org/1999/xlink" x="0px" y="0px" viewBox="0 0 256 256" enable-background="new 0 0 256 256" xml:space="preserve">
<metadata> Svg Vector Icons : http://www.onlinewebfonts.com/icon </metadata>
<g><g><g><path fill="#000000" d="M127,13.4c-2.1,0.7-4.5,4.3-5.8,8.5c-0.3,0.9-1.1,5-1.8,9.1c-1.6,9.3-4.9,25.3-5.9,28.7c-1,3.3-3.3,5.8-10.1,11.2C94,78.4,93,79.9,93,86.9c0,2.4,0.2,4.6,0.5,4.7c0.3,0.1,5.3,1.1,11.2,2c14.1,2.3,12.9,1.9,12.9,3.6c0,1,0.2,1.5,0.7,1.5c0.4,0,0.9,0.5,1.2,1.1c0.6,1.5,1.6,2.3,3.8,3.1c1.7,0.6,1.9,0.9,2.9,3.7c0.6,1.8,1.4,3.2,1.7,3.2c0.3,0,1.1-1.4,1.7-3.2c0.9-2.9,1.2-3.2,3-3.8c2-0.7,3.7-2.3,3.7-3.5c0-0.4,0.4-0.7,1-0.7c0.8,0,1-0.3,1-1.5c0-1.7-1.2-1.4,13-3.7c5.9-0.9,10.9-1.9,11.2-2c0.2-0.1,0.4-2.3,0.4-4.8c0-6.9-1.4-9.1-10.4-15.9c-4.6-3.5-8.2-6.9-9.1-8.6c-1.2-2.4-4.9-19-7.1-32.4c-1.2-7.1-2-9.9-3.6-12.6C130.9,14.1,128.8,12.8,127,13.4z M130.7,31.4c1.9,0.9,2.3,1.4,3,3.5c1.2,3.6,0.8,4-2.7,2.6l-3-1.2l-2.5,1c-4.2,1.6-4.7,1.2-3.2-2.8c0.6-1.5,1.3-2.3,2.8-3.1C127.8,30.1,128,30.1,130.7,31.4z M130.2,76.1c0.3,0.6-1.3,24.1-1.8,24.8c-0.3,0.5-0.5,0.5-0.8,0c-0.5-0.8-2.2-24.2-1.8-24.8C126.2,75.5,129.8,75.5,130.2,76.1z"/><path fill="#000000" d="M47.2,60.7c-7.4,2-13.3,8.4-14.7,16.2c-0.3,1.9-0.5,17.4-0.5,47.5v44.7l-10.9,28.6C10.2,225.5,10,226.3,10,229.9c0,4.5,0.7,6.9,3,9.4c3.3,3.6-5.7,3.4,115,3.4c120.7,0,111.7,0.2,115-3.4c2.3-2.5,3.1-4.9,3-9.4c-0.1-3.6-0.2-4.1-11.2-31.6l-11.1-27.9l-0.1-47l-0.1-47l-1.1-2.8c-2.4-6-6.4-10.2-12-12.4c-2.6-1.1-3.1-1.1-31.4-1.2L150,59.8l1.2,1.3c0.7,0.7,3.5,3,6.3,5.2l5,3.8l21.6,0.1l21.7,0.1l2.4,1.5c1.6,1,2.8,2.2,3.5,3.6l1.1,2.2v44.1v44h-85h-85v-44.3V77.3l1.4-2.3c0.9-1.4,2.3-2.7,3.6-3.4c2.1-1.1,2.3-1.1,24-1.3l21.9-0.1l5-3.8c2.8-2.2,5.6-4.5,6.2-5.2l1.2-1.3l-28,0.1C54.9,59.9,49.4,60.1,47.2,60.7z M154.6,197.6c0.8,0.4,1.7,1.2,2,1.7c0.8,1.5,4.9,19.6,4.9,21.7c0,1.5-0.3,2.3-1.5,3.4l-1.5,1.5H128H97.5l-1.5-1.5c-2.1-2.1-2-3.4,0.7-13.8c3-11.5,3.1-11.7,4.9-12.8c1.4-0.9,2.8-0.9,26.6-0.9C149.5,196.9,153.4,197,154.6,197.6z"/><path fill="#000000" d="M97,99.2c-1.1,2.2-2.6,7.7-3.3,12.2c-1.4,9.7-0.6,20.8,2.1,28.9c1.7,5.2,2.6,5.5,4.1,1.6c4.3-11.5,4.1-30.5-0.3-41.6C98.8,98.2,97.7,97.8,97,99.2z"/><path fill="#000000" d="M156.1,101.1c-2.7,7.1-3.8,17.3-3,26.2c0.6,6.5,1.4,10.4,3,14.6c1.5,3.9,2.4,3.6,4.1-1.6c3.7-11.2,3.6-27.6-0.3-38.7C158.4,97.5,157.5,97.4,156.1,101.1z"/><path fill="#000000" d="M126.7,118.1c-1.9,3.7-3.3,10.8-3.5,18.8c-0.3,9.2,0.3,14.8,2.4,21.4c1.1,3.6,1.6,4.6,2.4,4.6c1.1,0,3.1-5.6,4.2-12.3c1.2-7,0.7-19.7-0.9-26.2c-1.3-5-2.5-7.8-3.3-7.8C127.8,116.6,127.2,117.3,126.7,118.1z"/></g></g></g>
</svg>