<svg height="1994" overflow="hidden" width="2281" xmlns="http://www.w3.org/2000/svg" xmlns:xlink="http://www.w3.org/1999/xlink"><clipPath id="a"><path d="m1080 340h2281v1994h-2281z"/></clipPath><g clip-path="url(#a)" transform="translate(-1080 -340)"><path d="m2688.42 2006.62c44.71-6.96 382.2-65.02 565.31-386.54 25.07-44.03 193.95-351.74 49.49-680.283-15.69-35.716-117.58-258.229-357.78-361.119-308.61-132.221-680.48 3.96-867.17 192.811-54.44 55.121-70.97 92.099-137.43 127.543-158.69 84.772-276.97-12.821-482.52 34.973-43.01 10.024-187.54 43.661-284.12 162.615-132.53 163.36-117.74 448.96-2.33 629.79 174.35 273.08 586.4 284.99 1028.93 300.63a3184.09 3184.09 0 0 0 487.62-20.3z" fill="#dae3fe" fill-rule="evenodd"/><path d="m1341 2002.5c0 24.57 310.48 44.5 693.52 44.5 383.05 0 693.48-19.88 693.48-44.5s-310.48-44.5-693.52-44.5c-383.05 0-693.48 19.93-693.48 44.5zm423 126.99c0 15.19-78.8 27.51-176 27.51s-176-12.27-176-27.51 78.8-27.49 176-27.49 176 12.3 176 27.49zm1467-66.49c0 12.15-132.3 22-295.5 22s-295.5-9.85-295.5-22 132.3-22 295.5-22 295.5 9.85 295.5 22z" fill="#cdccff" fill-rule="evenodd"/><path d="m1410.3 1698.3-11.3 158.7h151l-10.41-159z" fill="#fcb900" fill-rule="evenodd"/><path d="m1440 1712.51c.27-2.63 2.46-4.58 4.99-4.45 2.34-.41 4.56 1.24 4.95 3.69s-1.18 4.78-3.52 5.19c-.48.08-.96.08-1.43 0-2.52.13-4.7-1.8-4.99-4.43zm5.01-2.75c-1.45-.41-2.94.49-3.34 2.01-.39 1.51.46 3.08 1.91 3.49.47.14.97.14 1.43 0 1.45.42 2.95-.48 3.34-2 .4-1.52-.46-3.08-1.91-3.5a2.67 2.67 0 0 0 -1.43 0zm46.99 2.75c.01-1.09.43-2.14 1.17-2.91 1.03-1.04 2.4-1.62 3.83-1.59 2.51-.15 4.7 1.8 5 4.45-.01 1.27-.56 2.48-1.5 3.27-.99.83-2.21 1.28-3.48 1.26-2.52.17-4.73-1.8-5.02-4.48zm5-2.81c-1-.01-1.97.39-2.69 1.12-.42.44-.66 1.04-.69 1.67.23 1.74 1.73 2.97 3.38 2.78.86-.01 1.7-.32 2.38-.89.56-.45.9-1.15.93-1.89-.25-1.75-1.75-2.98-3.41-2.79z" fill="#eae6ff" fill-rule="evenodd"/><path d="m1469.43 1744h1.5c9.58-.31 16.9-3.29 21.73-8.89 8-9.25 6.2-22.15 6.1-22.71-.11-.88-.94-1.5-1.84-1.39-.02 0-.04.01-.06.01-.93.14-1.57.96-1.45 1.86 0 0 1.67 12.11-5.35 20.15-4.2 4.84-10.68 7.41-19.25 7.7-8.58.29-14.5-1.86-18.61-6.29-7.5-8.07-5.65-21.31-5.62-21.46.04-.91-.69-1.67-1.63-1.71-.81-.04-1.53.49-1.72 1.25 0 .61-2.1 14.87 6.42 24.09 4.58 4.9 11.21 7.39 19.78 7.39z" fill="#eae6ff" fill-rule="evenodd"/><path d="m1481.17 1743.32-18.17 117.68 165-.37-16.7-117.63z" fill="#d50b7e" fill-rule="evenodd"/><path d="m1420.53 1942c-18.51-.01-33.52 14.97-33.53 33.48-.01 18.5 14.97 33.51 33.48 33.52 18.5.01 33.51-14.97 33.52-33.48v-.04c-.01-18.49-14.99-33.47-33.47-33.48zm0 49.02c-8.59-.03-15.53-7.01-15.5-15.59.03-8.59 7.01-15.53 15.59-15.5 8.57.03 15.5 6.98 15.5 15.55.02 8.57-6.92 15.53-15.5 15.54z" fill="#8784ef" fill-rule="evenodd"/><path d="m1414.52 1942c-18.5-.01-33.51 14.97-33.52 33.48-.02 18.5 14.97 33.51 33.48 33.52 18.5.01 33.51-14.97 33.52-33.48v-.04c-.01-18.49-14.99-33.47-33.48-33.48zm0 49.02c-8.58-.04-15.51-7.03-15.47-15.62.05-8.58 7.04-15.51 15.62-15.47 8.56.04 15.48 6.99 15.48 15.55.01 8.57-6.93 15.53-15.5 15.54z" fill="#9aa3f4" fill-rule="evenodd"/><path d="m1608.53 1942c-18.51-.01-33.51 14.97-33.53 33.48-.01 18.5 14.97 33.51 33.48 33.52 18.5.01 33.51-14.97 33.52-33.48v-.04c0-18.49-14.99-33.48-33.47-33.48zm0 49.02c-8.59-.04-15.52-7.03-15.48-15.62.05-8.58 7.04-15.51 15.62-15.47 8.56.04 15.48 6.99 15.48 15.55.01 8.57-6.93 15.53-15.5 15.54z" fill="#8784ef" fill-rule="evenodd"/><path d="m1603.5 1942c-18.5 0-33.5 15-33.5 33.5s15 33.5 33.5 33.5 33.5-15 33.5-33.5v-.02c-.01-18.5-15.01-33.48-33.5-33.48zm0 49.02c-8.58-.04-15.51-7.03-15.47-15.62.04-8.58 7.03-15.51 15.62-15.47 8.56.04 15.47 6.99 15.47 15.55 0 8.58-6.96 15.54-15.55 15.54z" fill="#9aa3f4" fill-rule="evenodd"/><path d="m1861 1568h-100.39c-10.55 0-20.36 5.41-25.94 14.31l-60.67 96.69" fill="none" stroke="#9aa3f4" stroke-miterlimit="8" stroke-width="3.712"/><path d="m1404.47 1858h224.06c11.93.01 22.09-8.65 23.97-20.42l23.19-144.47c2.12-13.24-6.9-25.69-20.16-27.81-1.26-.2-2.54-.3-3.82-.3h-270.43c-13.42.01-24.29 10.89-24.28 24.29 0 1.28.1 2.56.3 3.82l23.19 144.47c1.89 11.77 12.05 20.43 23.98 20.42zm111.53-193v193m149-96h-297m237-97-19 193m-154-193 18 193" fill="none" stroke="#9aa3f4" stroke-miterlimit="8" stroke-width="3.712"/><path d="m1646.96 1849 36.27 54.34c6.82 10.18 4.14 24-5.98 30.87a22.066 22.066 0 0 1 -12.36 3.79h-296.89" fill="none" stroke="#9aa3f4" stroke-miterlimit="8" stroke-width="3.712"/><g fill-rule="evenodd"><path d="m2120 1875h308v83h-308z" fill="#4a41a3"/><path d="m2784.77 1135h23.23v767h-1065v-767h23.23z" fill="#2f287b"/><path d="m2760.72 1163h14.28v666h-1003v-666h14.28z" fill="#525ebf"/><path d="m2006.2 1951h535.67c10.02 0 18.13 8.09 18.13 18.07v33.93h-572v-33.93c0-9.98 8.11-18.07 18.13-18.07z" fill="#2f287b"/><path d="m2683.25 1209h30.75v472h-702v-472h30.75z" fill="#fff"/><path d="m2079 1554h30v77h-30z" fill="#fca70c"/><path d="m2147 1487h31v144h-31z" fill="#b1affd"/><path d="m2216 1501h31v130h-31z" fill="#fca70c"/><path d="m2285 1429h31v202h-31z" fill="#b1affd"/><path d="m2147 1487h14v144h-14zm-68 67h14v77h-14zm206-125h14v202h-14zm-69 72h14v130h-14z" fill-opacity=".259"/><path d="m2332 1652h-274v-292h4.19v287.83h269.81z" fill="#d5dbda"/><path d="m2086.79 1518-2.79-3.12 71.33-64.31 66.06 14.42 71.53-79.99 3.08 2.8-73.13 81.77-66.35-14.47z" fill="#d5dbda"/><path d="m2302.14 1400-20.14-19.86 26-7.14z" fill="#d5dbda"/><path d="m2358 1548h21v21h-21z" fill="#b1affd"/><path d="m2358 1585h21v21h-21z" fill="#fca70c"/><path d="m2385 1594h66v12h-66zm0-36h66v11h-66z" fill="#efefef"/><path d="m2481 1548h21v21h-21z" fill="#b1affd"/><path d="m2481 1585h21v21h-21z" fill="#fca70c"/><path d="m2508 1594h67v12h-67zm0-36h67v11h-67z" fill="#efefef"/><path d="m2592 1548h21v21h-21z" fill="#b1affd"/><path d="m2592 1585h21v21h-21z" fill="#fca70c"/><path d="m2619 1594h44v12h-44zm0-36h44v11h-44zm-257-210h301v5h-301zm-304-67h605v12h-605zm303 84h302v5h-302zm0-34h302v5h-302zm0 51h302v5h-302zm0 17h302v5h-302zm0 17h302v6h-302zm0 17h302v6h-302zm0 17h302v6h-302zm0 17h302v6h-302zm37 17h265v6h-265z" fill="#efefef"/><path d="m2683.25 1209h-640.5c-16.98 0-30.75 13.85-30.75 30.93v27.07h702v-27.07c0-17.08-13.77-30.93-30.75-30.93z" fill="#7a7ae5"/><path d="m2623 1239c0 4.97-3.81 9-8.5 9s-8.5-4.03-8.5-9 3.81-9 8.5-9 8.5 4.03 8.5 9zm36 0c0 4.97-3.81 9-8.5 9s-8.5-4.03-8.5-9 3.81-9 8.5-9 8.5 4.03 8.5 9zm37 0a9 9 0 1 1 -18.001-.001 9 9 0 0 1 18.001.001z" fill="#cfcfff"/><path d="m2496.29 1314h30.71v471h-701v-471h30.71z" fill="#c4c3fc" fill-opacity=".549"/><path d="m2510.29 1295h30.71v472h-701v-472h30.71z" fill="#fff"/><path d="m1906 1640h31v77h-31z" fill="#fca70c"/><path d="m1975 1573h31v144h-31z" fill="#b1affd"/><path d="m2044 1587h31v130h-31z" fill="#fca70c"/><path d="m2113 1514h31v203h-31z" fill="#b1affd"/><path d="m1975 1573h14v144h-14zm-69 67h14v77h-14zm207-126h14v203h-14zm-69 73h14v130h-14z" fill-opacity=".259"/><path d="m2160 1738h-274v-266h4.19v261.81h269.81z" fill="#d5dbda"/><path d="m1914.76 1604-2.76-3.12 71.32-64.32 66.06 14.42 71.54-79.98 3.08 2.77-73.14 81.79-66.36-14.47z" fill="#d5dbda"/><path d="m2130.14 1486-20.14-19.86 26-7.14z" fill="#d5dbda"/><path d="m2186 1634h21v21h-21z" fill="#b1affd"/><path d="m2186 1671h21v21h-21z" fill="#fca70c"/><path d="m2212 1680h67v12h-67zm0-37h67v12h-67z" fill="#efefef"/><path d="m2309 1634h21v21h-21z" fill="#b1affd"/><path d="m2309 1671h21v21h-21z" fill="#fca70c"/><path d="m2336 1680h66v12h-66zm0-37h66v12h-66z" fill="#efefef"/><path d="m2420 1634h21v21h-21z" fill="#b1affd"/><path d="m2420 1671h21v21h-21z" fill="#fca70c"/><path d="m2447 1680h44v12h-44zm0-37h44v12h-44zm-257-209h301v5h-301zm-304-67h605v12h-605zm303 84h302v5h-302zm0-34h302v5h-302zm0 51h302v5h-302zm0 17h302v5h-302zm0 17h302v5h-302zm0 17h302v6h-302zm0 17h302v6h-302zm0 17h302v6h-302zm37 17h265v6h-265z" fill="#efefef"/><path d="m2511.13 1295h-640.38c-16.98 0-30.75 13.85-30.75 30.93v27.07h702v-27.07c0-17.08-13.77-30.93-30.75-30.93z" fill="#d50b7e"/><path d="m2451 1324.98c.01 4.97-4 9.01-8.97 9.02-4.98.01-9.02-4-9.03-8.97-.01-4.98 4-9.02 8.98-9.03h.02c4.96 0 8.98 4.01 9 8.98zm36 .02c0 4.97-3.81 9-8.5 9s-8.5-4.03-8.5-9 3.81-9 8.5-9 8.5 4.03 8.5 9zm36 0c0 4.97-3.81 9-8.5 9s-8.5-4.03-8.5-9 3.81-9 8.5-9 8.5 4.03 8.5 9z" fill="#cfcfff"/><path d="m2808 1545.08-15.76 1.24-.3-.89-12.31.94-3.69-10.46c-2.53-6.26-8.73-10.23-15.44-9.89-4.67-.02-8.47 3.76-8.49 8.45 0 1.13.22 2.25.65 3.29l3.67 10.36-12.9 1.02.3.89-26.5 2.08c-4.19 0-10.39 5.46-9.04 9.24l.22.57c-.02.33-.02.66 0 .99l22.98 65.05-.57 274.04h26.65l50.43-196.84zm-41.42-2.02a8.887 8.887 0 0 1 -8.67-5.52c-1.02-2.41.1-5.2 2.5-6.22.6-.26 1.24-.38 1.88-.38a8.893 8.893 0 0 1 8.67 5.51c1.02 2.42-.1 5.2-2.5 6.23-.6.25-1.24.38-1.88.38z" fill="#5851bc" fill-opacity=".349"/><path d="m3157.77 1590h17.23v479h-415v-479h17.23z" fill="#a2a7f4"/><path d="m3144.62 1640h4.38v98h-350v-98h4.38zm-260 133h4.38v63h-90v-63h4.38zm130 0h4.38v63h-90v-63h4.38zm130 0h4.38v63h-90v-63h4.38zm-260 101h4.38v62h-90v-62h4.38zm130 0h4.38v62h-90v-62h4.38zm-130 100h4.38v63h-90v-63h4.38zm130 0h4.38v63h-90v-63h4.38zm130-100h4.38v163h-90v-163h4.38z" fill="#9090f4"/><path d="m2792 1644.81c.01-5.97 4.89-10.81 10.91-10.81h329.18c6.02 0 10.9 4.84 10.91 10.81v76.35c0 5.99-4.88 10.84-10.91 10.84h-329.18m74.71 35h4.38v62h-90v-62h4.38zm130 0h4.38v62h-90v-62h4.38zm131 0h4.38v62h-90v-62h4.38zm-261 100h4.38v63h-90v-63h4.38zm130 0h4.38v63h-90v-63h4.38zm-130 101h4.38v62h-90v-62h4.38zm130 0h4.38v62h-90v-62h4.38z" fill="#e2deff"/><path d="m3138.62 1867h4.38v163h-90v-163h4.38z" fill="#fcb900"/><path d="m3059.29 2026.17v-141.83c0-6.03 4.85-10.92 10.83-10.92h68.11c1.29 0 2.57.25 3.77.72-1.56-4.28-5.59-7.13-10.11-7.14h-68.04c-5.99 0-10.85 4.9-10.85 10.95v141.82c.01 4.57 2.84 8.64 7.08 10.23-.49-1.22-.76-2.52-.79-3.83z" fill="#f9c110"/><path d="m1832.69 1807.37-21.69 224.58 213 .05-20.6-225z" fill="#d50b7e"/><path d="m1870 1828.03c.34-4.16 3.9-7.25 7.98-6.93 3.73-.65 7.28 1.9 7.92 5.72.64 3.81-1.86 7.43-5.6 8.08-.77.13-1.56.13-2.32 0-4.06.32-7.61-2.74-7.98-6.87zm7.98-4.3c-2.32-.63-4.69.76-5.31 3.12-.63 2.36.74 4.79 3.05 5.42.74.2 1.52.2 2.26 0 2.31.64 4.69-.76 5.31-3.12s-.75-4.79-3.06-5.42c-.74-.2-1.52-.2-2.25 0zm71.02 4.31c.02-1.69.7-3.3 1.89-4.47a8.436 8.436 0 0 1 6.1-2.55c4.07-.32 7.64 2.76 8.01 6.92-.01 2-.93 3.88-2.49 5.08-1.58 1.3-3.55 2-5.57 1.96-4.06.28-7.58-2.8-7.94-6.94zm8.01-4.22c-1.59-.04-3.14.56-4.3 1.68-.68.67-1.08 1.58-1.12 2.54.41 2.68 2.81 4.56 5.45 4.27a6.13 6.13 0 0 0 3.93-1.35c.91-.69 1.46-1.78 1.49-2.94-.41-2.67-2.79-4.55-5.42-4.28z" fill="#5851bc"/><path d="m1915.16 1877h2.27c14.53-.46 25.63-5.1 32.97-13.73 12.14-14.3 9.37-34.16 9.24-35.09-.14-1.33-1.36-2.31-2.71-2.17l-.18.03c-1.36.13-2.35 1.32-2.22 2.66 0 .06.01.13.02.19 0 .2 2.47 18.62-8.13 31.16-6.35 7.46-16.16 11.46-29.16 11.9-12.61.37-22-2.88-28.25-9.76-11.32-12.46-8.53-32.93-8.51-33.15.2-1.39-.78-2.67-2.18-2.87-1.41-.19-2.71.77-2.91 2.16-.15.93-3.19 22.98 9.77 37.23 6.92 7.68 17 11.44 29.98 11.44z" fill="#fcb900"/><path d="m1623.52 1376.98c8.27 14.18 1.15 33.58 9.46 47.74 3.33 5.66 8.99 10.11 10.58 16.46 1.95 7.69-2.74 15.49-10.46 17.43a14.5 14.5 0 0 1 -10.3-1.24c-1.01-.63-2.08-1.16-3.2-1.58-4.12-1.19-7.84 2.47-11.39 4.94a17.481 17.481 0 0 1 -14.9 2.62c-6.38-2.13-10.35-8.55-12.41-14.83-5.96-17.82-1.74-37.31 3.77-55.28 2.76-8.95 6.8-18.9 15.64-22.24" fill="#5045af"/><path d="m1814.38 1528.12c.12 1.98 3.14 3.68 1.14 7.82-4.46 9.26-18.4 22.07-35.06 16.17-.72.27-92.03 52.89-99.04 52.89-7 0-54.94-45.21-70.61-101.19-3.74-13.35-2.3-29.05 10.25-35.81 0 0 10.45 2.47 17.33 15.3 10.4 19.52 41.47 84.21 48.38 86.65 8.57-5.7 50.39-18.09 84.18-32.43 7.55-3.28 10.45-6.04 13.12-10.93 2.68-4.89 8.79-16.46 14.07-21.87 1.83-1.85 21.86-12.53 21.86-9.03 0 2.05-5.87 7.41-13.54 12.34a18.354 18.354 0 0 0 -6.54 9.06c-1.29 2.47 14.36-2.15 15.67 3.26.15.74-1.28 6.73-1.21 7.77z" fill="#ffb9b0"/><path d="m1617.43 1466c11.79 2.73 21.8 10.49 27.35 21.23a82.78 82.78 0 0 1 3.73 8.53c4.98 12.42 11.62 23.64 16.49 36.05-6.64 5.36-14.62 7.84-21.51 10.33a46.105 46.105 0 0 1 -20.09 2.68c-1.16-.05-2.31-.3-3.38-.75-1.37-.74-2.56-1.76-3.51-3-2.09-2.48-4.12-4.97-6.11-7.45a19.918 19.918 0 0 1 -4.08-7.02c-.64-3.66-.31-7.41.94-10.9" fill="#ef15b1"/><path d="m1629.66 1499.45c-.42-.57-.96-1.03-1.59-1.36-1.33-.34-2.72.27-3.36 1.48a7.48 7.48 0 0 0 -.68 3.87c.05 5.1.85 10.17 2.38 15.04l-1.6 26.43c6.49.4 12.99-.54 19.1-2.76 2.88-1.07 5.98-2.15 9.09-3.43-3.16-14.92-13.39-27.54-23.34-39.27z" fill="#7762ef"/><path d="m1589.12 1439.98s-.35 16.52 2.17 17.52c3.42 1.4 6.94 2.51 10.54 3.31l.17 34.19-45.02-6.88-30.98-17.53s32.14-10.81 32.49-14.06c.34-3.26-1.78-21.53-1.78-21.53m-36.47 494.25c-12.42 58.39-6.48 138.6-9.24 182.55.65.2 16.82 2.2 16.82 2.2s38.25-185.27 45.2-220.74c.46-2.27.76-4.56.9-6.87 1.66-26.7-22.53-28.06-36.14-6.01a93.8 93.8 0 0 0 -6.24 11.92c-.77 1.75-1.49 3.51-2.23 5.38-2.36 6.1-4.36 12.32-6.01 18.64l-.15.67c-.55 1.88-1.02 3.78-1.47 5.66v.45c-.59 2.15-1.02 4.12-1.44 6.15z" fill="#ffb9b0"/><path d="m1592.23 1719.34c-.44 4.96-3.05 27.94-6.14 55.17-2.66 22.88-5.56 48.69-7.81 69.12-1.69 15.34-2.9 27.55-3.42 33.31-.23 3.33-.69 6.65-1.37 9.92-5.79 26.78-24.28 28.32-35.51 22.12-1.52-.81-2.95-1.79-4.26-2.9a14.627 14.627 0 0 1 -4.79-7.9c-.69-5.48-1.41-12.98-2.06-21.91v-.33c-1.36-17.37-2.47-39.71-3.56-61.57-1.22-26.78-1.99-52.57-2.19-67.01 0-.85 0-1.64-.12-2.48-.2-44.68 40.75-73.2 66.18-59.37.31.13.62.28.91.45.31.22.63.42.97.59 2.9 1.94 3.87 8.59 3.94 16.23 0 5.44-.4 11.52-.77 16.56z" fill="#ffb9b0"/><path d="m1529.76 1887.58-3.12-11.58c-.02.05-.02.1 0 .15.21 13.57-1.06 27.13-3.78 40.42l-.15.66c-.43 1.85-.89 3.79-1.43 5.63v.45a30.63 30.63 0 0 0 -1.28 5.92c0 5.26 10.97-18.04 13.49-23.5l.51-1.11-2.98-12.15zm88.29 52.64c-1.16 61.28 17.62 133.3 22.59 177.78.62 0 15.35-1.98 15.35-1.98s2.81-187.66 3.01-224.74c.02-2.35-.1-4.71-.37-7.05-3.03-27.02-24.78-22.29-33.2 2.97a106.84 106.84 0 0 0 -3.54 13.42c-.39 1.93-.74 3.86-1.08 5.92-1.08 6.65-1.81 13.34-2.19 20.06v.72c-.2 2.01-.27 4.01-.37 6.02v.44c-.13 2.26-.15 4.34-.2 6.44z" fill="#ffb9b0"/><path d="m1630.64 1915.18c-1.53-.42-2.98-1.05-4.33-1.88a12.39 12.39 0 0 1 -5.65-6.63c-1.62-5.27-3.54-12.61-5.68-21.3a.12.12 0 0 1 0-.14v-.23c-4.26-16.94-9.25-38.9-13.78-60.15-5.66-26.21-10.79-51.61-13.43-66.03-.2-.8-2.49-11.28-2.64-12.05-7.9-44.69 27.23-73.8 52.74-65.29l1 .34c5.13 2.06 6.55 19.96 7.69 32.16 1.15 12.19 9.82 137.58 11.99 160.26.33 3.38.48 6.78.44 10.17-.59 27.95-17.06 34.11-28.35 30.77z" fill="#ffb9b0"/><path d="m1619.96 1895.88-4.96-10.88v.12c2.62 13.74 3.82 27.7 3.57 41.67v.72c0 1.94-.18 4.03-.38 6.04v.45c-.25 2.09-.31 4.2-.18 6.3.9 5.3 7.27-20.98 8.71-27.1l.28-1.25-4.99-11.45z" fill="#ffb9b0"/><path d="m1542.67 1633.12s-32.81 41.66-29.43 83.54c1.39 17.44 3.57 32.78 5.54 50.32.28 2.47 4.21 39.36 3.12 39.38 0 0 67.55 20.91 132.83-6.45 0-4.48 5.22-90.17-30.04-171.91-27.18 3.69-54.59 5.4-82.02 5.12z" fill="#5146af"/><path d="m1644.99 1537.53c-.24 11.95-6.61 19.22-15.72 29.26-1.17 1.81-3.99 28.43-4.95 46.11-.5 9.21 3.44 14.99 0 15.74-13.13 11.45-60.43 20.7-82.15 5.09 2.28-19.24-6.34-61.62-12.16-83.19-.92-3.32-1.71-6.11-2.48-8.26-5.42-16.38-15.2-68.87-7.95-71.17 1.44-.45 3.69-1.04 6.27-1.83 11.34-3.42 28.11-9.28 28.11-9.28s9.9 29.04 35.39 32.55c13.96-5.73 12.73-23.37 12.55-31.46 4.56 1.26 6.59 2.47 20.73 6.68 3.96 5.71.52 17.64 6.94 35.4 1.61 4.38 15.75 19.84 15.42 34.36z" fill="#ef15b1"/><path d="m1621.42 1373.02s2.46 31.71-2.77 48.34c-3.97 12.3-20.19 23.79-33.78 23.64-37.36 0-44.16-51.43-43.86-53.91.29-2.49 55.1-24.09 55.1-24.09z" fill="#ffb9b0"/><path d="m1693.22 2136.38c-13.29 2.52-27.52-1.38-33.33-.35-4.9.86-17.16 4.08-21.82-.2s-3.88-19.34 1.44-21.35a19 19 0 0 0 3.46.85c5.27.74 10.64.28 15.72-1.33 10.13 4.28 10.5 6.14 22.07 8.54 5.04 1 9.97 2.53 14.72 4.55 4.83 2.34 5.24 7.91-2.26 9.29zm-144.54 5.42c-13.54-2.25-22.12-9.58-28.03-10.61-4.98-.86-17.22-3.2-18.5-8.14-.97-3.69 2.75-19 8.51-19.05.94.74 1.95 1.39 3.01 1.96a37.87 37.87 0 0 0 15.51 4.08c8.25 7.33 8 9.14 18.2 15.21 4.46 2.61 8.64 5.66 12.46 9.12 4.09 3.79-3.39 8.68-11.16 7.43z" fill="#5045af"/><path d="m1353 1514.69 12.34-14.71 75.12 67.4s36.67-48.98 46.89-64.38c11.08-16.82 21.07-31.2 37.31-34 3.72 2.3-1.29 62.72-3.23 64.18-22.66 17.02-66.76 71.81-80.77 74.74-16.37 3.34-87.66-93.23-87.66-93.23z" fill="#ffb9b0"/><path d="m1530.31 1467s-15.41.2-22.05 5.62c-6.63 5.41-38.26 55.29-38.26 55.29.01 6.7 3.07 13.04 8.32 17.24a46.504 46.504 0 0 0 22.79 9.85s15.9-15.74 24.76-22.88c5.57-4.46 6.14 6.58 6.14 6.58l27.99-27.1z" fill="#ef15b1"/><path d="m1521.11 1466.89c-.84-.45-1.66-.92-2.48-1.39-4.32-2.6-8.31-5.3-10.12-10.23-2.63-7.06-3.9-17.94-.23-24.78 2.49-4.66 7.18-7.7 10.38-11.89 4.44-5.8 5.75-13.35 6.13-20.64.37-7.28 0-14.64 1.46-21.77 2.63-12.17 6.11-23.76 15.49-31.62 15.06-12.56 45.26-20.01 61.66-5.99 2.98 2.48 3.58 4.58 7.6 4.95 4.85.19 9.58 1.57 13.77 4.02 5.39 3.12 11.94 7.43 11.17 14.54a25.178 25.178 0 0 1 -10.28 14.86c-1.79.89-3.77 1.33-5.78 1.29-6.4.13-11.71-4.04-17.99-3.37-3.1.38-5.93 1.96-7.89 4.39-2.26 2.77-1.96 6.66-4.59 9.26-4.25 4.19-10.82 3.84-15.83 6.57-.87.38-1.62.99-2.16 1.76a5.6 5.6 0 0 0 -.55 2.7l-.3 7.93c-2.48-1.12-2.75-4.66-4.81-6.42a5.692 5.692 0 0 0 -7.2.45c-1.88 1.85-3.1 4.27-3.47 6.88-.29 3.25.23 6.52 1.51 9.52 1.64 5.37 6.25 10.23 9.93 6.66 2.7 3.99-.25 10.6-.35 15.11 0 3.57 0 10.63 3.33 12.96 3.32 2.33 7.94.52 8.11 6.07.17 4.95-4.96 9.04-9.93 9.66-4.96.62-10.05-1.14-14.89-2.48-4.83-1.33-10.2-2.47-14.89-.71-2.87 1.11-5.36 3.27-8.41 3.76-2.95.28-5.9-.44-8.39-2.05z" fill="#5045af"/><path d="m1384 1517.43s-17.6-14.36-18.81-18.29c-1.2-3.94-1.45-8.15-2.9-12-2.27-5.67-6.71-10.14-12.29-12.38-4.43-1.85-2.27-3.38-6.99-2.51-7.13 1.41-10.49 8.52-13.35 14.08-12.14 23.73 21.12 28.21 22.3 28.26 2.46 0 14.76 14.41 14.76 14.41" fill="#ffb9b0"/><path d="m1328.46 1506.21 12.14 8.22c1.54 1.04 3.61.62 4.64-.94.03-.04.06-.09.09-.14l26.67-45.23-15.76-9.12-28.65 42.49a3.413 3.413 0 0 0 .86 4.71c0 .01.01.01.01.01z" fill="#8484ef"/><path d="m1285.14 1411.22 4.2 2.78 16.66-24.2-4.13-2.8c-5.86-4-14.34-1.81-18.93 4.87-4.67 6.78-3.66 15.35 2.2 19.35z" fill="#c4c4f7"/><path d="m1270 1441.18 77.32 11.82 17.68-25.93-39.03-68.07z" fill="#c4c4f7"/><path d="m1274 1442.22 72.9 10.78 7.1-10.35-61.35-27.65z" fill="#bbbbf2"/><path d="m1378.79 1471.7c4.82 2.64 10.98 1.13 13.85-3.4l3.25-4.53c3.37-4.18 2.63-10.15-1.67-13.47-4.82-2.64-10.97-1.13-13.84 3.4l-3.28 4.53c-3.36 4.18-2.61 10.16 1.69 13.47z" fill="#c4c4f7"/><path d="m1380.48 1452.99-3.11 4.61c-3.38 3.76-3.11 9.58.6 13a9.022 9.022 0 0 0 12.85-.61c.57-.63 1.05-1.35 1.43-2.12l3.11-4.61c.25-.34.46-.69.64-1.07-2.43 4.36-7.89 5.89-12.19 3.43-4.3-2.45-5.82-7.98-3.39-12.33.25-.45.54-.89.87-1.29a9.7 9.7 0 0 0 -.81.99z" fill="#bbbbf2"/><path d="m1267.17 1443.23c2.72 1.58 6.2.66 7.8-2.05l52.82-77.36a5.775 5.775 0 0 0 -.96-8.05c-2.72-1.58-6.19-.66-7.8 2.05l-52.74 77.26c-2 2.46-1.63 6.09.81 8.09.03.02.05.04.07.06z" fill="#a4a4f7"/><path d="m1328.2 1357-43.83 65.23c-1.62 2.75-5.09 3.68-7.82 2.08-.55-.4-1-.91-1.35-1.5l-8.82 13.09c-1.98 2.23-1.81 5.67.38 7.69a5.263 5.263 0 0 0 7.54-.38c.33-.37.61-.79.83-1.24l52.73-78.32a6.246 6.246 0 0 0 .34-6.65z" fill="#8484ef"/><path d="m1353.68 1466.11 5.06 3.38c7.59 5.03 18.54 2.26 24.49-6.13l5.06-7.21c5.94-8.42 4.6-19.28-2.96-24.29l-5.06-3.41c-7.59-4.9-18.54-2.25-24.49 6.16l-5.06 7.21c-5.94 8.42-4.63 19.28 2.96 24.29z" fill="#a4a4f7"/><path d="m1351.51 1442-7.34 10.79a5.475 5.475 0 0 0 .9 7.67l23.09 15.79a5.5 5.5 0 0 0 7.5-1.94l7.34-10.78a5.538 5.538 0 0 1 -7.51 1.93l-23.08-15.79c-2.35-1.87-2.75-5.3-.9-7.67z" fill="#8484ef"/><path d="m1331.33 1494.39c-1.06-6.32.46-12.8 4.2-18 1.31-1.65 2.75-3.19 4.3-4.61.7-.78 1.6-1.37 2.59-1.71a8.25 8.25 0 0 1 5.6 1.27c1.99.97 3.61 2.58 4.59 4.56 1.3 3.12-.88 5.73-3.37 7.32-.26.14-.47.35-.61.61-.15.41.15.95.42 1.41a10.27 10.27 0 0 1 1.78 5.98 3.49 3.49 0 0 1 -4.11 3.07c-.9-.15-2.12-.49-2.44.2-.06.25-.06.52 0 .78.28 1.8-.22 3.63-1.37 5.04-.27.36-.68.61-1.12.69-.4.02-.8-.03-1.18-.15-1.44-.42-2.81-1.03-4.08-1.83" fill="#ffb9b0"/><path d="m1365 1499.88c-.63-3.14-1.09-6.31-1.39-9.5-.14-7.3-3.8-14.03-9.72-17.9-.45-.35-1.01-.52-1.58-.47-.71.19-1.22.82-1.3 1.58-.05.75.06 1.5.31 2.2.71 2.25 3.76 6.48 2.81 8.81a26.92 26.92 0 0 0 -2.36 11.03c0 3.36 1.6 8.83 5.41 9.37" fill="#ffb9b0"/></g><path d="m1275 1322 16 37m-48-5 32 24m-53 21 40 4" style="stroke:#c4c4f7;stroke-width:1.856;stroke-linecap:round;stroke-linejoin:round;stroke-miterlimit:10;fill:none"/><path d="m2497 936.937s-14.32-10.081-14.89-14.342c-.57-4.26-10.5-21.426-13.7-24.769-3.2-3.345-20-9.215-23.6-9.735s-24.15 1.238-21.59 4.037 15.88 1.784 18.44 3.319l2.48 1.511s-2.48 3.468-1.54 5.574c.94 2.105-4.39 5.325-2.33 8.917s-.85 3.319.99 7.059c3.03 6.168 10.77 9.586 12.83 7.902 1.54 3.666 7.45 11.097 12.93 10.601 5.49-.495 18.89 11.989 18.89 11.989m229.15-84c.49 9.618-.19 26.375 2.45 28.854s11.49 2.082 11.49 2.082-31.35 40.183-34.24 37.976c-2.88-2.205-39.86-32.82-31.54-34.406 8.31-1.587 16.5-1.24 16.26-5.627-.25-4.388-.47-8.726-.71-13.113" fill="#ffb9b0" fill-rule="evenodd"/><path d="m2751.45 1079.56s-62.01 7.03-76.32 7.42c-14.31.4-13.57-7.15-13.57-7.15-.72-15.75-3.39-52.76-6.42-65.27-2.75-11.71-3.97-16.016-6.38-27.232-5.33-24.759-5.1-29.439-10.76-59.942l37.06-29.712s3.84 11.39 19.37 11.588c20.76.272 27.28-14.262 27.28-14.262l50.53 33.5 4.76 81.48-6.05 67.1" fill="#fcb900" fill-rule="evenodd"/><path d="m2715.79 856.688a104.206 104.206 0 0 1 -4.37 14.127c-3.28 8.451-8.12 11.473-17.13 11.694l-19.01.443c-4.97.123-10.92.27-14.89-3.096s-3.97-8.992-4.97-13.635a247.297 247.297 0 0 1 -2.7-17.911 263.36 263.36 0 0 1 -1.67-35.403c-.02-1.648.12-3.295.43-4.914.1-.653.38-1.265.82-1.768a3.874 3.874 0 0 1 2.28-.885 197.602 197.602 0 0 1 35.94-2.26c8.46.221 17.37 1.204 24.17 6.338 6.8 5.135 9.93 13.587 12.89 21.547.44 1.277.79 2.997-.33 3.783" fill="#ffb9b0" fill-rule="evenodd"/><path d="m2577 1300.66c.88 5.57 2.1 11.08 3.66 16.49 1.62 4.2 15.33.32 16.23-2.47.91-2.79-4.32-22.68-4.32-22.68" fill="#ed9c80" fill-rule="evenodd"/><path d="m2602.3 1317.99c1.19 4.63 2.7 13.55 2.7 13.55l-13.69 6.15-2.26-2.18a25.564 25.564 0 0 1 -7.65 6.31 56.676 56.676 0 0 1 -13.37 3.79c-12.06 1.32-20.95-1.01-21.66-2.71-2.97-7.14 13.02-9.06 16.19-9.9 7.43-1.99 13.23-7.94 15.15-15.54.7-3.75-.19-4.38 1.84-4.28 1.32.06 2.57.66 3.46 1.67 2.48 2.86 6.46 3.8 9.91 2.33 2.03-.84 3.76-2.3 4.95-4.18 2.31.61 4.06 2.57 4.43 4.99z" fill="#38287c" fill-rule="evenodd"/><path d="m2638.32 1139.63a235.736 235.736 0 0 1 -70.65 1.68c3.05 8.73 10.54 19.92 13.4 32.16 9.42 40.63 12.7 95.21 15.11 128.98 0 0-4.54 8.66-19.03 2.08-21.69-53.37-59.54-161.54-59.15-184.99.45-29.89 75.2-37.12 130-44.54" fill="#453087" fill-rule="evenodd"/><path d="m2733.19 1079.62c17.33 12.56-95.29 59.86-95.29 59.86a187.236 187.236 0 0 1 -36.89 3.52 26.57 26.57 0 0 1 -2.72-6.99c-.67-3.26-.32-6.66-.89-9.9a23.178 23.178 0 0 0 -11.24-15.16 50.817 50.817 0 0 0 -18.37-5.97c-15.23-2.47-41.79-.72-41.79-.72 33.82-24.94 102.99-28.2 135.22-30.26 6.26 10.15 69.52 3.81 71.97 5.62z" fill="#38287c" fill-rule="evenodd"/><path d="m2613.02 1328.85c-.1 5.76.16 11.52.78 17.24.89 4.51 15.3 3.05 16.67.48s-.35-23.57-.35-23.57" fill="#ed9c80" fill-rule="evenodd"/><path d="m2634.63 1350.66c.39 4.61.37 13.32.37 13.32l-14.68 3.49-1.86-2.44a25.812 25.812 0 0 1 -8.62 4.64c-4.54.97-9.17 1.42-13.81 1.32-12.12-.81-20.48-4.54-20.9-6.27-1.73-7.32 14.35-6.37 17.65-6.64 7.67-.64 14.39-5.3 17.58-12.2 1.31-3.44.54-4.22 2.48-3.76 1.29.28 2.42 1.07 3.12 2.17 1.95 3.1 5.68 4.66 9.3 3.88 2.13-.44 4.06-1.53 5.53-3.12 2.33.91 3.86 3.14 3.84 5.61z" fill="#38287c" fill-rule="evenodd"/><path d="m2770.65 1077a689.35 689.35 0 0 1 -75.91 2.48c-9.69 0-83.01 13.84-90.01 26.34-11.54 20.56 7.52 140.7 5.77 226.74 0 0 8.78 7.44 24.33.44 3.85-42.16 28.67-141.94 11.57-188.49 40.4 5.41 73.02 10.76 109.75-1.49 8.6-2.85 15.04-8.98 18.88-20.16 3.85-11.19 1.88-35.82-4.38-45.86z" fill="#453087" fill-rule="evenodd"/><path d="m2675 898s-8.82.493-10.55.641a80.204 80.204 0 0 0 -21.81 4.12c-10 3.7-17.07 12.999-25.22 20.251s-48.48 45.707-56.07 47.113c-7.58 1.406-74.1-44.129-74.1-44.129l-16.25 16.231s72.22 66.603 93.86 66.773c10.45 0 68.12-30.266 86.58-41.933z" fill="#fcb900" fill-rule="evenodd"/><path d="m2565.16 996.181c-14.86.839-83.09-51.129-91.02-57.181l-3.14 3.137s72.4 66.693 94.09 66.863c8.74 0 50.31-21.02 74.62-34.876l6.29-3.631-3.76-22.453s-61.28 47.252-77.08 48.141z" fill="#fcb900" fill-rule="evenodd"/><path d="m2495.53 1091h165.47l-29.66-96.979a12.718 12.718 0 0 0 -12.14-9.021h-144.95c-4.56.005-8.26 3.712-8.25 8.285 0 .82.12 1.636.36 2.422z" fill="#a4a4f7" fill-rule="evenodd"/><path d="m2493.95 1091h163.05l-29.68-96.979a12.76 12.76 0 0 0 -12.17-9.021h-144.9c-4.56.005-8.26 3.712-8.25 8.285 0 .82.12 1.636.36 2.422l28.42 92.913a3.4 3.4 0 0 0 3.17 2.38z" fill="#7a74d1" fill-rule="evenodd"/><path d="m2748.41 944.474c-8.28 37.389-9.75 66.646-12.09 93.366-29.09 11.26-40.93 28.01-69.4 40.66 0 0-22.39-3.72-24.87 4.74-1.35 4.96 26.31 8.76 26.31 8.76 26.38.12 95.97-19.1 100.67-20.4 4.7-1.29 18.4-89.513 18.97-137.399 0-6.798-.17-14.191-4.43-19.501a25.836 25.836 0 0 0 -8.6-6.327c-18.55-9.453-32.33-12.058-53.09-13.373" fill="#ce4a30" fill-rule="evenodd"/><path d="m2670.62 1084.16c-3.06-3.72-8.62-4.26-13.53-4.15-3.63.1-7.26.38-10.86.85-1.65.22-3.52.59-3.72 2.36-.19 1.77 7.97 0 12.15 1.2-8.36.68-16.75.9-25.14.66-.98-.1-1.96-.01-2.89.29-.95.32-1.6 1.17-1.63 2.14.13.73.53 1.39 1.14 1.84 2.5 1.89 5.5 3.07 8.65 3.4 12.83 2.17 26.31 1.79 38.21-3.28" fill="#ffb9b0" fill-rule="evenodd"/><path d="m2746.6 943.755c-.67 39.927-3.53 58.205-2.73 98.155-20.11 4.27-47.91 26.98-76.34 39.68-.94 3.46-.62 7.15.92 10.39 2.18.79 95.94-22 103.4-28.84 6.71-6.18 15.58-81.02 16.15-128.957 0-6.795-.17-14.185-4.42-19.492a26.03 26.03 0 0 0 -8.6-6.324c-18.54-9.448-32.31-12.052-53.06-13.367" fill="#fcb900" fill-rule="evenodd"/><path d="m2577.98 1039.5c.59 8.56-9.43 15.5-22.39 15.5s-23.97-6.94-24.57-15.5c-.59-8.56 9.45-15.5 22.42-15.5 12.96 0 23.94 6.86 24.54 15.5z" fill="none" stroke="#a4a4f7" stroke-miterlimit="8" stroke-opacity=".451" stroke-width="2.475"/><path d="m2554.47 1030.84c8.25.32 14.79 4.4 14.61 9.11-.19 4.72-7.02 8.28-15.27 7.95-8.25-.32-14.79-4.4-14.61-9.11s7.02-8.27 15.27-7.95z" fill="#a4a4f7" fill-rule="evenodd"/><path d="m2686.78 831.511c-.3-1.461-3.61-1.753-6.92-1.339-3.32.414-12.17 1.485-14 2.897-1.84 1.412-1.71 2.434-2.68 2.434-.96 0-1.03-.876-3.14-1.801-2.1-.925-7.22-.268-10.56.146s-6.48 1.217-6.48 2.824a8.482 8.482 0 0 0 1.34 4.527c.66.414.66.341 3.29 6.232.93 3.318 4.42 5.261 7.79 4.341.06-.017.13-.037.19-.056 5.47-1.169 5.82-7.303 6.24-9.859s.81-2.946 1.66-3.043c.84-.098 1.38.17 2.47 2.434s1.8 7.863 7.42 8.179c7.42.39 10.49-2.069 11.5-6.694 1.39-6.281 1.06-6.281 1.63-6.865 1.84.01 3.66.166 5.47.463l-.12-1.875a43.137 43.137 0 0 1 -5.1-2.945zm-26.61 12.61c.2 3.24-2.14 6.1-5.4 6.597-3.36.414-4.94-1.363-6.72-5.599a10.71 10.71 0 0 1 -1.09-7.62c.57-1.022 2.47-.998 6.55-1.241 4.08-.244 5.57-.365 6.26 1.461.45 2.103.58 4.259.4 6.402zm23.89-3.457c-.69 4.552-2.47 6.743-6.98 7.303-6.53.779-7.79-1.753-8.75-4.869a22.067 22.067 0 0 1 -1.21-6.329c.19-1.899 1.56-2.167 5.66-2.921 4.11-.755 9.62-1.704 10.41-.876 1.25 2.37 1.55 5.111.87 7.692z" fill="#483a99" fill-rule="evenodd"/><path d="m2731.49 821.114a74.01 74.01 0 0 0 -1.82-9.908 31.371 31.371 0 0 0 -15.29-20.064 48.912 48.912 0 0 0 -34.61-3.443c-6.33 1.759-8.68 5.103-11.94 4.954a35.977 35.977 0 0 1 -8.86-2.922c-24.72-8.893-20.59 15.382-17.95 22.045 1.16 2.948 6.78 4.954 7.42 6.316.64 1.363.67 7.233 1.14 9.908a5.246 5.246 0 0 0 3.09 3.666s0-7.827.25-8.867a9.895 9.895 0 0 1 3.65-7.431c2.77-1.42 5.8-2.262 8.91-2.477a67.103 67.103 0 0 1 18.22 3.022c4.62 3.963 5.81 13.029 7.12 18.354.59 2.477 1.24 4.186 2.25 4.137.77-7.431 3.29-7.431 7.69-4.954 2.32 1.337 3.64 5.994 3.71 9.908 0 4.656-2.47 9.908-7.42 10.849-1.75.372 3.51 10.379 5.96 12.881a12.53 12.53 0 0 0 2.47 2.254c.94.51 1.95.884 2.99 1.114l3.54.967c1.58.581 3.29.728 4.95.42 2.59-.743 3.98-3.517 5.14-5.969 1.95-4.013 4.18-7.902 5.76-12.088a72.397 72.397 0 0 0 3.63-32.672z" fill="#483a99" fill-rule="evenodd"/><path d="m3177.52 1188h-313.52l37.53-27.81v-135.69c0-11.32 9.17-20.5 20.48-20.5h255.51c11.31 0 20.48 9.18 20.48 20.5v143c0 11.32-9.17 20.5-20.48 20.5z" fill="#d5d2ff" fill-rule="evenodd"/><path d="m3027 1031h144v14h-144zm0 20h144v14h-144zm0 21h144v14h-144zm0 20h144v13h-144zm0 24h100v13h-100z" fill="#fff" fill-opacity=".451" fill-rule="evenodd"/><path d="m3007.61 1031h8.39v105h-90v-105h8.39z" fill="#d50b7e" fill-rule="evenodd"/><path d="m2926 1149h90v12h-90z" fill="#fff" fill-opacity=".451" fill-rule="evenodd"/><path d="m2979.69 1099h-32.4a4.068 4.068 0 0 1 -3.91-2.99l-6.24-22.92c-.58-2.15.7-4.37 2.86-4.95.34-.09.69-.14 1.05-.14h44.9c2.24.01 4.05 1.82 4.05 4.04 0 .36-.05.71-.14 1.05l-6.24 22.92a4.017 4.017 0 0 1 -3.93 2.99z" fill="#fff" fill-rule="evenodd"/><path d="m2985.91 1104h-39.1c-.45 0-.81-.37-.81-.82s.36-.81.81-.81h38.49l13.59-47.78c.1-.35.42-.59.79-.59h8.51c.45 0 .81.37.81.82s-.36.81-.81.81h-7.92l-13.6 47.85a.8.8 0 0 1 -.76.52zm-32.91 7c0 2.76-2.24 5-5 5s-5-2.24-5-5 2.24-5 5-5 5 2.24 5 5zm34 0c0 2.76-2.01 5-4.5 5-2.48 0-4.5-2.24-4.5-5s2.02-5 4.5-5c2.49 0 4.5 2.24 4.5 5z" fill="#fff" fill-rule="evenodd"/><path d="m2013.07 999h398.93l-47.79-35.417v-218.496c0-14.407-11.66-26.087-26.05-26.087h-325.09c-14.38-.015-26.05 11.655-26.07 26.062v227.727c-.05 14.423 11.57 26.157 25.97 26.211z" fill="#d5d2ff" fill-rule="evenodd"/><path d="m2204 777h-183v-18h183zm0 26h-183v-18h183zm0 26h-183v-17h183zm0 25h-183v-17h183zm0 26h-183v-18h183zm0 46h-183v-17h183zm129 28h-312v-18h312z" fill="#fff" fill-rule="evenodd"/><path d="m2228.7 893h-10.7v-134h115v134h-10.7z" fill="#d50b7e" fill-rule="evenodd"/><path d="m2333 925h-115v-15h115z" fill="#fff" fill-opacity=".451" fill-rule="evenodd"/><path d="m2264.14 846h41.71a5.235 5.235 0 0 0 4.96-3.83l8.01-29.647a5.166 5.166 0 0 0 -3.64-6.34c-.43-.119-.88-.18-1.32-.183h-57.73c-2.87.04-5.17 2.394-5.13 5.26.01.428.06.85.17 1.263l8.04 29.647a5.224 5.224 0 0 0 4.93 3.83z" fill="#fff" fill-rule="evenodd"/><path d="m2256.76 853h50.2c.56.015 1.03-.433 1.04-.996v-.025c0-.577-.47-1.045-1.04-1.045h-49.48l-17.35-61.175c-.14-.44-.54-.744-1-.746h-10.93c-.57-.09-1.1.301-1.19.871-.08.572.3 1.105.87 1.194.11.018.22.018.32 0h10.14l17.48 61.175c.12.428.5.729.94.747zm42.24 8c0 3.313 2.69 6 6 6s6-2.687 6-6c0-3.314-2.69-6-6-6s-6 2.686-6 6zm-44 0c0 3.313 2.69 6 6 6s6-2.687 6-6c0-3.314-2.69-6-6-6s-6 2.686-6 6z" fill="#fff" fill-rule="evenodd"/><path d="m3017 2133.5c0 10.22-78.8 18.5-176 18.5s-176-8.28-176-18.5 78.8-18.5 176-18.5 176 8.28 176 18.5z" fill="#eae6ff" fill-rule="evenodd"/><path d="m2746.06 2107c-1.5 2.84-8.61 9.41-18.49 13.73-9.89 4.33-30.77 6.35-19.14 10.17 11.62 3.81 25.13 1.49 32 .41 7.16-.97 14.38-1.39 21.61-1.27 10.65 0 10.75-.71 9.31-12.53-2-16.25-20.51-19.69-25.29-10.51zm192.18-5.98c-.58 3.32 4.11 13.28-4.27 20.62s-27.4 15.02-14.75 15.32c10.68.36 21.31-1.62 31.14-5.79 6.39-3.17 1.28-8.13 9.24-10.63 10.47-3.32 8.31-11 2.85-15.76-7-15.69-22.31-14.41-24.21-3.76z" fill="#9aa3f4" fill-rule="evenodd"/><path d="m2897.69 1766s25.18-74.49-46.21-136c0 0-38.28 15.35-68.98 17.21-24.14 1.46-36.38-.8-36.38-.8s-2.05 66.28-2.12 101.98zm-159.65 122.83c-1.39-33.28 34.69-28.92 48-4.07 27.51 51.41-10.16 169.79-15.14 225.85-5.16 2.01-13.83 3.57-19.03 1.19-2.45-1.4-4.4-3.55-5.55-6.12.89-68.9-6.79-181.28-8.28-216.85z" fill="#2f287b" fill-rule="evenodd"/><path d="m2784.68 1894.07c-4.16 13.58-50.2 27.88-46.46-21.58 1.66-21.93 6.06-143.09 6.91-154.76.84-11.67 2.79-28.75 8.44-30.88 28.21-10.65 78.09 26.25 70.69 70.11-4.95 29.31-30.99 108.91-39.58 137.11zm72.4 18.72c-11.12-31.36 24.95-36.9 45.41-17.6 47.9 45.24 49.75 151.81 61.51 206.8a41.963 41.963 0 0 1 -20.95 6.01 7.443 7.443 0 0 1 -5.71-2.92c-19.54-65.93-68.4-158.78-80.26-192.29z" fill="#2f287b" fill-rule="evenodd"/><path d="m2903.97 1903.03c1.26 14.12-37 43.34-52-3.83-6.69-20.91-35.25-144.51-38.83-155.61-3.58-11.11-2.47-34.09 1.82-38.17 22.06-20.43 71.84-2.48 81.41 40.89 6.37 28.96 5.01 127.53 7.6 156.72z" fill="#2f287b" fill-rule="evenodd"/><path d="m2707 1361.38c1.29-1.4 2.6-2.8 3.8-4.29 9.1-11.72 10.42-22.09 18.87-35.68 1.79-4.06 3.84-8 6.13-11.8 3.85-4.57 8.49-8.4 13.7-11.29 3.94-2.07.54 6.65.54 6.65s3.35-4.98 6.6-4.53c1.24.15 1.46 7.48 1.49 8.87a62.69 62.69 0 0 1 -6.92 29.5 15.695 15.695 0 0 0 -2.48 6.71c2.99-.46 5.76-1.83 7.96-3.92 2.48-1.79 5.46-3.41 8.31-2.49-.43 1.21-.97 2.38-1.61 3.49-3.6 6.78-7.62 14.01-14.54 17.33-4.14 1.97-8.91 2.32-12.95 4.46-7.29 3.89-10.84 12.92-18.23 16.61" fill="#f2a181" fill-rule="evenodd"/><path d="m2774.48 1311.54c.82.34 1.49.62 1.49.62l-22.33 53.36s-.66-.28-1.48-.62l-26.01-10.88c-.82-.34-1.48-.62-1.48-.62l22.32-53.36s.67.28 1.49.62z" fill="#5e5dbb" fill-rule="evenodd"/><path d="m2748.9 1304.23 24.3 10.17-19.93 47.62-24.29-10.16z" fill="#b4b4db" fill-rule="evenodd"/><path d="m2773 1408.43c-11.85.75-23.6 2.75-35.04 5.93-24.94 7.42-33.51 19.05-42.14 23.85 16.73-21.3 35.39-66.42 35.39-66.42s-22.49-18.5-25.08-14.12c-2.6 4.38-97.03 115.06-94.06 132.97 1.21 7.42 12.13 14.69 21.8 14.35 26.78-.92 57.87-10.66 90.47-21.35 14.33-4.67 18.76 5.44 18.76 5.44" fill="#fff" fill-rule="evenodd"/><path d="m2696.17 1438.4s-11.93 23.82-15.52 25.37c-3.6 1.55 8.7-4.91 15.42-11.84 6.73-6.93 15.93-24.93 15.93-24.93-3.52 1.38-15.83 11.4-15.83 11.4z" fill="#fff" fill-rule="evenodd"/><path d="m2733.39 1322a5.2 5.2 0 0 1 1.73 3.71c.84 5.24 1.66 10.8-.48 15.7a22.655 22.655 0 0 1 -6.6 8.03 50.889 50.889 0 0 1 -10.04 6.56" fill="#f2a181" fill-rule="evenodd"/><path d="m2773.96 1282c-6.3 1.81-9.62 9.92-11.74 15.58a86.779 86.779 0 0 0 -4.69 21.06c-.96 4.97-.61 10.1 1 14.88 1.11 2.31 2.49 4.46 4.11 6.43.81 1.2 1.81 2.27 2.95 3.15 1.18.87 2.69 1.13 4.09.69 1.96-.77 2.75-3.07 3.29-5.11 3.62-13.29 7.58-26.74 15.03-38.3" fill="#170d54" fill-rule="evenodd"/><path d="m2767 1323.78c0-4.21-4.69-6.96-8.66-2.48-3.29 3.61-4.15 10.5-4.33 15.58-.23 6.09 4.63 7.28 8.61 8.12" fill="#f2a181" fill-rule="evenodd"/><path d="m2724.85 1429.7c7.8-8.94 32.55-23.69 65.64-22.65 22.77.72 84.84 4.48 91.77 19.8 3.54 7.8 7.43 87.62 2.18 115.12-3.91 20.7-13.91 71.96-13.91 84.33 0 12.38 6.66 17.68 3.57 21.26-6.96 8.05-54.46 11.44-76.73 11.44-19.8 0-53.63-5.3-55.34-11.66-2.48-9.43 3.86-9.08 4.73-18.96.86-9.87 3.39-74.25-.25-84.62-6.59-18.99-9.9-49.93-15-63.96-4.04-10.72-14.53-41.16-6.66-50.1z" fill="#fff" fill-rule="evenodd"/><path d="m2866.88 1494.48c2.48 4.95 18.45 30.73 18.45 30.73l.67 3.09c-.3 4.62-.85 9.22-1.64 13.78-3.92 20.68-13.94 71.91-13.94 84.28s6.38 17.31 3.57 21.25c-5.5 7.42-95.22 24.09-90.83 3.38.42-1.85 75.33-58.87 75.73-60.77 3.45-16.35 6.47-28.15 7.99-40.08 3.64-28.72-2.39-60.45 0-55.66z" fill="#fff" fill-rule="evenodd"/><path d="m2772.41 1379.15s-.22 25.66-1.26 26.69a42.453 42.453 0 0 1 -6.15 3.42s3.64 22.32 9.25 20.65c5.61-1.66 42.75-20.28 42.75-20.28s-5.27-2.13-5.27-4.21 4.93-42.42 4.93-42.42" fill="#ffbe9d" fill-rule="evenodd"/><path d="m2798.3 1285c-5.47 1.48-19.88-1.48-23.83 4.43s-7.45 20.17-8.94 24.11c-2.75 7.97-5.1 16.07-7.03 24.27-2.81 10.54-7.45 29.82 2.95 38.64 2.15 2.18 4.96 3.59 8 4.01 4.97.89 9.82 1.9 14.74 2.76 7.62 1.35 16.07 2.95 23.65.52 10.11-3.28 15.65-17.07 18.25-26.42l14.91-53.63z" fill="#ffbe9d" fill-rule="evenodd"/><path d="m2771.39 1440s-2.21 101.59-6.39 163.4l15.03 20.6 10.37-25.81a778.948 778.948 0 0 0 -9.8-157.47z" fill="#3b2e7a" fill-rule="evenodd"/><path d="m2768 1431.46.35 1.39c.68 2.61 1.73 5.12 3.13 7.43l9.32.72s6.32-3.27 7.16-6.76c.83-3.49-10.39-9.24-10.39-9.24l-1.36.52a20.422 20.422 0 0 0 -8.11 5.72z" fill="#3b2e7a" fill-rule="evenodd"/><path d="m2812.48 1399c4.17 2.8 7.74 6.39 10.52 10.54-4.75 10.74-15.47 29.77-27.29 38.46a52.743 52.743 0 0 0 -18.71-23.13s32.18-5.65 35.48-25.87zm-35.48 26.29c-7.5 3.72-13.64 9.94-17.5 17.71a94.498 94.498 0 0 1 2.38-32.88s7.15-9.79 9.69-10.12c-1.02 12.65 5.43 25.29 5.43 25.29z" fill="#fff" fill-rule="evenodd"/><path d="m2778.8 1651c-11.31 1.74-15.49 6.03-21.86 12.46-.58.46-.92 1.17-.94 1.92.15.93 1.21 1.33 2.1 1.48 5.26.86 6.1-2.52 11.02-4.66 3.31-1.41 6.59-2.88 9.88-4.34" fill="#f2a181" fill-rule="evenodd"/><path d="m2740.37 1568.49 40.24 128.63a4.608 4.608 0 0 1 -4.27 6.46l-83.93 7.42a7.78 7.78 0 0 1 -7.02-5.42l-43.24-126.75c-1.09-3.46 3.9-8.38 7.27-8.41l83.93-7.42c3.27.17 6.08 2.37 7.02 5.49z" fill="#e9e6ff" fill-rule="evenodd"/><path d="m2737.82 1572.4 39.79 126.71c1.03 2.32-.03 5.04-2.37 6.07-.6.26-1.25.4-1.91.39l-84.09 7.43a7.855 7.855 0 0 1 -7.06-5.42l-39.78-126.71a4.575 4.575 0 0 1 2.34-6.05c.6-.26 1.25-.4 1.91-.39l84.11-7.43c3.26.14 6.08 2.3 7.06 5.4z" fill="#fcb900" fill-rule="evenodd"/><path d="m2671 1568.29 2.96 10.71 39.04-3.34-3.21-10.66z" fill="#fff" fill-rule="evenodd"/><path d="m2678.49 1557.57c.81 2.45 3.89 12.43 3.89 12.43l18.62-1.72-3.9-12.43c-1.66-5.35-6.69-8.96-12.32-8.85-5.18.47-7.97 5.2-6.29 10.57zm4.12-.27c-.94-2.15.05-4.65 2.21-5.58.42-.18.86-.29 1.31-.33 3.15-.08 5.98 1.92 6.93 4.91.94 2.16-.07 4.67-2.24 5.6-.41.18-.84.29-1.29.33a7.092 7.092 0 0 1 -6.92-4.93z" fill="#453087" fill-rule="evenodd"/><path d="m2810.19 1642c-8.74 1.84-32 8.89-34.46 9.96a98.352 98.352 0 0 0 -14.77 11.08c-8.77 8.89-4.29 13.05-7.73 25.11-.18.62-.25 1.27-.23 1.91 0 1.25 1.68 2.34 3.38 1.15.91 1.57 3.62.6 4.92-1.1 0 1.22 1.65 1.97 4.33.48 1.67-1.05 3.2-2.31 4.53-3.76 2.84-2.44 6.04-4.41 9.48-5.83 3.18-1.2 6.26-2.63 9.23-4.28 3.55-2.35 9.85-2.92 12.98-13.13.66-2.27 2.88-3.63 4.92-4.98l14.23-9.04" fill="#ffbe9d" fill-rule="evenodd"/><path d="m2864.38 1477.65c3.76 13.24 19.31 105.14 19.31 105.14l-87.69 63.16 7.28 19.05s104.84-34.99 113.09-58.91 7.87-132-21.25-169.93c-9.27-12.06-27.83-18.16-27.83-18.16" fill="#fff" fill-rule="evenodd"/><path d="m2775 1676-3.65 2.84c-1.24.92-2.35 1.99-3.32 3.18-1.98 2.41-3.8 4.81-6.03 6.98l2.7-3.73c.93-1.23 1.84-2.41 2.89-3.64a17.01 17.01 0 0 1 3.51-3.1c1.25-.96 2.58-1.78 3.9-2.53zm-5-6a19.42 19.42 0 0 0 -4.01 4.19 25.888 25.888 0 0 0 -3.16 4.76c-1.65 3.5-3.6 6.86-5.83 10.05 1.72-3.48 3.66-6.81 5.28-10.29.91-1.71 2.04-3.31 3.36-4.76a17.68 17.68 0 0 1 4.36-3.95zm-5-5c-1.08 1.56-2.44 2.95-3.62 4.41a16.644 16.644 0 0 0 -2.71 4.87 90.313 90.313 0 0 0 -3.67 10.72c.51-3.78 1.57-7.46 3.15-10.94.67-1.79 1.68-3.45 2.96-4.87 1.25-1.46 2.72-2.68 3.89-4.19z" fill="#f2a181" fill-rule="evenodd"/><path d="m2831.16 1348.4c-3.39-2.02-5.99-4.16-8.21-.85-1.18 1.74-1.89 4.15-3.88 4.75-2.14.33-4.15-1.11-4.55-3.26-.31-2.08-.05-4.21.74-6.16 1.38-4.45 2.73-8.91 4.1-13.33 1.38-4.43 2.66-9.13.96-13.36-.95-2.1-2.38-3.95-4.18-5.39-5.9-4.59-12.85-7.6-20.2-8.75a215.75 215.75 0 0 1 -21.78-4.51 23.64 23.64 0 0 1 -8.28-4.22 18.21 18.21 0 0 1 -5.88-13.55c.08-5.12 1.55-10.12 4.25-14.45.55 1.73 1.28 3.4 2.19 4.97.89-2.34 2.24-4.48 3.96-6.29 2.11 11.94 51.77 7.96 63.37 13.2 8.04 3.66 14.75 6.05 14.45 19.23.31.83.86 1.56 1.58 2.08 7.12 6.64 10.2 14.7 11.11 26.66 1.08 14.62-7.38 30.46-15.59 42.55a27.613 27.613 0 0 1 -6.14 7.46c-3.38 2.31-7.5 3.26-11.53 2.63-3.59-.69-10.65-.37-10.72-4.07 0-2.64 5.53-7.46 7.08-9.48" fill="#3b2e7a" fill-rule="evenodd"/><path d="m2818.11 1362.09c-.31 1.58.03 3.22.94 4.52 1.63 1.46 3.92 1.8 5.88.87 5.24-2.13 8.99-7.02 9.83-12.83 1.19-6.53-2.18-13.07-7.91-11.38-3.38 1.37-5.56 4.82-5.42 8.6" fill="#ffbe9d" fill-rule="evenodd"/><path d="m2772.22 1381 15.78 2.96c-4.33 4.11-10.09 6.28-16 6.02" fill="#f2a181" fill-rule="evenodd"/><path d="m1609 1104.33 22 10.67-11-26" fill="#d50b7e" fill-rule="evenodd"/><path d="m1542 1070c0 23.73 20.38 43 45.49 43s45.51-19.34 45.51-43-20.35-43-45.49-43c-25.13 0-45.51 19.27-45.51 43z" fill="#d50b7e" fill-rule="evenodd"/><path d="m1577 1056.2v30.6a3.218 3.218 0 0 0 3.24 3.2c.56 0 1.11-.15 1.59-.43l26.56-15.3a3.193 3.193 0 0 0 0-5.54l-26.56-15.3a3.222 3.222 0 0 0 -4.83 2.77z" fill="#fefefe" fill-rule="evenodd"/><path d="m3095 1429.92-21 11.08 10.5-27" fill="#ef15b1" fill-rule="evenodd"/><path d="m3162 1395.99c0 23.76-20.37 43.01-45.48 43.01-25.1 0-45.52-19.25-45.52-43.01 0-23.77 20.35-42.99 45.48-42.99 25.12 0 45.52 19.25 45.52 42.99z" fill="#ef15b1" fill-rule="evenodd"/><path d="m3108.42 1416.88c9.84.15 19.67.27 28.82-.32 2.88-.17 5.34-4.47 1.87-5.83 1.53-.5 2.8-1.55 3.59-2.94.61-1.47-.08-3.16-1.55-3.76-.06-.03-.13-.06-.19-.08 3.41.81 4.74-4.3 2.09-5.95a7.335 7.335 0 0 0 2.87-4.35c.35-1.78-.48-3.59-2.06-4.49a7.922 7.922 0 0 0 -3.57-.57h-12.3c1.11-6.04 1.43-12.6-1.82-17.91-.98-1.6-3.61-3.52-5.7-2.29s-1.4 4.03-1.3 5.83c.2 7.84-4.15 15.08-11.17 18.6 0 0 .52 15.9.42 24.06zm-18.42-24.88h15v25h-15z" fill="#fefefe" fill-rule="evenodd"/><path d="m2407.94 1058 16.06-17-22 4.22" fill="#3939d3" fill-rule="evenodd"/><path d="m2350 1062c0 17.1 14.76 31 32.99 31s33.01-13.9 33.01-31-14.88-31-33.01-31-32.99 13.87-32.99 31z" fill="#3939d3" fill-rule="evenodd"/><path d="m2376.18 1076.89c6.72.13 13.52.23 19.71-.22 1.97-.12 3.67-3.29 1.28-4.29a4.476 4.476 0 0 0 2.57-2.14c.47-1.09-.05-2.35-1.17-2.81-.01-.01-.01-.01-.02-.01 2.34.57 3.26-3.19 1.44-4.39a5.52 5.52 0 0 0 1.95-3.21c.25-1.27-.3-2.57-1.41-3.29-.75-.34-1.58-.49-2.41-.43h-8.39c1.09-4.4.65-9.02-1.23-13.16-.67-1.2-2.57-2.49-3.9-1.69-1.34.79-.98 2.96-.9 4.28.22 5.6-2.73 10.86-7.7 13.69 0 0 .26 11.69.18 17.67zm-12.18-17.89h10v18h-10z" fill="#fefefe" fill-rule="evenodd"/><path d="m2561.5 830.724c16.64-21.013 13.12-51.552-7.87-68.213-20.99-16.662-51.49-13.133-68.13 7.879s-13.12 51.552 7.87 68.213c16.5 13.098 39.55 14.04 57.06 2.334l18.87 10.063z" fill="#2f287b" fill-rule="evenodd"/><path d="m2502.54 787.357c4.75-4.546 12.35-4.465 17 .182 0 .005.01.01.01.015l3.06 3.047 3.16-3.047c4.88-4.428 12.5-4.146 17.02.631a11.63 11.63 0 0 1 -.13 16.177l-11.72 11.278c-4.75 4.546-12.36 4.47-17.01-.172l-11.51-11.524a11.623 11.623 0 0 1 .12-16.587z" fill="#fff" fill-rule="evenodd"/><path d="m1989 656.5c0 55.504-45 100.5-100.5 100.5s-100.5-44.996-100.5-100.5c0-55.505 45-100.5 100.5-100.5s100.5 44.995 100.5 100.5z" fill="#d50b7e" fill-rule="evenodd"/><path d="m2475 2234c0 55.23-45 100-100.5 100s-100.5-44.77-100.5-100 45-100 100.5-100 100.5 44.77 100.5 100z" fill="#525ebf" fill-rule="evenodd"/><path d="m1471 943.5c0 77.6-62.9 140.5-140.5 140.5s-140.5-62.9-140.5-140.5c0-77.596 62.9-140.5 140.5-140.5s140.5 62.904 140.5 140.5z" fill="#fcb900" fill-rule="evenodd"/><path d="m3073 484c0 79.529-64.47 144-144 144s-144-64.471-144-144 64.47-144 144-144 144 64.471 144 144z" fill="#2f287b" fill-rule="evenodd"/><path d="m3016.95 450.161c-.04-8.015-6.56-14.499-14.6-14.526h-.79v-31.899c0-4.816-3.91-8.721-8.74-8.736-1.41.003-2.8.349-4.05 1.015l-51.84 27.098-26.17 2.895-22.34 2.475c-4.59.299-8.17 4.098-8.17 8.686v26.95c0 4.481 3.42 8.225 7.9 8.636l17.38 2.03v18.981l-24.83 17.026v-4.133h-46.7v63.575h46.7v-6.657h24.83v3.217c.05 6.246 5.18 11.263 11.45 11.206a11.341 11.341 0 0 0 10.89-8.533h7.45c5.3.022 9.63-4.247 9.65-9.535a9.582 9.582 0 0 0 -2.85-6.848 9.503 9.503 0 0 0 .06-13.475l-.06-.061a9.55 9.55 0 0 0 .02-13.544c-.01-.005-.01-.013-.02-.018a9.55 9.55 0 0 0 -.02-13.544 9.609 9.609 0 0 0 -6.01-2.764c0-.198.2-.396.27-.594 1.58-4.806-.74-10.025-5.36-12.101l-2.81-1.634v-17.991l8.57.941 51.76 27.098c1.25.645 2.64.985 4.05.99 4.82-.013 8.73-3.905 8.74-8.712v-31.849h1.04c8.08 0 14.64-6.521 14.65-14.576zm-141.96 64.343v49.964h-35.35v-52.118h35.35zm36.3-39.125 11.44 1.261v15.344c-3.82-2.178-6.7-3.91-11.44-1.881zm-22.62-8.291a3.077 3.077 0 0 1 -2.91-3.019v-26.826a3.126 3.126 0 0 1 3.03-3.068l19.42-2.228v37.517l-19.54-2.252zm28.33 105.324c-3.17-.013-5.73-2.564-5.74-5.717v-52.439l4.4-4.009 3.4 1.534a9.51 9.51 0 0 0 -3.58 7.425 10.116 10.116 0 0 0 2.83 6.78 10.118 10.118 0 0 0 -2.83 6.781 9.9 9.9 0 0 0 2.83 6.781c-3.75 3.717-3.78 9.765-.05 13.509.02.018.04.035.05.052-.47.53-.91 1.091-1.31 1.683-2.84 4.437-1.53 10.327 2.92 13.155.73.461 1.52.822 2.34 1.075a5.79 5.79 0 0 1 -5.29 3.489zm18.49-8.687h-10.35a3.997 3.997 0 0 1 -3.95-3.34v-.619c.01-2.18 1.79-3.947 3.97-3.959h10.36c2.19 0 3.97 1.771 3.97 3.959a3.965 3.965 0 0 1 -3.97 3.959zm0-13.561h-10.35a3.966 3.966 0 0 1 -3.97-3.959c0-2.188 1.78-3.96 3.97-3.96h10.35c2.2 0 3.98 1.772 3.98 3.96 0 2.187-1.78 3.959-3.98 3.959zm0-13.537h-10.35a3.965 3.965 0 0 1 -3.97-3.959c0-2.188 1.78-3.96 3.97-3.96h10.35c2.2 0 3.98 1.772 3.98 3.96s-1.78 3.959-3.98 3.959zm0-21.48c2.2 0 3.98 1.772 3.98 3.96 0 2.187-1.78 3.959-3.98 3.959h-10.35a3.966 3.966 0 0 1 -3.97-3.959c0-2.188 1.78-3.96 3.97-3.96zm-6.97-13.289.32.148c1.95.8 3.01 2.913 2.48 4.95a3.79 3.79 0 0 1 -3.47 2.474l-13.16-6.013-9.16 8.364v46.154h-24.83v-40.313l31.73-21.555.35-.223a4.618 4.618 0 0 1 4.96-.173zm6.45-29.548-6.58-.718-14.52-1.584v-38.679l21.1-2.327zm60.9 25.267a3.1 3.1 0 0 1 -3.13 3.061 3.146 3.146 0 0 1 -1.39-.339l-50.74-26.554v-46.203l50.74-26.553a3.08 3.08 0 0 1 4.52 2.722v94.039zm15.42-46.451c-.01 4.937-4.03 8.934-8.99 8.934h-.79v-18.956h.84c4.96 0 8.98 3.996 8.99 8.933z" fill="#fff" fill-rule="evenodd"/><path d="m2894 437h9v6h-9zm-3 11h12v6h-12zm3 10h9v6h-9zm-30 76h6v5h-6zm0 10h6v5h-6zm0 11h6v5h-6zm108-107h7v5h-7zm-13 0h7v5h-7zm-13 0h7v5h-7z" fill="#fff" fill-rule="evenodd"/><path d="m1325.52 992.036c-27.41-.027-49.61-22.156-49.58-49.423a49.282 49.282 0 0 1 17.42-37.507 2.882 2.882 0 0 0 .36-4.073 2.924 2.924 0 0 0 -4.1-.357c-23.38 19.709-26.28 54.545-6.46 77.806 19.81 23.258 54.83 26.138 78.22 6.431 23.38-19.709 26.28-54.545 6.46-77.806a55.108 55.108 0 0 0 -6.46-6.431 2.935 2.935 0 0 0 -4.09.586 2.88 2.88 0 0 0 .33 3.844c20.84 17.736 23.28 48.916 5.45 69.647-9.41 10.938-23.15 17.248-37.62 17.283z" fill-rule="evenodd"/><path d="m1406.91 925.614h-17.3a64.318 64.318 0 0 0 -6.65-16.235l12.23-12.306a2.943 2.943 0 0 0 0-4.102l-19.77-20.089a2.862 2.862 0 0 0 -4.06-.025c-.01.01-.02.018-.02.025l-13.8 13.873a2.923 2.923 0 0 0 .31 4.102c1.08.94 2.69.94 3.77 0l11.74-11.834 15.83 15.911-11.77 11.81-.17.273-.23.373c-.51.9-.51 2.009 0 2.909v.174a59.658 59.658 0 0 1 7.69 18.721c0 .224.17.448.27.671.1.187.21.363.35.523l.27.298c.17.146.37.271.57.373l.32.174c.33.144.68.221 1.04.224h16.69v22.524h-17.46l-.52.199-.47.298-.42.373c-.23.304-.41.639-.54.995v.248a58.4 58.4 0 0 1 -7.69 18.696v.175c-.51.9-.51 2.009 0 2.908l.25.373.17.274 11.77 11.809-15.82 15.911-11.74-11.834-.28-.174-.37-.248a1.987 1.987 0 0 0 -.64-.274h-.37a1.782 1.782 0 0 0 -.72 0h-.39a2.3 2.3 0 0 0 -.69.249h-.18a57.708 57.708 0 0 1 -18.61 7.731h-.22l-.55.22-.44.3a2.96 2.96 0 0 0 -.99 1.97v17.23h-22.75v-16.98a3.02 3.02 0 0 0 -.32-1.07c-.18-.32-.41-.61-.69-.85l-.44-.3-.52-.22h-.23a59.037 59.037 0 0 1 -18.61-7.733h-.17a4.408 4.408 0 0 0 -.7-.273h-.39a3.465 3.465 0 0 0 -.72 0h-.37a3.1 3.1 0 0 0 -.64.298l-.37.224-.27.174-11.75 11.83-15.82-15.907 11.77-11.81c.07-.077.12-.159.17-.248l.23-.373c.52-.908.52-2.026 0-2.934v-.174a58.84 58.84 0 0 1 -7.67-18.721v-.224c-.12-.355-.3-.691-.52-.994a3.585 3.585 0 0 0 -.42-.398l-.66-.398-.57-.223h-17.31v-22.674h16.64c.36.002.71-.075 1.04-.224l.29-.199c.22-.099.41-.226.6-.373l.24-.298c.15-.155.26-.331.35-.522l.3-.671a58.298 58.298 0 0 1 7.69-18.721v-.174c.51-.901.51-2.01 0-2.909l-.25-.373-.17-.274-11.77-11.809 15.84-15.912 11.75 11.834a2.883 2.883 0 0 0 4.08-.308 2.927 2.927 0 0 0 0-3.793l-13.72-13.849a2.863 2.863 0 0 0 -4.06-.025c-.01.01-.02.018-.02.025l-19.98 20.064c-1.13 1.118-1.13 2.946-.02 4.077.01.01.01.018.02.025l12.36 12.306a64.433 64.433 0 0 0 -6.57 16.26h-17.31c-1.59 0-2.89 1.303-2.89 2.909v28.367c-.01.773.3 1.517.84 2.064.54.552 1.28.865 2.05.87h17.31a64.363 64.363 0 0 0 6.65 16.235l-12.36 12.281a2.895 2.895 0 0 0 -.03 4.078c.01.01.02.017.03.025l19.95 20.062a2.903 2.903 0 0 0 4.07 0l12.24-12.43a64.6 64.6 0 0 0 16.17 6.64v17.4c0 .78.31 1.52.86 2.07.55.54 1.29.85 2.06.84h28.2c.76.01 1.49-.3 2.03-.84.55-.55.86-1.29.86-2.07v-17.4c5.66-1.47 11.1-3.72 16.15-6.69l12.36 12.28a2.843 2.843 0 0 0 4.05.03l.03-.03 19.94-20.036a2.921 2.921 0 0 0 .02-4.115c-.01-.002-.01-.008-.02-.013l-12.23-12.431a63.623 63.623 0 0 0 6.57-16.16h17.31a2.923 2.923 0 0 0 2.89-2.933v-27.995c.01-1.593-1.26-2.894-2.84-2.908h-.05z" fill-rule="evenodd"/><path d="m1333 884.65a7.503 7.503 0 0 0 -7.35-7.648c-.05-.002-.1-.002-.15-.002-4.15 0-7.5 3.36-7.5 7.503a7.5 7.5 0 0 0 7.5 7.497c4.08 0 7.42-3.267 7.5-7.35zm-9.3 0a1.725 1.725 0 1 1 3.45.01c0 .22-.04.437-.13.64-.25.652-.87 1.08-1.57 1.075a1.755 1.755 0 0 1 -1.78-1.725z" fill-rule="evenodd"/><path d="m1303.43 953.794a2.943 2.943 0 0 0 2.67 3.194 2.948 2.948 0 0 0 3.21-3.194 15.946 15.946 0 0 1 5.86-12.446 81.67 81.67 0 0 0 8.4 8.414c1.09.916 2.69.916 3.78 0 3-2.597 5.8-5.41 8.38-8.414a15.922 15.922 0 0 1 5.88 12.446c0 1.608 1.32 2.912 2.93 2.912a2.92 2.92 0 0 0 2.93-2.912 21.86 21.86 0 0 0 -8.16-17.001c7.06-9.111 14.69-22.253 14.69-37.113 0-27.381-25.5-49.087-26.57-50.008a2.994 2.994 0 0 0 -3.78 0c-1.08.921-26.65 22.577-26.65 50.008 0 14.935 7.51 28.027 14.69 37.113a22.045 22.045 0 0 0 -8.26 17.026zm22.12-97.899c5.88 5.426 22.7 23.174 22.7 43.785 0 20.61-16.82 38.407-22.7 43.859-5.86-5.427-22.67-23.174-22.67-43.785 0-20.61 16.81-38.408 22.67-43.859zm3.45 114.437v-10.663c-.15-1.617-1.62-2.806-3.28-2.656-1.44.129-2.59 1.245-2.72 2.656v10.663c.15 1.617 1.62 2.805 3.28 2.656 1.44-.13 2.59-1.246 2.72-2.656zm12.99 9.135v-10.361c.13-1.564-.89-2.95-2.26-3.094-1.37-.142-2.59 1.007-2.72 2.571-.01.173-.01.349 0 .523v10.313c.13 1.564 1.35 2.714 2.72 2.569 1.2-.125 2.15-1.205 2.26-2.569zm-27 0v-10.361c.15-1.564-1.07-2.95-2.71-3.094-1.65-.142-3.11 1.007-3.27 2.571-.01.173-.01.349 0 .523v10.313c.16 1.564 1.62 2.714 3.27 2.569 1.43-.125 2.57-1.205 2.71-2.569z" fill-rule="evenodd"/><path d="m2373.63 2181.58h3.5c1.36 0 2.47-1.11 2.47-2.48s-1.11-2.48-2.47-2.48h-3.5c-1.36 0-2.47 1.11-2.47 2.48s1.11 2.48 2.47 2.48zm-6-2.48c0-1.37-1.1-2.48-2.47-2.48h-10.6c-1.37 0-2.47 1.11-2.47 2.48s1.1 2.48 2.47 2.48h10.63c1.33-.01 2.41-1.09 2.44-2.43zm9.67 114.32h-24.2c-1.36 0-2.47 1.11-2.47 2.48s1.11 2.48 2.47 2.48h24.2c1.37 0 2.47-1.11 2.47-2.48s-1.1-2.48-2.47-2.48zm55.44-90.32a2.468 2.468 0 0 0 -3.47-.41c-.77.62-1.1 1.63-.85 2.59l10.88 21.82-37.87 9.92-16.28 8.13c-.97.5-2.1.59-3.13.22a4.025 4.025 0 0 1 -2.47-2.08l-7.92-15.97c-1-2-.24-4.44 1.73-5.5l13.52-7.44 7.2 14.45a2.465 2.465 0 0 0 3.26 1.1 2.494 2.494 0 0 0 1.08-3.25l-7.4-15.05 29.36-22.61 2.66 5.35a2.46 2.46 0 0 0 3.47.41c.77-.62 1.11-1.63.85-2.59l-3.08-6.17a4.061 4.061 0 0 0 -2.72-2.16c-1.18-.27-2.43 0-3.4.74l-14.14 10.91v-17.6c-.01-6.02-4.86-10.9-10.85-10.91h-54.4c-5.99.01-10.85 4.89-10.86 10.91v7.83c-11.98 1.08-20.83 11.71-19.76 23.76.94 10.55 9.26 18.91 19.76 19.86v21.17h-14.8c-2.82 0-5.11 2.3-5.11 5.13v18.77c-.01 2.83 2.26 5.14 5.08 5.16h14.83v17.5c.03 6.02 4.89 10.9 10.88 10.91h54.28c5.99-.01 10.84-4.89 10.85-10.91v-37.19c.62-.14 1.22-.36 1.78-.64a7.942 7.942 0 0 0 4.02-4.69c.69-2.04.53-4.27-.44-6.2l-3.73-7.44 35.9-9.29c1.19-.3 2.18-1.13 2.66-2.26.54-1.11.54-2.41 0-3.52zm-58.5 40.16-4.34 2.19c-1.52.79-3.31.93-4.93.37a6.57 6.57 0 0 1 -3.75-3.25 6.52 6.52 0 0 1 -.35-4.96 6.39 6.39 0 0 1 3.23-3.74l4.32-2.16zm-61.5-35.77c0-9.41 7.59-17.04 16.95-17.04s16.95 7.63 16.95 17.04c0 9.4-7.59 17.03-16.95 17.03s-16.95-7.63-16.95-17.03zm.27 67.31c-.15 0-.27-.12-.27-.27v-18.92a.29.29 0 0 1 .27-.27h41.4c.15-.02.28.1.29.25v18.84c0 .16-.13.3-.29.3h-4.71a3.077 3.077 0 0 0 -3.09 3.05v1.78l-3.53-3.54c-.83-.83-1.96-1.3-3.13-1.29h-26.94zm86.05 22.32c0 3.34-2.69 6.05-6.02 6.05h-54.27c-3.32-.02-6.01-2.72-6.02-6.05v-17.51h7.18l6.78 6.8.17.14c.51.44 1.16.67 1.83.67.44 0 .86-.1 1.26-.29 1-.49 1.64-1.51 1.63-2.63v-4.69h2.96c2.8.02 5.09-2.26 5.1-5.08v-18.97c0-2.83-2.28-5.13-5.1-5.13h-21.81v-21.32c11.91-1.63 20.25-12.64 18.64-24.61-1.32-9.75-8.95-17.41-18.64-18.73v-7.94c0-3.34 2.69-6.04 6.02-6.04h54.27c3.33 0 6.02 2.7 6.02 6.04v21.3l-13.2 10.19-14.8 8.13a8.968 8.968 0 0 0 -4.46 9.72l-4.64 2.33c-5.58 2.86-7.79 9.71-4.95 15.31 1.34 2.65 3.67 4.67 6.48 5.62 2.84.94 5.94.71 8.61-.64l4.69-2.34a8.942 8.942 0 0 0 3.72 2.48c.91.3 1.86.46 2.81.48 1.4 0 2.78-.33 4.02-.97l3.53-1.79 3.97 7.99a8.04 8.04 0 0 0 4.22 3.86v37.64zm6.05-44.14a3.206 3.206 0 0 1 -4.03 2.1c-.84-.27-1.53-.88-1.92-1.67l-3.97-7.99 5.77-2.9 4 7.98c.37.78.42 1.67.15 2.48zm34.81-49.98c.42.82 1.26 1.33 2.17 1.34.38 0 .75-.09 1.09-.25l12.97-6.54a2.49 2.49 0 0 0 1.75-3.04 2.464 2.464 0 0 0 -3.03-1.75c-.32.08-.62.24-.89.45l-12.97 6.52a2.47 2.47 0 0 0 -1.09 3.27zm-3.43-10.61c.63 0 1.22-.24 1.68-.67l10.46-10.14a2.49 2.49 0 0 0 -.57-3.46c-.82-.6-1.93-.62-2.79-.06l-10.46 10.14c-.94.99-.9 2.56.08 3.5.43.42 1 .66 1.6.69zm28.47 18.17a2.461 2.461 0 0 0 -2.83-1.93l-14.27 2.82a2.486 2.486 0 0 0 -1.55 3.14c.3.9 1.09 1.55 2.02 1.67h.47l14.26-2.8a2.474 2.474 0 0 0 1.9-2.85zm-124.84-3.07a3.64 3.64 0 0 0 -1.7-3.1l-10.34-6.55a3.601 3.601 0 0 0 -3.72 0c-1.17.65-1.9 1.88-1.9 3.23v13.09c0 2.02 1.63 3.67 3.65 3.67h.02a3.82 3.82 0 0 0 1.95-.57l10.34-6.52a3.75 3.75 0 0 0 1.7-3.15zm-12.83 4.41v-8.8l6.96 4.39zm14.58 54.79h3.95a2.475 2.475 0 0 0 0-4.95h-3.95c-1.36 0-2.46 1.11-2.46 2.47 0 1.37 1.1 2.48 2.46 2.48zm-8.7-4.95h-13.15c-1.37 0-2.47 1.11-2.47 2.47 0 1.37 1.1 2.48 2.47 2.48h13.15c1.36 0 2.46-1.11 2.46-2.48 0-1.36-1.1-2.47-2.46-2.47z" fill="#fff" fill-rule="evenodd"/></g></svg>